<?xml version="1.0" encoding="UTF-8"?>
<svg width="424.594" height="151.292" version="1.1" viewBox="0 0 112.341 40.0294" xmlns="http://www.w3.org/2000/svg">
 <defs>
  <filter id="a" x="-.14" y="-.14" width="1.28" height="1.28" color-interpolation-filters="sRGB">
   <feTurbulence baseFrequency="0.793 1" numOctaves="4" result="noise-1" type="fractalNoise"/>
   <feTurbulence baseFrequency="0.726 1" numOctaves="3" result="noise-2"/>
   <feDisplacementMap in="noise-1" in2="noise-2" scale="2.5" xChannelSelector="R" yChannelSelector="G"/>
   <feComponentTransfer>
    <feFuncR intercept="0.493" slope="0.493" type="linear"/>
   </feComponentTransfer>
   <feColorMatrix values="1 0 0 0 0 1 0 0 0 0 1 0 0 0 0 0 0 0 0 1"/>
   <feComposite in2="SourceAlpha" operator="in"/>
   <feBlend in2="SourceGraphic" mode="color-burn"/>
   <feColorMatrix result="textured" values="1.1 0 0 0 0 0 1.1 0 0 0 0 0 1.1 0 0 0 0 0 1 0 "/>
   <feTurbulence baseFrequency="0.8" numOctaves="4" result="noise-3"/>
   <feDisplacementMap in="textured" in2="noise-3" scale="0.3" xChannelSelector="R" yChannelSelector="G"/>
  </filter>
 </defs>
 <g transform="translate(3.89964 -30.9961)" shape-rendering="geometricPrecision">
  <g transform="translate(-15.1929 -28.205)">
   <ellipse cx="87.3986" cy="90.5933" rx="15.9961" ry="2.44064" fill="#c8bfc7" filter="url(#a)"/>
   <path d="m99.867 84.728c-0.0739 5.97131-2.84544 7.13178-11.9852 6.72761-11.1467-0.492922-16.1841-0.511591-15.8288-5.49374 0.641494-8.99566 3.8409-13.6336 15.9435-13.6824 7.22146-0.02909 11.9559 5.54948 11.8705 12.4485z" fill="#b2d4d0" filter="url(#a)" stroke="#7bbcba" stroke-width=".785283"/>
   <path d="m80.5766 78.1776c-0.364286 1.1015-0.446945 2.96679-0.624865 4.18638m-2.8082-0.147332c5.49e-4 -0.744276 0.498832-2.78109 0.802096-4.07482" fill="none" filter="url(#a)" stroke="#080808" stroke-linecap="round" stroke-opacity=".95" stroke-width=".609071"/>
  </g>
  <g transform="translate(-15.048 -28.1267)">
   <ellipse cx="109.319" cy="92.8864" rx="11.6016" ry="1.0991" fill="#c8bfc7" filter="url(#a)"/>
   <path d="m119.754 87.3975c-0.091 4.58943-0.38693 6.23773-10.7762 5.73454-8.12493-0.393514-11.1475 0.973494-11.6839-3.98256-0.73709-6.81119 5.05211-11.093 12.0145-10.9888 4.89037 0.07314 10.5567 3.63355 10.4456 9.23687z" fill="#f7dade" filter="url(#a)" stroke="#e0bcbd" stroke-width=".67945"/>
   <path d="m104.173 82.7866c-0.25743 1.02517-0.46221 2.14247-0.64013 3.36206m-2.54869-0.254189c-9.8e-4 -0.759563 0.41835-2.15098 0.7563-3.09784" fill="none" filter="url(#a)" stroke="#080808" stroke-linecap="round" stroke-opacity=".95" stroke-width=".556154"/>
  </g>
  <g transform="translate(-14.9756 -28.2601)">
   <path d="m97.5046 70.3733c-0.37827 3.64943-0.68176 4.4731-10.8342 4.19628-8.13143-0.221717-11.6792 0.267051-11.8417-4.71529-0.151777-4.65364 4.51152-9.70284 11.6795-9.39079 7.59315 0.330552 11.4436 5.59613 10.9965 9.90981z" fill="#cfd5a1" filter="url(#a)" stroke="#afb37f" stroke-width=".6"/>
   <path d="m82.1127 63.4305c-0.226898 1.08623-0.553802 2.09668-0.808048 3.301m-2.21285-0.02521c0.334861-1.0954 0.647333-2.08992 0.970015-3.18944" fill="none" filter="url(#a)" stroke="#080808" stroke-linecap="round" stroke-opacity=".95" stroke-width=".556154"/>
  </g>
  <g transform="translate(-15.2775 -28.041)">
   <ellipse cx="45.8772" cy="90.5455" rx="13.9219" ry="2.21735" fill="#c8bfc7" filter="url(#a)"/>
   <path d="m58.3256 85.1092c-0.05124 5.75522-3.22661 5.82734-12.3738 5.9936-10.8877 0.197903-14.44-1.80727-14.5335-5.62327-0.180698-7.37599 1.2914-13.6133 13.0075-13.6226 8.7314-7e-3 13.9712 5.23012 13.8998 13.2523z" fill="#c9b9a9" filter="url(#a)" stroke="#afa197" stroke-width=".785283"/>
   <path d="m54.5436 79.8552c0.175421 1.05832 0.459763 3.03156 0.43296 4.3375m-2.67867-0.104156c-0.06422-1.04651-0.191993-2.54362-0.255729-4.05323" fill="none" filter="url(#a)" stroke="#080808" stroke-linecap="round" stroke-opacity=".95" stroke-width=".609071"/>
  </g>
  <g transform="translate(-14.6994 -28.0707)">
   <ellipse cx="26.3866" cy="92.5164" rx="12.7616" ry="1.7097" fill="#c8bfc7" filter="url(#a)"/>
   <path d="m38.5198 87.8978c0.111477 3.66729-1.83965 5.25139-10.7732 5.17325-8.49845-0.07434-13.3279-0.832045-13.4904-5.81439-0.151778-4.65364 3.41166-10.4061 13.206-10.3678 6.48032 0.02539 10.9197 6.474 11.0575 11.0089z" fill="#d9d7ca" filter="url(#a)" stroke="#bcb29e" stroke-width=".67945"/>
   <path d="m33.1418 81.748c0.358604 1.51628 0.368172 2.66519 0.43296 4.0322m-2.40389 0.01797c0.02737-1.07704-0.06987-2.23831-0.34732-3.7174" fill="none" filter="url(#a)" stroke="#080808" stroke-linecap="round" stroke-opacity=".95" stroke-width=".609071"/>
  </g>
  <g transform="translate(-15.2698 -28.299)">
   <path d="m63.5099 92.2145-0.26506 0.28046 3.37484 2.34545c-0.498201 0.502663-0.983674 0.974136-1.10624 1.67386-0.054 0.308298 0.312123 1.20136 0.658577 1.43051 0.462546 0.305943 1.42425 0.722128 1.9303 0.827315 0.396333-0.31954 0.533193-1.30636 0.644583-1.87014-0.18075-0.509996-0.341626-0.845594-0.828211-1.27913-0.03936-0.157662 0.118586-0.338621 0.360675-0.415868 0.254567-0.149564 0.342084-0.246806 0.718736-0.335385 0.383988-0.715008 0.291351-1.3736 0.337556-1.92353l-1.07896-0.129529c-0.936312-0.112403-1.00759 0.89878-1.2205 1.52166z" fill="#c8bfc7" filter="url(#a)"/>
   <path d="m63.2949 92.4401-0.213713-0.290037 0.358465-3.05242c0.03663-0.311909-0.08269-0.270501-0.205814-0.275395-0.495109-0.01968-1.04818 0.0059-1.60994 0.06969-0.693464 0.07875-1.87413-0.495143-1.85929-1.03803 0.03961-1.4489 0.912439-2.4228 1.27104-3.10133 0.703939 0.215139 2.11009 1.19258 2.73726 1.64034 0.06264 0.32141-0.220826 1.06229 0.07154 1.10127l0.228977 0.03053c0.155848 0.02078 0.462455-0.935777 0.964327-1.00922 0.921098 0.245811 1.84872 0.968162 2.66572 1.75984-0.496934 0.65468-1.20009 1.19986-2.19295 1.6482-0.521583-0.05758-1.06692-0.611557-1.31498-0.918083-0.07509-0.09279-0.09415-0.04266-0.151567 0.137386-0.209893 0.658146-0.223433 2.2919-0.390574 3.37949-0.151929-0.013-0.248035-0.177949-0.358506-0.08221z" fill="#39aaaa" filter="url(#a)"/>
  </g>
 </g>
</svg>
