<svg width="429.99" height="155.66" viewBox="0 0 113.77 41.19" xmlns="http://www.w3.org/2000/svg">
  <defs>
    <filter id="eyes" x="-.2" y="-.2" width="1.4" height="1.4" color-interpolation-filters="sRGB">
      <feTurbulence baseFrequency=".9" numOctaves="4" result="noise"/>
      <feGaussianBlur stdDeviation=".1" in="SourceGraphic"/>
      <feDisplacementMap in2="noise" scale=".4" xChannelSelector="R" yChannelSelector="G"/>
    </filter>
    <filter id="paper" x="-.14" y="-.14" width="1.28" height="1.28" color-interpolation-filters="sRGB">
      <feTurbulence baseFrequency="0.793 1" numOctaves="4" result="noise-1" type="fractalNoise"/>
      <feTurbulence baseFrequency="0.726 1" numOctaves="3" result="noise-2"/>
      <feDisplacementMap in="noise-1" in2="noise-2" scale="2.5" xChannelSelector="R" yChannelSelector="G"/>
      <feComponentTransfer>
        <feFuncR intercept=".49" slope=".49" type="linear"/>
      </feComponentTransfer>
      <feColorMatrix values="1 0 0 0 0 1 0 0 0 0 1 0 0 0 0 0 0 0 0 1"/>
      <feComposite in2="SourceAlpha" operator="in"/>
      <feBlend in2="SourceGraphic" mode="color-burn"/>
      <feColorMatrix result="textured" values="1.1 0 0 0 0 0 1.1 0 0 0 0 0 1.1 0 0 0 0 0 1 0"/>
      <feTurbulence baseFrequency=".9" numOctaves="4" result="noise-3"/>
      <feDisplacementMap in="textured" in2="noise-3" result="image" scale=".4" xChannelSelector="R" yChannelSelector="G"/>
      <feMorphology in="SourceAlpha" radius=".07" result="clip"/>
      <feComposite in="image" in2="clip" operator="in"/>
    </filter>
  </defs>
  <g transform="translate(-10.4 -58.33)">
    <g fill="#c8bfc7">
      <ellipse cx="87.4" cy="90.59" rx="16" ry="2.44" filter="url(#paper)"/>
      <ellipse cx="109.32" cy="92.89" rx="11.6" ry="1.1" filter="url(#paper)"/>
      <ellipse cx="45.88" cy="90.55" rx="13.92" ry="2.22" filter="url(#paper)"/>
      <ellipse cx="26.39" cy="92.52" rx="12.76" ry="1.71" filter="url(#paper)"/>
      <path d="m63.51 92.21-.27.28 3.38 2.35c-.5.5-.98.97-1.1 1.67-.06.31.3 1.2.65 1.43.46.31 1.43.73 1.93.83.4-.32.54-1.3.65-1.87a2.64 2.64 0 0 0-.83-1.28c-.04-.15.12-.34.36-.41.25-.15.34-.25.72-.34.38-.71.29-1.37.34-1.92l-1.08-.13c-.94-.11-1.01.9-1.22 1.52z" filter="url(#paper)"/>
    </g>

    <path d="M99.87 84.73c-.08 5.97-2.85 7.13-11.99 6.73-11.14-.5-16.18-.52-15.83-5.5.64-9 3.84-13.63 15.95-13.68 7.22-.03 11.95 5.55 11.87 12.45z" fill="#b2d4d0" filter="url(#paper)" stroke="#7bbcba" stroke-width=".89"/>
    <path d="M119.75 87.4c-.09 4.59-.38 6.24-10.77 5.73-8.13-.4-11.15.98-11.69-3.98-.73-6.81 5.06-11.1 12.02-10.99 4.89.07 10.56 3.63 10.44 9.24z" fill="#f7dade" filter="url(#paper)" stroke="#e0bcbd" stroke-width=".78"/>
    <path d="M97.5 70.37c-.37 3.65-.68 4.48-10.83 4.2-8.13-.22-11.68.27-11.84-4.72-.15-4.65 4.51-9.7 11.68-9.39 7.6.33 11.44 5.6 11 9.91z" fill="#cfd5a1" filter="url(#paper)" stroke="#afb37f" stroke-width=".7"/>
    <path d="M58.33 85.1c-.06 5.76-3.23 5.84-12.38 6-10.89.2-14.44-1.8-14.53-5.62-.18-7.38 1.29-13.61 13-13.62 8.74-.01 13.98 5.23 13.9 13.25z" fill="#c9b9a9" filter="url(#paper)" stroke="#afa197" stroke-width=".89"/>
    <path d="M38.52 87.9c.11 3.67-1.84 5.25-10.77 5.17-8.5-.07-13.33-.83-13.5-5.81-.15-4.66 3.42-10.4 13.21-10.37 6.48.02 10.92 6.47 11.06 11z" fill="#d9d7ca" filter="url(#paper)" stroke="#bcb29e" stroke-width=".78"/>
    <path d="m63.3 92.44-.22-.29.36-3.05c.04-.31-.08-.27-.2-.28-.5-.02-1.05 0-1.62.07-.69.08-1.87-.5-1.86-1.04.04-1.44.92-2.42 1.28-3.1.7.22 2.1 1.2 2.73 1.64.07.32-.22 1.07.07 1.1l.23.03c.16.03.47-.93.97-1a6.5 6.5 0 0 1 2.66 1.76c-.5.65-1.2 1.2-2.19 1.64-.52-.05-1.07-.6-1.31-.91-.08-.1-.1-.05-.16.13-.2.66-.22 2.3-.39 3.38-.15-.01-.24-.18-.36-.08z" fill="#39aaaa" filter="url(#paper)"/>

    <g fill="none" stroke="#080808" stroke-linecap="round" stroke-opacity=".95">
      <path d="M104.17 82.79a34.08 34.08 0 0 0-.64 3.36m-2.55-.26c0-.76.42-2.15.76-3.1" stroke-width=".56"/>
      <path d="M82.11 63.43c-.22 1.09-.55 2.1-.8 3.3m-2.22-.02c.34-1.1.65-2.1.97-3.2" filter="url(#eyes)" stroke-width=".56"/>
      <path d="M80.58 78.18c-.37 1.1-.45 2.96-.63 4.18m-2.8-.14c0-.75.5-2.78.8-4.08" filter="url(#eyes)" stroke-width=".61"/>
      <path d="M54.54 79.86c.18 1.05.46 3.03.44 4.33m-2.68-.1c-.07-1.05-.2-2.55-.26-4.05" filter="url(#eyes)" stroke-width=".61"/>
      <path d="M33.14 81.75c.36 1.51.37 2.66.43 4.03m-2.4.02c.03-1.08-.07-2.24-.35-3.72" filter="url(#eyes)" stroke-width=".61"/>
    </g>
  </g>
</svg>
