<?xml version="1.0" encoding="UTF-8"?>
<svg version="1.1" viewBox="0 0 249 68" xml:space="preserve" xmlns="http://www.w3.org/2000/svg"><defs><clipPath id="a"><path d="m0 0h186v50.2h-186z"/></clipPath></defs><g transform="matrix(1.33 0 0 -1.33 0 68)"><g clip-path="url(#a)" fill="#404137" fill-rule="evenodd"><path d="m27.9 23.5c0 .542-.285 1.04-.753 1.31l-12.5 7.18c-.211.124-.448.188-.687.198h-.129c-.238-.01-.474-.074-.688-.198l-12.5-7.18c-.465-.268-.754-.767-.754-1.31l.027-19.3c0-.268.14-.518.376-.65.232-.139.518-.139.748 0l7.41 4.24c.468.278.753.77.753 1.31v9.03c0 .538.286 1.04.752 1.3l3.16 1.82c.235.136.492.202.755.202.256 0 .52-.066.749-.202l3.15-1.82c.467-.268.753-.766.753-1.3v-9.03c0-.537.289-1.03.755-1.31l7.41-4.24c.232-.139.522-.139.753 0 .229.132.374.382.374.65l.024 19.3"/><path d="m93.4 13.4c0-.134-.072-.258-.188-.325l-4.28-2.47c-.116-.067-.26-.067-.376 0l-4.28 2.47c-.117.067-.188.191-.188.325v4.95c0 .134.071.258.188.326l4.28 2.47c.117.068.261.068.377 0l4.28-2.47c.116-.068.188-.192.188-.326zm1.16 36.6c-.233.13-.518.127-.748-.008-.23-.136-.372-.383-.372-.65v-19.1c0-.188-.1-.362-.263-.456-.163-.095-.364-.095-.527 0l-3.12 1.8c-.466.268-1.04.268-1.5-.001l-12.5-7.2c-.466-.27-.753-.767-.753-1.3v-14.4c0-.538.287-1.04.753-1.3l12.5-7.2c.466-.269 1.04-.269 1.51 0l12.5 7.2c.466.27.753.767.753 1.3v35.9c0 .546-.296 1.05-.773 1.32l-7.42 4.14"/></g><path d="m139 18.5c.464.27.749.766.749 1.3v3.49c0 .537-.285 1.03-.75 1.3l-12.4 7.2c-.467.271-1.04.271-1.51.002l-12.5-7.2c-.466-.269-.753-.766-.753-1.3v-14.4c0-.541.291-1.04.761-1.31l12.4-7.06c.457-.261 1.02-.264 1.48-.009l7.5 4.17c.238.133.386.382.387.654.002.271-.143.523-.378.658l-12.5 7.2c-.235.134-.379.384-.379.653v4.51c0 .269.144.518.377.652l3.91 2.25c.232.134.519.134.752 0l3.91-2.25c.233-.134.377-.383.377-.652v-3.55c0-.269.144-.518.377-.653.234-.134.521-.133.754.002l7.47 4.34" fill="#404137" fill-rule="evenodd"/><g fill="#83cd29"><path d="m50.6 31.9c.466.269 1.04.269 1.51 0l12.5-7.2c.466-.269.753-.766.753-1.3v-14.4c0-.538-.287-1.04-.753-1.3l-12.5-7.2c-.466-.269-1.04-.269-1.51 0l-12.5 7.2c-.466.269-.753.767-.753 1.3v14.4c0 .538.287 1.04.754 1.3l12.5 7.2" fill-rule="evenodd"/><g><path d="m163 .264c-.43 0-.857.113-1.23.33l-3.93 2.32c-.586.329-.3.445-.107.512.783.272.941.334 1.78.808.087.049.202.03.292-.023l3.02-1.79c.11-.06.264-.06.365 0l11.8 6.79c.11.063.18.189.18.319v13.6c0 .133-.07.257-.182.324l-11.8 6.78c-.109.064-.253.064-.363 0l-11.8-6.78c-.114-.065-.186-.193-.186-.322v-13.6c0-.13.072-.253.185-.315l3.22-1.86c1.75-.874 2.82.155 2.82 1.19v13.4c0 .189.152.339.341.339h1.49c.186 0 .34-.15.34-.339v-13.4c0-2.33-1.27-3.67-3.48-3.67-.68 0-1.22 0-2.71.736l-3.08 1.78c-.762.441-1.23 1.26-1.23 2.15v13.6c0 .882.471 1.7 1.23 2.14l11.8 6.8c.744.42 1.73.42 2.47 0l11.8-6.8c.762-.441 1.24-1.26 1.24-2.14v-13.6c0-.882-.473-1.7-1.24-2.15l-11.8-6.79c-.376-.217-.802-.33-1.24-.33"/><path d="m167 9.62c-5.15 0-6.22 2.36-6.22 4.34 0 .188.152.338.34.338h1.52c.17 0 .311-.122.338-.288.229-1.55.914-2.33 4.03-2.33 2.48 0 3.53.561 3.53 1.88 0 .758-.299 1.32-4.15 1.7-3.22.319-5.21 1.03-5.21 3.6 0 2.37 2 3.79 5.35 3.79 3.77 0 5.63-1.31 5.87-4.11.009-.097-.025-.19-.089-.262-.065-.067-.155-.108-.249-.108h-1.53c-.158 0-.298.112-.33.265-.366 1.63-1.26 2.15-3.67 2.15-2.7 0-3.02-.943-3.02-1.65 0-.855.371-1.1 4.02-1.59 3.61-.477 5.33-1.15 5.33-3.69 0-2.56-2.14-4.03-5.86-4.03"/><path d="m183 32v-.348h-.99v-2.58h-.399v2.58h-.986v.348h2.38"/><path d="m184 32h.569l.84-2.47.837 2.47h.565v-2.93h-.379v1.73c0 .061.001.159.003.296.004.141.006.289.006.446l-.837-2.47h-.393l-.844 2.47v-.088c0-.072 0-.181.005-.33.003-.145.007-.254.007-.324v-1.73h-.379v2.93"/></g><path d="m126 19.2c.09.052.2.052.289 0l2.39-1.38c.089-.052.144-.147.144-.251v-2.76c0-.103-.055-.198-.144-.25l-2.39-1.38c-.089-.052-.199-.052-.289 0l-2.39 1.38c-.09.052-.145.147-.145.25v2.76c0 .104.055.199.145.251l2.39 1.38" fill-rule="evenodd"/></g></g></svg>
