<?xml version="1.0" encoding="UTF-8"?>
<svg version="1.1" viewBox="0 0 524.41 372.05" xmlns="http://www.w3.org/2000/svg">
<defs>
<marker id="EmptyTriangleOutL" overflow="visible" orient="auto">
<path transform="scale(.8) translate(-6)" d="m5.77 0l-8.65 5v-10l8.65 5z" fill="#fff" fill-rule="evenodd" stroke="#000" stroke-width="1pt"/>
</marker>
<marker id="EmptyTriangleInL" overflow="visible" orient="auto">
<path transform="scale(-.8) translate(-6)" d="m5.77 0l-8.65 5v-10l8.65 5z" fill="#fff" fill-rule="evenodd" stroke="#000" stroke-width="1pt"/>
</marker>
<marker id="TriangleInL" overflow="visible" orient="auto">
<path transform="scale(-.8)" d="m5.77 0l-8.65 5v-10l8.65 5z" fill-rule="evenodd" stroke="#000" stroke-width="1pt"/>
</marker>
<marker id="TriangleOutL" overflow="visible" orient="auto">
<path transform="scale(.8)" d="m5.77 0l-8.65 5v-10l8.65 5z" fill-rule="evenodd" stroke="#000" stroke-width="1pt"/>
</marker>
</defs>
<g transform="translate(0 -680.31)">
<text transform="translate(0 680.31)" x="25.455845" y="270.22385" fill="#000000" font-family="'Latin Modern Sans'" letter-spacing="0px" word-spacing="0px" style="line-height:0%" xml:space="preserve"><tspan x="25.455845" y="270.22385" font-size="10px" style="line-height:1.25"> </tspan></text>
<text transform="translate(0 680.31)" x="422.84985" y="270.93097" fill="#000000" font-family="'Latin Modern Sans'" letter-spacing="0px" word-spacing="0px" style="line-height:0%" xml:space="preserve"><tspan x="422.84985" y="270.93097" font-size="20px" style="line-height:1.25"> </tspan></text>
<g transform="matrix(.8093 0 0 2.3519 204.93 -873.53)" fill="#e6e6e6">
<rect x="-40.082" y="668.19" width="67.96" height="142.44" fill="#e6e6e6" stroke-width="0"/>
</g>
<g transform="translate(341.8 26.575)" fill="#b7c4c8">
<rect x="17.717" y="768.9" width="35.433" height="141.73" stroke-width="0"/>
<g stroke="#000" stroke-width="2.8222">
<path transform="matrix(.3354 0 0 .3354 20.005 808.55)" d="m71 52.047a25 25 0 0 1 -25 25 25 25 0 0 1 -25 -25 25 25 0 0 1 25 -25 25 25 0 0 1 25 25z"/>
<path transform="matrix(.3354 0 0 .3354 20.005 830.55)" d="m71 52.047a25 25 0 0 1 -25 25 25 25 0 0 1 -25 -25 25 25 0 0 1 25 -25 25 25 0 0 1 25 25z"/>
<path transform="matrix(.3354 0 0 .3354 20.005 879.13)" d="m71 52.047a25 25 0 0 1 -25 25 25 25 0 0 1 -25 -25 25 25 0 0 1 25 -25 25 25 0 0 1 25 25z"/>
<path transform="matrix(.3354 0 0 .3354 20.005 764.55)" d="m71 52.047a25 25 0 0 1 -25 25 25 25 0 0 1 -25 -25 25 25 0 0 1 25 -25 25 25 0 0 1 25 25z"/>
<path transform="matrix(.3354 0 0 .3354 20.005 786.55)" d="m71 52.047a25 25 0 0 1 -25 25 25 25 0 0 1 -25 -25 25 25 0 0 1 25 -25 25 25 0 0 1 25 25z"/>
</g>
</g>
<g transform="translate(465 26.575)" fill="#b7c4c8">
<rect x="17.717" y="768.9" width="35.433" height="141.73" stroke-width="0"/>
<g stroke="#000" stroke-width="2.8222">
<path transform="matrix(.3354 0 0 .3354 20.005 808.55)" d="m71 52.047a25 25 0 0 1 -25 25 25 25 0 0 1 -25 -25 25 25 0 0 1 25 -25 25 25 0 0 1 25 25z"/>
<path transform="matrix(.3354 0 0 .3354 20.005 830.55)" d="m71 52.047a25 25 0 0 1 -25 25 25 25 0 0 1 -25 -25 25 25 0 0 1 25 -25 25 25 0 0 1 25 25z"/>
<path transform="matrix(.3354 0 0 .3354 20.005 879.13)" d="m71 52.047a25 25 0 0 1 -25 25 25 25 0 0 1 -25 -25 25 25 0 0 1 25 -25 25 25 0 0 1 25 25z"/>
<path transform="matrix(.3354 0 0 .3354 20.005 764.55)" d="m71 52.047a25 25 0 0 1 -25 25 25 25 0 0 1 -25 -25 25 25 0 0 1 25 -25 25 25 0 0 1 25 25z"/>
<path transform="matrix(.3354 0 0 .3354 20.005 786.55)" d="m71 52.047a25 25 0 0 1 -25 25 25 25 0 0 1 -25 -25 25 25 0 0 1 25 -25 25 25 0 0 1 25 25z"/>
</g>
</g>
<g fill="#e9afaf">
<rect x="5.7165" y="795.47" width="35.433" height="141.73" stroke-width="0"/>
<g stroke="#000" stroke-width="2.8222">
<path transform="matrix(.3354 0 0 .3354 8.0047 835.12)" d="m71 52.047a25 25 0 0 1 -25 25 25 25 0 0 1 -25 -25 25 25 0 0 1 25 -25 25 25 0 0 1 25 25z"/>
<path transform="matrix(.3354 0 0 .3354 8.0047 857.12)" d="m71 52.047a25 25 0 0 1 -25 25 25 25 0 0 1 -25 -25 25 25 0 0 1 25 -25 25 25 0 0 1 25 25z"/>
<path transform="matrix(.3354 0 0 .3354 8.0047 905.71)" d="m71 52.047a25 25 0 0 1 -25 25 25 25 0 0 1 -25 -25 25 25 0 0 1 25 -25 25 25 0 0 1 25 25z"/>
<path transform="matrix(.3354 0 0 .3354 8.0047 791.12)" d="m71 52.047a25 25 0 0 1 -25 25 25 25 0 0 1 -25 -25 25 25 0 0 1 25 -25 25 25 0 0 1 25 25z"/>
<path transform="matrix(.3354 0 0 .3354 8.0047 813.12)" d="m71 52.047a25 25 0 0 1 -25 25 25 25 0 0 1 -25 -25 25 25 0 0 1 25 -25 25 25 0 0 1 25 25z"/>
</g>
</g>
<g fill="none" stroke="#000" stroke-width="1px">
<path d="m385.5 923.86h105.5" marker-end="url(#EmptyTriangleOutL)" stroke-opacity=".11765"/>
<path d="m385.5 831.36h100.84" marker-end="url(#TriangleOutL)"/>
<g stroke-opacity=".11765">
<path d="m385.5 808.86 105.8-.25" marker-end="url(#EmptyTriangleOutL)"/>
<path d="m385.5 852.86h106" marker-end="url(#EmptyTriangleOutL)"/>
<path d="m385.5 874.86 106 .25" marker-end="url(#EmptyTriangleOutL)"/>
</g>
</g>
<g transform="matrix(.97218 0 0 .99309 404.28 -27.625)" fill="#fff" fill-opacity=".78077">
<rect x="17.717" y="829.32" width="35.433" height="141.73" fill="#fff" fill-opacity=".78077" stroke="#000"/>
</g>
<text transform="rotate(90)" x="833.2804" y="-433.20178" fill="#000000" font-family="'Latin Modern Sans'" letter-spacing="0px" word-spacing="0px" style="line-height:0%" xml:space="preserve"><tspan x="833.2804" y="-433.20178" font-size="20px" style="line-height:1.25">softmax</tspan></text>
<g transform="translate(-4,118)">
<g transform="translate(0,160)">
<path transform="matrix(.94196 0 0 -.98041 34.908 806.34)" d="m205 80.547a25.5 24.5 0 0 1 -25.5 24.5 25.5 24.5 0 0 1 -25.5 -24.5 25.5 24.5 0 0 1 25.5 -24.5 25.5 24.5 0 0 1 25.5 24.5z" fill="none" stroke="#000" stroke-width="2.0396"/>
</g>
<path d="m219.04 877-29.327 21.213" fill="none" stroke="#000" stroke-width="1px"/>
</g>
<g transform="translate(-4,-2)">
<g transform="translate(0,160)">
<path transform="matrix(.94196 0 0 -.98041 34.908 806.34)" d="m205 80.547a25.5 24.5 0 0 1 -25.5 24.5 25.5 24.5 0 0 1 -25.5 -24.5 25.5 24.5 0 0 1 25.5 -24.5 25.5 24.5 0 0 1 25.5 24.5z" fill="none" stroke="#000" stroke-width="2.0396"/>
</g>
<path d="m219.04 877-29.327 21.213" fill="none" stroke="#000" stroke-width="1px"/>
</g>
<g transform="translate(-4,-162)">
<g transform="translate(0,160)">
<path transform="matrix(.94196 0 0 -.98041 34.908 806.34)" d="m205 80.547a25.5 24.5 0 0 1 -25.5 24.5 25.5 24.5 0 0 1 -25.5 -24.5 25.5 24.5 0 0 1 25.5 -24.5 25.5 24.5 0 0 1 25.5 24.5z" fill="none" stroke="#000" stroke-width="2.0396"/>
</g>
<path d="m219.04 877-29.327 21.213" fill="none" stroke="#000" stroke-width="1px"/>
</g>
<g transform="translate(-4,-82)">
<g transform="translate(0,160)">
<path transform="matrix(.94196 0 0 -.98041 34.908 806.34)" d="m205 80.547a25.5 24.5 0 0 1 -25.5 24.5 25.5 24.5 0 0 1 -25.5 -24.5 25.5 24.5 0 0 1 25.5 -24.5 25.5 24.5 0 0 1 25.5 24.5z" fill="none" stroke="#000" stroke-width="2.0396"/>
</g>
<path d="m219.04 877-29.327 21.213" fill="none" stroke="#000" stroke-width="1px"/>
</g>
<text x="16.625999" y="954.07434" fill="#000000" font-family="'Latin Modern Sans'" letter-spacing="0px" word-spacing="0px" style="line-height:0%" xml:space="preserve"><tspan x="16.625999" y="954.07434" font-family="'Latin Modern Roman'" font-size="15px" style="line-height:1.25">w<tspan baseline-shift="sub" font-family="'Latin Modern Roman'" font-size="9.7501px">t</tspan></tspan></text>
<g transform="translate(-12)">
<g stroke="#000">
<path d="m40.6 885.44v28.314" fill="#e9afaf" stroke-dasharray="3, 3"/>
<g fill="none" stroke-width="1px">
<g>
<path d="m43.836 808.41 139.08-83.078" marker-end="url(#TriangleOutL)"/>
<path d="m43.866 808.52 138.4-1.841" marker-end="url(#TriangleOutL)"/>
<path d="m43.836 808.66 139.23 76.585" marker-end="url(#TriangleOutL)"/>
<path d="m43.836 808.16 140.58 192.39" marker-end="url(#TriangleOutL)"/>
</g>
<g stroke-opacity=".11765">
<path d="m43.513 829.76 138.7-104.08"/>
<path d="m43.604 830.02 137.96-23.695"/>
<path d="m43.836 830.04 137.81 54.488"/>
<path d="m43.836 830.25 139.87 169.24"/>
<path d="m43.513 852.21 138.34-126.17"/>
<path d="m43.482 851.97 138.87 32.568"/>
<path d="m43.836 852.17 139.87 146.61"/>
<path d="m43.836 874.8 139.87 124.69"/>
<path d="m43.482 874.59 138.87 9.5867"/>
<path d="m43.513 874.13 139.4-149.16"/>
<path d="m43.482 923.24 141.29 76.251"/>
<path d="m43.836 922.32 137.81-37.789"/>
<path d="m44.22 921.86 137.64-196.89"/>
<path d="m43.604 852.29 137.61-45.968"/>
<path d="m43.604 874.57 137.96-68.949"/>
<path d="m43.957 922.65 136.9-116.68"/>
</g>
</g>
</g>
<path d="m216.6 911.24v70.387" fill="#e9afaf" stroke="#000" stroke-dasharray="3, 3"/>
<g transform="translate(-200)">
<g transform="translate(388)" fill="none" stroke="#000" stroke-width="1px">
<g stroke-opacity=".11765">
<path d="m187.49 809.82-139.79-84.492"/>
<path d="m186.43 808.3-138.87 76.939"/>
<path d="m186.43 806.39-140.23 194.16"/>
</g>
<g>
<path d="m185.69 829.76-137.28-104.08"/>
<path d="m187.02 830.02-137.96-23.695" marker-start="url(#TriangleInL)"/>
<path d="m186.43 829.34-137.46 55.195"/>
<path d="m185.37 830.25-138.46 169.24"/>
</g>
<g stroke-opacity=".11765">
<path d="m187.46 851.86-138.7-125.82"/>
<path d="m187.85 849.49-139.58 35.043"/>
<path d="m186.79 848.64-139.87 150.14"/>
<path d="m186.43 870.91-139.52 128.58"/>
<path d="m187.14 871.76-138.87 12.415"/>
<path d="m187.11 874.13-139.4-149.16"/>
<path d="m186.79 918.29-140.93 81.201"/>
<path d="m189.26 918.79-140.29-34.254"/>
<path d="m188.17 920.8-139.4-195.82"/>
<path d="m191.71 808.52-143.35-1.841" marker-start="url(#EmptyTriangleInL)"/>
<path d="m191.97 852.29-142.56-45.968" marker-start="url(#EmptyTriangleInL)"/>
<path d="m191.97 874.92-142.91-69.303" marker-start="url(#EmptyTriangleInL)"/>
<path d="m191.97 923.01-142.2-117.03" marker-start="url(#EmptyTriangleInL)"/>
</g>
</g>
</g>
</g>
<path d="m381.5 885.44v28.314" fill="#e9afaf" stroke="#000" stroke-dasharray="3, 3"/>
<path d="m505.5 885.44v28.314" fill="#e9afaf" stroke="#000" stroke-dasharray="3, 3"/>
<g fill="#000000" font-family="'Latin Modern Sans'" letter-spacing="0px" word-spacing="0px">
<text x="190.08" y="949.8316" style="line-height:0%" xml:space="preserve"><tspan x="190.08" y="949.8316" font-family="'Latin Modern Roman'" font-size="15px" style="line-height:1.25">D</tspan></text>
<text x="15" y="905.36212" style="line-height:0%" xml:space="preserve"><tspan x="15" y="905.36212" font-family="'Latin Modern Roman'" font-size="15px" style="line-height:1.25">V</tspan></text>
<text x="367" y="903.36212" style="line-height:0%" xml:space="preserve"><tspan x="367" y="903.36212" font-family="'Latin Modern Roman'" font-size="15px" style="line-height:1.25">V</tspan></text>
<text x="491" y="903.36212" style="line-height:0%" xml:space="preserve"><tspan x="491" y="903.36212" font-family="'Latin Modern Roman'" font-size="15px" style="line-height:1.25">V</tspan></text>
<text x="486.00854" y="953.5448" style="line-height:0%" xml:space="preserve"><tspan x="486.00854" y="953.5448" font-family="'Latin Modern Roman'" font-size="15px" style="line-height:1.25">w<tspan baseline-shift="sub" font-family="'Latin Modern Roman'" font-size="65.001%">t+ℓ</tspan></tspan></text>
</g>
</g>
</svg>
