<?xml version="1.0" encoding="UTF-8"?>
<svg width="92.12mm" height="39.32mm" version="1.1" xmlns="http://www.w3.org/2000/svg">
 <defs>
  <clipPath id="a">
   <rect x="37.43" y="812.8" width="362" height="50.75" fill="none" stroke="#b0b0b0" stroke-width="1.333"/>
  </clipPath>
 </defs>
 <g transform="translate(-43.88 -720.8)">
  <g clip-path="url(#a)" fill="none" stroke-width="1px">
   <g stroke="#c8c8c8">
    <path d="m199.7 899.4c-21.77-44.65-7.31-59.37 0-80"/>
    <path d="m179.7 899.4c-21.77-44.65-7.31-59.37 0-80"/>
    <path d="m159.7 899.4c-21.77-44.65-7.31-59.37 0-80"/>
    <path d="m139.7 899.4c-21.77-44.65-7.31-59.37 0-80"/>
    <path d="m119.7 899.4c-21.77-44.65-7.31-59.37 0-80"/>
    <path d="m99.67 899.4c-21.77-44.65-7.31-59.37 0-80"/>
    <path d="m79.67 899.4c-21.77-44.65-7.31-59.37 0-80"/>
    <path d="m59.67 899.4c-21.77-44.65-7.31-59.37 0-80"/>
   </g>
   <path d="m219.7 899.4c-21.77-44.65-7.31-59.37 0-80" stroke="#000"/>
   <g stroke="#c8c8c8">
    <path d="m239.7 899.4c-21.77-44.65-7.31-59.37 0-80"/>
    <path d="m279.7 899.4c-21.77-44.65-7.31-59.37 0-80"/>
    <path d="m259.7 899.4c-21.77-44.65-7.31-59.37 0-80"/>
    <path d="m299.7 899.4c-21.77-44.65-7.31-59.37 0-80"/>
    <path d="m319.7 899.4c-21.77-44.65-7.31-59.37 0-80"/>
    <path d="m339.7 899.4c-21.77-44.65-7.31-59.37 0-80"/>
    <path d="m359.7 899.4c-21.77-44.65-7.31-59.37 0-80"/>
    <path d="m379.7 899.4c-21.77-44.65-7.31-59.37 0-80"/>
   </g>
  </g>
  <g fill="none" stroke="#c8c8c8" stroke-width="1px">
   <path d="m59.67 759.4v-20"/>
   <path d="m99.67 759.4v-20"/>
   <path d="m79.67 759.4v-20"/>
   <path d="m119.7 759.4v-20"/>
   <path d="m159.7 759.4v-20"/>
   <path d="m139.7 759.4v-20"/>
   <path d="m179.7 759.4v-20"/>
   <path d="m199.7 759.4v-20"/>
  </g>
  <g transform="translate(0,260)">
   <g fill="none">
    <path d="m199.7 579.4v-20" stroke="#000"/>
    <path d="m239.7 579.4v-20" stroke="#c8c8c8"/>
    <g stroke="#000">
     <path d="m159.7 579.4v-20"/>
     <path d="m119.7 579.4v-20"/>
     <path d="m79.67 579.4v-20"/>
    </g>
    <g stroke="#c8c8c8">
     <path d="m279.7 579.4v-20"/>
     <path d="m319.7 579.4v-20"/>
     <path d="m359.7 579.4v-20"/>
    </g>
    <g stroke="#000">
     <path d="m59.67 579.4v-20"/>
     <path d="m99.67 579.4v-20"/>
     <path d="m139.7 579.4v-20"/>
     <path d="m179.7 579.4v-20"/>
    </g>
    <g stroke="#c8c8c8">
     <g>
      <path d="m259.7 579.4v-20"/>
      <path d="m299.7 579.4v-20"/>
      <path d="m339.7 579.4v-20"/>
      <path d="m379.7 579.4v-20"/>
     </g>
     <g stroke-width="1px">
      <path d="m279.7 519.4v-20l-80 20"/>
      <path d="m239.7 499.4v-20l-160 20"/>
      <path d="m259.7 499.4v-20l-160 20"/>
      <path d="m279.7 499.4v-20l-160 20"/>
      <path d="m299.7 499.4v-20l-160 20"/>
      <path d="m319.7 499.4v-20l-160 20"/>
      <path d="m339.7 499.4v-20l-160 20"/>
      <path d="m359.7 499.4v-20l-160 20"/>
      <path d="m379.7 499.4v-20l-160 20"/>
      <path d="m179.7 539.4v-20l-40 20"/>
      <path d="m319.7 559.4v-20l-20 20"/>
     </g>
    </g>
    <g stroke="#000" stroke-width="1px">
     <path d="m99.67 559.4v-20l-20 20"/>
     <path d="m139.7 559.4v-20l-20 20"/>
     <path d="m179.7 559.4v-20l-20 20"/>
    </g>
    <g stroke="#c8c8c8" stroke-width="1px">
     <path d="m259.7 519.4v-20l-80 20"/>
     <path d="m239.7 519.4v-20l-80 20"/>
     <path d="m199.7 519.4v-20l-80 20"/>
     <path d="m179.7 519.4v-20l-80 20"/>
     <path d="m159.7 519.4v-20l-80 20"/>
     <path d="m159.7 519.4v-20l-80 20"/>
     <path d="m139.7 519.4v-20l-80 20"/>
     <path d="m139.7 519.4v-20l-80 20"/>
     <path d="m119.7 519.4v-20"/>
     <path d="m99.67 519.4v-20"/>
     <path d="m79.67 519.4v-20"/>
     <path d="m299.7 519.4v-20l-80 20"/>
     <path d="m319.7 519.4v-20l-80 20"/>
     <path d="m339.7 519.4v-20l-80 20"/>
     <path d="m359.7 519.4v-20l-80 20"/>
     <path d="m159.7 539.4v-20l-40 20"/>
     <path d="m119.7 539.4v-20l-40 20"/>
     <path d="m99.67 539.4v-20l-40 20"/>
     <path d="m79.67 539.4v-20"/>
     <path d="m199.7 539.4v-20l-40 20"/>
     <path d="m239.7 539.4v-20l-40 20"/>
     <path d="m259.7 539.4v-20l-40 20"/>
     <path d="m279.7 539.4v-20l-40 20"/>
     <path d="m339.7 539.4v-20l-40 20"/>
     <path d="m359.7 539.4v-20l-40 20"/>
     <path d="m359.7 559.4v-20l-20 20"/>
     <path d="m279.7 559.4v-20l-20 20"/>
     <path d="m239.7 559.4v-20l-20 20"/>
     <path d="m199.7 559.4v-20l-20 20"/>
     <path d="m159.7 559.4v-20l-20 20"/>
     <path d="m119.7 559.4v-20l-20 20"/>
     <path d="m79.67 559.4v-20l-20 20"/>
     <path d="m379.7 539.4v-20l-40 20"/>
     <path d="m379.7 559.4v-20l-20 20"/>
     <path d="m339.7 559.4v-20l-20 20"/>
     <path d="m299.7 559.4v-20l-20 20"/>
     <path d="m259.7 559.4v-20l-20 20"/>
     <path d="m319.7 539.4v-20l-40 20"/>
     <path d="m299.7 539.4v-20l-40 20"/>
     <path d="m379.7 519.4v-20l-80 20"/>
    </g>
   </g>
   <g transform="translate(0,-440)" stroke-width="1.002">
    <g fill="#c8c8c8" stroke="#c8c8c8">
     <circle cx="59.67" cy="919.4" r="2.652"/>
     <circle cx="79.67" cy="919.4" r="2.652"/>
     <circle cx="99.67" cy="919.4" r="2.652"/>
     <circle cx="119.7" cy="919.4" r="2.652"/>
     <circle cx="139.7" cy="919.4" r="2.652"/>
     <circle cx="159.7" cy="919.4" r="2.652"/>
     <circle cx="179.7" cy="919.4" r="2.652"/>
     <circle cx="199.7" cy="919.4" r="2.652"/>
    </g>
    <circle cx="219.7" cy="919.4" r="2.652" stroke="#000"/>
    <g fill="#c8c8c8" stroke="#c8c8c8">
     <circle cx="239.7" cy="919.4" r="2.652"/>
     <circle cx="259.7" cy="919.4" r="2.652"/>
     <circle cx="279.7" cy="919.4" r="2.652"/>
     <circle cx="299.7" cy="919.4" r="2.652"/>
     <circle cx="319.7" cy="919.4" r="2.652"/>
     <circle cx="339.7" cy="919.4" r="2.652"/>
     <circle cx="359.7" cy="919.4" r="2.652"/>
     <circle cx="379.7" cy="919.4" r="2.652"/>
    </g>
    <circle cx="59.67" cy="939.4" r="2.652" stroke="#000"/>
    <g fill="#c8c8c8" stroke="#c8c8c8">
     <circle cx="79.67" cy="939.4" r="2.652"/>
     <circle cx="99.67" cy="939.4" r="2.652"/>
     <circle cx="119.7" cy="939.4" r="2.652"/>
     <circle cx="139.7" cy="939.4" r="2.652"/>
     <circle cx="159.7" cy="939.4" r="2.652"/>
     <circle cx="179.7" cy="939.4" r="2.652"/>
     <circle cx="199.7" cy="939.4" r="2.652"/>
    </g>
    <circle cx="219.7" cy="939.4" r="2.652" stroke="#000"/>
    <g fill="#c8c8c8" stroke="#c8c8c8">
     <circle cx="239.7" cy="939.4" r="2.652"/>
     <circle cx="259.7" cy="939.4" r="2.652"/>
     <circle cx="279.7" cy="939.4" r="2.652"/>
     <circle cx="299.7" cy="939.4" r="2.652"/>
     <circle cx="319.7" cy="939.4" r="2.652"/>
     <circle cx="339.7" cy="939.4" r="2.652"/>
     <circle cx="359.7" cy="939.4" r="2.652"/>
     <circle cx="379.7" cy="939.4" r="2.652"/>
    </g>
    <circle cx="59.67" cy="959.4" r="2.652" stroke="#000"/>
    <g fill="#c8c8c8" stroke="#c8c8c8">
     <circle cx="79.67" cy="959.4" r="2.652"/>
     <circle cx="99.67" cy="959.4" r="2.652"/>
     <circle cx="119.7" cy="959.4" r="2.652"/>
    </g>
    <circle cx="139.7" cy="959.4" r="2.652" stroke="#000"/>
    <g fill="#c8c8c8" stroke="#c8c8c8">
     <circle cx="159.7" cy="959.4" r="2.652"/>
     <circle cx="179.7" cy="959.4" r="2.652"/>
     <circle cx="199.7" cy="959.4" r="2.652"/>
    </g>
    <circle cx="219.7" cy="959.4" r="2.652" stroke="#000"/>
    <g fill="#c8c8c8" stroke="#c8c8c8">
     <circle cx="239.7" cy="959.4" r="2.652"/>
     <circle cx="259.7" cy="959.4" r="2.652"/>
     <circle cx="279.7" cy="959.4" r="2.652"/>
     <circle cx="299.7" cy="959.4" r="2.652"/>
     <circle cx="319.7" cy="959.4" r="2.652"/>
     <circle cx="339.7" cy="959.4" r="2.652"/>
     <circle cx="359.7" cy="959.4" r="2.652"/>
     <circle cx="379.7" cy="959.4" r="2.652"/>
    </g>
    <circle cx="59.67" cy="979.4" r="2.652" stroke="#000"/>
    <circle cx="79.67" cy="979.4" r="2.652" fill="#c8c8c8" stroke="#c8c8c8"/>
    <circle cx="99.67" cy="979.4" r="2.652" stroke="#000"/>
    <circle cx="119.7" cy="979.4" r="2.652" fill="#c8c8c8" stroke="#c8c8c8"/>
    <circle cx="139.7" cy="979.4" r="2.652" stroke="#000"/>
    <circle cx="159.7" cy="979.4" r="2.652" fill="#c8c8c8" stroke="#c8c8c8"/>
    <circle cx="179.7" cy="979.4" r="2.652" stroke="#000"/>
    <circle cx="199.7" cy="979.4" r="2.652" fill="#c8c8c8" stroke="#c8c8c8"/>
    <circle cx="219.7" cy="979.4" r="2.652" stroke="#000"/>
    <g fill="#c8c8c8" stroke="#c8c8c8">
     <circle cx="239.7" cy="979.4" r="2.652"/>
     <circle cx="259.7" cy="979.4" r="2.652"/>
     <circle cx="279.7" cy="979.4" r="2.652"/>
     <circle cx="299.7" cy="979.4" r="2.652"/>
     <circle cx="319.7" cy="979.4" r="2.652"/>
     <circle cx="339.7" cy="979.4" r="2.652"/>
     <circle cx="359.7" cy="979.4" r="2.652"/>
     <circle cx="379.7" cy="979.4" r="2.652"/>
    </g>
    <g stroke="#000">
     <circle cx="59.67" cy="999.4" r="2.652"/>
     <circle cx="79.67" cy="999.4" r="2.652"/>
     <circle cx="99.67" cy="999.4" r="2.652"/>
     <circle cx="119.7" cy="999.4" r="2.652"/>
     <circle cx="139.7" cy="999.4" r="2.652"/>
     <circle cx="159.7" cy="999.4" r="2.652"/>
     <circle cx="179.7" cy="999.4" r="2.652"/>
     <circle cx="199.7" cy="999.4" r="2.652"/>
     <circle cx="219.7" cy="999.4" r="2.652"/>
    </g>
    <g fill="#c8c8c8" stroke="#c8c8c8">
     <circle cx="239.7" cy="999.4" r="2.652"/>
     <circle cx="259.7" cy="999.4" r="2.652"/>
     <circle cx="279.7" cy="999.4" r="2.652"/>
     <circle cx="299.7" cy="999.4" r="2.652"/>
     <circle cx="319.7" cy="999.4" r="2.652"/>
     <circle cx="339.7" cy="999.4" r="2.652"/>
     <circle cx="359.7" cy="999.4" r="2.652"/>
     <circle cx="379.7" cy="999.4" r="2.652"/>
    </g>
    <g stroke="#000">
     <circle cx="59.67" cy="1019" r="2.652"/>
     <circle cx="79.67" cy="1019" r="2.652"/>
     <circle cx="99.67" cy="1019" r="2.652"/>
     <circle cx="119.7" cy="1019" r="2.652"/>
     <circle cx="139.7" cy="1019" r="2.652"/>
     <circle cx="159.7" cy="1019" r="2.652"/>
     <circle cx="179.7" cy="1019" r="2.652"/>
     <circle cx="199.7" cy="1019" r="2.652"/>
     <circle cx="219.7" cy="1019" r="2.652"/>
    </g>
    <g fill="#c8c8c8" stroke="#c8c8c8">
     <circle cx="239.7" cy="1019" r="2.652"/>
     <circle cx="259.7" cy="1019" r="2.652"/>
     <circle cx="279.7" cy="1019" r="2.652"/>
     <circle cx="299.7" cy="1019" r="2.652"/>
     <circle cx="319.7" cy="1019" r="2.652"/>
     <circle cx="339.7" cy="1019" r="2.652"/>
     <circle cx="359.7" cy="1019" r="2.652"/>
     <circle cx="379.7" cy="1019" r="2.652"/>
    </g>
   </g>
   <g fill="none" stroke-width="1px">
    <path d="m219.7 579.4v-40l-20 20m20-20v-20l-40 20m40-20v-20l-80 20m80-20v-20l-160 20" stroke="#000"/>
    <path d="m159.7 539.4v-20l-40 20" stroke="#c8c8c8"/>
    <g stroke="#000">
     <path d="m139.7 539.4v-20l-40 20"/>
     <path d="m59.67 539.4v-20"/>
     <path d="m59.67 519.4v-20l80 20"/>
     <path d="m59.67 559.4v-20"/>
    </g>
   </g>
  </g>
  <g stroke-width="1px">
   <g aria-label="t1">
    <path d="m79.56 850.7v-0.7125h-0.3125v0.6875c0 0.925-0.375 1.4-0.8375 1.4-0.8375 0-0.8375-1.138-0.8375-1.35v-3.475h1.788v-0.3875h-1.788v-2.3h-0.3125c-0.0125 1.025-0.3875 2.362-1.612 2.412v0.275h1.062v3.45c0 1.538 1.162 1.688 1.612 1.688 0.8875 0 1.238-0.8875 1.238-1.688z"/>
    <path d="m83.67 854.8v-0.2519h-0.26c-0.7312 0-0.7556-0.0894-0.7556-0.39v-4.558c0-0.195 0-0.2112-0.1869-0.2112-0.5038 0.52-1.219 0.52-1.479 0.52v0.2519c0.1625 0 0.6419 0 1.064-0.2112v4.209c0 0.2925-0.02437 0.39-0.7556 0.39h-0.26v0.2519c0.2844-0.0244 0.9912-0.0244 1.316-0.0244s1.032 0 1.316 0.0244z" baseline-shift="sub"/>
   </g>
   <g aria-label="t2">
    <path d="m99.56 850.7v-0.7125h-0.3125v0.6875c0 0.925-0.375 1.4-0.8375 1.4-0.8375 0-0.8375-1.138-0.8375-1.35v-3.475h1.788v-0.3875h-1.788v-2.3h-0.3125c-0.0125 1.025-0.3875 2.362-1.612 2.412v0.275h1.062v3.45c0 1.538 1.162 1.688 1.612 1.688 0.8875 0 1.238-0.8875 1.238-1.688z"/>
    <path d="m103.9 853.3h-0.2031c-0.0406 0.2438-0.0975 0.6012-0.1788 0.7231-0.0569 0.065-0.5931 0.065-0.7719 0.065h-1.462l0.8612-0.8369c1.268-1.121 1.755-1.56 1.755-2.372 0-0.9262-0.7312-1.576-1.722-1.576-0.9181 0-1.519 0.7475-1.519 1.471 0 0.455 0.4062 0.455 0.4306 0.455 0.1381 0 0.4225-0.0975 0.4225-0.4306 0-0.2112-0.1462-0.4225-0.4306-0.4225-0.065 0-0.0813 0-0.1056 8e-3 0.1869-0.5281 0.6256-0.8288 1.097-0.8288 0.7394 0 1.089 0.6581 1.089 1.324 0 0.65-0.4062 1.292-0.8531 1.796l-1.56 1.739c-0.0894 0.0894-0.0894 0.1056-0.0894 0.3006h3.014z" baseline-shift="sub"/>
   </g>
   <g aria-label="t3">
    <path d="m119.6 850.7v-0.7125h-0.3125v0.6875c0 0.925-0.375 1.4-0.8375 1.4-0.8375 0-0.8375-1.138-0.8375-1.35v-3.475h1.788v-0.3875h-1.788v-2.3h-0.3125c-0.0125 1.025-0.3875 2.362-1.612 2.412v0.275h1.062v3.45c0 1.538 1.162 1.688 1.612 1.688 0.8875 0 1.238-0.8875 1.238-1.688z"/>
    <path d="m124 853.4c0-0.6662-0.5119-1.3-1.357-1.471 0.6662-0.2194 1.138-0.7881 1.138-1.43 0-0.6662-0.715-1.121-1.495-1.121-0.8206 0-1.438 0.4875-1.438 1.105 0 0.2681 0.1788 0.4225 0.4144 0.4225 0.2519 0 0.4144-0.1788 0.4144-0.4144 0-0.4062-0.3819-0.4062-0.5038-0.4062 0.2519-0.3981 0.7881-0.5038 1.081-0.5038 0.3331 0 0.78 0.1788 0.78 0.91 0 0.0975-0.0162 0.5688-0.2275 0.9262-0.2438 0.39-0.52 0.4144-0.7231 0.4225-0.065 8e-3 -0.26 0.0244-0.3169 0.0244-0.065 8e-3 -0.1219 0.0162-0.1219 0.0975 0 0.0894 0.0569 0.0894 0.195 0.0894h0.3575c0.6662 0 0.9669 0.5525 0.9669 1.349 0 1.105-0.5606 1.341-0.9181 1.341-0.3494 0-0.9588-0.1381-1.243-0.6175 0.2844 0.0406 0.5362-0.1381 0.5362-0.4469 0-0.2925-0.2194-0.455-0.455-0.455-0.195 0-0.455 0.1138-0.455 0.4712 0 0.7394 0.7556 1.276 1.641 1.276 0.9912 0 1.731-0.7394 1.731-1.568z" baseline-shift="sub"/>
   </g>
   <g aria-label="t4">
    <path d="m139.6 850.7v-0.7125h-0.3125v0.6875c0 0.925-0.375 1.4-0.8375 1.4-0.8375 0-0.8375-1.138-0.8375-1.35v-3.475h1.788v-0.3875h-1.788v-2.3h-0.3125c-0.0125 1.025-0.3875 2.362-1.612 2.412v0.275h1.062v3.45c0 1.538 1.162 1.688 1.612 1.688 0.8875 0 1.238-0.8875 1.238-1.688z"/>
    <path d="m144.1 853.4v-0.2519h-0.8125v-3.697c0-0.1625 0-0.2112-0.13-0.2112-0.0731 0-0.0975 0-0.1625 0.0975l-2.494 3.811v0.2519h2.161v0.7069c0 0.2925-0.0162 0.3819-0.6175 0.3819h-0.1706v0.2519c0.3331-0.0244 0.7556-0.0244 1.097-0.0244s0.7719 0 1.105 0.0244v-0.2519h-0.1706c-0.6012 0-0.6175-0.0894-0.6175-0.3819v-0.7069zm-1.389-0.2519h-1.982l1.982-3.031z" baseline-shift="sub"/>
   </g>
   <g aria-label="t5">
    <path d="m159.6 850.7v-0.7125h-0.3125v0.6875c0 0.925-0.375 1.4-0.8375 1.4-0.8375 0-0.8375-1.138-0.8375-1.35v-3.475h1.788v-0.3875h-1.788v-2.3h-0.3125c-0.0125 1.025-0.3875 2.362-1.612 2.412v0.275h1.062v3.45c0 1.538 1.162 1.688 1.612 1.688 0.8875 0 1.238-0.8875 1.238-1.688z"/>
    <path d="m163.9 853.1c0-0.9669-0.6662-1.779-1.544-1.779-0.39 0-0.7394 0.13-1.032 0.4144v-1.584c0.1625 0.0487 0.4306 0.1056 0.6906 0.1056 0.9994 0 1.568-0.7394 1.568-0.845 0-0.0488-0.0244-0.0894-0.0812-0.0894 0 0-0.0244 0-0.065 0.0244-0.1625 0.0731-0.5606 0.2356-1.105 0.2356-0.325 0-0.6988-0.0569-1.081-0.2275-0.065-0.0244-0.0975-0.0244-0.0975-0.0244-0.0813 0-0.0813 0.065-0.0813 0.195v2.405c0 0.1462 0 0.2112 0.1138 0.2112 0.0569 0 0.0731-0.0244 0.1056-0.0731 0.0894-0.13 0.39-0.5688 1.048-0.5688 0.4225 0 0.6256 0.3738 0.6906 0.52 0.13 0.3006 0.1462 0.6175 0.1462 1.024 0 0.2844 0 0.7719-0.195 1.113-0.195 0.3169-0.4956 0.5281-0.8694 0.5281-0.5931 0-1.056-0.4306-1.194-0.91 0.0244 8e-3 0.0488 0.0163 0.1381 0.0163 0.2681 0 0.4062-0.2031 0.4062-0.3981s-0.1381-0.3981-0.4062-0.3981c-0.1138 0-0.3981 0.0569-0.3981 0.4306 0 0.6988 0.5606 1.487 1.471 1.487 0.9425 0 1.771-0.78 1.771-1.812z" baseline-shift="sub"/>
   </g>
   <g aria-label="t6">
    <path d="m179.6 850.7v-0.7125h-0.3125v0.6875c0 0.925-0.375 1.4-0.8375 1.4-0.8375 0-0.8375-1.138-0.8375-1.35v-3.475h1.788v-0.3875h-1.788v-2.3h-0.3125c-0.0125 1.025-0.3875 2.362-1.612 2.412v0.275h1.062v3.45c0 1.538 1.162 1.688 1.612 1.688 0.8875 0 1.238-0.8875 1.238-1.688z"/>
    <path d="m184 853.1c0-1.032-0.7231-1.812-1.625-1.812-0.5525 0-0.8531 0.4144-1.016 0.8044v-0.195c0-2.056 1.008-2.348 1.422-2.348 0.195 0 0.5362 0.0488 0.715 0.325-0.1219 0-0.4469 0-0.4469 0.3656 0 0.2519 0.195 0.3738 0.3738 0.3738 0.13 0 0.3738-0.0731 0.3738-0.39 0-0.4875-0.3575-0.8775-1.032-0.8775-1.04 0-2.137 1.048-2.137 2.844 0 2.169 0.9425 2.746 1.698 2.746 0.9019 0 1.674-0.7638 1.674-1.836zm-0.7312-8e-3c0 0.39 0 0.7962-0.1381 1.089-0.2438 0.4875-0.6175 0.5281-0.8044 0.5281-0.5119 0-0.7556-0.4875-0.8044-0.6094-0.1462-0.3819-0.1462-1.032-0.1462-1.178 0-0.6338 0.26-1.446 0.9912-1.446 0.13 0 0.5038 0 0.7556 0.5038 0.1462 0.3006 0.1462 0.715 0.1462 1.113z" baseline-shift="sub"/>
   </g>
   <g aria-label="t7">
    <path d="m199.6 850.7v-0.7125h-0.3125v0.6875c0 0.925-0.375 1.4-0.8375 1.4-0.8375 0-0.8375-1.138-0.8375-1.35v-3.475h1.788v-0.3875h-1.788v-2.3h-0.3125c-0.0125 1.025-0.3875 2.362-1.612 2.412v0.275h1.062v3.45c0 1.538 1.162 1.688 1.612 1.688 0.8875 0 1.238-0.8875 1.238-1.688z"/>
    <path d="m204.2 849.5h-1.974c-0.9912 0-1.008-0.1056-1.04-0.26h-0.2031l-0.2681 1.674h0.2031c0.0244-0.13 0.0975-0.6419 0.2031-0.7394 0.0569-0.0487 0.6906-0.0487 0.7962-0.0487h1.682l-0.91 1.284c-0.7312 1.097-0.9994 2.226-0.9994 3.055 0 0.0812 0 0.4469 0.3738 0.4469s0.3738-0.3656 0.3738-0.4469v-0.4144c0-0.4469 0.0244-0.8938 0.0894-1.332 0.0325-0.1869 0.1462-0.8856 0.5038-1.389l1.097-1.544c0.0731-0.0975 0.0731-0.1138 0.0731-0.2844z" baseline-shift="sub"/>
   </g>
   <g aria-label="t8">
    <path d="m219.6 850.7v-0.7125h-0.3125v0.6875c0 0.925-0.375 1.4-0.8375 1.4-0.8375 0-0.8375-1.138-0.8375-1.35v-3.475h1.788v-0.3875h-1.788v-2.3h-0.3125c-0.0125 1.025-0.3875 2.362-1.612 2.412v0.275h1.062v3.45c0 1.538 1.162 1.688 1.612 1.688 0.8875 0 1.238-0.8875 1.238-1.688z"/>
    <path d="m224 853.4c0-0.2925-0.0894-0.6581-0.3981-0.9994-0.1544-0.1706-0.2844-0.2519-0.8044-0.5769 0.585-0.3006 0.9831-0.7231 0.9831-1.259 0-0.7475-0.7231-1.211-1.462-1.211-0.8125 0-1.471 0.6012-1.471 1.357 0 0.1462 0.0162 0.5119 0.3575 0.8938 0.0894 0.0975 0.39 0.3006 0.5931 0.4388-0.4712 0.2356-1.17 0.6906-1.17 1.495 0 0.8612 0.8288 1.406 1.682 1.406 0.9181 0 1.69-0.6744 1.69-1.544zm-0.5769-2.836c0 0.4631-0.3169 0.8531-0.8044 1.138l-1.008-0.65c-0.3738-0.2438-0.4062-0.52-0.4062-0.6581 0-0.4956 0.5281-0.8369 1.105-0.8369 0.5931 0 1.113 0.4225 1.113 1.008zm0.1706 3.128c0 0.6012-0.6094 1.024-1.276 1.024-0.6988 0-1.284-0.5038-1.284-1.178 0-0.4712 0.26-0.9912 0.9506-1.373l0.9994 0.6338c0.2275 0.1544 0.6094 0.3981 0.6094 0.8938z" baseline-shift="sub"/>
   </g>
   <g aria-label="t9">
    <path d="m239.6 850.7v-0.7125h-0.3125v0.6875c0 0.925-0.375 1.4-0.8375 1.4-0.8375 0-0.8375-1.138-0.8375-1.35v-3.475h1.788v-0.3875h-1.788v-2.3h-0.3125c-0.0125 1.025-0.3875 2.362-1.612 2.412v0.275h1.062v3.45c0 1.538 1.162 1.688 1.612 1.688 0.8875 0 1.238-0.8875 1.238-1.688z"/>
    <path d="m244 852.1c0-2.186-0.9344-2.738-1.658-2.738-0.4469 0-0.845 0.1462-1.194 0.5119-0.3331 0.3656-0.52 0.7069-0.52 1.316 0 1.016 0.715 1.812 1.625 1.812 0.4956 0 0.8288-0.3412 1.016-0.8125v0.26c0 1.901-0.845 2.275-1.316 2.275-0.1381 0-0.5769-0.0163-0.7962-0.2925 0.3575 0 0.4225-0.2356 0.4225-0.3738 0-0.2519-0.195-0.3738-0.3738-0.3738-0.13 0-0.3738 0.0731-0.3738 0.39 0 0.5444 0.4388 0.8775 1.129 0.8775 1.048 0 2.039-1.105 2.039-2.852zm-0.7475-0.7475c0 0.6744-0.2762 1.462-0.9912 1.462-0.13 0-0.5038 0-0.7556-0.5119-0.1462-0.3006-0.1462-0.7069-0.1462-1.105 0-0.4388 0-0.8206 0.1706-1.121 0.2194-0.4062 0.5281-0.5119 0.8125-0.5119 0.3738 0 0.6419 0.2762 0.78 0.6419 0.0975 0.26 0.13 0.7719 0.13 1.146z" baseline-shift="sub"/>
   </g>
   <g aria-label="t10">
    <path d="m259.6 850.7v-0.7125h-0.3125v0.6875c0 0.925-0.375 1.4-0.8375 1.4-0.8375 0-0.8375-1.138-0.8375-1.35v-3.475h1.788v-0.3875h-1.788v-2.3h-0.3125c-0.0125 1.025-0.3875 2.362-1.612 2.412v0.275h1.062v3.45c0 1.538 1.162 1.688 1.612 1.688 0.8875 0 1.238-0.8875 1.238-1.688z"/>
    <path d="m263.7 854.8v-0.2519h-0.26c-0.7312 0-0.7556-0.0894-0.7556-0.39v-4.558c0-0.195 0-0.2112-0.1869-0.2112-0.5038 0.52-1.219 0.52-1.479 0.52v0.2519c0.1625 0 0.6419 0 1.064-0.2112v4.209c0 0.2925-0.0244 0.39-0.7556 0.39h-0.26v0.2519c0.2844-0.0244 0.9912-0.0244 1.316-0.0244s1.032 0 1.316 0.0244z" baseline-shift="sub"/>
    <path d="m268.1 852.2c0-0.65-0.0406-1.3-0.325-1.901-0.3738-0.78-1.04-0.91-1.381-0.91-0.4875 0-1.081 0.2112-1.414 0.9669-0.26 0.5606-0.3006 1.194-0.3006 1.844 0 0.6094 0.0325 1.341 0.3656 1.958 0.3494 0.6581 0.9425 0.8206 1.341 0.8206 0.4388 0 1.056-0.1706 1.414-0.9425 0.26-0.5606 0.3006-1.194 0.3006-1.836zm-0.6744-0.0975c0 0.6094 0 1.162-0.0894 1.682-0.1219 0.7719-0.585 1.016-0.9506 1.016-0.3169 0-0.7962-0.2031-0.9425-0.9831-0.0894-0.4875-0.0894-1.235-0.0894-1.714 0-0.52 0-1.056 0.065-1.495 0.1544-0.9669 0.7638-1.04 0.9669-1.04 0.2681 0 0.8044 0.1462 0.9588 0.9506 0.0812 0.455 0.0812 1.072 0.0812 1.584z" baseline-shift="sub"/>
   </g>
   <g aria-label="t11">
    <path d="m279.6 850.7v-0.7125h-0.3125v0.6875c0 0.925-0.375 1.4-0.8375 1.4-0.8375 0-0.8375-1.138-0.8375-1.35v-3.475h1.788v-0.3875h-1.788v-2.3h-0.3125c-0.0125 1.025-0.3875 2.362-1.612 2.412v0.275h1.062v3.45c0 1.538 1.162 1.688 1.612 1.688 0.8875 0 1.238-0.8875 1.238-1.688z"/>
    <path d="m283.7 854.8v-0.2519h-0.26c-0.7312 0-0.7556-0.0894-0.7556-0.39v-4.558c0-0.195 0-0.2112-0.1869-0.2112-0.5038 0.52-1.219 0.52-1.479 0.52v0.2519c0.1625 0 0.6419 0 1.064-0.2112v4.209c0 0.2925-0.0244 0.39-0.7556 0.39h-0.26v0.2519c0.2844-0.0244 0.9912-0.0244 1.316-0.0244s1.032 0 1.316 0.0244z" baseline-shift="sub"/>
    <path d="m287.7 854.8v-0.2519h-0.26c-0.7312 0-0.7556-0.0894-0.7556-0.39v-4.558c0-0.195 0-0.2112-0.1869-0.2112-0.5038 0.52-1.219 0.52-1.479 0.52v0.2519c0.1625 0 0.6419 0 1.064-0.2112v4.209c0 0.2925-0.0244 0.39-0.7556 0.39h-0.26v0.2519c0.2844-0.0244 0.9912-0.0244 1.316-0.0244s1.032 0 1.316 0.0244z" baseline-shift="sub"/>
   </g>
   <g aria-label="t12">
    <path d="m299.6 850.7v-0.7125h-0.3125v0.6875c0 0.925-0.375 1.4-0.8375 1.4-0.8375 0-0.8375-1.138-0.8375-1.35v-3.475h1.788v-0.3875h-1.788v-2.3h-0.3125c-0.0125 1.025-0.3875 2.362-1.612 2.412v0.275h1.062v3.45c0 1.538 1.162 1.688 1.612 1.688 0.8875 0 1.238-0.8875 1.238-1.688z"/>
    <path d="m303.7 854.8v-0.2519h-0.26c-0.7312 0-0.7556-0.0894-0.7556-0.39v-4.558c0-0.195 0-0.2112-0.1869-0.2112-0.5038 0.52-1.219 0.52-1.479 0.52v0.2519c0.1625 0 0.6419 0 1.064-0.2112v4.209c0 0.2925-0.0244 0.39-0.7556 0.39h-0.26v0.2519c0.2844-0.0244 0.9912-0.0244 1.316-0.0244s1.032 0 1.316 0.0244z" baseline-shift="sub"/>
    <path d="m308 853.3h-0.2031c-0.0406 0.2438-0.0975 0.6012-0.1788 0.7231-0.0569 0.065-0.5931 0.065-0.7719 0.065h-1.462l0.8612-0.8369c1.268-1.121 1.755-1.56 1.755-2.372 0-0.9262-0.7312-1.576-1.722-1.576-0.9181 0-1.519 0.7475-1.519 1.471 0 0.455 0.4062 0.455 0.4306 0.455 0.1381 0 0.4225-0.0975 0.4225-0.4306 0-0.2112-0.1462-0.4225-0.4306-0.4225-0.065 0-0.0813 0-0.1056 8e-3 0.1869-0.5281 0.6256-0.8288 1.097-0.8288 0.7394 0 1.089 0.6581 1.089 1.324 0 0.65-0.4062 1.292-0.8531 1.796l-1.56 1.739c-0.0894 0.0894-0.0894 0.1056-0.0894 0.3006h3.014z" baseline-shift="sub"/>
   </g>
   <g aria-label="t13">
    <path d="m319.6 850.7v-0.7125h-0.3125v0.6875c0 0.925-0.375 1.4-0.8375 1.4-0.8375 0-0.8375-1.138-0.8375-1.35v-3.475h1.788v-0.3875h-1.788v-2.3h-0.3125c-0.0125 1.025-0.3875 2.362-1.612 2.412v0.275h1.062v3.45c0 1.538 1.162 1.688 1.612 1.688 0.8875 0 1.238-0.8875 1.238-1.688z"/>
    <path d="m323.7 854.8v-0.2519h-0.26c-0.7312 0-0.7556-0.0894-0.7556-0.39v-4.558c0-0.195 0-0.2112-0.1869-0.2112-0.5038 0.52-1.219 0.52-1.479 0.52v0.2519c0.1625 0 0.6419 0 1.064-0.2112v4.209c0 0.2925-0.0244 0.39-0.7556 0.39h-0.26v0.2519c0.2844-0.0244 0.9912-0.0244 1.316-0.0244s1.032 0 1.316 0.0244z" baseline-shift="sub"/>
    <path d="m328 853.4c0-0.6662-0.5119-1.3-1.357-1.471 0.6662-0.2194 1.138-0.7881 1.138-1.43 0-0.6662-0.715-1.121-1.495-1.121-0.8206 0-1.438 0.4875-1.438 1.105 0 0.2681 0.1788 0.4225 0.4144 0.4225 0.2519 0 0.4144-0.1788 0.4144-0.4144 0-0.4062-0.3819-0.4062-0.5038-0.4062 0.2519-0.3981 0.7881-0.5038 1.081-0.5038 0.3331 0 0.78 0.1788 0.78 0.91 0 0.0975-0.0162 0.5688-0.2275 0.9262-0.2438 0.39-0.52 0.4144-0.7231 0.4225-0.065 8e-3 -0.26 0.0244-0.3169 0.0244-0.065 8e-3 -0.1219 0.0162-0.1219 0.0975 0 0.0894 0.0569 0.0894 0.195 0.0894h0.3575c0.6662 0 0.9669 0.5525 0.9669 1.349 0 1.105-0.5606 1.341-0.9181 1.341-0.3494 0-0.9588-0.1381-1.243-0.6175 0.2844 0.0406 0.5362-0.1381 0.5362-0.4469 0-0.2925-0.2194-0.455-0.455-0.455-0.195 0-0.455 0.1138-0.455 0.4712 0 0.7394 0.7556 1.276 1.641 1.276 0.9912 0 1.731-0.7394 1.731-1.568z" baseline-shift="sub"/>
   </g>
   <g aria-label="t14">
    <path d="m339.6 850.7v-0.7125h-0.3125v0.6875c0 0.925-0.375 1.4-0.8375 1.4-0.8375 0-0.8375-1.138-0.8375-1.35v-3.475h1.788v-0.3875h-1.788v-2.3h-0.3125c-0.0125 1.025-0.3875 2.362-1.612 2.412v0.275h1.062v3.45c0 1.538 1.162 1.688 1.612 1.688 0.8875 0 1.238-0.8875 1.238-1.688z"/>
    <path d="m343.7 854.8v-0.2519h-0.26c-0.7312 0-0.7556-0.0894-0.7556-0.39v-4.558c0-0.195 0-0.2112-0.1869-0.2112-0.5038 0.52-1.219 0.52-1.479 0.52v0.2519c0.1625 0 0.6419 0 1.064-0.2112v4.209c0 0.2925-0.0244 0.39-0.7556 0.39h-0.26v0.2519c0.2844-0.0244 0.9912-0.0244 1.316-0.0244s1.032 0 1.316 0.0244z" baseline-shift="sub"/>
    <path d="m348.2 853.4v-0.2519h-0.8125v-3.697c0-0.1625 0-0.2112-0.13-0.2112-0.0731 0-0.0975 0-0.1625 0.0975l-2.494 3.811v0.2519h2.161v0.7069c0 0.2925-0.0163 0.3819-0.6175 0.3819h-0.1706v0.2519c0.3331-0.0244 0.7556-0.0244 1.097-0.0244s0.7719 0 1.105 0.0244v-0.2519h-0.1706c-0.6012 0-0.6175-0.0894-0.6175-0.3819v-0.7069zm-1.389-0.2519h-1.982l1.982-3.031z" baseline-shift="sub"/>
   </g>
   <g aria-label="t15">
    <path d="m359.6 850.7v-0.7125h-0.3125v0.6875c0 0.925-0.375 1.4-0.8375 1.4-0.8375 0-0.8375-1.138-0.8375-1.35v-3.475h1.788v-0.3875h-1.788v-2.3h-0.3125c-0.0125 1.025-0.3875 2.362-1.612 2.412v0.275h1.062v3.45c0 1.538 1.162 1.688 1.612 1.688 0.8875 0 1.238-0.8875 1.238-1.688z"/>
    <path d="m363.7 854.8v-0.2519h-0.26c-0.7312 0-0.7556-0.0894-0.7556-0.39v-4.558c0-0.195 0-0.2112-0.1869-0.2112-0.5038 0.52-1.219 0.52-1.479 0.52v0.2519c0.1625 0 0.6419 0 1.064-0.2112v4.209c0 0.2925-0.0244 0.39-0.7556 0.39h-0.26v0.2519c0.2844-0.0244 0.9912-0.0244 1.316-0.0244s1.032 0 1.316 0.0244z" baseline-shift="sub"/>
    <path d="m368 853.1c0-0.9669-0.6662-1.779-1.544-1.779-0.39 0-0.7394 0.13-1.032 0.4144v-1.584c0.1625 0.0487 0.4306 0.1056 0.6906 0.1056 0.9994 0 1.568-0.7394 1.568-0.845 0-0.0488-0.0244-0.0894-0.0813-0.0894 0 0-0.0244 0-0.065 0.0244-0.1625 0.0731-0.5606 0.2356-1.105 0.2356-0.325 0-0.6988-0.0569-1.081-0.2275-0.065-0.0244-0.0975-0.0244-0.0975-0.0244-0.0812 0-0.0812 0.065-0.0812 0.195v2.405c0 0.1462 0 0.2112 0.1138 0.2112 0.0569 0 0.0731-0.0244 0.1056-0.0731 0.0894-0.13 0.39-0.5688 1.048-0.5688 0.4225 0 0.6256 0.3738 0.6906 0.52 0.13 0.3006 0.1462 0.6175 0.1462 1.024 0 0.2844 0 0.7719-0.195 1.113-0.195 0.3169-0.4956 0.5281-0.8694 0.5281-0.5931 0-1.056-0.4306-1.194-0.91 0.0244 8e-3 0.0487 0.0163 0.1381 0.0163 0.2681 0 0.4062-0.2031 0.4062-0.3981s-0.1381-0.3981-0.4062-0.3981c-0.1138 0-0.3981 0.0569-0.3981 0.4306 0 0.6988 0.5606 1.487 1.471 1.487 0.9425 0 1.771-0.78 1.771-1.812z" baseline-shift="sub"/>
   </g>
   <g aria-label="t16">
    <path d="m379.6 850.7v-0.7125h-0.3125v0.6875c0 0.925-0.375 1.4-0.8375 1.4-0.8375 0-0.8375-1.138-0.8375-1.35v-3.475h1.788v-0.3875h-1.788v-2.3h-0.3125c-0.0125 1.025-0.3875 2.362-1.612 2.412v0.275h1.062v3.45c0 1.538 1.162 1.688 1.612 1.688 0.8875 0 1.238-0.8875 1.238-1.688z"/>
    <path d="m383.7 854.8v-0.2519h-0.26c-0.7312 0-0.7556-0.0894-0.7556-0.39v-4.558c0-0.195 0-0.2112-0.1869-0.2112-0.5038 0.52-1.219 0.52-1.479 0.52v0.2519c0.1625 0 0.6419 0 1.064-0.2112v4.209c0 0.2925-0.0244 0.39-0.7556 0.39h-0.26v0.2519c0.2844-0.0244 0.9912-0.0244 1.316-0.0244s1.032 0 1.316 0.0244z" baseline-shift="sub"/>
    <path d="m388 853.1c0-1.032-0.7231-1.812-1.625-1.812-0.5525 0-0.8531 0.4144-1.016 0.8044v-0.195c0-2.056 1.008-2.348 1.422-2.348 0.195 0 0.5362 0.0488 0.715 0.325-0.1219 0-0.4469 0-0.4469 0.3656 0 0.2519 0.195 0.3738 0.3738 0.3738 0.13 0 0.3738-0.0731 0.3738-0.39 0-0.4875-0.3575-0.8775-1.032-0.8775-1.04 0-2.137 1.048-2.137 2.844 0 2.169 0.9425 2.746 1.698 2.746 0.9019 0 1.674-0.7638 1.674-1.836zm-0.7312-8e-3c0 0.39 0 0.7962-0.1381 1.089-0.2438 0.4875-0.6175 0.5281-0.8044 0.5281-0.5119 0-0.7556-0.4875-0.8044-0.6094-0.1462-0.3819-0.1462-1.032-0.1462-1.178 0-0.6338 0.26-1.446 0.9912-1.446 0.13 0 0.5038 0 0.7556 0.5038 0.1462 0.3006 0.1462 0.715 0.1462 1.113z" baseline-shift="sub"/>
   </g>
   <g aria-label="t0">
    <path d="m59.56 850.7v-0.7125h-0.3125v0.6875c0 0.925-0.375 1.4-0.8375 1.4-0.8375 0-0.8375-1.138-0.8375-1.35v-3.475h1.788v-0.3875h-1.788v-2.3h-0.3125c-0.0125 1.025-0.3875 2.362-1.612 2.412v0.275h1.062v3.45c0 1.538 1.162 1.688 1.612 1.688 0.8875 0 1.238-0.8875 1.238-1.688z"/>
    <path d="m64.01 852.2c0-0.65-0.04062-1.3-0.325-1.901-0.3738-0.78-1.04-0.91-1.381-0.91-0.4875 0-1.081 0.2112-1.414 0.9669-0.26 0.5606-0.3006 1.194-0.3006 1.844 0 0.6094 0.0325 1.341 0.3656 1.958 0.3494 0.6581 0.9425 0.8206 1.341 0.8206 0.4388 0 1.056-0.1706 1.414-0.9425 0.26-0.5606 0.3006-1.194 0.3006-1.836zm-0.6744-0.0975c0 0.6094 0 1.162-0.08937 1.682-0.1219 0.7719-0.585 1.016-0.9506 1.016-0.3169 0-0.7962-0.2031-0.9425-0.9831-0.08937-0.4875-0.08937-1.235-0.08937-1.714 0-0.52 0-1.056 0.065-1.495 0.1544-0.9669 0.7638-1.04 0.9669-1.04 0.2681 0 0.8044 0.1462 0.9588 0.9506 0.08125 0.455 0.08125 1.072 0.08125 1.584z" baseline-shift="sub"/>
   </g>
   <g aria-label="t1">
    <path d="m59.56 730.7v-0.7125h-0.3125v0.6875c0 0.925-0.375 1.4-0.8375 1.4-0.8375 0-0.8375-1.138-0.8375-1.35v-3.475h1.788v-0.3875h-1.788v-2.3h-0.3125c-0.0125 1.025-0.3875 2.362-1.612 2.412v0.275h1.062v3.45c0 1.538 1.162 1.688 1.612 1.688 0.8875 0 1.238-0.8875 1.238-1.688z"/>
    <path d="m63.67 734.8v-0.2519h-0.26c-0.7312 0-0.7556-0.0894-0.7556-0.39v-4.558c0-0.195 0-0.2112-0.1869-0.2112-0.5038 0.52-1.219 0.52-1.479 0.52v0.2519c0.1625 0 0.6419 0 1.064-0.2112v4.209c0 0.2925-0.02437 0.39-0.7556 0.39h-0.26v0.2519c0.2844-0.0244 0.9912-0.0244 1.316-0.0244s1.032 0 1.316 0.0244z" baseline-shift="sub"/>
   </g>
   <g aria-label="t2">
    <path d="m79.56 730.7v-0.7125h-0.3125v0.6875c0 0.925-0.375 1.4-0.8375 1.4-0.8375 0-0.8375-1.138-0.8375-1.35v-3.475h1.788v-0.3875h-1.788v-2.3h-0.3125c-0.0125 1.025-0.3875 2.362-1.612 2.412v0.275h1.062v3.45c0 1.538 1.162 1.688 1.612 1.688 0.8875 0 1.238-0.8875 1.238-1.688z"/>
    <path d="m83.92 733.3h-0.2031c-0.04062 0.2438-0.0975 0.6012-0.1788 0.7231-0.05688 0.065-0.5931 0.065-0.7719 0.065h-1.462l0.8612-0.8369c1.268-1.121 1.755-1.56 1.755-2.372 0-0.9262-0.7312-1.576-1.722-1.576-0.9181 0-1.519 0.7475-1.519 1.471 0 0.455 0.4062 0.455 0.4306 0.455 0.1381 0 0.4225-0.0975 0.4225-0.4306 0-0.2112-0.1462-0.4225-0.4306-0.4225-0.065 0-0.08125 0-0.1056 8e-3 0.1869-0.5281 0.6256-0.8288 1.097-0.8288 0.7394 0 1.089 0.6581 1.089 1.324 0 0.65-0.4062 1.292-0.8531 1.796l-1.56 1.739c-0.08938 0.0894-0.08938 0.1056-0.08938 0.3006h3.014z" baseline-shift="sub"/>
   </g>
   <g aria-label="t3">
    <path d="m99.56 730.7v-0.7125h-0.3125v0.6875c0 0.925-0.375 1.4-0.8375 1.4-0.8375 0-0.8375-1.138-0.8375-1.35v-3.475h1.788v-0.3875h-1.788v-2.3h-0.3125c-0.0125 1.025-0.3875 2.362-1.612 2.412v0.275h1.062v3.45c0 1.538 1.162 1.688 1.612 1.688 0.8875 0 1.238-0.8875 1.238-1.688z"/>
    <path d="m104 733.4c0-0.6662-0.5119-1.3-1.357-1.471 0.6662-0.2194 1.138-0.7881 1.138-1.43 0-0.6662-0.715-1.121-1.495-1.121-0.8206 0-1.438 0.4875-1.438 1.105 0 0.2681 0.1788 0.4225 0.4144 0.4225 0.2519 0 0.4144-0.1788 0.4144-0.4144 0-0.4062-0.3819-0.4062-0.5038-0.4062 0.2519-0.3981 0.7881-0.5038 1.081-0.5038 0.3331 0 0.78 0.1788 0.78 0.91 0 0.0975-0.0162 0.5688-0.2275 0.9262-0.2438 0.39-0.52 0.4144-0.7231 0.4225-0.065 8e-3 -0.26 0.0244-0.3169 0.0244-0.065 8e-3 -0.1219 0.0162-0.1219 0.0975 0 0.0894 0.0569 0.0894 0.195 0.0894h0.3575c0.6662 0 0.9669 0.5525 0.9669 1.349 0 1.105-0.5606 1.341-0.9181 1.341-0.3494 0-0.9588-0.1381-1.243-0.6175 0.2844 0.0406 0.5362-0.1381 0.5362-0.4469 0-0.2925-0.2194-0.455-0.455-0.455-0.195 0-0.455 0.1138-0.455 0.4712 0 0.7394 0.7556 1.276 1.641 1.276 0.9912 0 1.731-0.7394 1.731-1.568z" baseline-shift="sub"/>
   </g>
   <g aria-label="t4">
    <path d="m119.6 730.7v-0.7125h-0.3125v0.6875c0 0.925-0.375 1.4-0.8375 1.4-0.8375 0-0.8375-1.138-0.8375-1.35v-3.475h1.788v-0.3875h-1.788v-2.3h-0.3125c-0.0125 1.025-0.3875 2.362-1.612 2.412v0.275h1.062v3.45c0 1.538 1.162 1.688 1.612 1.688 0.8875 0 1.238-0.8875 1.238-1.688z"/>
    <path d="m124.1 733.4v-0.2519h-0.8125v-3.697c0-0.1625 0-0.2112-0.13-0.2112-0.0731 0-0.0975 0-0.1625 0.0975l-2.494 3.811v0.2519h2.161v0.7069c0 0.2925-0.0162 0.3819-0.6175 0.3819h-0.1706v0.2519c0.3331-0.0244 0.7556-0.0244 1.097-0.0244s0.7719 0 1.105 0.0244v-0.2519h-0.1706c-0.6012 0-0.6175-0.0894-0.6175-0.3819v-0.7069zm-1.389-0.2519h-1.982l1.982-3.031z" baseline-shift="sub"/>
   </g>
   <g aria-label="t5">
    <path d="m139.6 730.7v-0.7125h-0.3125v0.6875c0 0.925-0.375 1.4-0.8375 1.4-0.8375 0-0.8375-1.138-0.8375-1.35v-3.475h1.788v-0.3875h-1.788v-2.3h-0.3125c-0.0125 1.025-0.3875 2.362-1.612 2.412v0.275h1.062v3.45c0 1.538 1.162 1.688 1.612 1.688 0.8875 0 1.238-0.8875 1.238-1.688z"/>
    <path d="m143.9 733.1c0-0.9669-0.6662-1.779-1.544-1.779-0.39 0-0.7394 0.13-1.032 0.4144v-1.584c0.1625 0.0487 0.4306 0.1056 0.6906 0.1056 0.9994 0 1.568-0.7394 1.568-0.845 0-0.0488-0.0244-0.0894-0.0812-0.0894 0 0-0.0244 0-0.065 0.0244-0.1625 0.0731-0.5606 0.2356-1.105 0.2356-0.325 0-0.6988-0.0569-1.081-0.2275-0.065-0.0244-0.0975-0.0244-0.0975-0.0244-0.0813 0-0.0813 0.065-0.0813 0.195v2.405c0 0.1462 0 0.2112 0.1138 0.2112 0.0569 0 0.0731-0.0244 0.1056-0.0731 0.0894-0.13 0.39-0.5688 1.048-0.5688 0.4225 0 0.6256 0.3738 0.6906 0.52 0.13 0.3006 0.1462 0.6175 0.1462 1.024 0 0.2844 0 0.7719-0.195 1.113-0.195 0.3169-0.4956 0.5281-0.8694 0.5281-0.5931 0-1.056-0.4306-1.194-0.91 0.0244 8e-3 0.0488 0.0163 0.1381 0.0163 0.2681 0 0.4062-0.2031 0.4062-0.3981s-0.1381-0.3981-0.4062-0.3981c-0.1138 0-0.3981 0.0569-0.3981 0.4306 0 0.6988 0.5606 1.487 1.471 1.487 0.9425 0 1.771-0.78 1.771-1.812z" baseline-shift="sub"/>
   </g>
   <g aria-label="t6">
    <path d="m159.6 730.7v-0.7125h-0.3125v0.6875c0 0.925-0.375 1.4-0.8375 1.4-0.8375 0-0.8375-1.138-0.8375-1.35v-3.475h1.788v-0.3875h-1.788v-2.3h-0.3125c-0.0125 1.025-0.3875 2.362-1.612 2.412v0.275h1.062v3.45c0 1.538 1.162 1.688 1.612 1.688 0.8875 0 1.238-0.8875 1.238-1.688z"/>
    <path d="m164 733.1c0-1.032-0.7231-1.812-1.625-1.812-0.5525 0-0.8531 0.4144-1.016 0.8044v-0.195c0-2.056 1.008-2.348 1.422-2.348 0.195 0 0.5362 0.0488 0.715 0.325-0.1219 0-0.4469 0-0.4469 0.3656 0 0.2519 0.195 0.3738 0.3738 0.3738 0.13 0 0.3738-0.0731 0.3738-0.39 0-0.4875-0.3575-0.8775-1.032-0.8775-1.04 0-2.137 1.048-2.137 2.844 0 2.169 0.9425 2.746 1.698 2.746 0.9019 0 1.674-0.7638 1.674-1.836zm-0.7312-8e-3c0 0.39 0 0.7962-0.1381 1.089-0.2438 0.4875-0.6175 0.5281-0.8044 0.5281-0.5119 0-0.7556-0.4875-0.8044-0.6094-0.1462-0.3819-0.1462-1.032-0.1462-1.178 0-0.6338 0.26-1.446 0.9912-1.446 0.13 0 0.5038 0 0.7556 0.5038 0.1462 0.3006 0.1462 0.715 0.1462 1.113z" baseline-shift="sub"/>
   </g>
   <g aria-label="t7">
    <path d="m179.6 730.7v-0.7125h-0.3125v0.6875c0 0.925-0.375 1.4-0.8375 1.4-0.8375 0-0.8375-1.138-0.8375-1.35v-3.475h1.788v-0.3875h-1.788v-2.3h-0.3125c-0.0125 1.025-0.3875 2.362-1.612 2.412v0.275h1.062v3.45c0 1.538 1.162 1.688 1.612 1.688 0.8875 0 1.238-0.8875 1.238-1.688z"/>
    <path d="m184.2 729.5h-1.974c-0.9912 0-1.008-0.1056-1.04-0.26h-0.2031l-0.2681 1.674h0.2031c0.0244-0.13 0.0975-0.6419 0.2031-0.7394 0.0569-0.0487 0.6906-0.0487 0.7962-0.0487h1.682l-0.91 1.284c-0.7312 1.097-0.9994 2.226-0.9994 3.055 0 0.0812 0 0.4469 0.3738 0.4469s0.3738-0.3656 0.3738-0.4469v-0.4144c0-0.4469 0.0244-0.8938 0.0894-1.332 0.0325-0.1869 0.1462-0.8856 0.5038-1.389l1.097-1.544c0.0731-0.0975 0.0731-0.1138 0.0731-0.2844z" baseline-shift="sub"/>
   </g>
   <g aria-label="t8">
    <path d="m199.6 730.7v-0.7125h-0.3125v0.6875c0 0.925-0.375 1.4-0.8375 1.4-0.8375 0-0.8375-1.138-0.8375-1.35v-3.475h1.788v-0.3875h-1.788v-2.3h-0.3125c-0.0125 1.025-0.3875 2.362-1.612 2.412v0.275h1.062v3.45c0 1.538 1.162 1.688 1.612 1.688 0.8875 0 1.238-0.8875 1.238-1.688z"/>
    <path d="m204 733.4c0-0.2925-0.0894-0.6581-0.3981-0.9994-0.1544-0.1706-0.2844-0.2519-0.8044-0.5769 0.585-0.3006 0.9831-0.7231 0.9831-1.259 0-0.7475-0.7231-1.211-1.462-1.211-0.8125 0-1.471 0.6012-1.471 1.357 0 0.1462 0.0162 0.5119 0.3575 0.8938 0.0894 0.0975 0.39 0.3006 0.5931 0.4388-0.4712 0.2356-1.17 0.6906-1.17 1.495 0 0.8612 0.8288 1.406 1.682 1.406 0.9181 0 1.69-0.6744 1.69-1.544zm-0.5769-2.836c0 0.4631-0.3169 0.8531-0.8044 1.138l-1.008-0.65c-0.3738-0.2438-0.4062-0.52-0.4062-0.6581 0-0.4956 0.5281-0.8369 1.105-0.8369 0.5931 0 1.113 0.4225 1.113 1.008zm0.1706 3.128c0 0.6012-0.6094 1.024-1.276 1.024-0.6988 0-1.284-0.5038-1.284-1.178 0-0.4712 0.26-0.9912 0.9506-1.373l0.9994 0.6338c0.2275 0.1544 0.6094 0.3981 0.6094 0.8938z" baseline-shift="sub"/>
   </g>
   <g aria-label="t9">
    <path d="m219.6 730.7v-0.7125h-0.3125v0.6875c0 0.925-0.375 1.4-0.8375 1.4-0.8375 0-0.8375-1.138-0.8375-1.35v-3.475h1.788v-0.3875h-1.788v-2.3h-0.3125c-0.0125 1.025-0.3875 2.362-1.612 2.412v0.275h1.062v3.45c0 1.538 1.162 1.688 1.612 1.688 0.8875 0 1.238-0.8875 1.238-1.688z"/>
    <path d="m224 732.1c0-2.186-0.9344-2.738-1.658-2.738-0.4469 0-0.845 0.1462-1.194 0.5119-0.3331 0.3656-0.52 0.7069-0.52 1.316 0 1.016 0.715 1.812 1.625 1.812 0.4956 0 0.8288-0.3412 1.016-0.8125v0.26c0 1.901-0.845 2.275-1.316 2.275-0.1381 0-0.5769-0.0163-0.7962-0.2925 0.3575 0 0.4225-0.2356 0.4225-0.3738 0-0.2519-0.195-0.3738-0.3738-0.3738-0.13 0-0.3738 0.0731-0.3738 0.39 0 0.5444 0.4388 0.8775 1.129 0.8775 1.048 0 2.039-1.105 2.039-2.852zm-0.7475-0.7475c0 0.6744-0.2762 1.462-0.9912 1.462-0.13 0-0.5038 0-0.7556-0.5119-0.1462-0.3006-0.1462-0.7069-0.1462-1.105 0-0.4388 0-0.8206 0.1706-1.121 0.2194-0.4062 0.5281-0.5119 0.8125-0.5119 0.3738 0 0.6419 0.2762 0.78 0.6419 0.0975 0.26 0.13 0.7719 0.13 1.146z" baseline-shift="sub"/>
   </g>
   <g aria-label="t10">
    <path d="m239.6 730.7v-0.7125h-0.3125v0.6875c0 0.925-0.375 1.4-0.8375 1.4-0.8375 0-0.8375-1.138-0.8375-1.35v-3.475h1.788v-0.3875h-1.788v-2.3h-0.3125c-0.0125 1.025-0.3875 2.362-1.612 2.412v0.275h1.062v3.45c0 1.538 1.162 1.688 1.612 1.688 0.8875 0 1.238-0.8875 1.238-1.688z"/>
    <path d="m243.7 734.8v-0.2519h-0.26c-0.7312 0-0.7556-0.0894-0.7556-0.39v-4.558c0-0.195 0-0.2112-0.1869-0.2112-0.5038 0.52-1.219 0.52-1.479 0.52v0.2519c0.1625 0 0.6419 0 1.064-0.2112v4.209c0 0.2925-0.0244 0.39-0.7556 0.39h-0.26v0.2519c0.2844-0.0244 0.9912-0.0244 1.316-0.0244s1.032 0 1.316 0.0244z" baseline-shift="sub"/>
    <path d="m248.1 732.2c0-0.65-0.0406-1.3-0.325-1.901-0.3738-0.78-1.04-0.91-1.381-0.91-0.4875 0-1.081 0.2112-1.414 0.9669-0.26 0.5606-0.3006 1.194-0.3006 1.844 0 0.6094 0.0325 1.341 0.3656 1.958 0.3494 0.6581 0.9425 0.8206 1.341 0.8206 0.4388 0 1.056-0.1706 1.414-0.9425 0.26-0.5606 0.3006-1.194 0.3006-1.836zm-0.6744-0.0975c0 0.6094 0 1.162-0.0894 1.682-0.1219 0.7719-0.585 1.016-0.9506 1.016-0.3169 0-0.7962-0.2031-0.9425-0.9831-0.0894-0.4875-0.0894-1.235-0.0894-1.714 0-0.52 0-1.056 0.065-1.495 0.1544-0.9669 0.7638-1.04 0.9669-1.04 0.2681 0 0.8044 0.1462 0.9588 0.9506 0.0813 0.455 0.0813 1.072 0.0813 1.584z" baseline-shift="sub"/>
   </g>
   <g aria-label="t11">
    <path d="m259.6 730.7v-0.7125h-0.3125v0.6875c0 0.925-0.375 1.4-0.8375 1.4-0.8375 0-0.8375-1.138-0.8375-1.35v-3.475h1.788v-0.3875h-1.788v-2.3h-0.3125c-0.0125 1.025-0.3875 2.362-1.612 2.412v0.275h1.062v3.45c0 1.538 1.162 1.688 1.612 1.688 0.8875 0 1.238-0.8875 1.238-1.688z"/>
    <path d="m263.7 734.8v-0.2519h-0.26c-0.7312 0-0.7556-0.0894-0.7556-0.39v-4.558c0-0.195 0-0.2112-0.1869-0.2112-0.5038 0.52-1.219 0.52-1.479 0.52v0.2519c0.1625 0 0.6419 0 1.064-0.2112v4.209c0 0.2925-0.0244 0.39-0.7556 0.39h-0.26v0.2519c0.2844-0.0244 0.9912-0.0244 1.316-0.0244s1.032 0 1.316 0.0244z" baseline-shift="sub"/>
    <path d="m267.7 734.8v-0.2519h-0.26c-0.7312 0-0.7556-0.0894-0.7556-0.39v-4.558c0-0.195 0-0.2112-0.1869-0.2112-0.5038 0.52-1.219 0.52-1.479 0.52v0.2519c0.1625 0 0.6419 0 1.064-0.2112v4.209c0 0.2925-0.0244 0.39-0.7556 0.39h-0.26v0.2519c0.2844-0.0244 0.9912-0.0244 1.316-0.0244s1.032 0 1.316 0.0244z" baseline-shift="sub"/>
   </g>
   <g aria-label="t12">
    <path d="m279.6 730.7v-0.7125h-0.3125v0.6875c0 0.925-0.375 1.4-0.8375 1.4-0.8375 0-0.8375-1.138-0.8375-1.35v-3.475h1.788v-0.3875h-1.788v-2.3h-0.3125c-0.0125 1.025-0.3875 2.362-1.612 2.412v0.275h1.062v3.45c0 1.538 1.162 1.688 1.612 1.688 0.8875 0 1.238-0.8875 1.238-1.688z"/>
    <path d="m283.7 734.8v-0.2519h-0.26c-0.7312 0-0.7556-0.0894-0.7556-0.39v-4.558c0-0.195 0-0.2112-0.1869-0.2112-0.5038 0.52-1.219 0.52-1.479 0.52v0.2519c0.1625 0 0.6419 0 1.064-0.2112v4.209c0 0.2925-0.0244 0.39-0.7556 0.39h-0.26v0.2519c0.2844-0.0244 0.9912-0.0244 1.316-0.0244s1.032 0 1.316 0.0244z" baseline-shift="sub"/>
    <path d="m288 733.3h-0.2031c-0.0406 0.2438-0.0975 0.6012-0.1788 0.7231-0.0569 0.065-0.5931 0.065-0.7719 0.065h-1.462l0.8612-0.8369c1.268-1.121 1.755-1.56 1.755-2.372 0-0.9262-0.7312-1.576-1.722-1.576-0.9181 0-1.519 0.7475-1.519 1.471 0 0.455 0.4062 0.455 0.4306 0.455 0.1381 0 0.4225-0.0975 0.4225-0.4306 0-0.2112-0.1462-0.4225-0.4306-0.4225-0.065 0-0.0813 0-0.1056 8e-3 0.1869-0.5281 0.6256-0.8288 1.097-0.8288 0.7394 0 1.089 0.6581 1.089 1.324 0 0.65-0.4062 1.292-0.8531 1.796l-1.56 1.739c-0.0894 0.0894-0.0894 0.1056-0.0894 0.3006h3.014z" baseline-shift="sub"/>
   </g>
   <g aria-label="t13">
    <path d="m299.6 730.7v-0.7125h-0.3125v0.6875c0 0.925-0.375 1.4-0.8375 1.4-0.8375 0-0.8375-1.138-0.8375-1.35v-3.475h1.788v-0.3875h-1.788v-2.3h-0.3125c-0.0125 1.025-0.3875 2.362-1.612 2.412v0.275h1.062v3.45c0 1.538 1.162 1.688 1.612 1.688 0.8875 0 1.238-0.8875 1.238-1.688z"/>
    <path d="m303.7 734.8v-0.2519h-0.26c-0.7312 0-0.7556-0.0894-0.7556-0.39v-4.558c0-0.195 0-0.2112-0.1869-0.2112-0.5038 0.52-1.219 0.52-1.479 0.52v0.2519c0.1625 0 0.6419 0 1.064-0.2112v4.209c0 0.2925-0.0244 0.39-0.7556 0.39h-0.26v0.2519c0.2844-0.0244 0.9912-0.0244 1.316-0.0244s1.032 0 1.316 0.0244z" baseline-shift="sub"/>
    <path d="m308 733.4c0-0.6662-0.5119-1.3-1.357-1.471 0.6662-0.2194 1.138-0.7881 1.138-1.43 0-0.6662-0.715-1.121-1.495-1.121-0.8206 0-1.438 0.4875-1.438 1.105 0 0.2681 0.1788 0.4225 0.4144 0.4225 0.2519 0 0.4144-0.1788 0.4144-0.4144 0-0.4062-0.3819-0.4062-0.5038-0.4062 0.2519-0.3981 0.7881-0.5038 1.081-0.5038 0.3331 0 0.78 0.1788 0.78 0.91 0 0.0975-0.0162 0.5688-0.2275 0.9262-0.2438 0.39-0.52 0.4144-0.7231 0.4225-0.065 8e-3 -0.26 0.0244-0.3169 0.0244-0.065 8e-3 -0.1219 0.0162-0.1219 0.0975 0 0.0894 0.0569 0.0894 0.195 0.0894h0.3575c0.6662 0 0.9669 0.5525 0.9669 1.349 0 1.105-0.5606 1.341-0.9181 1.341-0.3494 0-0.9588-0.1381-1.243-0.6175 0.2844 0.0406 0.5362-0.1381 0.5362-0.4469 0-0.2925-0.2194-0.455-0.455-0.455-0.195 0-0.455 0.1138-0.455 0.4712 0 0.7394 0.7556 1.276 1.641 1.276 0.9912 0 1.731-0.7394 1.731-1.568z" baseline-shift="sub"/>
   </g>
   <g aria-label="t14">
    <path d="m319.6 730.7v-0.7125h-0.3125v0.6875c0 0.925-0.375 1.4-0.8375 1.4-0.8375 0-0.8375-1.138-0.8375-1.35v-3.475h1.788v-0.3875h-1.788v-2.3h-0.3125c-0.0125 1.025-0.3875 2.362-1.612 2.412v0.275h1.062v3.45c0 1.538 1.162 1.688 1.612 1.688 0.8875 0 1.238-0.8875 1.238-1.688z"/>
    <path d="m323.7 734.8v-0.2519h-0.26c-0.7312 0-0.7556-0.0894-0.7556-0.39v-4.558c0-0.195 0-0.2112-0.1869-0.2112-0.5038 0.52-1.219 0.52-1.479 0.52v0.2519c0.1625 0 0.6419 0 1.064-0.2112v4.209c0 0.2925-0.0244 0.39-0.7556 0.39h-0.26v0.2519c0.2844-0.0244 0.9912-0.0244 1.316-0.0244s1.032 0 1.316 0.0244z" baseline-shift="sub"/>
    <path d="m328.2 733.4v-0.2519h-0.8125v-3.697c0-0.1625 0-0.2112-0.13-0.2112-0.0731 0-0.0975 0-0.1625 0.0975l-2.494 3.811v0.2519h2.161v0.7069c0 0.2925-0.0163 0.3819-0.6175 0.3819h-0.1706v0.2519c0.3331-0.0244 0.7556-0.0244 1.097-0.0244s0.7719 0 1.105 0.0244v-0.2519h-0.1706c-0.6012 0-0.6175-0.0894-0.6175-0.3819v-0.7069zm-1.389-0.2519h-1.982l1.982-3.031z" baseline-shift="sub"/>
   </g>
   <g aria-label="t15">
    <path d="m339.6 730.7v-0.7125h-0.3125v0.6875c0 0.925-0.375 1.4-0.8375 1.4-0.8375 0-0.8375-1.138-0.8375-1.35v-3.475h1.788v-0.3875h-1.788v-2.3h-0.3125c-0.0125 1.025-0.3875 2.362-1.612 2.412v0.275h1.062v3.45c0 1.538 1.162 1.688 1.612 1.688 0.8875 0 1.238-0.8875 1.238-1.688z"/>
    <path d="m343.7 734.8v-0.2519h-0.26c-0.7312 0-0.7556-0.0894-0.7556-0.39v-4.558c0-0.195 0-0.2112-0.1869-0.2112-0.5038 0.52-1.219 0.52-1.479 0.52v0.2519c0.1625 0 0.6419 0 1.064-0.2112v4.209c0 0.2925-0.0244 0.39-0.7556 0.39h-0.26v0.2519c0.2844-0.0244 0.9912-0.0244 1.316-0.0244s1.032 0 1.316 0.0244z" baseline-shift="sub"/>
    <path d="m348 733.1c0-0.9669-0.6662-1.779-1.544-1.779-0.39 0-0.7394 0.13-1.032 0.4144v-1.584c0.1625 0.0487 0.4306 0.1056 0.6906 0.1056 0.9994 0 1.568-0.7394 1.568-0.845 0-0.0488-0.0244-0.0894-0.0813-0.0894 0 0-0.0244 0-0.065 0.0244-0.1625 0.0731-0.5606 0.2356-1.105 0.2356-0.325 0-0.6988-0.0569-1.081-0.2275-0.065-0.0244-0.0975-0.0244-0.0975-0.0244-0.0812 0-0.0812 0.065-0.0812 0.195v2.405c0 0.1462 0 0.2112 0.1138 0.2112 0.0569 0 0.0731-0.0244 0.1056-0.0731 0.0894-0.13 0.39-0.5688 1.048-0.5688 0.4225 0 0.6256 0.3738 0.6906 0.52 0.13 0.3006 0.1462 0.6175 0.1462 1.024 0 0.2844 0 0.7719-0.195 1.113-0.195 0.3169-0.4956 0.5281-0.8694 0.5281-0.5931 0-1.056-0.4306-1.194-0.91 0.0244 8e-3 0.0487 0.0163 0.1381 0.0163 0.2681 0 0.4062-0.2031 0.4062-0.3981s-0.1381-0.3981-0.4062-0.3981c-0.1138 0-0.3981 0.0569-0.3981 0.4306 0 0.6988 0.5606 1.487 1.471 1.487 0.9425 0 1.771-0.78 1.771-1.812z" baseline-shift="sub"/>
   </g>
   <g aria-label="t16">
    <path d="m359.6 730.7v-0.7125h-0.3125v0.6875c0 0.925-0.375 1.4-0.8375 1.4-0.8375 0-0.8375-1.138-0.8375-1.35v-3.475h1.788v-0.3875h-1.788v-2.3h-0.3125c-0.0125 1.025-0.3875 2.362-1.612 2.412v0.275h1.062v3.45c0 1.538 1.162 1.688 1.612 1.688 0.8875 0 1.238-0.8875 1.238-1.688z"/>
    <path d="m363.7 734.8v-0.2519h-0.26c-0.7312 0-0.7556-0.0894-0.7556-0.39v-4.558c0-0.195 0-0.2112-0.1869-0.2112-0.5038 0.52-1.219 0.52-1.479 0.52v0.2519c0.1625 0 0.6419 0 1.064-0.2112v4.209c0 0.2925-0.0244 0.39-0.7556 0.39h-0.26v0.2519c0.2844-0.0244 0.9912-0.0244 1.316-0.0244s1.032 0 1.316 0.0244z" baseline-shift="sub"/>
    <path d="m368 733.1c0-1.032-0.7231-1.812-1.625-1.812-0.5525 0-0.8531 0.4144-1.016 0.8044v-0.195c0-2.056 1.008-2.348 1.422-2.348 0.195 0 0.5362 0.0488 0.715 0.325-0.1219 0-0.4469 0-0.4469 0.3656 0 0.2519 0.195 0.3738 0.3738 0.3738 0.13 0 0.3738-0.0731 0.3738-0.39 0-0.4875-0.3575-0.8775-1.032-0.8775-1.04 0-2.137 1.048-2.137 2.844 0 2.169 0.9425 2.746 1.698 2.746 0.9019 0 1.674-0.7638 1.674-1.836zm-0.7312-8e-3c0 0.39 0 0.7962-0.1381 1.089-0.2438 0.4875-0.6175 0.5281-0.8044 0.5281-0.5119 0-0.7556-0.4875-0.8044-0.6094-0.1462-0.3819-0.1462-1.032-0.1462-1.178 0-0.6338 0.26-1.446 0.9912-1.446 0.13 0 0.5038 0 0.7556 0.5038 0.1462 0.3006 0.1462 0.715 0.1462 1.113z" baseline-shift="sub"/>
   </g>
   <g aria-label="t17">
    <path d="m379.6 730.7v-0.7125h-0.3125v0.6875c0 0.925-0.375 1.4-0.8375 1.4-0.8375 0-0.8375-1.138-0.8375-1.35v-3.475h1.788v-0.3875h-1.788v-2.3h-0.3125c-0.0125 1.025-0.3875 2.362-1.612 2.412v0.275h1.062v3.45c0 1.538 1.162 1.688 1.612 1.688 0.8875 0 1.238-0.8875 1.238-1.688z"/>
    <path d="m383.7 734.8v-0.2519h-0.26c-0.7312 0-0.7556-0.0894-0.7556-0.39v-4.558c0-0.195 0-0.2112-0.1869-0.2112-0.5038 0.52-1.219 0.52-1.479 0.52v0.2519c0.1625 0 0.6419 0 1.064-0.2112v4.209c0 0.2925-0.0244 0.39-0.7556 0.39h-0.26v0.2519c0.2844-0.0244 0.9912-0.0244 1.316-0.0244s1.032 0 1.316 0.0244z" baseline-shift="sub"/>
    <path d="m388.3 729.5h-1.974c-0.9912 0-1.008-0.1056-1.04-0.26h-0.2031l-0.2681 1.674h0.2031c0.0244-0.13 0.0975-0.6419 0.2031-0.7394 0.0569-0.0487 0.6906-0.0487 0.7962-0.0487h1.682l-0.91 1.284c-0.7312 1.097-0.9994 2.226-0.9994 3.055 0 0.0812 0 0.4469 0.3738 0.4469s0.3738-0.3656 0.3738-0.4469v-0.4144c0-0.4469 0.0244-0.8938 0.0894-1.332 0.0325-0.1869 0.1462-0.8856 0.5038-1.389l1.097-1.544c0.0731-0.0975 0.0731-0.1138 0.0731-0.2844z" baseline-shift="sub"/>
   </g>
  </g>
 </g>
</svg>
