<?xml version="1.0" encoding="UTF-8"?>
<svg width="676" height="501" font-family="sans-serif" version="1.1" viewBox="173 90 676 501" xmlns="http://www.w3.org/2000/svg">
 <rect x="208" y="105.7" width="608" height="360" fill="#ebebeb"/>
 <g stroke="#fff" stroke-width="2px">
  <g stroke-opacity=".5">
   <line x1="208.5" x2="208.5" y1="470.7" y2="70.67"/>
   <line x1="289.6" x2="289.6" y1="470.7" y2="70.67"/>
   <line x1="370.6" x2="370.6" y1="470.7" y2="70.67"/>
   <line x1="451.7" x2="451.7" y1="470.7" y2="70.67"/>
   <line x1="532.8" x2="532.8" y1="470.7" y2="70.67"/>
  </g>
  <line x1="613.8" x2="613.8" y1="470.7" y2="70.67"/>
  <line x1="694.9" x2="694.9" y1="470.7" y2="70.67" stroke-opacity=".5"/>
  <line x1="776" x2="776" y1="470.7" y2="70.67" stroke-opacity=".5"/>
  <line x1="203" x2="811" y1="466.2" y2="466.2"/>
  <line x1="203" x2="811" y1="421.2" y2="421.2" stroke-opacity=".5"/>
  <line x1="203" x2="811" y1="376.2" y2="376.2"/>
  <line x1="203" x2="811" y1="331.2" y2="331.2" stroke-opacity=".5"/>
  <line x1="203" x2="811" y1="286.2" y2="286.2"/>
  <line x1="203" x2="811" y1="241.2" y2="241.2" stroke-opacity=".5"/>
  <line x1="203" x2="811" y1="196.2" y2="196.2"/>
  <line x1="203" x2="811" y1="151.2" y2="151.2" stroke-opacity=".5"/>
  <line x1="203" x2="811" y1="106.2" y2="106.2"/>
 </g>
 <g font-size="14px">
  <g text-anchor="middle">
   <text x="208.5" y="473.67191" dy="8.5199995">-10</text>
   <text x="289.56671" y="473.67191" dy="8.5199995">-8</text>
   <text x="370.633" y="473.67191" dy="8.5199995">-6</text>
   <text x="451.70001" y="473.67191" dy="8.5199995">-4</text>
   <text x="532.76703" y="473.67191" dy="8.5199995">-2</text>
   <text x="613.83301" y="473.67191" dy="8.5199995">0</text>
   <text x="694.90002" y="473.67191" dy="8.5199995">2</text>
   <text x="775.96698" y="473.67191" dy="8.5199995">4</text>
  </g>
  <g text-anchor="end">
   <text x="200" y="466.17191" dy="3.8399999">-2.0</text>
   <text x="200" y="421.17191" dy="3.8399999">-1.5</text>
   <text x="200" y="376.17191" dy="3.8399999">-1.0</text>
   <text x="200" y="331.17191" dy="3.8399999">-0.5</text>
   <text x="200" y="286.17191" dy="3.8399999">0.0</text>
   <text x="200" y="241.17191" dy="3.8399999">0.5</text>
   <text x="200" y="196.17191" dy="3.8399999">1.0</text>
   <text x="200" y="151.17191" dy="3.8399999">1.5</text>
   <text x="200" y="106.1719" dy="3.8399999">2.0</text>
  </g>
 </g>
 <g stroke="#505050">
  <line x1="208.5" x2="208.5" y1="465.7" y2="471.7"/>
  <line x1="613.8" x2="613.8" y1="465.7" y2="471.7"/>
  <line x1="816.5" x2="816.5" y1="465.7" y2="471.7"/>
  <line x1="208" x2="202" y1="466.2" y2="466.2"/>
  <line x1="208" x2="202" y1="376.2" y2="376.2"/>
  <line x1="208" x2="202" y1="286.2" y2="286.2"/>
  <line x1="208" x2="202" y1="196.2" y2="196.2"/>
  <line x1="208" x2="202" y1="106.2" y2="106.2"/>
 </g>
 <g fill="none">
  <path d="m208 282.1 1.024-2.112c1.024-2.112 3.071-6.335 5.118-9.957s4.094-6.642 6.141-8.74 4.094-3.273 6.141-3.412c2.047-.1396 4.094.7564 6.141 2.577 2.047 1.821 4.094 4.567 6.141 7.938s4.094 7.366 6.141 11.57c2.047 4.201 4.094 8.606 6.141 12.77s4.094 8.084 6.141 11.38c2.047 3.293 4.094 5.958 6.141 7.746s4.094 2.699 6.141 2.659c2.047-.0394 4.094-1.029 6.141-2.859s4.094-4.501 6.141-7.75 4.094-7.079 6.141-11.13c2.047-4.05 4.094-8.322 6.141-12.43s4.094-8.053 6.141-11.49 4.094-6.374 6.141-8.562c2.047-2.187 4.094-3.628 6.141-4.214 2.047-.5862 4.094-.3184 6.141.7646s4.094 2.981 6.141 5.525 4.094 5.734 6.141 9.305 4.094 7.522 6.141 11.54c2.047 4.019 4.094 8.106 6.141 11.95s4.094 7.445 6.141 10.54c2.047 3.098 4.094 5.692 6.141 7.607s4.094 3.15 6.141 3.635c2.047.4846 4.094.2184 6.141-.7628s4.094-2.677 6.141-4.957 4.094-5.144 6.141-8.389c2.047-3.246 4.094-6.874 6.141-10.64s4.094-7.68 6.141-11.49c2.047-3.806 4.094-7.508 6.141-10.88s4.094-6.429 6.141-8.986 4.094-4.62 6.141-6.085 4.094-2.332 6.141-2.571 4.094.1496 6.141 1.126c2.047.9768 4.094 2.542 6.141 4.595 2.047 2.054 4.094 4.596 6.141 7.484s4.094 6.121 6.141 9.533c2.047 3.411 4.094 7.001 6.141 10.59s4.094 7.191 6.141 10.63c2.047 3.441 4.094 6.724 6.141 9.714s4.094 5.688 6.141 7.991c2.047 2.304 4.094 4.214 6.141 5.671s4.094 2.461 6.141 2.993 4.094.5916 6.141.1981 4.094-1.24 6.141-2.489 4.094-2.901 6.141-4.882 4.094-4.29 6.141-6.839 4.094-5.338 6.141-8.271 4.094-6.011 6.141-9.14 4.094-6.309 6.141-9.454 4.094-6.255 6.141-9.258c2.047-3.002 4.094-5.897 6.141-8.626s4.094-5.293 6.141-7.651 4.094-4.509 6.141-6.431 4.094-3.613 6.141-5.066 4.094-2.667 6.141-3.648c2.047-.9804 4.094-1.727 6.141-2.255 2.047-.5281 4.094-.8378 6.141-.9524s4.094-.0343 6.141.2126c2.047.2468 4.094.6602 6.141 1.209 2.047.5486 4.094 1.233 6.141 2.02 2.047.7875 4.094 1.679 6.141 2.643s4.094 2.002 6.141 3.085 4.094 2.211 6.141 3.36 4.094 2.319 6.141 3.489 4.094 2.341 6.141 3.495 4.094 2.293 6.141 3.402 4.094 2.19 6.141 3.234c2.047 1.043 4.094 2.049 6.141 3.011s4.094 1.881 6.141 2.754c2.047.8729 4.094 1.7 6.141 2.479s4.094 1.513 6.141 2.199c2.047.687 4.094 1.328 6.141 1.926 2.047.5975 4.094 1.151 6.141 1.665s4.094.9868 6.141 1.423c2.047.4366 4.094.8365 6.141 1.204s4.094.7018 6.141 1.008 4.094.583 6.141.8354c2.047.2523 4.094.4799 6.141.6862s4.094.3915 6.141.5587 4.094.3166 6.141.4511 4.094.254 6.141.3612 4.094.2021 6.141.287c2.047.0848 4.094.1596 6.141.2263s4.094.1252 6.141.1771c2.047.052 4.094.0974 6.141.1377 2.047.0402 4.094.0753 6.141.1062s4.094.0578 6.141.0814c2.047.0237 4.094.0441 6.141.062s4.094.0334 6.141.0469 4.094.0251 6.141.0353 4.094.0188 6.141.0264c2.047.008 4.094.014 6.141.0196 2.047.006 4.094.0104 6.141.0145 2.047.004 4.094.008 6.141.0106 2.047.003 4.094.006 6.141.008l6.141.006c2.047.002 4.094.003 5.118.004l1.024-.00031" clip-path='url("#svg8-ar-line-graph-clip")' stroke="#1f77b4"/>
  <path d="m208 196 1.024 2.54c1.024 2.54 3.071 7.619 5.118 15.39 2.047 7.774 4.094 18.24 6.141 30.19 2.047 11.94 4.094 25.37 6.141 38.78 2.047 13.42 4.094 26.83 6.141 38.83s4.094 22.58 6.141 30.69c2.047 8.112 4.094 13.76 6.141 16.43 2.047 2.677 4.094 2.387 6.141-.7438 2.047-3.131 4.094-9.104 6.141-17.24 2.047-8.133 4.094-18.42 6.141-29.81 2.047-11.38 4.094-23.85 6.141-36.19s4.094-24.54 6.141-35.46c2.047-10.93 4.094-20.58 6.141-28.12 2.047-7.537 4.094-12.96 6.141-15.85 2.047-2.892 4.094-3.254 6.141-1.147s4.094 6.683 6.141 13.24 4.094 15.09 6.141 24.8c2.047 9.712 4.094 20.6 6.141 31.71s4.094 22.44 6.141 33.05 4.094 20.51 6.141 28.93 4.094 15.36 6.141 20.33 4.094 7.981 6.141 8.877c2.047.8953 4.094-.3224 6.141-3.47s4.094-8.226 6.141-14.78c2.047-6.55 4.094-14.57 6.141-23.42 2.047-8.851 4.094-18.53 6.141-28.32 2.047-9.791 4.094-19.69 6.141-29.02s4.094-18.09 6.141-25.72c2.047-7.628 4.094-14.13 6.141-19.13 2.047-5.001 4.094-8.506 6.141-10.37s4.094-2.08 6.141-.7275c2.047 1.352 4.094 4.274 6.141 8.506s4.094 9.774 6.141 16.23 4.094 13.82 6.141 21.63c2.047 7.809 4.094 16.06 6.141 24.27 2.047 8.211 4.094 16.38 6.141 24.08 2.047 7.697 4.094 14.92 6.141 21.32 2.047 6.402 4.094 11.98 6.141 16.52 2.047 4.535 4.094 8.023 6.141 10.36 2.047 2.341 4.094 3.535 6.141 3.606 2.047.0711 4.094-.9812 6.141-3.028 2.047-2.047 4.094-5.089 6.141-8.918s4.094-8.445 6.141-13.59c2.047-5.148 4.094-10.83 6.141-16.76s4.094-12.13 6.141-18.32 4.094-12.37 6.141-18.32c2.047-5.947 4.094-11.66 6.141-16.95s4.094-10.16 6.141-14.48c2.047-4.322 4.094-8.095 6.141-11.25 2.047-3.157 4.094-5.698 6.141-7.608s4.094-3.189 6.141-3.871c2.047-.6814 4.094-.765 6.141-.3204s4.094 1.418 6.141 2.824 4.094 3.246 6.141 5.41 4.094 4.654 6.141 7.355c2.047 2.702 4.094 5.616 6.141 8.636s4.094 6.145 6.141 9.28 4.094 6.28 6.141 9.356c2.047 3.075 4.094 6.081 6.141 8.955s4.094 5.617 6.141 8.186 4.094 4.963 6.141 7.158 4.094 4.19 6.141 5.975 4.094 3.361 6.141 4.73 4.094 2.532 6.141 3.501 4.094 1.744 6.141 2.347c2.047.6022 4.094 1.031 6.141 1.311s4.094.4112 6.141.4202 4.094-.1043 6.141-.3132 4.094-.5135 6.141-.8884 4.094-.8203 6.141-1.313c2.047-.493 4.094-1.033 6.141-1.602 2.047-.5684 4.094-1.165 6.141-1.772 2.047-.6076 4.094-1.227 6.141-1.844 2.047-.6174 4.094-1.233 6.141-1.837 2.047-.6041 4.094-1.197 6.141-1.771s4.094-1.129 6.141-1.662 4.094-1.041 6.141-1.525c2.047-.4835 4.094-.9414 6.141-1.373s4.094-.8364 6.141-1.215c2.047-.3788 4.094-.7316 6.141-1.06 2.047-.3279 4.094-.631 6.141-.9111s4.094-.5373 6.141-.7737 4.094-.4521 6.141-.6494 4.094-.3762 6.141-.5391 4.094-.3098 6.141-.443 4.094-.2526 6.141-.3604 4.094-.2041 6.141-.2906 4.094-.1634 6.141-.2322c2.047-.0689 4.094-.1297 6.141-.184s4.094-.1021 6.141-.1447c2.047-.0425 4.094-.0798 6.141-.1128s4.094-.0619 6.141-.0874 4.094-.0476 6.141-.0671 4.094-.0364 6.141-.0512 4.094-.0276 6.141-.0388 4.094-.0208 6.141-.0292c2.047-.008 4.094-.0156 6.141-.0219 2.047-.006 4.094-.0116 6.141-.0162 2.047-.005 4.094-.009 6.141-.012s4.094-.006 5.118-.008l1.024-.00125" clip-path='url("#svg8-ar-line-graph-clip")' stroke="#ff7f0e"/>
  <path d="m208 314 1.024-.7901c1.024-.7901 3.071-2.37 5.118-4.823s4.094-5.778 6.141-9.601 4.094-8.141 6.141-12.48 4.094-8.711 6.141-12.64 4.094-7.42 6.141-10.11 4.094-4.594 6.141-5.515 4.094-.8638 6.141.1504c2.047 1.014 4.094 2.985 6.141 5.702s4.094 6.18 6.141 10.04c2.047 3.859 4.094 8.114 6.141 12.35 2.047 4.237 4.094 8.455 6.141 12.26 2.047 3.803 4.094 7.191 6.141 9.857s4.094 4.611 6.141 5.671 4.094 1.234 6.141.5238c2.047-.7104 4.094-2.306 6.141-4.63s4.094-5.378 6.141-8.885 4.094-7.468 6.141-11.54c2.047-4.073 4.094-8.258 6.141-12.21 2.047-3.951 4.094-7.667 6.141-10.85s4.094-5.843 6.141-7.771 4.094-3.128 6.141-3.521 4.094.0192 6.141 1.19c2.047 1.17 4.094 3.098 6.141 5.625s4.094 5.652 6.141 9.137 4.094 7.33 6.141 11.25c2.047 3.925 4.094 7.931 6.141 11.74s4.094 7.421 6.141 10.6c2.047 3.177 4.094 5.92 6.141 8.06s4.094 3.677 6.141 4.529 4.094 1.018 6.141.5058c2.047-.5118 4.094-1.701 6.141-3.479s4.094-4.143 6.141-6.942 4.094-6.03 6.141-9.499 4.094-7.174 6.141-10.91 4.094-7.488 6.141-11.07c2.047-3.581 4.094-6.986 6.141-10.04 2.047-3.059 4.094-5.771 6.141-8.012s4.094-4.012 6.141-5.241c2.047-1.23 4.094-1.919 6.141-2.054s4.094.2832 6.141 1.217c2.047.9335 4.094 2.382 6.141 4.264s4.094 4.196 6.141 6.831 4.094 5.59 6.141 8.735 4.094 6.479 6.141 9.869 4.094 6.834 6.141 10.21c2.047 3.372 4.094 6.671 6.141 9.786 2.047 3.116 4.094 6.048 6.141 8.71s4.094 5.053 6.141 7.113 4.094 3.789 6.141 5.154 4.094 2.367 6.141 2.998 4.094.8915 6.141.7977 4.094-.5419 6.141-1.31c2.047-.7683 4.094-1.857 6.141-3.218s4.094-2.996 6.141-4.849 4.094-3.924 6.141-6.156 4.094-4.625 6.141-7.122 4.094-5.1 6.141-7.756 4.094-5.367 6.141-8.087c2.047-2.721 4.094-5.452 6.141-8.159s4.094-5.39 6.141-8.025 4.094-5.221 6.141-7.745 4.094-4.985 6.141-7.378c2.047-2.394 4.094-4.72 6.141-6.984s4.094-4.466 6.141-6.619 4.094-4.256 6.141-6.332 4.094-4.123 6.141-6.172c2.047-2.048 4.094-4.097 6.141-6.183s4.094-4.207 6.141-6.408 4.094-4.481 6.141-6.892 4.094-4.953 6.141-7.686 4.094-5.659 6.141-8.85 4.094-6.647 6.141-10.46 4.094-7.976 6.141-12.61 4.094-9.725 6.141-15.42c2.047-5.697 4.094-12 6.141-19.07s4.094-14.93 6.141-23.79c.4437-1.919.8874-3.885 1.331-5.901" clip-path='url("#svg8-ar-line-graph-clip")' stroke="#2ca02c"/>
  <path d="m208 274.9 1.024-6.631c1.024-6.631 3.071-19.89 5.118-31.21 2.047-11.31 4.094-20.67 6.141-27.12 2.047-6.447 4.094-9.984 6.141-10.32s4.094 2.533 6.141 8.202 4.094 14.14 6.141 24.45 4.094 22.45 6.141 35.13 4.094 25.91 6.141 38.33 4.094 24.03 6.141 33.73c2.047 9.692 4.094 17.46 6.141 22.62 2.047 5.156 4.094 7.699 6.141 7.477s4.094-3.212 6.141-8.591c2.047-5.38 4.094-13.15 6.141-22.51s4.094-20.32 6.141-31.82 4.094-23.55 6.141-35.05c2.047-11.51 4.094-22.47 6.141-31.96s4.094-17.51 6.141-23.42c2.047-5.916 4.094-9.73 6.141-11.21s4.094-.612 6.141 2.427 4.094 8.253 6.141 15.14c2.047 6.884 4.094 15.44 6.141 24.92s4.094 19.89 6.141 30.39 4.094 21.09 6.141 30.97c2.047 9.878 4.094 19.04 6.141 26.86 2.047 7.813 4.094 14.27 6.141 18.98 2.047 4.703 4.094 7.65 6.141 8.715s4.094.2474 6.141-2.307 4.094-6.846 6.141-12.5c2.047-5.657 4.094-12.68 6.141-20.54 2.047-7.863 4.094-16.57 6.141-25.51s4.094-18.14 6.141-27c2.047-8.856 4.094-17.38 6.141-25.06 2.047-7.688 4.094-14.55 6.141-20.22 2.047-5.671 4.094-10.16 6.141-13.27 2.047-3.112 4.094-4.85 6.141-5.2s4.094.6887 6.141 2.976c2.047 2.287 4.094 5.822 6.141 10.34 2.047 4.522 4.094 10.03 6.141 16.19 2.047 6.155 4.094 12.96 6.141 20.03s4.094 14.42 6.141 21.67 4.094 14.41 6.141 21.16 4.094 13.09 6.141 18.77 4.094 10.71 6.141 14.92c2.047 4.207 4.094 7.596 6.141 10.1s4.094 4.109 6.141 4.842 4.094.5872 6.141-.3526 4.094-2.674 6.141-5.068 4.094-5.446 6.141-8.988 4.094-7.575 6.141-11.91 4.094-8.986 6.141-13.76c2.047-4.773 4.094-9.673 6.141-14.54s4.094-9.693 6.141-14.35 4.094-9.143 6.141-13.35c2.047-4.212 4.094-8.149 6.141-11.74s4.094-6.85 6.141-9.728 4.094-5.381 6.141-7.506 4.094-3.871 6.141-5.261 4.094-2.424 6.141-3.144c2.047-.7199 4.094-1.126 6.141-1.273 2.047-.1476 4.094-.0368 6.141.2686s4.094.8055 6.141 1.433c2.047.6278 4.094 1.383 6.141 2.2s4.094 1.695 6.141 2.572c2.047.8766 4.094 1.751 6.141 2.566s4.094 1.568 6.141 2.207c2.047.6392 4.094 1.164 6.141 1.524 2.047.3604 4.094.5565 6.141.5409s4.094-.243 6.141-.7298c2.047-.4867 4.094-1.233 6.141-2.289s4.094-2.423 6.141-4.16c2.047-1.736 4.094-3.842 6.141-6.388s4.094-5.534 6.141-9.054 4.094-7.572 6.141-12.28c2.047-4.704 4.094-10.06 6.141-16.22 2.047-6.165 4.094-13.14 6.141-21.13 2.047-7.992 4.094-17 6.141-27.31s4.094-21.92 6.141-35.2c.1741-1.13.3481-2.271.5222-3.425" clip-path='url("#svg8-ar-line-graph-clip")' stroke="#d62728"/>
 </g>
 <g font-size="12px">
  <g fill="#ebebeb" >
   <rect x="248" y="493.7" width="24" height="24"/>
   <rect x="401.2" y="493.7" width="24" height="24"/>
   <rect x="554.5" y="493.7" width="24" height="24"/>
   <rect x="707.8" y="493.7" width="24" height="24"/>
  </g>
  <g text-anchor="middle">
   <text x="260" y="505.672" dominant-baseline="middle" fill="#1f77b4">–</text>
   <text x="413.25" y="505.672" dominant-baseline="middle" fill="#ff7f0e">–</text>
   <text x="566.5" y="505.672" dominant-baseline="middle" fill="#2ca02c">–</text>
   <text x="719.75" y="505.672" dominant-baseline="middle" fill="#d62728">–</text>
  </g>
  <text x="276" y="505.672" dominant-baseline="middle">Ai(x)</text>
  <text x="429.25" y="505.672" dominant-baseline="middle">Ai'(x)</text>
  <text x="582.5" y="505.672" dominant-baseline="middle">Bi(x)</text>
  <text x="735.75" y="505.672" dominant-baseline="middle">Bi'(x)</text>
 </g>
</svg>
