<?xml version="1.0" encoding="UTF-8"?>
<svg version="1.1" viewBox="0 0 129.1 50.24" xmlns="http://www.w3.org/2000/svg" xmlns:xlink="http://www.w3.org/1999/xlink">
 <defs>
  <pattern id="a" xlink:href="#d" patternTransform="matrix(.4221 0 0 .4221 -27.93 51.15)"/>
  <pattern id="d" width="10" height="10" patternTransform="translate(0) scale(10)" patternUnits="userSpaceOnUse">
   <circle cx="2.567" cy=".81" r=".45" fill="#427dc0"/>
   <circle cx="3.048" cy="2.33" r=".45" fill="#427dc0"/>
   <circle cx="4.418" cy="2.415" r=".45" fill="#427dc0"/>
   <circle cx="1.844" cy="3.029" r=".45" fill="#427dc0"/>
   <circle cx="6.08" cy="1.363" r=".45" fill="#427dc0"/>
   <circle cx="5.819" cy="4.413" r=".45" fill="#427dc0"/>
   <circle cx="4.305" cy="4.048" r=".45" fill="#427dc0"/>
   <circle cx="5.541" cy="3.045" r=".45" fill="#427dc0"/>
   <circle cx="4.785" cy="5.527" r=".45" fill="#427dc0"/>
   <circle cx="2.667" cy="5.184" r=".45" fill="#427dc0"/>
   <circle cx="7.965" cy="1.448" r=".45" fill="#427dc0"/>
   <circle cx="7.047" cy="5.049" r=".45" fill="#427dc0"/>
   <circle cx="4.34" cy=".895" r=".45" fill="#427dc0"/>
   <circle cx="7.125" cy=".34" r=".45" fill="#427dc0"/>
   <circle cx="7.125" cy="10.34" r=".45" fill="#427dc0"/>
   <circle cx="9.55" cy="1.049" r=".45" fill="#427dc0"/>
   <circle cx="7.006" cy="2.689" r=".45" fill="#427dc0"/>
   <circle cx="8.909" cy="2.689" r=".45" fill="#427dc0"/>
   <circle cx="9.315" cy="4.407" r=".45" fill="#427dc0"/>
   <circle cx="7.82" cy="3.87" r=".45" fill="#427dc0"/>
   <circle cx="8.27" cy="5.948" r=".45" fill="#427dc0"/>
   <circle cx="7.973" cy="7.428" r=".45" fill="#427dc0"/>
   <circle cx="9.342" cy="8.072" r=".45" fill="#427dc0"/>
   <circle cx="8.206" cy="9.315" r=".45" fill="#427dc0"/>
   <circle cx="9.682" cy="9.475" r=".45" fill="#427dc0"/>
   <circle cx="-.318" cy="9.475" r=".45" fill="#427dc0"/>
   <circle cx="9.688" cy="6.186" r=".45" fill="#427dc0"/>
   <circle cx="-.312" cy="6.186" r=".45" fill="#427dc0"/>
   <circle cx="3.379" cy="6.296" r=".45" fill="#427dc0"/>
   <circle cx="2.871" cy="8.204" r=".45" fill="#427dc0"/>
   <circle cx="4.59" cy="8.719" r=".45" fill="#427dc0"/>
   <circle cx="3.181" cy="9.671" r=".45" fill="#427dc0"/>
   <circle cx="3.181" cy="-.329" r=".45" fill="#427dc0"/>
   <circle cx="5.734" cy="7.315" r=".45" fill="#427dc0"/>
   <circle cx="6.707" cy="6.513" r=".45" fill="#427dc0"/>
   <circle cx="5.73" cy="9.67" r=".45" fill="#427dc0"/>
   <circle cx="5.73" cy="-.33" r=".45" fill="#427dc0"/>
   <circle cx="6.535" cy="8.373" r=".45" fill="#427dc0"/>
   <circle cx="4.37" cy="7.154" r=".45" fill="#427dc0"/>
   <circle cx=".622" cy="7.25" r=".45" fill="#427dc0"/>
   <circle cx=".831" cy="5.679" r=".45" fill="#427dc0"/>
   <circle cx="1.257" cy="8.519" r=".45" fill="#427dc0"/>
   <circle cx="1.989" cy="6.877" r=".45" fill="#427dc0"/>
   <circle cx=".374" cy="3.181" r=".45" fill="#427dc0"/>
   <circle cx="10.37" cy="3.181" r=".45" fill="#427dc0"/>
   <circle cx="1.166" cy="1.664" r=".45" fill="#427dc0"/>
   <circle cx="1.151" cy=".093" r=".45" fill="#427dc0"/>
   <circle cx="1.151" cy="10.09" r=".45" fill="#427dc0"/>
   <circle cx="1.302" cy="4.451" r=".45" fill="#427dc0"/>
   <circle cx="3.047" cy="3.763" r=".45" fill="#427dc0"/>
  </pattern>
  <pattern id="c" patternTransform="matrix(.4221 0 0 .4221 -11.04 54.86)" xlink:href="#a"/>
  <pattern id="b" patternTransform="matrix(.4221 0 0 .4221 -6.171 40.83)" xlink:href="#a"/>
 </defs>
 <g transform="matrix(.1667 0 0 .1667 81.97 -50)">
  <g transform="matrix(.5 0 0 .5 0 300)">
   <path d="m243 323 81-47 80 47-80 46-81-45z" fill="#f6bd3a"/>
   <path d="m0 184 324-184 241 137-80 139-161-92-243 138z" fill="#f6bd3a"/>
   <path d="m243 507v-92l80-46 81-46v92l-80 46v92l-81 47zm0-184-81-46-81 45v-92l243-138v184zm241-93v-46l81-47 1 92-81 47z" fill="#eb8c23"/>
   <path d="m162 551v-274l80-45 1 91 81 45v93l-81-43v182zm-122-253-40-24v-90l81 46v92zm284-114v-92l160 92 1 92z" fill="#e35a2b"/>
  </g>
 </g>
 <text x="54.624653" y="37.453018" fill="#da3338" font-family="sans-serif" font-size="35.28px" letter-spacing="0px" stroke-width=".2646px" word-spacing="0px" style="line-height:125%" xml:space="preserve"><tspan x="54.624653" y="37.453018" fill="#da3338" stroke-width=".2646px">+</tspan></text>
 <g fill="none">
  <path d="m2.13 18.56 6.098 5.524m.6931.6049.1271.1215 8.168 7.641-.3583 13.81" stroke="#427dc0" stroke-width=".2646px"/>
  <path d="m8.833 24.36.04972.9226" stroke="#fffffe" stroke-width=".3"/>
  <path d="m24.49.4259 20.43 11.92c.3741.2182.6036.6197.6017 1.053l-.104 23.66c-.0019.4332-.2348.8324-.611 1.048l-20.54 11.74c-.376.215-.8383.213-1.213-.0053l-20.43-11.92c-.3741-.2182-.6036-.6197-.6017-1.053l.04072-9.261.06327-14.39c.00185-.4332.2348-.8324.611-1.048l20.54-11.74c.376-.215.8383-.2129 1.213.005332z" stroke="#427dc0" stroke-width=".494"/>
  <ellipse cx="17.18" cy="15.73" rx="6.298" ry="6.498" stroke="#427dc0" stroke-width=".294"/>
 </g>
 <circle cx="17.18" cy="15.73" r="4.698" fill="#427dc0"/>
 <ellipse cx="29.88" cy="15.73" rx="6.298" ry="6.398" fill="none" stroke="#427dc0" stroke-width=".294"/>
 <circle cx="29.8" cy="15.57" r="4.798" fill="#427dc0"/>
 <path d="m30.55 46.11.1592-13.69 5.535-4.806 9.273-8.051" fill="none" stroke="#427dc0" stroke-width=".2646px"/>
 <circle cx="14.58" cy="13.42" r="1.6" fill="#fff"/>
 <circle cx="32.54" cy="13.02" r="1.6" fill="#fff"/>
 <g transform="translate(45.56,-8.029)" fill="#427dc0">
  <path d="m-29.76 35.31c-.03817.1735.01129.2067.0651.233 4.51 1.016 11.04 1.402 16.34.0257.234-.1325.1084-.3769-.05974-.4028-.1098.0078-.151.03401-.4288.1135-1.201.3434-3.918.7355-6.803.7477-3.46.01457-7.156-.4188-8.684-.8124-.06621-.01706-.1148-.03283-.1439-.049-.1127-.02597-.2134.0019-.2886.1443z" color="#000000" style="-inkscape-stroke:none"/>
  <path d="m-29.66 36.89c-.2196-.2586-.7222-1.2-.7178-1.492.0098-.8873.4491-1.126.9007-1.267.1184-.01704.242-.04799.2832.1407.0018.07975.0091.1595-.1143.2392-.3587.09316-.6437.2658-.66.7276l.04834.3217c.1344.3933.1469.5315.5836 1.076.08083.2019-.101.4261-.3237.2533z"/>
  <path d="m-13.55 36.53c.4005-.4814.4685-.8083.5996-1.07.01014-.1635.004-.2601-.07215-.3757-.2082-.2647-.4266-.3944-.7314-.4876-.06093-.03607-.1198-.1547-.07464-.2239.0215-.1034.08988-.1233.1542-.1418.413.1052.815.4157.933.5672.1834.1413.2257.3713.2314.6245-.01858.1202-.01833.1384-.05626.2527-.1023.3084-.2788.7304-.6702 1.126-.1205.05088-.1786.02657-.2488-.04479-.09466-.08835-.08126-.1609-.06467-.2264z"/>
  <path d="m-27.8 37.44c.1531.2108.3382.4295.5971.6668.3048.279.641.4429.9852.5772.3549.0928.7099.1625 1.065.1891 1.836.09498 3.497.215 6.946.07961l.6867-.199c.4676-.2443.8832-.3649 1.513-.9952.02654-.09288.01326-.1791-.03981-.2587-.08011-.06884-.1408-.04051-.209-.04976-.2988.237-.9012.8985-1.871 1.045-.6278.07505-4.806.2877-7.683-.1493-.6354-.09779-1.172-.4695-1.622-1.085-.08625-.07237-.1725-.1189-.2587-.05971-.1254.0885-.1126.1632-.1095.2388z"/>
  <path d="m-25.1 39.14c.05984.1526.1923.4146.6966.6668 1.673.722 3.738.6018 4.856.2986.2885-.09042.9449-.3975 1.115-.7961l.1095-.3284c-1.967.01347-2.803.186-6.787-.08459-.01012.07679-.01891.154.01.2438z"/>
 </g>
 <path d="m2.13 18.56 4.657 12.54 7.484 2.309-1.632 2.866 4.06 9.633" fill="none" stroke="#427dc0" stroke-width=".2646px"/>
 <path d="m30.59 45.99 4.06-9.315-2.03-3.702 3.819-1.564m.6174-.2529 2.774-1.136m.6631-.2715 1.362-.5576 3.304-9.315" fill="none" stroke="#427dc0" stroke-width=".2646px"/>
 <ellipse cx="8.85" cy="31.93" rx="4.561" ry="4.367" fill="#fffffe"/>
 <path d="m9.18 27.57c2.366.1608 4.233 2.05 4.233 4.356 0 2.412-2.042 4.367-4.561 4.367s-4.561-1.955-4.561-4.367c0-2.267 1.804-4.131 4.113-4.346" fill="none" stroke="#427dc0" stroke-width=".165"/>
 <ellipse cx="8.9" cy="31.91" rx="2.189" ry="2.159" fill="none" stroke="#427dc0" stroke-width=".465"/>
 <ellipse cx="8.9" cy="31.91" rx="1.811" ry="1.801" fill="#427dc0"/>
 <g transform="translate(45.56,-8.029)" fill="none" stroke="#427dc0">
  <path d="m-36.88 38.22-1.407-20.63" stroke-width=".365"/>
  <path d="m-36.2 38.34-1.182-19.31c.0378-.8746.1347-1.923.4644-2.055" stroke-width=".065"/>
  <g stroke-width=".165">
   <path d="m-38.37 17.65c-.07816-.9136 1.528-1.467 2.364-1.562"/>
   <path d="m-42.6 38.88c-.09715.3251-.08315.7628-.08082 1.088.5946-.8454 1.12-1.717.9056-2.876-.1584.17-.2892.3676-.3682.617"/>
   <path d="m-2.808 38.1c-.07062-.2615-.1247-.5894-.2189-.7563-.581 1.154-.2993 2.109.4976 2.946.1073-.2138.04167-.6166-.00498-.933"/>
  </g>
  <path d="m-9.346 15.14c.5937.2566 1.237.4991 1.323.9007.3916 3.124.5062 6.229.5231 9.353" stroke-width=".2646px"/>
  <path d="m-8.242 25.36c-.112-3.059-.3437-5.999-.5573-8.956-.06166-.4394-.1643-.633-.2786-.7563" stroke-width=".165"/>
 </g>
 <path d="m35.17 28.91c.3846-.2767.7998-.6296 1.042-.5489-.5876-2.348-.8012-4.104-.9429-5.475.5705-1.012 1.286-1.961 2.815-2.421 1.308.04687 2.186.5398 2.744 1.562.1227 1.752-.1161 3.616-.4785 5.517l1.042.2533c.8843-3.52.7939-4.918.6474-6.192-.1303-.3692-.2684-.7371-.6192-1.07-.9667-.7236-1.783-.845-2.646-1.154l-.197-1.689c-.2634-.4133-.6404-.4104-1.013-.4222-.3941.0094-.6568.1314-.7881.3659.03302.6008.0854 1.24.08444 1.773-1.963.8459-2.28 1.736-2.927 2.618-.03248 1.053.192 2.489.5348 4.18z" fill="#427dc0"/>
 <g transform="translate(45.56,-8.029)" fill="none" stroke="#427dc0">
  <path d="m-4.308 35.35-2.984 9.486c-.1978.3941-.3777.7881-1.013 1.182-.1783.101-.3565.171-.5348.197" stroke-width=".365"/>
  <path d="m-5.082 35.44c-.6722 3.054-1.612 6.068-2.941 9.049-.3384.5338-.5515.7019-.8163.8304" stroke-width=".165"/>
  <path d="m-9.635 36.3 2.38 6.185.07777-.1647m.3085 1.344c.4115.7466.9085 1.297 1.545 1.526.04815.01735.4056.09754.4554.1112" stroke-width=".2646px"/>
  <path d="m-10.22 36.68 2.646 6.755m.4552 1.084c.1546.2118.3552.4476.7404.8132.31.2454.6007.5254.9856.6359.06284.01804.4267.08629.4951.0944" stroke-width=".165"/>
 </g>
 <path d="m37.26 37.99c0 .5257-.9014.7915-1.532.8011-.6855.01044-1.099-.2694-1.12-.8011-.01981-.5096.7273-.8173 1.408-.8558.2233-.01264.9513.07216.7954.1872-.2136.1576-.7457.4197-.2309.6319.211.08696.6795-.152.6795.0367z" fill="#427dc0" stroke-width=".165"/>
 <path d="m42.68 37.57c.06012.4658-.4713.8337-1.229.8111-.4577-.01369-.7789-.1375-.9993-.3591-.1142-.1149-.1038-.09577-.1103-.2429-.0019-.04311.01689-.2142.02641-.2546.07192-.3047.322-.5123.9837-.6112.7798-.1166 1.252.06678 1.328.6568z" fill="#427dc0" stroke-width=".165"/>
 <g transform="translate(45.56,-8.029)" stroke-width=".006965">
  <path d="m-32.28 41.26.8739.1873-1.57 2.954 3.997 9.436-14.31-8.402.0105-7.589.6308 1.119-.08313 1.086c1.343-1.717.9414-2.445.9284-3.005l-.3313.6174-1.172-1.834.2056-8.4 3.375 9.265c-2.641 2.352-1.545 6.121.8797 7.159 2.087.893 4.989.8436 6.562-2.594z" fill="url(#a)"/>
  <path d="m-5.134 46.06.1214-.8222c-1.198-.292-1.332-.9388-1.807-1.472l1.794-5.982 1.366-.6013 3.376-9.26-.07428 7.802c-.6329.954-1.526 1.7-2.418 2.447l-.3734-.6193c-.408 1.301.1578 2.069.618 2.791l.01311-.9991 2.143-2.036.06554 8.301-14.65 8.426 4.005-9.321-1.933-3.698 3.745-1.59 1.505 3.971c.1973.5557-1.24 1.981-1.202 1.896.0971-.2131-1.044.8397-.6995.8723.202.01915 1.092-.04113 1.611-.4488.4331-.3399.5284-1.233.8299-1.062.185.105 1.057 1.371 1.961 1.403z" fill="url(#c)"/>
  <path d="m-5.845 38c-.3336 1.458-.7035 2.912-1.377 4.344l-1.226-3.118z" fill="url(#b)"/>
 </g>
 <path d="m45.66 20.88c.6421 2.123 1.091 4.185 1.052 6.36-1.131 1.971-2.698 3.07-4.12 4.458-.1774-.3571-.3901-.6717-.349-1.291 1.403-.9521 2.679-2.031 3.503-3.563.02692-1.097.09216-1.627-.09138-2.146z" fill="#fffffe" stroke="#427dc0" stroke-width=".165"/>
 <path d="m1.93 22.6c-.5434.9079-.7228 1.83-.9546 2.79.6463 1.568 1.645 3.176 2.766 4.797-.01146.4084-.2269.7878-.4603 1.164-1.19-1.948-3.263-5.39-3.199-5.732-.0188-.4511 1.225-4.645 1.872-6.938z" fill="#fffffe" stroke="#427dc0" stroke-width=".165"/>
</svg>
