<?xml version="1.0" encoding="UTF-8"?>
<svg width="129.14mm" height="50.237mm" version="1.1" viewBox="0 0 129.13 50.237" xmlns="http://www.w3.org/2000/svg" xmlns:xlink="http://www.w3.org/1999/xlink">
 <defs>
  <pattern id="a" xlink:href="#d" patternTransform="matrix(.42213 0 0 .42213 -27.929 51.146)"/>
  <pattern id="d" width="10" height="10" patternTransform="translate(0) scale(10)" patternUnits="userSpaceOnUse">
   <circle cx="2.567" cy=".81" r=".45" fill="#427dc0"/>
   <circle cx="3.048" cy="2.33" r=".45" fill="#427dc0"/>
   <circle cx="4.418" cy="2.415" r=".45" fill="#427dc0"/>
   <circle cx="1.844" cy="3.029" r=".45" fill="#427dc0"/>
   <circle cx="6.08" cy="1.363" r=".45" fill="#427dc0"/>
   <circle cx="5.819" cy="4.413" r=".45" fill="#427dc0"/>
   <circle cx="4.305" cy="4.048" r=".45" fill="#427dc0"/>
   <circle cx="5.541" cy="3.045" r=".45" fill="#427dc0"/>
   <circle cx="4.785" cy="5.527" r=".45" fill="#427dc0"/>
   <circle cx="2.667" cy="5.184" r=".45" fill="#427dc0"/>
   <circle cx="7.965" cy="1.448" r=".45" fill="#427dc0"/>
   <circle cx="7.047" cy="5.049" r=".45" fill="#427dc0"/>
   <circle cx="4.34" cy=".895" r=".45" fill="#427dc0"/>
   <circle cx="7.125" cy=".34" r=".45" fill="#427dc0"/>
   <circle cx="7.125" cy="10.34" r=".45" fill="#427dc0"/>
   <circle cx="9.55" cy="1.049" r=".45" fill="#427dc0"/>
   <circle cx="7.006" cy="2.689" r=".45" fill="#427dc0"/>
   <circle cx="8.909" cy="2.689" r=".45" fill="#427dc0"/>
   <circle cx="9.315" cy="4.407" r=".45" fill="#427dc0"/>
   <circle cx="7.82" cy="3.87" r=".45" fill="#427dc0"/>
   <circle cx="8.27" cy="5.948" r=".45" fill="#427dc0"/>
   <circle cx="7.973" cy="7.428" r=".45" fill="#427dc0"/>
   <circle cx="9.342" cy="8.072" r=".45" fill="#427dc0"/>
   <circle cx="8.206" cy="9.315" r=".45" fill="#427dc0"/>
   <circle cx="9.682" cy="9.475" r=".45" fill="#427dc0"/>
   <circle cx="-.318" cy="9.475" r=".45" fill="#427dc0"/>
   <circle cx="9.688" cy="6.186" r=".45" fill="#427dc0"/>
   <circle cx="-.312" cy="6.186" r=".45" fill="#427dc0"/>
   <circle cx="3.379" cy="6.296" r=".45" fill="#427dc0"/>
   <circle cx="2.871" cy="8.204" r=".45" fill="#427dc0"/>
   <circle cx="4.59" cy="8.719" r=".45" fill="#427dc0"/>
   <circle cx="3.181" cy="9.671" r=".45" fill="#427dc0"/>
   <circle cx="3.181" cy="-.329" r=".45" fill="#427dc0"/>
   <circle cx="5.734" cy="7.315" r=".45" fill="#427dc0"/>
   <circle cx="6.707" cy="6.513" r=".45" fill="#427dc0"/>
   <circle cx="5.73" cy="9.67" r=".45" fill="#427dc0"/>
   <circle cx="5.73" cy="-.33" r=".45" fill="#427dc0"/>
   <circle cx="6.535" cy="8.373" r=".45" fill="#427dc0"/>
   <circle cx="4.37" cy="7.154" r=".45" fill="#427dc0"/>
   <circle cx=".622" cy="7.25" r=".45" fill="#427dc0"/>
   <circle cx=".831" cy="5.679" r=".45" fill="#427dc0"/>
   <circle cx="1.257" cy="8.519" r=".45" fill="#427dc0"/>
   <circle cx="1.989" cy="6.877" r=".45" fill="#427dc0"/>
   <circle cx=".374" cy="3.181" r=".45" fill="#427dc0"/>
   <circle cx="10.374" cy="3.181" r=".45" fill="#427dc0"/>
   <circle cx="1.166" cy="1.664" r=".45" fill="#427dc0"/>
   <circle cx="1.151" cy=".093" r=".45" fill="#427dc0"/>
   <circle cx="1.151" cy="10.093" r=".45" fill="#427dc0"/>
   <circle cx="1.302" cy="4.451" r=".45" fill="#427dc0"/>
   <circle cx="3.047" cy="3.763" r=".45" fill="#427dc0"/>
  </pattern>
  <pattern id="c" xlink:href="#a" patternTransform="matrix(.42213 0 0 .42213 -11.041 54.862)"/>
  <pattern id="b" xlink:href="#a" patternTransform="matrix(.42213 0 0 .42213 -6.1714 40.826)"/>
 </defs>
 <g transform="translate(.15578 .012375)">
  <g transform="matrix(.16667 0 0 .16667 81.81 -50.013)">
   <g transform="matrix(.5 0 0 .5 0 300)">
    <path d="m243 323 81-47 80 47-80 46-81-45z" fill="#f6bd3a"/>
    <path d="m0 184 324-184 241 137-80 139-161-92-243 138z" fill="#f6bd3a"/>
    <path d="m243 507v-92l80-46 81-46v92l-80 46v92l-81 47zm0-184-81-46-81 45v-92l243-138v184zm241-93v-46l81-47 1 92-81 47z" fill="#eb8c23"/>
    <path d="m162 551v-274l80-45 1 91 81 45v93l-81-43v182zm-122-253-40-24v-90l81 46v92zm284-114v-92l160 92 1 92z" fill="#e35a2b"/>
   </g>
  </g>
  <text x="54.468872" y="37.440643" fill="#da3338" font-family="sans-serif" font-size="35.278px" letter-spacing="0px" stroke-width=".26458px" word-spacing="0px" style="line-height:125%" xml:space="preserve"><tspan x="54.468872" y="37.440643" fill="#da3338" stroke-width=".26458px">+</tspan></text>
  <g transform="translate(45.405 -8.0415)">
   <path transform="matrix(.26458 0 0 .26458 .35125 .35278)" d="m-80.948 30.615 77.224 45.039a4.5827 4.5827 60.252 0 1 2.2739 3.9788l-0.393 89.397a4.5827 4.5827 120.25 0 1-2.3088 3.9586l-77.617 44.358a4.5827 4.5827 0.25188 0 1-4.5827-0.0201l-77.224-45.039a4.5827 4.5827 60.252 0 1-2.2739-3.9788l0.39301-89.397a4.5827 4.5827 120.25 0 1 2.3088-3.9586l77.617-44.358a4.5827 4.5827 0.25188 0 1 4.5827 0.02015z" fill="none" stroke="#427dc0" stroke-width="1.8671"/>
   <ellipse cx="-28.384" cy="23.764" rx="6.298" ry="6.498" fill="none" stroke="#427dc0" stroke-width=".294"/>
   <circle cx="-28.384" cy="23.764" r="4.698" fill="#427dc0"/>
   <ellipse cx="-15.684" cy="23.764" rx="6.298" ry="6.398" fill="none" stroke="#427dc0" stroke-width=".294"/>
   <circle cx="-15.763" cy="23.605" r="4.798" fill="#427dc0"/>
   <path d="m-43.43 26.591 5.6604 5.2124m1.4694 1.2439 7.9568 7.4361-0.35826 13.813" fill="none" stroke="#427dc0" stroke-width=".26458px"/>
   <path d="m-15.009 54.137 0.15923-13.693 4.2594-3.6984m1.2758-1.1077 4.4147-3.8332m1.5864-1.3774 3.2718-2.8408" fill="none" stroke="#427dc0" stroke-width=".26458px"/>
   <circle cx="-30.976" cy="21.45" r="1.6" fill="#fff"/>
   <circle cx="-13.022" cy="21.052" r="1.6" fill="#fff"/>
   <path d="m-29.764 35.307c-0.03817 0.17347 0.01129 0.20672 0.0651 0.23303 4.5098 1.0159 11.039 1.4019 16.343 0.0257 0.23397-0.13247 0.10839-0.37686-0.05974-0.40277-0.10977 0.0078-0.15097 0.03401-0.42885 0.11346-1.2009 0.34339-3.9182 0.73553-6.8033 0.74768-3.4605 0.01457-7.1562-0.41877-8.6835-0.81238-0.06621-0.01706-0.11481-0.03283-0.14389-0.049-0.11266-0.02597-0.21335 0.0019-0.28859 0.14429z" color="#000000" fill="#427dc0" style="-inkscape-stroke:none"/>
   <path d="m-29.655 36.887c-0.21958-0.25865-0.72217-1.2001-0.71776-1.4918 0.0098-0.88731 0.4491-1.1257 0.90072-1.2666 0.11838-0.01704 0.24197-0.04799 0.28318 0.14074 0.0018 0.07975 0.0091 0.1595-0.1143 0.23925-0.35871 0.09316-0.64367 0.26576-0.66005 0.72759l0.04834 0.3217c0.13445 0.39327 0.14689 0.53147 0.58356 1.0758 0.08083 0.20187-0.10098 0.42613-0.3237 0.25332z" fill="#427dc0"/>
   <path d="m-13.554 36.528c0.40051-0.48137 0.46851-0.80826 0.59958-1.0698 0.01014-0.1635 4e-3 -0.26013-0.07215-0.37567-0.20823-0.26474-0.42665-0.39435-0.73144-0.48763-0.06093-0.03607-0.1198-0.1547-0.07464-0.22391 0.0215-0.10341 0.08988-0.12332 0.15425-0.14181 0.41299 0.1052 0.81502 0.41572 0.93296 0.56724 0.18336 0.14126 0.22567 0.37134 0.23137 0.62446-0.01858 0.12018-0.01833 0.13841-0.05626 0.25269-0.10234 0.30835-0.27885 0.73039-0.67021 1.1256-0.12053 0.05088-0.17863 0.02657-0.24879-0.04479-0.09466-0.08835-0.08126-0.16088-0.06467-0.2264z" fill="#427dc0"/>
   <path d="m-27.796 37.438c0.15313 0.21078 0.33821 0.42954 0.5971 0.66676 0.30478 0.27903 0.64096 0.44291 0.98521 0.57719 0.35494 0.0928 0.70988 0.16249 1.0648 0.18908 1.8363 0.09498 3.497 0.21504 6.9462 0.07961l0.68666-0.19903c0.46757-0.24434 0.88322-0.36487 1.5126-0.99516 0.02654-0.09288 0.01326-0.17913-0.03981-0.25874-0.08011-0.06884-0.14079-0.04051-0.20898-0.04976-0.29884 0.23695-0.90124 0.8985-1.8709 1.0449-0.62782 0.07505-4.8058 0.28774-7.6826-0.14927-0.6354-0.09779-1.1725-0.46949-1.6221-1.0847-0.08625-0.07237-0.1725-0.11887-0.25874-0.05971-0.12535 0.0885-0.11263 0.1632-0.10946 0.23884z" fill="#427dc0"/>
   <path d="m-25.1 39.14c0.05984 0.15259 0.19226 0.41465 0.69661 0.66676 1.6727 0.72201 3.7385 0.60176 4.8564 0.29855 0.28854-0.09042 0.94489-0.39749 1.1146-0.79613l0.10947-0.3284c-1.9669 0.01347-2.803 0.18599-6.787-0.08459-0.01012 0.07679-0.01891 0.15403 0.01 0.24382z" fill="#427dc0"/>
   <path d="m-43.43 26.591 4.6574 12.539 7.4836 2.3088-1.6321 2.8661 4.0603 9.6332" fill="none" stroke="#427dc0" stroke-width=".26458px"/>
   <path d="m-14.969 54.017 4.0603-9.3147-2.0301-3.702 9.2351-3.7816 3.3039-9.3147" fill="none" stroke="#427dc0" stroke-width=".26458px"/>
   <ellipse cx="-36.713" cy="39.956" rx="4.5607" ry="4.3671" fill="#fffffe"/>
   <path d="m-36.385 35.6c2.3659 0.16077 4.2331 2.0496 4.2331 4.356 0 2.4119-2.0419 4.3671-4.5607 4.3671s-4.5607-1.9552-4.5607-4.3671c0-2.2673 1.8044-4.131 4.1131-4.3464" fill="none" stroke="#427dc0" stroke-width=".165"/>
   <ellipse cx="-36.663" cy="39.936" rx="2.1894" ry="2.1595" fill="none" stroke="#427dc0" stroke-width=".465"/>
   <ellipse cx="-36.663" cy="39.936" rx="1.8112" ry="1.8012" fill="#427dc0"/>
   <path d="m-36.875 38.224-1.4074-20.632" fill="none" stroke="#427dc0" stroke-width=".365"/>
   <path d="m-36.199 38.337-1.1822-19.309c0.0378-0.87459 0.13472-1.9231 0.46443-2.0548" fill="none" stroke="#427dc0" stroke-width=".065"/>
   <path d="m-38.366 17.648c-0.07816-0.91359 1.5283-1.467 2.3644-1.5622" fill="none" stroke="#427dc0" stroke-width=".165"/>
   <path d="m-43.63 26.684c-0.64726 2.2929-1.8666 6.5113-1.8478 6.9624-0.06444 0.34174 2.0091 3.7839 3.1989 5.7321" fill="none" stroke="#427dc0" stroke-width=".165"/>
   <path d="m-43.57 30.591c-0.54343 0.90791-0.78322 1.8664-1.0151 2.8263 0.64633 1.5682 1.6452 3.1757 2.7665 4.7967" fill="none" stroke="#427dc0" stroke-width=".165"/>
   <path d="m-42.603 38.878c-0.09715 0.32509-0.08315 0.76276-0.08082 1.0878 0.59457-0.84537 1.1201-1.7174 0.9056-2.876-0.1584 0.17001-0.28925 0.36755-0.36821 0.617" fill="none" stroke="#427dc0" stroke-width=".165"/>
   <path d="m-0.001527 28.84c0.64208 2.1231 1.1934 4.2532 1.1544 6.4287-1.131 1.9707-2.6977 3.0702-4.12 4.4583" fill="none" stroke="#427dc0" stroke-width=".165"/>
   <path d="m-3.3161 38.436c1.4031-0.95213 2.6793-2.0311 3.503-3.5627 0.026919-1.0974-0.044644-1.7727-0.22818-2.2913" fill="none" stroke="#427dc0" stroke-width=".165"/>
   <path d="m-2.8079 38.095c-0.070623-0.26153-0.12466-0.58941-0.21894-0.75632-0.58104 1.1543-0.2993 2.1094 0.49758 2.9457 0.10728-0.21376 0.041671-0.61659-0.00498-0.93296" fill="none" stroke="#427dc0" stroke-width=".165"/>
   <path d="m-9.3465 15.143c0.59372 0.2566 1.2368 0.4991 1.3229 0.90072 0.39158 3.1244 0.50624 6.2288 0.52314 9.3532" fill="none" stroke="#427dc0" stroke-width=".26458px"/>
   <path d="m-8.2415 25.357c-0.11202-3.0592-0.34374-5.9988-0.55729-8.9565-0.061664-0.43942-0.16429-0.63303-0.27865-0.75632" fill="none" stroke="#427dc0" stroke-width=".165"/>
   <path d="m-10.388 36.943c0.38464-0.27668 0.79977-0.62958 1.0415-0.54887-0.58755-2.3479-0.80124-4.1042-0.94294-5.4747 0.57051-1.0122 1.2863-1.9612 2.8147-2.4207 1.3085 0.04687 2.1862 0.53982 2.7444 1.5622 0.12269 1.7521-0.11608 3.6155-0.47851 5.5169l1.0415 0.25333c0.8843-3.5205 0.79394-4.9177 0.64739-6.1924-0.13028-0.36922-0.26844-0.73713-0.61924-1.0696-0.96668-0.72361-1.7828-0.84497-2.6459-1.154l-0.19703-1.6888c-0.26344-0.41326-0.64037-0.41041-1.0133-0.42221-0.39406 0.0094-0.65677 0.13135-0.78813 0.36592 0.033022 0.60084 0.085397 1.2404 0.084442 1.7733-1.9633 0.84588-2.2795 1.7363-2.9273 2.6177-0.03248 1.0529 0.19202 2.4891 0.5348 4.1799z" fill="#427dc0"/>
   <path d="m-4.3081 35.353-2.9836 9.4857c-0.19783 0.39406-0.37773 0.78813-1.0133 1.1822-0.17827 0.10101-0.35653 0.17103-0.5348 0.19703" fill="none" stroke="#427dc0" stroke-width=".365"/>
   <path d="m-5.0821 35.438c-0.67223 3.0536-1.6118 6.068-2.9414 9.0494-0.33843 0.53377-0.55153 0.70186-0.81628 0.83035" fill="none" stroke="#427dc0" stroke-width=".165"/>
   <path d="m-9.6347 36.303 2.3803 6.1854 0.077766-0.16466m0.3085 1.3435c0.41148 0.74665 0.90849 1.2966 1.5449 1.5259 0.048151 0.01735 0.4056 0.09754 0.45537 0.11117" fill="none" stroke="#427dc0" stroke-width=".26458px"/>
   <path d="m-10.219 36.676 2.6459 6.7554m0.45519 1.0844c0.15464 0.21183 0.35516 0.44761 0.74037 0.81315 0.30995 0.24543 0.60072 0.52539 0.98565 0.63587 0.062841 0.01804 0.42674 0.08629 0.49509 0.0944" fill="none" stroke="#427dc0" stroke-width=".165"/>
   <path d="m-8.3012 46.021c0 0.5257-0.90137 0.79149-1.5325 0.8011-0.68552 0.01044-1.0989-0.26937-1.1196-0.8011-0.01981-0.50955 0.72733-0.81729 1.4082-0.85584 0.2233-0.01264 0.9513 0.07216 0.79537 0.18724-0.21361 0.15765-0.7457 0.41972-0.23093 0.6319 0.21098 0.08696 0.67951-0.15195 0.67951 0.0367z" fill="#427dc0" stroke-width=".165"/>
   <path d="m-2.8825 45.598c0.060124 0.46575-0.47134 0.83372-1.229 0.81106-0.45769-0.01369-0.77889-0.13754-0.99927-0.35914-0.11425-0.11488-0.10383-0.09577-0.11033-0.24293-0.00191-0.04311 0.016892-0.21425 0.026413-0.25458 0.071924-0.30468 0.32199-0.51232 0.98368-0.61122 0.77979-0.11655 1.2524 0.06678 1.3285 0.65681z" fill="#427dc0" stroke-width=".165"/>
   <path d="m-32.281 41.264 0.87392 0.18734-1.5695 2.9545 3.9969 9.4364-14.307-8.402 0.0105-7.5889 0.63076 1.1187-0.08313 1.0857c1.3432-1.7167 0.94135-2.445 0.92842-3.0052l-0.33127 0.61738-0.91558-1.5688-0.05095-8.6647 3.3753 9.2648c-2.6412 2.3524-1.5454 6.1214 0.87968 7.1592 2.0866 0.89295 4.989 0.84357 6.5617-2.5945z" fill="url(#a)" stroke-width=".0069652"/>
   <path d="m-5.1338 46.062 0.12144-0.82223c-1.1984-0.29204-1.3325-0.93885-1.8073-1.4721l1.7944-5.9821 1.3657-0.60133 3.376-9.2596-0.074278 7.8025c-0.63288 0.95404-1.5259 1.7-2.4177 2.4469l-0.37345-0.61929c-0.40802 1.3014 0.15778 2.0686 0.61804 2.7907l0.01311-0.99906 2.1426-2.0361 0.06554 8.301-14.647 8.4264 4.0054-9.3206-1.9331-3.6981 3.7454-1.5895 1.5048 3.9713c0.19728 0.55566-1.2404 1.9812-1.2019 1.8965 0.097098-0.21309-1.0438 0.83966-0.6995 0.87232 0.20196 0.01915 1.0916-0.04113 1.6109-0.44879 0.43307-0.33994 0.5284-1.2333 0.82988-1.0623 0.18497 0.10495 1.0571 1.371 1.9613 1.4033z" fill="url(#c)" stroke-width=".0069652"/>
   <path d="m-5.8447 38.003c-0.33355 1.4576-0.70348 2.9124-1.3769 4.3439l-1.2265-3.1181z" fill="url(#b)" stroke-width=".0069652"/>
  </g>
 </g>
</svg>
