<?xml version="1.0" encoding="UTF-8"?>
<svg version="1.1" viewBox="0 0 18.63 18.63" xmlns="http://www.w3.org/2000/svg" xmlns:xlink="http://www.w3.org/1999/xlink">
 <defs>
  <linearGradient id="l">
   <stop stop-color="#fff" offset="0"/>
   <stop stop-color="#fff" stop-opacity="0" offset="1"/>
  </linearGradient>
  <linearGradient id="s" x2="18.63" y2="18.63" gradientUnits="userSpaceOnUse">
   <stop stop-color="#a9a9d4" offset="0"/>
   <stop stop-color="#4b5fab" offset="1"/>
  </linearGradient>
  <marker id="a" markerHeight="2.4" markerWidth="2.4" refX="1.2" refY="1.2">
   <circle cx="1.2" cy="1.2" r="1.2"/>
  </marker>
  <clipPath id="q">
   <rect width="9.44" height="6.985"/>
  </clipPath>
  <clipPath id="p">
   <rect y="11.64" width="9.44" height="6.985" opacity=".6083"/>
  </clipPath>
  <mask id="t">
   <rect width="18.63" height="18.63" fill="#fff"/>
   <g fill="none" stroke="#000" stroke-width=".085">
    <path d="m9.44 6.985v-4.339"/>
    <path d="m9.44 11.64v4.229"/>
    <g id="r">
     <g clip-path="url(#p)" marker-end="url(#a)">
      <g marker-start="url(#a)">
       <path d="m3.343 14.86v-1.121h-.802"/>
       <path d="m3.915 15.41v-1.929l-.2946-.2946h-1.395"/>
       <path d="m4.467 15.83v-2.644l-.554-.554h-1.991"/>
       <path d="m8.8 15.71-1.505 1.505"/>
       <path d="m7.216 12.32v1.796l-.4589.4589"/>
      </g>
      <path d="m5.245 11.29-.7986.7982h-2.71"/>
      <path d="m5.917 11.29-.9016.9016v4.194"/>
      <path d="m6.706 11.29-1.14 1.14v3.402"/>
      <path d="m7.465 11.29-1.348 1.348v2.643"/>
      <path d="m7.769 11.64v2.773l-2.135 2.135"/>
      <path d="m8.32 11.64v3.023l-2.137 2.137"/>
      <path d="m8.87 11.64v3.195l-2.131 2.131"/>
      <path d="m9.44 15.87-1.507 1.506"/>
      <path d="m7.214 12.64-.4651.461"/>
      <path d="m7.195 13.4-.4444.4444"/>
     </g>
     <g clip-path="url(#q)">
      <path d="m7.217 7.337-.5266-.5264"/>
      <g marker-end="url(#a)">
       <g marker-start="url(#a)">
        <path d="m7.237 1.437v.678l-.5705.5705h-2.075"/>
        <path d="m6.689 1.614v.5002h-1.234"/>
        <path d="m7.789 1.248v.5466l1.035 1.035"/>
       </g>
       <path id="w" d="m3.365 6.985v-.3359"/>
       <use id="x" transform="translate(.5495)" xlink:href="#w"/>
       <use transform="translate(.5515)" xlink:href="#x"/>
       <path d="m5.589 6.985v-1.544h-3.404"/>
       <path d="m6.139 6.985v-2.094h-3.518"/>
       <path d="m5.039 6.985v-.9984h-3.092"/>
       <path d="m6.689 6.985v-.9984l.5488-.5488v-.5488l-.5509-.5509h-3.767"/>
       <path d="m7.789 6.985v-2.645l-.5519-.5519h-3.766"/>
       <path d="m8.339 6.985v-2.9l-.8475-.8475h-3.578"/>
       <path d="m8.89 6.985v-3.238l-1.007-1.008"/>
       <path d="m9.438 2.646-1.007-1.007"/>
      </g>
     </g>
    </g>
    <use transform="matrix(-1 0 0 1 18.88 0)" stroke="#000000" xlink:href="#r"/>
   </g>
  </mask>
  <linearGradient id="o" x1="17.46" x2="15.81" y1="1.859" y2="1.859" gradientTransform="matrix(.9959 0 0 .9959 .06875 .007762)" gradientUnits="userSpaceOnUse" xlink:href="#l"/>
  <linearGradient id="n" x1="16.12" x2="17.23" y1="1.859" y2="1.859" gradientUnits="userSpaceOnUse" xlink:href="#l"/>
 </defs>
 <rect width="18.63" height="18.63" fill="url(#s)"/>
 <rect x=".4661" y=".4661" width="17.7" height="17.7" fill="#101820" mask="url(#t)"/>
 <g fill="#fff">
  <path d="m2.402 9.543c.163 0 .2889-.04692.3828-.1408.09137-.09384.1383-.2272.1383-.4025 0-.1729-.04692-.3037-.1383-.3976-.09384-.09384-.2198-.1408-.3828-.1408h-.4964v1.704h.2865v-.6223zm-.2099-.2469v-.5877h.1704c.1827 0 .2741.09878.2741.2914 0 .1012-.02222.1753-.0642.2247-.04445.04939-.1136.07161-.2099.07161z"/>
  <path d="m4.436 10.17-.2889-.7408c.1605-.07161.242-.2222.242-.4544 0-.1655-.04692-.2914-.1383-.3778-.09384-.08643-.2198-.1309-.3828-.1309h-.4964v1.704h.2865v-.6914h.2148l.2519.6914zm-.7779-.9384v-.5186h.1827c.0889 0 .1531.02222.1976.06174.04198.03951.0642.1062.0642.2 0 .09384-.02222.1605-.0642.2-.04445.03951-.1087.0568-.1976.0568z"/>
  <path id="m" d="m5.038 10.17.08643-.3531h.4568l.0889.3531h.3037l-.4791-1.704h-.2815l-.4766 1.704zm.3186-1.272.163.6717h-.3309z"/>
  <path id="u" d="m7.339 8.99c-.02469-.1827-.07902-.3186-.1679-.4124-.0889-.09137-.2025-.1383-.3408-.1383-.1679 0-.2988.0642-.3926.1901-.09631.1259-.1432.3186-.1432.5754v.2173c0 .2593.04692.4519.1432.5778.09384.1259.2247.1877.3926.1877.2914 0 .4593-.1827.5087-.5507h-.2716c-.01482.1062-.04198.1827-.07902.2297-.03704.04939-.0889.07161-.158.07161-.08643 0-.1506-.03951-.1901-.1235-.03951-.08149-.05927-.2124-.05927-.3926v-.2173c0-.1803.01976-.3111.05927-.3926.03951-.08149.1037-.1235.1901-.1235.06668 0 .1185.02469.158.07408s.0642.1235.07902.2272z"/>
  <path d="m7.63 8.461v.2494h.3828v1.455h.2865v-1.455h.3828v-.2494z"/>
  <path id="v" d="m9.398 8.461h-.2865v1.704h.2865z"/>
  <path d="m13.18 8.461h-.2865v1.704h.8668v-.2469h-.5803z"/>
  <use transform="translate(6.515)" xlink:href="#m"/>
  <use transform="translate(10.04)" xlink:href="#m"/>
  <use transform="translate(7.323)" xlink:href="#v"/>
  <use transform="translate(3.623)" xlink:href="#u"/>
 </g>
 <path d="m16.97 2.042a.2646.2646 0 01-.2902.08874.2646.2646 0 01-.1826-.2424.2646.2646 0 01.1653-.2545.2646.2646 0 01.2957.06827" fill="none" stroke="#fff" stroke-width=".1"/>
 <path d="m16.52 1.289c-.2401.09699-.3965.3309-.3965.5898 0 .2589.1564.4928.3965.5898.2401.09699.5154.03782.6953-.1484l-.05469-.05273c-.1586.1642-.3996.2164-.6113.1309-.2117-.08554-.3516-.2912-.3516-.5195 0-.2283.1399-.434.3516-.5195.2117-.08554.4527-.03339.6113.1309l.05469-.05273c-.1799-.1863-.4552-.2454-.6953-.1484z" color="#000000" fill="url(#n)" style="-inkscape-stroke:none"/>
 <path d="m16.42.9997c-.3633.1396-.603.4897-.603.8792 0 .3894.2397.7396.603.8792.3633.1396.7744.04046 1.035-.249l-.05641-.05057c-.2397.2664-.6167.358-.9511.2295-.3344-.1285-.5563-.4506-.5563-.8091 0-.3585.2219-.6807.5563-.8091.3344-.1285.7115-.03692.9511.2295l.05641-.05057c-.2604-.2894-.6715-.3885-1.035-.249z" color="#000000" fill="url(#o)" stroke-width=".9959" style="-inkscape-stroke:none"/>
</svg>
