<?xml version="1.0" encoding="UTF-8"?>
<svg version="1.2" viewBox="0 0 1080 556.5" xmlns="http://www.w3.org/2000/svg" xmlns:xlink="http://www.w3.org/1999/xlink">
 <defs>
  <symbol id="au" overflow="visible">
   <path d="m53.61-62.02h-21.47v-6.594c0-3.07-.2773-5.031-.8281-5.875-.5547-.8438-1.469-1.266-2.75-1.266-1.387 0-2.438.5703-3.156 1.703-.7188 1.137-1.078 2.855-1.078 5.156 0 2.969.4062 5.203 1.219 6.703.7695 1.5 2.945 3.312 6.531 5.438 10.29 6.117 16.77 11.14 19.45 15.06 2.664 3.918 4 10.23 4 18.95 0 6.336-.7422 11-2.219 14-1.48 3-4.344 5.523-8.594 7.562-4.25 2.031-9.195 3.047-14.83 3.047-6.199 0-11.48-1.172-15.86-3.516s-7.242-5.328-8.594-8.953c-1.355-3.633-2.031-8.781-2.031-15.44v-5.828h21.48v10.83c0 3.324.3008 5.465.9062 6.422.6016.9492 1.672 1.422 3.203 1.422 1.539 0 2.688-.6016 3.438-1.812.75-1.207 1.125-3 1.125-5.375 0-5.238-.7148-8.664-2.141-10.28-1.469-1.602-5.078-4.297-10.83-8.078-5.75-3.801-9.559-6.562-11.42-8.281-1.867-1.727-3.414-4.109-4.641-7.141-1.23-3.039-1.844-6.926-1.844-11.66 0-6.812.8672-11.79 2.609-14.94 1.738-3.145 4.551-5.602 8.438-7.375 3.883-1.781 8.57-2.672 14.06-2.672 6 0 11.11.9688 15.34 2.906 4.238 1.938 7.039 4.383 8.406 7.328 1.375 2.949 2.062 7.961 2.062 15.03z"/>
  </symbol>
  <symbol id="ap" overflow="visible">
   <path d="m26.53-72.89-.3906 6.422c1.977-2.602 4.156-4.547 6.531-5.828 2.383-1.281 4.988-1.922 7.812-1.922 3.438 0 6.41.9297 8.922 2.781 2.508 1.844 4.078 3.98 4.703 6.406.625 2.418.9375 6.516.9375 12.3v30.7c0 6.637-.3984 11.36-1.188 14.16-.793 2.793-2.406 5.023-4.844 6.688-2.43 1.664-5.367 2.5-8.812 2.5-2.742 0-5.281-.6406-7.625-1.922s-4.492-3.18-6.438-5.703v16.69h-22.19v-83.27zm6.312 21.2c0-4.508-.168-7.238-.5-8.188-.3242-.9453-1.234-1.422-2.734-1.422-1.469 0-2.418.5469-2.844 1.641-.418 1.094-.625 3.75-.625 7.969v30.2c0 4.398.2188 7.148.6562 8.25.4453 1.094 1.398 1.641 2.859 1.641 1.438 0 2.328-.5 2.672-1.5.3438-1.008.5156-3.457.5156-7.344z"/>
  </symbol>
  <symbol id="ao" overflow="visible">
   <path d="m54.22-35.16h-28.73v15.77c0 3.293.2383 5.418.7188 6.375.4766.9492 1.395 1.422 2.75 1.422 1.676 0 2.797-.6289 3.359-1.891.5703-1.258.8594-3.703.8594-7.328v-9.625h21.05v5.391c0 4.5-.2891 7.961-.8594 10.38-.5625 2.418-1.891 5-3.984 7.75-2.086 2.75-4.73 4.812-7.938 6.188-3.199 1.363-7.215 2.047-12.05 2.047-4.688 0-8.828-.6797-12.42-2.031-3.586-1.352-6.375-3.207-8.375-5.562-1.992-2.363-3.371-4.961-4.141-7.797-.7734-2.844-1.156-6.977-1.156-12.41v-21.25c0-6.375.8594-11.4 2.578-15.08 1.719-3.676 4.535-6.492 8.453-8.453 3.926-1.969 8.43-2.953 13.52-2.953 6.227 0 11.36 1.184 15.41 3.547 4.051 2.367 6.891 5.5 8.516 9.406 1.633 3.898 2.453 9.375 2.453 16.44zm-22.25-11.86v-5.328c0-3.781-.2031-6.219-.6094-7.312-.3984-1.094-1.219-1.641-2.469-1.641-1.531 0-2.484.4688-2.859 1.406-.3672.9297-.5469 3.445-.5469 7.547v5.328z"/>
  </symbol>
  <symbol id="x" overflow="visible">
   <path d="m53.02-45.38h-20.94v-8.406c0-2.926-.2422-4.91-.7188-5.953-.4688-1.039-1.344-1.562-2.625-1.562s-2.148.4609-2.594 1.375c-.4375.9062-.6562 2.953-.6562 6.141v34.39c0 2.605.3281 4.559.9844 5.859.6641 1.293 1.641 1.938 2.922 1.938 1.5 0 2.516-.6758 3.047-2.031.5312-1.352.7969-3.914.7969-7.688v-8.688h19.78c-.04297 5.824-.2578 10.2-.6406 13.11-.3867 2.906-1.617 5.891-3.688 8.953-2.062 3.062-4.762 5.371-8.094 6.922-3.336 1.551-7.453 2.328-12.36 2.328-6.262 0-11.23-1.07-14.89-3.203-3.656-2.145-6.246-5.148-7.766-9.016-1.523-3.863-2.281-9.348-2.281-16.45v-20.7c0-6.188.6172-10.85 1.859-14 1.25-3.156 3.906-5.969 7.969-8.438 4.062-2.477 9.004-3.719 14.83-3.719 5.789 0 10.73 1.23 14.83 3.688 4.102 2.449 6.832 5.543 8.188 9.281 1.363 3.742 2.047 9.031 2.047 15.88z"/>
  </symbol>
  <symbol id="w" overflow="visible">
   <path d="m26.81-88.94v11.59h-22.86v-11.59zm0 16.05v72.89h-22.86v-72.89z"/>
  </symbol>
  <symbol id="an" overflow="visible">
   <path d="m23.78-44.66h-20.81v-4.891c0-5.645.6445-9.992 1.938-13.05 1.301-3.062 3.91-5.766 7.828-8.109 3.926-2.344 9.02-3.516 15.28-3.516 7.508 0 13.16 1.328 16.97 3.984 3.812 2.656 6.102 5.918 6.875 9.781.7695 3.867 1.156 11.82 1.156 23.88v36.58h-21.59v-6.484c-1.355 2.605-3.105 4.559-5.25 5.859-2.137 1.289-4.688 1.938-7.656 1.938-3.887 0-7.449-1.09-10.69-3.266-3.242-2.176-4.859-6.945-4.859-14.31v-5.984c0-5.457.8594-9.172 2.578-11.14 1.719-1.977 5.984-4.285 12.8-6.922 7.289-2.863 11.19-4.789 11.7-5.781.5078-.9883.7656-3 .7656-6.031 0-3.812-.2891-6.289-.8594-7.438-.5625-1.156-1.5-1.734-2.812-1.734-1.5 0-2.438.4844-2.812 1.453-.3672.9688-.5469 3.484-.5469 7.547zm7.031 10c-3.555 2.594-5.617 4.773-6.188 6.531-.5625 1.762-.8438 4.289-.8438 7.578 0 3.773.2422 6.211.7344 7.312.5 1.094 1.484 1.641 2.953 1.641 1.383 0 2.285-.4258 2.703-1.281.4258-.8633.6406-3.129.6406-6.797z"/>
  </symbol>
  <symbol id="am" overflow="visible">
   <path d="m26.81-88.94v88.94h-22.86v-88.94z"/>
  </symbol>
  <symbol id="al" overflow="visible"></symbol>
  <symbol id="ak" overflow="visible">
   <path d="m32.25-88.94v11.27c-4.586 0-7.289.2148-8.109.6406-.8242.418-1.234 1.617-1.234 3.594v2.297h9.344v11.55h-5.281v59.59h-22.19v-59.59h-4.562v-11.55h4.562c0-4.789.1602-7.992.4844-9.609.332-1.613 1.148-3.051 2.453-4.312 1.301-1.258 3.125-2.219 5.469-2.875 2.344-.6641 5.984-1 10.92-1z"/>
  </symbol>
  <symbol id="at" overflow="visible">
   <path d="m54.77-72.89v72.89h-22.58l.3906-6.047c-1.543 2.461-3.438 4.305-5.688 5.531-2.25 1.219-4.844 1.828-7.781 1.828-3.324 0-6.086-.5859-8.281-1.75-2.199-1.176-3.824-2.734-4.875-4.672-1.043-1.938-1.695-3.957-1.953-6.062-.25-2.113-.375-6.301-.375-12.56v-49.16h22.19v49.59c0 5.68.1719 9.047.5156 10.11.3516 1.062 1.301 1.594 2.844 1.594 1.645 0 2.625-.5469 2.938-1.641.3125-1.102.4688-4.641.4688-10.61v-49.05z"/>
  </symbol>
  <symbol id="y" overflow="visible">
   <path d="m26.53-72.89-.3906 6.703c1.613-2.676 3.582-4.68 5.906-6.016 2.332-1.344 5.016-2.016 8.047-2.016 3.812 0 6.926.9023 9.344 2.703 2.414 1.793 3.973 4.055 4.672 6.781.6953 2.73 1.047 7.277 1.047 13.64v51.09h-22.2v-50.48c0-5.02-.168-8.078-.5-9.172-.3242-1.094-1.234-1.641-2.734-1.641-1.574 0-2.562.6328-2.969 1.891-.4062 1.262-.6094 4.637-.6094 10.12v49.28h-22.19v-72.89z"/>
  </symbol>
  <symbol id="as" overflow="visible">
   <path d="m27.36-82.62v11.48h5.984v11.55h-5.984v39c0 4.793.2422 7.465.7344 8.016.5.5547 2.562.8281 6.188.8281v11.75h-8.953c-5.055 0-8.664-.207-10.83-.625-2.156-.4258-4.062-1.398-5.719-2.922-1.648-1.52-2.672-3.258-3.078-5.219-.3984-1.957-.5938-6.562-.5938-13.81v-37.02h-4.781v-11.55h4.781v-11.48z"/>
  </symbol>
  <symbol id="ar" overflow="visible">
   <path d="m54.16-47.3v17.86c0 6.555-.3281 11.36-.9844 14.42-.6562 3.055-2.07 5.906-4.234 8.562-2.156 2.656-4.93 4.617-8.312 5.875-3.387 1.258-7.277 1.891-11.67 1.891-4.906 0-9.062-.5391-12.47-1.609-3.406-1.082-6.055-2.711-7.938-4.891-1.887-2.176-3.234-4.812-4.047-7.906-.8047-3.102-1.203-7.75-1.203-13.94v-18.67c0-6.77.7266-12.06 2.188-15.88 1.469-3.812 4.102-6.867 7.906-9.172 3.812-2.312 8.688-3.469 14.62-3.469 4.977 0 9.254.7461 12.83 2.234 3.57 1.48 6.328 3.414 8.266 5.797 1.938 2.375 3.258 4.828 3.969 7.359.7188 2.523 1.078 6.367 1.078 11.53zm-22.19-5.5c0-3.727-.2031-6.078-.6094-7.047-.3984-.9688-1.258-1.453-2.578-1.453-1.312 0-2.195.4844-2.641 1.453-.4375.9688-.6562 3.32-.6562 7.047v32.91c0 3.449.2188 5.695.6562 6.734.4453 1.043 1.312 1.562 2.594 1.562 1.312 0 2.176-.4727 2.594-1.422.4258-.957.6406-3.008.6406-6.156z"/>
  </symbol>
  <symbol id="aq" overflow="visible">
   <path d="m49.28-49.61h-19.67v-3.953c0-3.363-.1953-5.492-.5781-6.391-.3867-.8945-1.352-1.344-2.891-1.344-1.242 0-2.172.4141-2.797 1.234-.625.8242-.9375 2.059-.9375 3.703 0 2.23.1562 3.871.4688 4.922.3125 1.043 1.242 2.188 2.797 3.438 1.562 1.242 4.758 3.047 9.594 5.422 6.445 3.156 10.68 6.125 12.69 8.906 2.02 2.781 3.031 6.828 3.031 12.14 0 5.93-.7734 10.4-2.312 13.42-1.543 3.023-4.117 5.352-7.719 6.984-3.605 1.625-7.953 2.438-13.05 2.438-5.637 0-10.46-.875-14.47-2.625-4.012-1.758-6.773-4.141-8.281-7.141-1.5-3.008-2.25-7.551-2.25-13.62v-3.516h19.67v4.609c0 3.918.2422 6.465.7344 7.641.5 1.168 1.477 1.75 2.938 1.75 1.582 0 2.68-.3906 3.297-1.172.625-.7891.9375-2.453.9375-4.984 0-3.477-.4023-5.656-1.203-6.531-.8438-.875-5.148-3.473-12.91-7.797-6.523-3.664-10.5-6.988-11.92-9.969-1.43-2.988-2.141-6.531-2.141-10.62 0-5.82.7656-10.11 2.297-12.88 1.539-2.77 4.148-4.906 7.828-6.406 3.688-1.508 7.961-2.266 12.83-2.266 4.832 0 8.941.6172 12.33 1.844 3.395 1.23 6 2.855 7.812 4.875 1.812 2.012 2.91 3.875 3.297 5.594.3828 1.719.5781 4.414.5781 8.078z"/>
  </symbol>
  <symbol id="v" overflow="visible">
   <path d="m8.297-9.938c.9883 0 1.754-.1328 2.297-.4062.8633-.4375 1.297-1.211 1.297-2.328 0-1.125-.4609-1.879-1.375-2.266-.5234-.2188-1.289-.3281-2.297-.3281h-4.156v5.328zm.7812 7.938c1.438 0 2.457-.4102 3.062-1.234.3828-.5195.5781-1.156.5781-1.906 0-1.25-.5586-2.098-1.672-2.547-.5938-.2383-1.383-.3594-2.359-.3594h-4.625v6.047zm-7.312-15.22h7.406c2.008 0 3.441.6055 4.297 1.812.5.7109.75 1.527.75 2.453 0 1.086-.3086 1.977-.9219 2.672-.3242.3672-.7891.7031-1.391 1.016.8828.3359 1.547.7109 1.984 1.125.7695.75 1.156 1.789 1.156 3.109 0 1.117-.3516 2.121-1.047 3.016-1.031 1.344-2.684 2.016-4.953 2.016h-7.281z"/>
  </symbol>
  <symbol id="k" overflow="visible">
   <path d="m6.781-12.83c.8828 0 1.742.2109 2.578.625.8438.418 1.484.9609 1.922 1.625.4141.625.6953 1.359.8438 2.203.125.5859.1875 1.508.1875 2.766h-9.203c.03906 1.281.3438 2.309.9062 3.078.5625.7617 1.43 1.141 2.609 1.141 1.102 0 1.984-.3594 2.641-1.078.375-.4258.6406-.9141.7969-1.469h2.062c-.05469.4609-.2344.9766-.5469 1.547-.3047.5625-.6484 1.023-1.031 1.375-.6367.625-1.43 1.051-2.375 1.281-.5117.125-1.086.1875-1.719.1875-1.562 0-2.891-.5664-3.984-1.703-1.086-1.145-1.625-2.738-1.625-4.781 0-2.02.5469-3.656 1.641-4.906 1.094-1.258 2.523-1.891 4.297-1.891zm3.359 5.547c-.08594-.9141-.2812-1.645-.5938-2.188-.5859-1.02-1.555-1.531-2.906-1.531-.9688 0-1.781.3555-2.438 1.062-.6562.6992-1 1.586-1.031 2.656z"/>
  </symbol>
  <symbol id="t" overflow="visible">
   <path d="m2.797-3.938c.0625.6992.2383 1.234.5312 1.609.5312.6875 1.453 1.031 2.766 1.031.7812 0 1.469-.1719 2.062-.5156s.8906-.8672.8906-1.578c0-.5391-.2422-.9531-.7188-1.234-.3047-.1641-.9023-.3633-1.797-.5938l-1.672-.4219c-1.074-.2578-1.867-.5547-2.375-.8906-.9062-.5703-1.359-1.359-1.359-2.359 0-1.188.4258-2.145 1.281-2.875.8516-.7383 2.004-1.109 3.453-1.109 1.895 0 3.258.5547 4.094 1.656.5195.7109.7734 1.469.7656 2.281h-2c-.04297-.4766-.2109-.9141-.5-1.312-.4922-.5508-1.328-.8281-2.516-.8281-.8047 0-1.414.1562-1.828.4688-.4062.3047-.6094.7031-.6094 1.203 0 .543.2695.9805.8125 1.312.3125.1875.7734.3594 1.391.5156l1.391.3281c1.508.375 2.523.7344 3.047 1.078.8203.5312 1.234 1.375 1.234 2.531 0 1.125-.4297 2.094-1.281 2.906-.8438.8125-2.137 1.219-3.875 1.219-1.867 0-3.188-.4219-3.969-1.266-.7734-.8516-1.184-1.906-1.234-3.156z"/>
  </symbol>
  <symbol id="ah" overflow="visible">
   <path d="m1.609-17.22h2.109v17.22h-2.109z"/>
  </symbol>
  <symbol id="s" overflow="visible">
   <path d="m1.969-16.06h2.141v3.516h2v1.719h-2v8.188c0 .4375.1445.7305.4375.875.1641.09375.4414.1406.8281.1406h.3125c.125-.007812.2656-.02344.4219-.04688v1.672c-.2422.07031-.4961.125-.7656.1562-.2617.03125-.543.04688-.8438.04688-.9805 0-1.648-.25-2-.75-.3555-.5078-.5312-1.164-.5312-1.969v-8.312h-1.703v-1.719h1.703z"/>
  </symbol>
  <symbol id="j" overflow="visible">
   <path d="m3.172-3.344c0 .6172.2188 1.102.6562 1.453.4453.3438.9766.5156 1.594.5156.7383 0 1.457-.1719 2.156-.5156 1.164-.5703 1.75-1.504 1.75-2.797v-1.703c-.2617.168-.5938.3086-1 .4219-.4062.1055-.8047.1797-1.188.2188l-1.281.1719c-.7617.1055-1.336.2656-1.719.4844-.6484.3672-.9688.9492-.9688 1.75zm5.109-4.266c.4766-.0625.8008-.2656.9688-.6094.09375-.1875.1406-.457.1406-.8125 0-.7188-.2578-1.238-.7656-1.562-.5117-.3203-1.246-.4844-2.203-.4844-1.105 0-1.887.2969-2.344.8906-.2617.3359-.4297.8242-.5 1.469h-1.969c.03906-1.551.5391-2.629 1.5-3.234.9688-.6016 2.086-.9062 3.359-.9062 1.477 0 2.676.2812 3.594.8438.9141.5625 1.375 1.438 1.375 2.625v7.234c0 .2188.03906.3984.125.5312.09375.125.2852.1875.5781.1875.09375 0 .1953-.003906.3125-.01562.125-.007813.25-.02344.375-.04688v1.562c-.3242.09375-.5742.1484-.75.1719-.168.01953-.4023.03125-.7031.03125-.7188 0-1.246-.2578-1.578-.7656-.168-.2812-.2891-.6719-.3594-1.172-.4297.5625-1.047 1.055-1.859 1.469-.8047.4141-1.688.625-2.656.625-1.168 0-2.121-.3555-2.859-1.062-.7305-.707-1.094-1.594-1.094-2.656 0-1.164.3594-2.066 1.078-2.703.7266-.6445 1.68-1.039 2.859-1.188z"/>
  </symbol>
  <symbol id="ag" overflow="visible">
   <path d="m2.047-17.22h12.56v2.109h-10.28v5.234h9.5v1.984h-9.5v5.844h10.45v2.047h-12.73z"/>
  </symbol>
  <symbol id="n" overflow="visible">
   <path d="m1.609-12.55h2v2.156c.1641-.4141.5664-.9258 1.203-1.531.6445-.6016 1.383-.9062 2.219-.9062.03906 0 .1094.007813.2031.01562.09375 0 .2539.01172.4844.03125v2.234c-.125-.01953-.2461-.03516-.3594-.04688-.1055-.007812-.2188-.01562-.3438-.01562-1.062 0-1.883.3438-2.453 1.031-.5625.6797-.8438 1.465-.8438 2.359v7.219h-2.109z"/>
  </symbol>
  <symbol id="af" overflow="visible">
   <path d="m6.531-1.359c1.395 0 2.352-.5234 2.875-1.578.5195-1.062.7812-2.242.7812-3.547 0-1.164-.1875-2.117-.5625-2.859-.5938-1.156-1.621-1.734-3.078-1.734-1.281 0-2.219.4961-2.812 1.484-.5859.9805-.875 2.168-.875 3.562 0 1.336.2891 2.449.875 3.344.5938.8867 1.523 1.328 2.797 1.328zm.07812-11.56c1.613 0 2.977.543 4.094 1.625 1.125 1.074 1.688 2.656 1.688 4.75 0 2.031-.4961 3.711-1.484 5.031-.9805 1.312-2.508 1.969-4.578 1.969-1.73 0-3.105-.582-4.125-1.75-1.012-1.164-1.516-2.734-1.516-4.703 0-2.113.5352-3.797 1.609-5.047 1.07-1.25 2.508-1.875 4.312-1.875z"/>
  </symbol>
  <symbol id="aj" overflow="visible">
   <path d="m9.266-17.66c1.625 0 3.023.3125 4.203.9375 1.707.8984 2.754 2.469 3.141 4.719h-2.312c-.2812-1.258-.8672-2.176-1.75-2.75-.875-.5703-1.984-.8594-3.328-.8594-1.594 0-2.938.6016-4.031 1.797-1.094 1.188-1.641 2.969-1.641 5.344 0 2.043.4453 3.711 1.344 5 .9062 1.281 2.375 1.922 4.406 1.922 1.551 0 2.836-.4453 3.859-1.344 1.02-.9062 1.539-2.367 1.562-4.391h-5.391v-1.938h7.562v9.219h-1.5l-.5625-2.219c-.793.8672-1.492 1.469-2.094 1.812-1.031.5703-2.336.8594-3.906.8594-2.043 0-3.797-.6602-5.266-1.984-1.605-1.656-2.406-3.926-2.406-6.812 0-2.883.7812-5.176 2.344-6.875 1.488-1.625 3.41-2.438 5.766-2.438z"/>
  </symbol>
  <symbol id="u" overflow="visible">
   <path d="m1.547-12.55h2.094v1.781c.5-.625.9531-1.078 1.359-1.359.6875-.4688 1.473-.7031 2.359-.7031 1 0 1.805.2461 2.422.7344.3438.2812.6562.6953.9375 1.234.4688-.6641 1.016-1.16 1.641-1.484.6328-.3203 1.348-.4844 2.141-.4844 1.688 0 2.832.6094 3.438 1.828.332.6562.5 1.539.5 2.641v8.359h-2.188v-8.719c0-.832-.2148-1.406-.6406-1.719-.418-.3125-.9219-.4688-1.516-.4688-.8359 0-1.555.2773-2.156.8281-.5938.5547-.8906 1.48-.8906 2.781v7.297h-2.141v-8.188c0-.8516-.1016-1.477-.2969-1.875-.3242-.582-.9219-.875-1.797-.875-.8047 0-1.531.3125-2.188.9375-.6484.6172-.9688 1.73-.9688 3.344v6.656h-2.109z"/>
  </symbol>
  <symbol id="ai" overflow="visible">
   <path d="m.5469-1.938 10.56-13.23h-9.781v-2.047h12.78v2l-10.61 13.17h10.61v2.047h-13.56z"/>
  </symbol>
  <symbol id="a" overflow="visible">
   <path d="m7.203-16.86v3.734h4.891v1.672h-4.891v7.125c0 .9688.1797 1.648.5469 2.031.3633.3867 1.004.5781 1.922.5781h2.422v1.719h-2.641c-1.617 0-2.758-.3203-3.422-.9688-.6562-.6562-.9844-1.773-.9844-3.359v-7.125h-3.516v-1.672h3.516v-3.734z"/>
  </symbol>
  <symbol id="e" overflow="visible">
   <path d="m12.45-18.23v1.797h-2.438c-.7812 0-1.324.1562-1.625.4688-.293.3125-.4375.875-.4375 1.688v1.156h4.5v1.672h-4.5v11.45h-2.156v-11.45h-3.516v-1.672h3.516v-.9219c0-1.438.3281-2.492.9844-3.172.6562-.6758 1.688-1.016 3.094-1.016z"/>
  </symbol>
  <symbol id="b" overflow="visible">
   <path d="m5.734-3.578h2.953v3.578h-2.953z"/>
  </symbol>
  <symbol id="d" overflow="visible">
   <path d="m7.922-11.8c.2695-.5625.6094-.9727 1.016-1.234.4062-.2695.8984-.4062 1.484-.4062 1.051 0 1.789.4062 2.219 1.219.4375.8125.6562 2.352.6562 4.609v7.609h-1.969v-7.516c0-1.852-.1055-3.004-.3125-3.453-.1992-.4453-.5742-.6719-1.125-.6719-.625 0-1.055.2422-1.281.7188-.2305.4805-.3438 1.617-.3438 3.406v7.516h-1.969v-7.516c0-1.875-.1172-3.031-.3438-3.469-.2188-.4375-.6172-.6562-1.188-.6562-.5742 0-.9766.2422-1.203.7188-.2188.4805-.3281 1.617-.3281 3.406v7.516h-1.953v-13.12h1.953v1.125c.2578-.4688.582-.8203.9688-1.062.3828-.25.8203-.375 1.312-.375.5938 0 1.086.1367 1.484.4062.3945.2734.7031.6836.9219 1.234z"/>
  </symbol>
  <symbol id="c" overflow="visible">
   <path d="m8.234-6.594h-.7188c-1.262 0-2.211.2188-2.844.6562-.6367.4375-.9531 1.094-.9531 1.969 0 .793.2344 1.406.7031 1.844.4766.4375 1.141.6562 1.984.6562 1.188 0 2.117-.4102 2.797-1.234.6875-.8203 1.035-1.961 1.047-3.422v-.4688zm4.172-.8906v7.484h-2.156v-1.953c-.4688.7812-1.055 1.359-1.75 1.734-.6992.375-1.547.5625-2.547.5625-1.336 0-2.402-.375-3.203-1.125-.793-.7578-1.188-1.773-1.188-3.047 0-1.457.4883-2.562 1.469-3.312.9766-.7578 2.414-1.141 4.312-1.141h2.906v-.3438c-.01172-1.051-.2812-1.812-.8125-2.281-.5234-.4688-1.355-.7031-2.5-.7031-.7305 0-1.469.1055-2.219.3125-.75.2109-1.484.5156-2.203.9219v-2.156c.8008-.3008 1.566-.5234 2.297-.6719.7266-.1562 1.438-.2344 2.125-.2344 1.082 0 2.008.1641 2.781.4844.7695.3125 1.395.793 1.875 1.438.2891.3867.5.8672.625 1.438.125.5742.1875 1.438.1875 2.594z"/>
  </symbol>
  <symbol id="f" overflow="visible">
   <path d="m12.31-8.141v8.141h-2.156v-8.141c0-1.176-.2109-2.039-.625-2.594-.418-.5508-1.07-.8281-1.953-.8281-1 0-1.777.3594-2.328 1.078-.543.7109-.8125 1.73-.8125 3.062v7.422h-2.156v-18.23h2.156v7.078c.3828-.75.9062-1.316 1.562-1.703.6562-.3828 1.43-.5781 2.328-.5781 1.344 0 2.344.4375 3 1.312s.9844 2.203.9844 3.984z"/>
  </symbol>
  <symbol id="g" overflow="visible">
   <path d="m3-13.12h5.516v11.45h4.281v1.672h-10.7v-1.672h4.266v-9.781h-3.359zm3.359-5.109h2.156v2.734h-2.156z"/>
  </symbol>
  <symbol id="p" overflow="visible">
   <path d="m5.656-8.797c0-.4258.1484-.7969.4531-1.109.3008-.3125.6641-.4688 1.094-.4688.4375 0 .8125.1562 1.125.4688s.4688.6836.4688 1.109c0 .4375-.1562.8125-.4688 1.125-.3125.3047-.6875.4531-1.125.4531s-.8086-.1445-1.109-.4375c-.293-.3008-.4375-.6797-.4375-1.141zm1.562-7.141c-1.105 0-1.93.5938-2.469 1.781-.543 1.188-.8125 2.996-.8125 5.422 0 2.43.2695 4.234.8125 5.422.5391 1.188 1.363 1.781 2.469 1.781 1.113 0 1.941-.5938 2.484-1.781.5391-1.188.8125-2.992.8125-5.422 0-2.426-.2734-4.234-.8125-5.422-.543-1.188-1.371-1.781-2.484-1.781zm0-1.875c1.863 0 3.273.7656 4.234 2.297.957 1.531 1.438 3.793 1.438 6.781 0 2.992-.4805 5.25-1.438 6.781-.9609 1.531-2.371 2.297-4.234 2.297-1.867 0-3.277-.7656-4.234-2.297-.9492-1.531-1.422-3.789-1.422-6.781 0-2.988.4727-5.25 1.422-6.781.957-1.531 2.367-2.297 4.234-2.297z"/>
  </symbol>
  <symbol id="o" overflow="visible">
   <path d="m3.172-2h3.672v-13.36l-3.953.8906v-2.156l3.938-.875h2.359v15.5h3.641v2h-9.656z"/>
  </symbol>
  <symbol id="h" overflow="visible">
   <path d="m13.03-7.109v1.062h-9.344v.0625c0 1.438.375 2.547 1.125 3.328s1.801 1.172 3.156 1.172c.6875 0 1.406-.1094 2.156-.3281s1.551-.5508 2.406-1v2.141c-.8242.3359-1.617.5859-2.375.75-.7617.1758-1.496.2656-2.203.2656-2.043 0-3.641-.6094-4.797-1.828-1.148-1.227-1.719-2.914-1.719-5.062 0-2.094.5625-3.766 1.688-5.016s2.625-1.875 4.5-1.875c1.676 0 2.992.5703 3.953 1.703.9688 1.125 1.453 2.668 1.453 4.625zm-2.156-.625c-.03125-1.27-.3359-2.234-.9062-2.891-.5625-.6562-1.375-.9844-2.438-.9844-1.031 0-1.887.3438-2.562 1.031-.668.6875-1.062 1.641-1.188 2.859z"/>
  </symbol>
  <symbol id="m" overflow="visible">
   <path d="m7.484-4.766c0 .9688.1758 1.703.5312 2.203.3633.4922.8906.7344 1.578.7344h2.531v1.828h-2.734c-1.293 0-2.293-.4102-3-1.234-.7109-.832-1.062-2.008-1.062-3.531v-11.91h-3.453v-1.688h5.609z"/>
  </symbol>
  <symbol id="r" overflow="visible">
   <path d="m10.77-6.547c0-1.676-.2656-2.938-.7969-3.781-.5312-.8516-1.32-1.281-2.359-1.281-1.055 0-1.852.4297-2.391 1.281-.5312.8555-.7969 2.117-.7969 3.781 0 1.656.2656 2.918.7969 3.781.5391.8555 1.336 1.281 2.391 1.281 1.039 0 1.828-.4258 2.359-1.281.5312-.8516.7969-2.113.7969-3.781zm-6.344-4.906c.3438-.6328.8164-1.125 1.422-1.469.6016-.3438 1.305-.5156 2.109-.5156 1.57 0 2.812.6094 3.719 1.828.9062 1.211 1.359 2.883 1.359 5.016 0 2.156-.4609 3.855-1.375 5.094-.9062 1.23-2.152 1.844-3.734 1.844-.7812 0-1.477-.1719-2.078-.5156-.5938-.3438-1.07-.8359-1.422-1.484v1.656h-2.156v-18.23h2.156z"/>
  </symbol>
  <symbol id="ae" overflow="visible">
   <path d="m12.31-8.141v8.141h-2.156v-8.141c0-1.176-.2109-2.039-.625-2.594-.418-.5508-1.07-.8281-1.953-.8281-1 0-1.777.3594-2.328 1.078-.543.7109-.8125 1.73-.8125 3.062v7.422h-2.156v-13.12h2.156v1.969c.3828-.75.9062-1.316 1.562-1.703.6562-.3828 1.43-.5781 2.328-.5781 1.344 0 2.344.4375 3 1.312s.9844 2.203.9844 3.984z"/>
  </symbol>
  <symbol id="l" overflow="visible">
   <path d="m12.44-.6719c-.5859.3359-1.184.5859-1.797.75-.6055.1758-1.23.2656-1.875.2656-2.031 0-3.621-.6094-4.766-1.828-1.148-1.219-1.719-2.906-1.719-5.062s.5703-3.844 1.719-5.062c1.145-1.219 2.734-1.828 4.766-1.828.6328 0 1.25.08594 1.844.25.6016.1562 1.211.4062 1.828.75v2.266c-.5742-.5078-1.148-.875-1.719-1.094-.5742-.2266-1.227-.3438-1.953-.3438-1.355 0-2.398.4375-3.125 1.312-.7188.875-1.078 2.125-1.078 3.75 0 1.617.3633 2.867 1.094 3.75.7266.875 1.766 1.312 3.109 1.312.75 0 1.422-.1133 2.016-.3438.5938-.2383 1.145-.5977 1.656-1.078z"/>
  </symbol>
  <symbol id="q" overflow="visible">
   <path d="m13.53-10.42c-.4609-.3516-.9297-.6133-1.406-.7812-.4688-.1641-.9922-.25-1.562-.25-1.344 0-2.375.4219-3.094 1.266-.7109.8438-1.062 2.062-1.062 3.656v6.531h-2.156v-13.12h2.156v2.562c.3633-.9258.9141-1.633 1.656-2.125.75-.5 1.633-.75 2.656-.75.5312 0 1.023.07031 1.484.2031.4688.125.9102.3281 1.328.6094z"/>
  </symbol>
  <symbol id="i" overflow="visible">
   <path d="m10.06-6.672c0-1.613-.2656-2.836-.7969-3.672-.5312-.8438-1.297-1.266-2.297-1.266-1.062 0-1.871.4219-2.422 1.266-.5547.8359-.8281 2.059-.8281 3.672 0 1.617.2734 2.852.8281 3.703.5625.8438 1.375 1.266 2.438 1.266.9883 0 1.75-.4219 2.281-1.266.5312-.8516.7969-2.086.7969-3.703zm2.156 5.828c0 1.969-.4688 3.457-1.406 4.469-.9297 1.02-2.293 1.531-4.094 1.531-.5938 0-1.219-.05859-1.875-.1719-.6484-.1055-1.293-.2617-1.938-.4688v-2.141c.7695.3633 1.469.6289 2.094.7969.625.1758 1.195.2656 1.719.2656 1.164 0 2.016-.3203 2.547-.9531.5312-.6367.7969-1.641.7969-3.016v-1.562c-.3438.7422-.8125 1.293-1.406 1.656-.5938.3555-1.32.5312-2.172.5312-1.531 0-2.758-.6133-3.672-1.844-.918-1.227-1.375-2.867-1.375-4.922 0-2.062.457-3.703 1.375-4.922.9141-1.227 2.141-1.844 3.672-1.844.8438 0 1.555.168 2.141.5.582.3359 1.062.8555 1.438 1.562v-1.703h2.156z"/>
  </symbol>
  <symbol id="ad" overflow="visible">
   <path d="m10.06-11.45v-6.781h2.156v18.23h-2.156v-1.656c-.3672.6484-.8516 1.141-1.453 1.484-.5938.3438-1.281.5156-2.062.5156-1.586 0-2.836-.6133-3.75-1.844-.9062-1.238-1.359-2.938-1.359-5.094 0-2.133.457-3.805 1.375-5.016.9141-1.219 2.16-1.828 3.734-1.828.7891 0 1.488.1719 2.094.5156.6016.3359 1.078.8242 1.422 1.469zm-6.344 4.906c0 1.668.2656 2.93.7969 3.781.5312.8555 1.316 1.281 2.359 1.281 1.031 0 1.816-.4258 2.359-1.281.5508-.8633.8281-2.125.8281-3.781 0-1.664-.2773-2.926-.8281-3.781-.543-.8516-1.328-1.281-2.359-1.281-1.043 0-1.828.4297-2.359 1.281-.5312.8438-.7969 2.105-.7969 3.781z"/>
  </symbol>
  <symbol id="ac" overflow="visible">
   <path d="m4.391-1.656v6.656h-2.156v-18.12h2.156v1.672c.3633-.6445.8438-1.133 1.438-1.469.6016-.3438 1.297-.5156 2.078-.5156 1.582 0 2.82.6172 3.719 1.844.9062 1.219 1.359 2.918 1.359 5.094 0 2.125-.4531 3.797-1.359 5.016s-2.148 1.828-3.719 1.828c-.8047 0-1.508-.1719-2.109-.5156-.5938-.3438-1.062-.8359-1.406-1.484zm6.328-4.891c0-1.676-.2656-2.938-.7969-3.781-.5234-.8516-1.305-1.281-2.344-1.281-1.043 0-1.836.4297-2.375 1.281-.543.8555-.8125 2.117-.8125 3.781 0 1.656.2695 2.918.8125 3.781.5391.8555 1.332 1.281 2.375 1.281 1.039 0 1.82-.4258 2.344-1.281.5312-.8516.7969-2.113.7969-3.781z"/>
  </symbol>
  <symbol id="ab" overflow="visible">
   <path d="m7.219-11.61c-1.094 0-1.922.4297-2.484 1.281-.5625.8438-.8438 2.105-.8438 3.781 0 1.656.2812 2.918.8438 3.781.5625.8555 1.391 1.281 2.484 1.281 1.102 0 1.938-.4258 2.5-1.281.5625-.8633.8438-2.125.8438-3.781 0-1.676-.2812-2.938-.8438-3.781-.5625-.8516-1.398-1.281-2.5-1.281zm0-1.828c1.82 0 3.211.5898 4.172 1.766.9688 1.18 1.453 2.887 1.453 5.125 0 2.242-.4805 3.949-1.438 5.125-.9609 1.18-2.355 1.766-4.188 1.766-1.824 0-3.215-.5859-4.172-1.766-.9609-1.176-1.438-2.883-1.438-5.125 0-2.238.4766-3.945 1.438-5.125.957-1.176 2.348-1.766 4.172-1.766z"/>
  </symbol>
  <symbol id="aa" overflow="visible">
   <path d="m10.06-4.219c-.3672.918-.8242 2.121-1.375 3.609-.7734 2.062-1.293 3.32-1.562 3.781-.3555.6016-.8047 1.055-1.344 1.359-.543.3125-1.172.4688-1.891.4688h-1.734v-1.812h1.281c.6328 0 1.129-.1836 1.484-.5469.3633-.3672.8203-1.32 1.375-2.859l-5.078-12.91h2.281l3.891 10.27 3.844-10.27h2.281z"/>
  </symbol>
  <symbol id="z" overflow="visible">
   <path d="m2.656-13.16h9.531v1.969l-7.531 9.422h7.531v1.766h-9.812v-2l7.547-9.422h-7.266z"/>
  </symbol>
 </defs>
 <g>
  <path d="m0 0h1080v556.5h-1080z" fill="#002a35"/>
  <g fill="#ede7d4" transform="translate(0 147.290485)">
   <use x="135.565796" xlink:href="#au"/>
   <use x="193.728296" xlink:href="#ap"/>
   <use x="252.115796" xlink:href="#ao"/>
   <use x="309.603296" xlink:href="#x"/>
   <use x="365.178296" xlink:href="#w"/>
   <use x="395.890796" xlink:href="#an"/>
   <use x="452.478296" xlink:href="#am"/>
   <use x="483.190796" xlink:href="#al"/>
   <use x="502.990796" xlink:href="#ak"/>
   <use x="535.503296" xlink:href="#at"/>
   <use x="594.228296" xlink:href="#y"/>
   <use x="652.953296" xlink:href="#x"/>
   <use x="708.528296" xlink:href="#as"/>
   <use x="742.728296" xlink:href="#w"/>
   <use x="773.440796" xlink:href="#ar"/>
   <use x="830.928296" xlink:href="#y"/>
   <use x="889.653296" xlink:href="#aq"/>
  </g>
  <g fill="#92a0a0">
   <g transform="translate(0 206.022423)">
   <use x="216.788773" xlink:href="#v"/>
   <use x="232.772773" xlink:href="#k"/>
   <use x="246.116773" xlink:href="#t"/>
   <use x="258.116773" xlink:href="#t"/>
   <use x="270.116773" xlink:href="#k"/>
   <use x="283.460773" xlink:href="#ah"/>
   </g>
   <g transform="translate(0 363.746487)">
   <use x="216.788773" xlink:href="#v"/>
   <use x="232.772773" xlink:href="#k"/>
   <use x="246.116773" xlink:href="#s"/>
   <use x="252.764773" xlink:href="#j"/>
   </g>
    <g transform="translate(0 458.086095)">
   <use x="216.788773" xlink:href="#ag"/>
   <use x="232.772773" xlink:href="#n"/>
   <use x="240.764773" xlink:href="#n"/>
   <use x="248.828773" xlink:href="#af"/>
   <use x="262.172773" xlink:href="#n"/>
   </g>
   <g transform="translate(0 237.714663)">
   <use x="588.032173" xlink:href="#aj"/>
   <use x="606.680173" xlink:href="#j"/>
   <use x="620.024173" xlink:href="#u"/>
   <use x="640.016173" xlink:href="#u"/>
   <use x="660.008173" xlink:href="#j"/>
   <use x="246.788101" xlink:href="#a"/>
   <use x="261.236101" xlink:href="#e"/>
   <use x="275.684101" xlink:href="#b"/>
   <use x="290.132101" xlink:href="#d"/>
   <use x="304.580101" xlink:href="#c"/>
   <use x="319.028101" xlink:href="#a"/>
   <use x="333.404101" xlink:href="#f"/>
   <use x="347.852101" xlink:href="#b"/>
   <use x="362.300101" xlink:href="#g"/>
   <use x="376.748101" xlink:href="#p"/>
   </g>
   <g transform="translate(0 427.130919)">
   <use x="588.032173" xlink:href="#ai"/>
   <use x="602.672173" xlink:href="#k"/>
   <use x="616.016173" xlink:href="#s"/>
   <use x="622.664173" xlink:href="#j"/>
   </g>
   <g transform="translate(0 269.406879)">
   <use x="246.788101" xlink:href="#a"/>
   <use x="261.236101" xlink:href="#e"/>
   <use x="275.684101" xlink:href="#b"/>
   <use x="290.132101" xlink:href="#d"/>
   <use x="304.580101" xlink:href="#c"/>
   <use x="319.028101" xlink:href="#a"/>
   <use x="333.404101" xlink:href="#f"/>
   <use x="347.852101" xlink:href="#b"/>
   <use x="362.300101" xlink:href="#g"/>
   <use x="376.748101" xlink:href="#o"/>
   </g>
   <g transform="translate(0 301.099095)">
   <use x="246.788101" xlink:href="#a"/>
   <use x="261.236101" xlink:href="#e"/>
   <use x="275.684101" xlink:href="#b"/>
   <use x="290.132101" xlink:href="#d"/>
   <use x="304.580101" xlink:href="#c"/>
   <use x="319.028101" xlink:href="#a"/>
   <use x="333.404101" xlink:href="#f"/>
   <use x="347.852101" xlink:href="#b"/>
   <use x="362.300101" xlink:href="#g"/>
   <use x="376.748101" xlink:href="#p"/>
   <use x="391.196101" xlink:href="#h"/>
   </g>
   <g transform="translate(0 332.791311)">
   <use x="246.788101" xlink:href="#a"/>
   <use x="261.236101" xlink:href="#e"/>
   <use x="275.684101" xlink:href="#b"/>
   <use x="290.132101" xlink:href="#d"/>
   <use x="304.580101" xlink:href="#c"/>
   <use x="319.028101" xlink:href="#a"/>
   <use x="333.404101" xlink:href="#f"/>
   <use x="347.852101" xlink:href="#b"/>
   <use x="362.300101" xlink:href="#g"/>
   <use x="376.748101" xlink:href="#o"/>
   <use x="391.196101" xlink:href="#h"/>
   </g>
   <g transform="translate(0 395.438727)">
   <use x="246.788101" xlink:href="#a"/>
   <use x="261.236101" xlink:href="#e"/>
   <use x="275.684101" xlink:href="#b"/>
   <use x="290.132101" xlink:href="#d"/>
   <use x="304.580101" xlink:href="#c"/>
   <use x="319.028101" xlink:href="#a"/>
   <use x="333.404101" xlink:href="#f"/>
   <use x="347.852101" xlink:href="#b"/>
   <use x="362.300101" xlink:href="#m"/>
   <use x="376.748101" xlink:href="#r"/>
   <use x="391.196101" xlink:href="#h"/>
   <use x="405.644101" xlink:href="#a"/>
   <use x="420.020101" xlink:href="#c"/>
   </g>
   <g transform="translate(0 427.130943)">
   <use x="246.788101" xlink:href="#a"/>
   <use x="261.236101" xlink:href="#e"/>
   <use x="275.684101" xlink:href="#b"/>
   <use x="290.132101" xlink:href="#d"/>
   <use x="304.580101" xlink:href="#c"/>
   <use x="319.028101" xlink:href="#a"/>
   <use x="333.404101" xlink:href="#f"/>
   <use x="347.852101" xlink:href="#b"/>
   <use x="362.300101" xlink:href="#r"/>
   <use x="376.748101" xlink:href="#h"/>
   <use x="391.196101" xlink:href="#a"/>
   <use x="405.644101" xlink:href="#c"/>
   <use x="420.020101" xlink:href="#g"/>
   <use x="434.468101" xlink:href="#ae"/>
   <use x="448.916101" xlink:href="#l"/>
   </g>
   <g transform="translate(0 489.778335)">
   <use x="246.788101" xlink:href="#a"/>
   <use x="261.236101" xlink:href="#e"/>
   <use x="275.684101" xlink:href="#b"/>
   <use x="290.132101" xlink:href="#d"/>
   <use x="304.580101" xlink:href="#c"/>
   <use x="319.028101" xlink:href="#a"/>
   <use x="333.404101" xlink:href="#f"/>
   <use x="347.852101" xlink:href="#b"/>
   <use x="362.300101" xlink:href="#h"/>
   <use x="376.748101" xlink:href="#q"/>
   <use x="391.196101" xlink:href="#e"/>
   </g>
   <g transform="translate(0 206.759511)">
   <use x="618.031525" xlink:href="#a"/>
   <use x="632.479525" xlink:href="#e"/>
   <use x="646.927525" xlink:href="#b"/>
   <use x="661.375525" xlink:href="#d"/>
   <use x="675.823525" xlink:href="#c"/>
   <use x="690.271525" xlink:href="#a"/>
   <use x="704.647525" xlink:href="#f"/>
   <use x="719.095525" xlink:href="#b"/>
   <use x="733.543525" xlink:href="#h"/>
   <use x="747.991525" xlink:href="#q"/>
   <use x="762.439525" xlink:href="#e"/>
   <use x="776.887525" xlink:href="#l"/>
   </g>
   <g transform="translate(0 269.406903)">
   <use x="618.031525" xlink:href="#a"/>
   <use x="632.479525" xlink:href="#e"/>
   <use x="646.927525" xlink:href="#b"/>
   <use x="661.375525" xlink:href="#d"/>
   <use x="675.823525" xlink:href="#c"/>
   <use x="690.271525" xlink:href="#a"/>
   <use x="704.647525" xlink:href="#f"/>
   <use x="719.095525" xlink:href="#b"/>
   <use x="733.543525" xlink:href="#m"/>
   <use x="747.991525" xlink:href="#i"/>
   <use x="762.439525" xlink:href="#c"/>
   <use x="776.887525" xlink:href="#d"/>
   <use x="791.263525" xlink:href="#d"/>
   <use x="805.711525" xlink:href="#c"/>
   </g>
   <g transform="translate(0 301.099119)">
   <use x="618.031525" xlink:href="#a"/>
   <use x="632.479525" xlink:href="#e"/>
   <use x="646.927525" xlink:href="#b"/>
   <use x="661.375525" xlink:href="#d"/>
   <use x="675.823525" xlink:href="#c"/>
   <use x="690.271525" xlink:href="#a"/>
   <use x="704.647525" xlink:href="#f"/>
   <use x="719.095525" xlink:href="#b"/>
   <use x="733.543525" xlink:href="#ad"/>
   <use x="747.991525" xlink:href="#g"/>
   <use x="762.439525" xlink:href="#i"/>
   <use x="776.887525" xlink:href="#c"/>
   <use x="791.263525" xlink:href="#d"/>
   <use x="805.711525" xlink:href="#d"/>
   <use x="820.159525" xlink:href="#c"/>
   </g>
   <g transform="translate(0 332.791335)">
   <use x="618.031525" xlink:href="#a"/>
   <use x="632.479525" xlink:href="#e"/>
   <use x="646.927525" xlink:href="#b"/>
   <use x="661.375525" xlink:href="#d"/>
   <use x="675.823525" xlink:href="#c"/>
   <use x="690.271525" xlink:href="#a"/>
   <use x="704.647525" xlink:href="#f"/>
   <use x="719.095525" xlink:href="#b"/>
   <use x="733.543525" xlink:href="#ac"/>
   <use x="747.991525" xlink:href="#ab"/>
   <use x="762.439525" xlink:href="#m"/>
   <use x="776.887525" xlink:href="#aa"/>
   <use x="791.263525" xlink:href="#i"/>
   <use x="805.711525" xlink:href="#c"/>
   <use x="820.159525" xlink:href="#d"/>
   <use x="834.607525" xlink:href="#d"/>
   <use x="849.055525" xlink:href="#c"/>
   </g>
   <g transform="translate(0 364.483551)">
   <use x="618.031525" xlink:href="#a"/>
   <use x="632.479525" xlink:href="#e"/>
   <use x="646.927525" xlink:href="#b"/>
   <use x="661.375525" xlink:href="#d"/>
   <use x="675.823525" xlink:href="#c"/>
   <use x="690.271525" xlink:href="#a"/>
   <use x="704.647525" xlink:href="#f"/>
   <use x="719.095525" xlink:href="#b"/>
   <use x="733.543525" xlink:href="#g"/>
   <use x="747.991525" xlink:href="#i"/>
   <use x="762.439525" xlink:href="#c"/>
   <use x="776.887525" xlink:href="#d"/>
   <use x="791.263525" xlink:href="#d"/>
   <use x="805.711525" xlink:href="#c"/>
   </g>
   <g transform="translate(0 396.175791)">
   <use x="618.031525" xlink:href="#a"/>
   <use x="632.479525" xlink:href="#e"/>
   <use x="646.927525" xlink:href="#b"/>
   <use x="661.375525" xlink:href="#d"/>
   <use x="675.823525" xlink:href="#c"/>
   <use x="690.271525" xlink:href="#a"/>
   <use x="704.647525" xlink:href="#f"/>
   <use x="719.095525" xlink:href="#b"/>
   <use x="733.543525" xlink:href="#g"/>
   <use x="747.991525" xlink:href="#i"/>
   <use x="762.439525" xlink:href="#c"/>
   <use x="776.887525" xlink:href="#d"/>
   <use x="791.263525" xlink:href="#d"/>
   <use x="805.711525" xlink:href="#c"/>
   <use x="820.159525" xlink:href="#l"/>
   </g>
   <g transform="translate(0 458.823183)">
   <use x="618.031525" xlink:href="#a"/>
   <use x="632.479525" xlink:href="#e"/>
   <use x="646.927525" xlink:href="#b"/>
   <use x="661.375525" xlink:href="#d"/>
   <use x="675.823525" xlink:href="#c"/>
   <use x="690.271525" xlink:href="#a"/>
   <use x="704.647525" xlink:href="#f"/>
   <use x="719.095525" xlink:href="#b"/>
   <use x="733.543525" xlink:href="#z"/>
   <use x="747.991525" xlink:href="#h"/>
   <use x="762.439525" xlink:href="#a"/>
   <use x="776.887525" xlink:href="#c"/>
   </g>
  </g>
 </g>
</svg>
