<?xml version="1.0" encoding="UTF-8"?>
<svg width="90.53mm" height="58.9mm" version="1.1" viewBox="0 0 90.53 58.9" xmlns="http://www.w3.org/2000/svg" xmlns:xlink="http://www.w3.org/1999/xlink">
 <defs>
  <marker id="h" overflow="visible" orient="auto">
   <path transform="scale(-.6)" d="m8.719 4.034-10.93-4.018 10.93-4.018c-1.745 2.372-1.735 5.617-6e-7 8.035z" fill="#666" fill-rule="evenodd" stroke="#666" stroke-linejoin="round" stroke-width=".625"/>
  </marker>
  <marker id="b" overflow="visible" orient="auto">
   <path transform="scale(-.6)" d="m8.719 4.034-10.93-4.018 10.93-4.018c-1.745 2.372-1.735 5.617-6e-7 8.035z" fill="#666" fill-rule="evenodd" stroke="#666" stroke-linejoin="round" stroke-width=".625"/>
  </marker>
  <marker id="e" overflow="visible" orient="auto">
   <path transform="scale(-.6)" d="m8.719 4.034-10.93-4.018 10.93-4.018c-1.745 2.372-1.735 5.617-6e-7 8.035z" fill="#666" fill-rule="evenodd" stroke="#666" stroke-linejoin="round" stroke-width=".625"/>
  </marker>
  <marker id="c" overflow="visible" orient="auto">
   <path transform="scale(-.6)" d="m8.719 4.034-10.93-4.018 10.93-4.018c-1.745 2.372-1.735 5.617-6e-7 8.035z" fill="#666" fill-rule="evenodd" stroke="#666" stroke-linejoin="round" stroke-width=".625"/>
  </marker>
  <marker id="i" overflow="visible" orient="auto">
   <path transform="scale(-.6)" d="m8.719 4.034-10.93-4.018 10.93-4.018c-1.745 2.372-1.735 5.617-6e-7 8.035z" fill="#666" fill-rule="evenodd" stroke="#666" stroke-linejoin="round" stroke-width=".625"/>
  </marker>
  <marker id="d" overflow="visible" orient="auto">
   <path transform="scale(-.6)" d="m8.719 4.034-10.93-4.018 10.93-4.018c-1.745 2.372-1.735 5.617-6e-7 8.035z" fill="#666" fill-rule="evenodd" stroke="#666" stroke-linejoin="round" stroke-width=".625"/>
  </marker>
  <marker id="g" overflow="visible" orient="auto">
   <path transform="scale(-.6)" d="m8.719 4.034-10.93-4.018 10.93-4.018c-1.745 2.372-1.735 5.617-6e-7 8.035z" fill="#666" fill-rule="evenodd" stroke="#666" stroke-linejoin="round" stroke-width=".625"/>
  </marker>
  <marker id="j" overflow="visible" orient="auto">
   <path transform="scale(-.6)" d="m8.719 4.034-10.93-4.018 10.93-4.018c-1.745 2.372-1.735 5.617-6e-7 8.035z" fill="#666" fill-rule="evenodd" stroke="#666" stroke-linejoin="round" stroke-width=".625"/>
  </marker>
  <symbol id="ab" overflow="visible">
   <path d="m32.89-20.33c0.8906-1.578 1.75-2.875 4.016-3.047 0.3125-0.04687 0.6719-0.04687 0.6719-0.7188 0-0.1406-0.1406-0.3906-0.4219-0.3906-0.8594 0-1.875 0.09375-2.766 0.09375-1.219 0-2.547-0.09375-3.734-0.09375-0.2188 0-0.6719 0-0.6719 0.6719 0 0.3906 0.3125 0.4375 0.5312 0.4375 0.8594 0.03125 2.109 0.3125 2.109 1.391 0 0.3906-0.1719 0.6875-0.4531 1.188l-9.688 16.89-1.328-17.78c-0.03125-0.7188-0.1094-1.656 2.516-1.688 0.6094 0 0.9688 0 0.9688-0.7188 0-0.3594-0.4062-0.3906-0.5469-0.3906-1.438 0-2.938 0.09375-4.375 0.09375-0.8281 0-2.938-0.09375-3.766-0.09375-0.2031 0-0.6719 0-0.6719 0.7031 0 0.4062 0.3594 0.4062 0.8594 0.4062 1.578 0 1.828 0.2031 1.891 0.8906l0.2188 2.766-9.062 15.81-1.375-18.19c0-0.4219 0-1.25 2.734-1.281 0.3594 0 0.75 0 0.75-0.7188 0-0.3906-0.4375-0.3906-0.5-0.3906-1.438 0-2.938 0.09375-4.406 0.09375-1.266 0-2.547-0.09375-3.766-0.09375-0.1875 0-0.6562 0-0.6562 0.6719 0 0.4375 0.3281 0.4375 0.9062 0.4375 1.781 0 1.828 0.3125 1.891 1.328l1.625 21.91c0.03125 0.6406 0.0625 0.9219 0.5625 0.9219 0.4375 0 0.5469-0.2031 0.8594-0.75l10.55-18.28 1.328 18.11c0.07813 0.75 0.1406 0.9219 0.5781 0.9219 0.4688 0 0.6719-0.3438 0.8594-0.6719z"/>
  </symbol>
  <symbol id="f" overflow="visible">
   <path d="m8.406-15.97c0-0.6719-0.04688-0.7031-0.75-0.7031-1.609 1.578-3.891 1.609-4.922 1.609v0.9062c0.6094 0 2.266 0 3.641-0.7031v12.8c0 0.8281 0 1.156-2.516 1.156h-0.9531v0.9062c0.4531-0.03125 3.547-0.09375 4.469-0.09375 0.7812 0 3.953 0.0625 4.5 0.09375v-0.9062h-0.9531c-2.516 0-2.516-0.3281-2.516-1.156z"/>
  </symbol>
  <symbol id="n" overflow="visible">
   <path d="m5.297-0.4062c0 1.391-0.25 3-1.953 4.594-0.1094 0.1094-0.1875 0.1875-0.1875 0.3125 0 0.1719 0.2031 0.3438 0.3594 0.3438 0.3438 0 2.484-2 2.484-5 0-1.547-0.5938-2.734-1.75-2.734-0.8281 0-1.438 0.6562-1.438 1.438 0 0.7969 0.5781 1.453 1.453 1.453 0.6094 0 1-0.4062 1.031-0.4062z"/>
  </symbol>
  <symbol id="y" overflow="visible">
   <path d="m32.89-20.33c0.8906-1.578 1.75-2.875 4.016-3.047 0.3125-0.04687 0.6719-0.04687 0.6719-0.7188 0-0.1406-0.1406-0.3906-0.4219-0.3906-0.8594 0-1.875 0.09375-2.766 0.09375-1.219 0-2.547-0.09375-3.734-0.09375-0.2188 0-0.6719 0-0.6719 0.6719 0 0.3906 0.3125 0.4375 0.5312 0.4375 0.8594 0.03125 2.109 0.3125 2.109 1.391 0 0.3906-0.1719 0.6875-0.4531 1.188l-9.688 16.89-1.328-17.78c-0.03125-0.7188-0.1094-1.656 2.516-1.688 0.6094 0 0.9688 0 0.9688-0.7188 0-0.3594-0.4062-0.3906-0.5469-0.3906-1.438 0-2.938 0.09375-4.375 0.09375-0.8281 0-2.938-0.09375-3.766-0.09375-0.2031 0-0.6719 0-0.6719 0.7031 0 0.4062 0.3594 0.4062 0.8594 0.4062 1.578 0 1.828 0.2031 1.891 0.8906l0.2188 2.766-9.062 15.81-1.375-18.19c0-0.4219 0-1.25 2.734-1.281 0.3594 0 0.75 0 0.75-0.7188 0-0.3906-0.4375-0.3906-0.5-0.3906-1.438 0-2.938 0.09375-4.406 0.09375-1.266 0-2.547-0.09375-3.766-0.09375-0.1875 0-0.6562 0-0.6562 0.6719 0 0.4375 0.3281 0.4375 0.9062 0.4375 1.781 0 1.828 0.3125 1.891 1.328l1.625 21.91c0.03125 0.6406 0.0625 0.9219 0.5625 0.9219 0.4375 0 0.5469-0.2031 0.8594-0.75l10.55-18.28 1.328 18.11c0.07813 0.75 0.1406 0.9219 0.5781 0.9219 0.4688 0 0.6719-0.3438 0.8594-0.6719z"/>
  </symbol>
  <symbol id="p" overflow="visible">
   <path d="m8.406-15.97c0-0.6719-0.04688-0.7031-0.75-0.7031-1.609 1.578-3.891 1.609-4.922 1.609v0.9062c0.6094 0 2.266 0 3.641-0.7031v12.8c0 0.8281 0 1.156-2.516 1.156h-0.9531v0.9062c0.4531-0.03125 3.547-0.09375 4.469-0.09375 0.7812 0 3.953 0.0625 4.5 0.09375v-0.9062h-0.9531c-2.516 0-2.516-0.3281-2.516-1.156z"/>
  </symbol>
  <symbol id="o" overflow="visible">
   <path d="m12.69-4.562h-0.8594c-0.07812 0.5469-0.3281 2.031-0.6562 2.281-0.2031 0.1406-2.125 0.1406-2.484 0.1406h-4.625c2.641-2.328 3.516-3.031 5.031-4.219 1.859-1.469 3.594-3.031 3.594-5.422 0-3.031-2.672-4.891-5.891-4.891-3.109 0-5.219 2.188-5.219 4.5 0 1.281 1.078 1.406 1.328 1.406 0.6094 0 1.344-0.4375 1.344-1.344 0-0.4375-0.1875-1.328-1.484-1.328 0.7812-1.781 2.484-2.328 3.656-2.328 2.516 0 3.828 1.953 3.828 3.984 0 2.188-1.562 3.922-2.359 4.828l-6.062 5.969c-0.25 0.2344-0.25 0.2812-0.25 0.9844h10.34z"/>
  </symbol>
  <symbol id="l" overflow="visible">
   <path d="m5.297-0.4062c0 1.391-0.25 3-1.953 4.594-0.1094 0.1094-0.1875 0.1875-0.1875 0.3125 0 0.1719 0.2031 0.3438 0.3594 0.3438 0.3438 0 2.484-2 2.484-5 0-1.547-0.5938-2.734-1.75-2.734-0.8281 0-1.438 0.6562-1.438 1.438 0 0.7969 0.5781 1.453 1.453 1.453 0.6094 0 1-0.4062 1.031-0.4062z"/>
  </symbol>
  <symbol id="x" overflow="visible">
   <path d="m32.89-20.33c0.8906-1.578 1.75-2.875 4.016-3.047 0.3125-0.04687 0.6719-0.04687 0.6719-0.7188 0-0.1406-0.1406-0.3906-0.4219-0.3906-0.8594 0-1.875 0.09375-2.766 0.09375-1.219 0-2.547-0.09375-3.734-0.09375-0.2188 0-0.6719 0-0.6719 0.6719 0 0.3906 0.3125 0.4375 0.5312 0.4375 0.8594 0.03125 2.109 0.3125 2.109 1.391 0 0.3906-0.1719 0.6875-0.4531 1.188l-9.688 16.89-1.328-17.78c-0.03125-0.7188-0.1094-1.656 2.516-1.688 0.6094 0 0.9688 0 0.9688-0.7188 0-0.3594-0.4062-0.3906-0.5469-0.3906-1.438 0-2.938 0.09375-4.375 0.09375-0.8281 0-2.938-0.09375-3.766-0.09375-0.2031 0-0.6719 0-0.6719 0.7031 0 0.4062 0.3594 0.4062 0.8594 0.4062 1.578 0 1.828 0.2031 1.891 0.8906l0.2188 2.766-9.062 15.81-1.375-18.19c0-0.4219 0-1.25 2.734-1.281 0.3594 0 0.75 0 0.75-0.7188 0-0.3906-0.4375-0.3906-0.5-0.3906-1.438 0-2.938 0.09375-4.406 0.09375-1.266 0-2.547-0.09375-3.766-0.09375-0.1875 0-0.6562 0-0.6562 0.6719 0 0.4375 0.3281 0.4375 0.9062 0.4375 1.781 0 1.828 0.3125 1.891 1.328l1.625 21.91c0.03125 0.6406 0.0625 0.9219 0.5625 0.9219 0.4375 0 0.5469-0.2031 0.8594-0.75l10.55-18.28 1.328 18.11c0.07813 0.75 0.1406 0.9219 0.5781 0.9219 0.4688 0 0.6719-0.3438 0.8594-0.6719z"/>
  </symbol>
  <symbol id="q" overflow="visible">
   <path d="m8.406-15.97c0-0.6719-0.04688-0.7031-0.75-0.7031-1.609 1.578-3.891 1.609-4.922 1.609v0.9062c0.6094 0 2.266 0 3.641-0.7031v12.8c0 0.8281 0 1.156-2.516 1.156h-0.9531v0.9062c0.4531-0.03125 3.547-0.09375 4.469-0.09375 0.7812 0 3.953 0.0625 4.5 0.09375v-0.9062h-0.9531c-2.516 0-2.516-0.3281-2.516-1.156z"/>
  </symbol>
  <symbol id="m" overflow="visible">
   <path d="m5.297-0.4062c0 1.391-0.25 3-1.953 4.594-0.1094 0.1094-0.1875 0.1875-0.1875 0.3125 0 0.1719 0.2031 0.3438 0.3594 0.3438 0.3438 0 2.484-2 2.484-5 0-1.547-0.5938-2.734-1.75-2.734-0.8281 0-1.438 0.6562-1.438 1.438 0 0.7969 0.5781 1.453 1.453 1.453 0.6094 0 1-0.4062 1.031-0.4062z"/>
  </symbol>
  <symbol id="k" overflow="visible">
   <path d="m3.062-1.578c-0.09375 0.3281-0.25 0.9531-0.25 1.031 0 0.5469 0.4531 0.7969 0.8594 0.7969 0.4531 0 0.8438-0.3281 0.9688-0.5469 0.125-0.2344 0.3281-1.031 0.4531-1.562 0.125-0.4688 0.4062-1.625 0.5625-2.266 0.1406-0.5469 0.2969-1.094 0.4219-1.672 0.2812-1.031 0.3281-1.234 1.047-2.266 0.7031-1 1.891-2.312 3.766-2.312 1.469 0 1.484 1.281 1.484 1.766 0 1.5-1.078 4.297-1.484 5.344-0.2656 0.7031-0.375 0.9375-0.375 1.359 0 1.328 1.109 2.156 2.391 2.156 2.516 0 3.609-3.469 3.609-3.844 0-0.3281-0.3125-0.3281-0.3906-0.3281-0.3594 0-0.375 0.1562-0.4844 0.4375-0.5781 2-1.656 3.031-2.656 3.031-0.5312 0-0.625-0.3438-0.625-0.875 0-0.5781 0.125-0.9062 0.5781-2.031 0.2969-0.7812 1.328-3.438 1.328-4.844 0-2.438-1.938-2.875-3.266-2.875-2.094 0-3.5 1.281-4.25 2.297-0.1719-1.734-1.656-2.297-2.688-2.297-1.078 0-1.656 0.7812-1.984 1.359-0.5469 0.9375-0.8906 2.359-0.8906 2.484 0 0.3281 0.3438 0.3281 0.4219 0.3281 0.3438 0 0.375-0.07812 0.5469-0.75 0.375-1.484 0.8594-2.719 1.844-2.719 0.6406 0 0.8281 0.5625 0.8281 1.234 0 0.4844-0.2344 1.406-0.4062 2.078-0.1719 0.6875-0.4219 1.719-0.5625 2.266z"/>
  </symbol>
  <symbol id="w" overflow="visible">
   <path d="m11.98-10.83c0.2031-0.9375 1.031-4.234 3.547-4.234 0.1719 0 1.031 0 1.781 0.4688-1 0.1719-1.719 1.078-1.719 1.938 0 0.5781 0.4062 1.25 1.375 1.25 0.7812 0 1.922-0.6406 1.922-2.078 0-1.859-2.109-2.359-3.328-2.359-2.078 0-3.328 1.891-3.766 2.719-0.8906-2.359-2.828-2.719-3.875-2.719-3.719 0-5.766 4.625-5.766 5.516 0 0.3594 0.3594 0.3594 0.4219 0.3594 0.2969 0 0.3906-0.07812 0.4688-0.3906 1.219-3.812 3.594-4.703 4.812-4.703 0.6719 0 1.938 0.3281 1.938 2.406 0 1.109-0.6094 3.516-1.938 8.531-0.5781 2.219-1.828 3.734-3.406 3.734-0.2188 0-1.047 0-1.797-0.4688 0.8906-0.1875 1.688-0.9375 1.688-1.938 0-0.9688-0.7969-1.25-1.328-1.25-1.078 0-1.969 0.9219-1.969 2.078 0 1.641 1.781 2.359 3.359 2.359 2.375 0 3.656-2.5 3.766-2.719 0.4375 1.328 1.719 2.719 3.875 2.719 3.703 0 5.734-4.625 5.734-5.516 0-0.3594-0.3125-0.3594-0.4219-0.3594-0.3281 0-0.3906 0.1406-0.4688 0.3906-1.188 3.844-3.625 4.703-4.766 4.703-1.406 0-1.984-1.156-1.984-2.375 0-0.7812 0.2188-1.578 0.6094-3.156z"/>
  </symbol>
  <symbol id="r" overflow="visible">
   <path d="m8.406-15.97c0-0.6719-0.04688-0.7031-0.75-0.7031-1.609 1.578-3.891 1.609-4.922 1.609v0.9062c0.6094 0 2.266 0 3.641-0.7031v12.8c0 0.8281 0 1.156-2.516 1.156h-0.9531v0.9062c0.4531-0.03125 3.547-0.09375 4.469-0.09375 0.7812 0 3.953 0.0625 4.5 0.09375v-0.9062h-0.9531c-2.516 0-2.516-0.3281-2.516-1.156z"/>
  </symbol>
  <symbol id="z" overflow="visible">
   <path d="m11.98-10.83c0.2031-0.9375 1.031-4.234 3.547-4.234 0.1719 0 1.031 0 1.781 0.4688-1 0.1719-1.719 1.078-1.719 1.938 0 0.5781 0.4062 1.25 1.375 1.25 0.7812 0 1.922-0.6406 1.922-2.078 0-1.859-2.109-2.359-3.328-2.359-2.078 0-3.328 1.891-3.766 2.719-0.8906-2.359-2.828-2.719-3.875-2.719-3.719 0-5.766 4.625-5.766 5.516 0 0.3594 0.3594 0.3594 0.4219 0.3594 0.2969 0 0.3906-0.07812 0.4688-0.3906 1.219-3.812 3.594-4.703 4.812-4.703 0.6719 0 1.938 0.3281 1.938 2.406 0 1.109-0.6094 3.516-1.938 8.531-0.5781 2.219-1.828 3.734-3.406 3.734-0.2188 0-1.047 0-1.797-0.4688 0.8906-0.1875 1.688-0.9375 1.688-1.938 0-0.9688-0.7969-1.25-1.328-1.25-1.078 0-1.969 0.9219-1.969 2.078 0 1.641 1.781 2.359 3.359 2.359 2.375 0 3.656-2.5 3.766-2.719 0.4375 1.328 1.719 2.719 3.875 2.719 3.703 0 5.734-4.625 5.734-5.516 0-0.3594-0.3125-0.3594-0.4219-0.3594-0.3281 0-0.3906 0.1406-0.4688 0.3906-1.188 3.844-3.625 4.703-4.766 4.703-1.406 0-1.984-1.156-1.984-2.375 0-0.7812 0.2188-1.578 0.6094-3.156z"/>
  </symbol>
  <symbol id="t" overflow="visible">
   <path d="m12.69-4.562h-0.8594c-0.07812 0.5469-0.3281 2.031-0.6562 2.281-0.2031 0.1406-2.125 0.1406-2.484 0.1406h-4.625c2.641-2.328 3.516-3.031 5.031-4.219 1.859-1.469 3.594-3.031 3.594-5.422 0-3.031-2.672-4.891-5.891-4.891-3.109 0-5.219 2.188-5.219 4.5 0 1.281 1.078 1.406 1.328 1.406 0.6094 0 1.344-0.4375 1.344-1.344 0-0.4375-0.1875-1.328-1.484-1.328 0.7812-1.781 2.484-2.328 3.656-2.328 2.516 0 3.828 1.953 3.828 3.984 0 2.188-1.562 3.922-2.359 4.828l-6.062 5.969c-0.25 0.2344-0.25 0.2812-0.25 0.9844h10.34z"/>
  </symbol>
  <clipPath id="ac">
   <path d="m21 4h12.95v18h-12.95z"/>
  </clipPath>
  <symbol id="aa" overflow="visible">
   <path d="m11.98-10.83c0.2031-0.9375 1.031-4.234 3.547-4.234 0.1719 0 1.031 0 1.781 0.4688-1 0.1719-1.719 1.078-1.719 1.938 0 0.5781 0.4062 1.25 1.375 1.25 0.7812 0 1.922-0.6406 1.922-2.078 0-1.859-2.109-2.359-3.328-2.359-2.078 0-3.328 1.891-3.766 2.719-0.8906-2.359-2.828-2.719-3.875-2.719-3.719 0-5.766 4.625-5.766 5.516 0 0.3594 0.3594 0.3594 0.4219 0.3594 0.2969 0 0.3906-0.07812 0.4688-0.3906 1.219-3.812 3.594-4.703 4.812-4.703 0.6719 0 1.938 0.3281 1.938 2.406 0 1.109-0.6094 3.516-1.938 8.531-0.5781 2.219-1.828 3.734-3.406 3.734-0.2188 0-1.047 0-1.797-0.4688 0.8906-0.1875 1.688-0.9375 1.688-1.938 0-0.9688-0.7969-1.25-1.328-1.25-1.078 0-1.969 0.9219-1.969 2.078 0 1.641 1.781 2.359 3.359 2.359 2.375 0 3.656-2.5 3.766-2.719 0.4375 1.328 1.719 2.719 3.875 2.719 3.703 0 5.734-4.625 5.734-5.516 0-0.3594-0.3125-0.3594-0.4219-0.3594-0.3281 0-0.3906 0.1406-0.4688 0.3906-1.188 3.844-3.625 4.703-4.766 4.703-1.406 0-1.984-1.156-1.984-2.375 0-0.7812 0.2188-1.578 0.6094-3.156z"/>
  </symbol>
  <symbol id="u" overflow="visible">
   <path d="m3.062-1.578c-0.09375 0.3281-0.25 0.9531-0.25 1.031 0 0.5469 0.4531 0.7969 0.8594 0.7969 0.4531 0 0.8438-0.3281 0.9688-0.5469 0.125-0.2344 0.3281-1.031 0.4531-1.562 0.125-0.4688 0.4062-1.625 0.5625-2.266 0.1406-0.5469 0.2969-1.094 0.4219-1.672 0.2812-1.031 0.3281-1.234 1.047-2.266 0.7031-1 1.891-2.312 3.766-2.312 1.469 0 1.484 1.281 1.484 1.766 0 1.5-1.078 4.297-1.484 5.344-0.2656 0.7031-0.375 0.9375-0.375 1.359 0 1.328 1.109 2.156 2.391 2.156 2.516 0 3.609-3.469 3.609-3.844 0-0.3281-0.3125-0.3281-0.3906-0.3281-0.3594 0-0.375 0.1562-0.4844 0.4375-0.5781 2-1.656 3.031-2.656 3.031-0.5312 0-0.625-0.3438-0.625-0.875 0-0.5781 0.125-0.9062 0.5781-2.031 0.2969-0.7812 1.328-3.438 1.328-4.844 0-2.438-1.938-2.875-3.266-2.875-2.094 0-3.5 1.281-4.25 2.297-0.1719-1.734-1.656-2.297-2.688-2.297-1.078 0-1.656 0.7812-1.984 1.359-0.5469 0.9375-0.8906 2.359-0.8906 2.484 0 0.3281 0.3438 0.3281 0.4219 0.3281 0.3438 0 0.375-0.07812 0.5469-0.75 0.375-1.484 0.8594-2.719 1.844-2.719 0.6406 0 0.8281 0.5625 0.8281 1.234 0 0.4844-0.2344 1.406-0.4062 2.078-0.1719 0.6875-0.4219 1.719-0.5625 2.266z"/>
  </symbol>
  <symbol id="v" overflow="visible">
   <path d="m4.766-2.969c1.938-2.094 2.984-2.984 4.266-4.094 0-0.03125 2.234-1.938 3.516-3.234 3.406-3.328 4.203-5.047 4.203-5.188 0-0.3594-0.3281-0.3594-0.3906-0.3594-0.2656 0-0.3594 0.0625-0.5469 0.3906-1.078 1.719-1.828 2.297-2.688 2.297s-1.297-0.5469-1.828-1.156c-0.6875-0.8125-1.297-1.531-2.469-1.531-2.703 0-4.344 3.328-4.344 4.078 0 0.1875 0.1094 0.3906 0.4219 0.3906 0.3281 0 0.4062-0.1719 0.4688-0.3906 0.6875-1.641 2.766-1.688 3.047-1.688 0.7656 0 1.438 0.25 2.266 0.5469 1.438 0.5312 1.828 0.5312 2.766 0.5312-1.297 1.547-4.312 4.125-4.984 4.703l-3.234 3.016c-2.438 2.391-3.688 4.438-3.688 4.688 0 0.3594 0.3594 0.3594 0.4219 0.3594 0.2969 0 0.3594-0.0625 0.5781-0.4688 0.8281-1.25 1.906-2.219 3.047-2.219 0.8281 0 1.188 0.3281 2.078 1.359 0.6094 0.7656 1.25 1.328 2.297 1.328 3.547 0 5.625-4.547 5.625-5.516 0-0.1875-0.1406-0.3594-0.4219-0.3594-0.3281 0-0.3906 0.2188-0.5 0.4688-0.8281 2.328-3.125 3-4.312 3-0.7188 0-1.359-0.2031-2.109-0.4531-1.219-0.4688-1.766-0.6094-2.516-0.6094-0.0625 0-0.6406 0-0.9688 0.1094z"/>
  </symbol>
  <symbol id="s" overflow="visible">
   <path d="m8.406-15.97c0-0.6719-0.04688-0.7031-0.75-0.7031-1.609 1.578-3.891 1.609-4.922 1.609v0.9062c0.6094 0 2.266 0 3.641-0.7031v12.8c0 0.8281 0 1.156-2.516 1.156h-0.9531v0.9062c0.4531-0.03125 3.547-0.09375 4.469-0.09375 0.7812 0 3.953 0.0625 4.5 0.09375v-0.9062h-0.9531c-2.516 0-2.516-0.3281-2.516-1.156z"/>
  </symbol>
  <symbol id="a" overflow="visible">
   <path d="m6.891-8.969c0-1.031-0.8594-1.891-1.906-1.891s-1.906 0.8594-1.906 1.891c0 1.047 0.8594 1.906 1.906 1.906s1.906-0.8594 1.906-1.906z"/>
  </symbol>
 </defs>
 <g transform="translate(-45.21 -30.64)">
  <g transform="matrix(.2646 0 0 .2646 34.9 -82.56)" data-name="&lt;Group&gt;">
   <rect x="43.43" y="492.4" width="333.2" height="123.9" rx="10" ry="10" fill="#f0f0f5" stroke="#e9e9e9" stroke-width="1.38"/>
  </g>
  <g fill="none">
   <path d="m81.36 53.08h14.33" marker-end="url(#h)" opacity=".974" stroke="#666" stroke-width=".365"/>
   <g transform="matrix(.2646 0 0 .2646 74.13 -48.16)" stroke="#e9e9e9" stroke-width="1.002" data-name="&lt;Group&gt;"></g>
   <g transform="matrix(.2646 0 0 .2646 62.92 -38.74)" stroke="#e9e9e9" data-name="&lt;Group&gt;">
    <path d="m232.7 347c3.356 0-11.29 1e-5 13.38-2e-5 5.54 0 10-4.46 10-10v-21.37" fill="none" marker-end="url(#g)" stroke="#666" stroke-width="1.38"/>
   </g>
  </g>
  <rect x="72.69" y="69.08" width="3.733" height="1.465" rx="0" ry="0" fill="#f0f0f5"/>
  <g transform="matrix(.2646 0 0 .2646 29.72 -44.47)" fill="none" stroke="#e9e9e9" data-name="&lt;Group&gt;"></g>
  <path d="m63.14 62.19c3.65e-4 -0.7402 6.11e-4 -5.714 4.27e-4 -6.454 0-1.466 1.18-2.646 2.646-2.646h17.31" fill="none" marker-end="url(#j)" opacity=".974" stroke="#666" stroke-width=".365"/>
  <g>
   <g transform="matrix(.141 0 0 .141 49.88 83.62)">
    <use x="-1.7944" y="24.648199" width="100%" height="100%" fill="#000000" xlink:href="#ab"/>
    <use x="32.077999" y="30.030199" width="100%" height="100%" fill="#000000" xlink:href="#f"/>
    <use x="46.3736" y="30.030199" width="100%" height="100%" fill="#000000" xlink:href="#n"/>
    <use x="54.891201" y="30.030199" width="100%" height="100%" fill="#000000" xlink:href="#f"/>
   </g>
   <g transform="matrix(.141 0 0 .141 73.77 83.62)">
    <use x="-1.7944" y="24.648199" width="100%" height="100%" fill="#000000" xlink:href="#y"/>
    <use x="32.077999" y="30.030199" width="100%" height="100%" fill="#000000" xlink:href="#p"/>
    <use x="46.3736" y="30.030199" width="100%" height="100%" fill="#000000" xlink:href="#l"/>
    <use x="54.891201" y="30.030199" width="100%" height="100%" fill="#000000" xlink:href="#o"/>
   </g>
   <g transform="matrix(.141 0 0 .141 108.5 83.62)">
    <g>
     <use x="-1.9116" y="24.648199" width="100%" height="100%" fill="#000000" xlink:href="#x"/>
    </g>
    <g>
     <use x="31.9608" y="30.030199" width="100%" height="100%" fill="#000000" xlink:href="#q"/>
    </g>
    <g fill="#000000">
     <use x="46.259998" y="30.030199" width="100%" height="100%" xlink:href="#m"/>
     <use x="54.778358" y="30.030199" width="100%" height="100%" xlink:href="#k"/>
    </g>
   </g>
   <g transform="matrix(.1413 0 0 .1413 61.55 84.91)">
    <use x="-0.1008" y="15.8482" width="100%" height="100%" fill="#000000" xlink:href="#w"/>
    <use x="20.3976" y="21.2302" width="100%" height="100%" fill="#000000" xlink:href="#r"/>
   </g>
   <g transform="matrix(.1413 0 0 .1413 85.55 84.91)">
    <use x="-0.1008" y="15.8482" width="100%" height="100%" fill="#000000" xlink:href="#z"/>
    <g clip-path="url(#ac)">
     <g>
      <use x="20.3976" y="21.2302" width="100%" height="100%" fill="#000000" xlink:href="#t"/>
     </g>
    </g>
   </g>
   <g transform="matrix(.1397 0 0 .1397 120.9 84.91)">
    <use x="-0.81800002" y="15.8482" width="100%" height="100%" fill="#000000" xlink:href="#aa"/>
    <use x="19.680401" y="21.2302" width="100%" height="100%" fill="#000000" xlink:href="#u"/>
   </g>
   <g transform="matrix(.1413 0 0 .1413 128.5 39.69)">
    <use x="-0.78920001" y="15.8482" width="100%" height="100%" fill="#000000" xlink:href="#v"/>
    <use x="15.8896" y="21.2302" width="100%" height="100%" fill="#000000" xlink:href="#s"/>
   </g>
  </g>
  <g>
   <circle cx="86.98" cy="53.07" r="3.2" fill="#f0f0f5" stroke="#f0f0f5" stroke-width=".356"/>
   <circle cx="86.98" cy="53.07" r="2.822" fill="#c6dea2" stroke="#666" stroke-width=".356"/>
   <circle cx="86.98" cy="53.07" r=".6" fill="#666"/>
  </g>
  <g fill="none" stroke="#666" stroke-width=".365">
   <path d="m75.86 82.52v-15.37"/>
   <path d="m86.98 82.52v-14.92" marker-end="url(#c)" opacity=".974"/>
   <path d="m76.57 63.71 6.396 3.51e-4" marker-end="url(#b)" opacity=".974"/>
  </g>
  <g transform="translate(-2.521 13.95)">
   <circle cx="78.39" cy="49.76" r="3.2" fill="#f0f0f5" stroke="#f0f0f5" stroke-width=".356"/>
   <circle cx="78.39" cy="49.76" r="2.822" fill="#e0cef5" stroke="#666" stroke-width=".356"/>
   <text x="77.123863" y="50.789658" fill="#666666" font-family="sans-serif" font-size="2.822px" letter-spacing="0px" stroke-width=".165" word-spacing="0px" style="line-height:125%" xml:space="preserve"><tspan x="77.123863" y="50.789658" fill="#666666" font-family="'Open Sans'" stroke="#666666" stroke-width=".165">1-</tspan></text>
  </g>
  <path d="m76.04 74.34h6.925" fill="none" marker-end="url(#d)" opacity=".974" stroke="#666" stroke-width=".365"/>
  <g>
   <circle cx="86.98" cy="74.34" r="3.2" fill="#f0f0f5" stroke="#f0f0f5" stroke-width=".356"/>
   <circle cx="86.98" cy="74.34" r="2.822" fill="#c6dea2" stroke="#666" stroke-width=".356"/>
   <circle cx="86.98" cy="74.34" r=".6" fill="#666"/>
  </g>
  <path d="m86.98 62.41v-5.392" fill="none" marker-end="url(#e)" opacity=".974" stroke="#666" stroke-width=".365"/>
  <g transform="translate(33.52 -102.2)" fill="#ffb380">
   <circle cx="53.45" cy="166" r="3.2" stroke="#f0f0f5" stroke-width=".356"/>
   <circle cx="53.45" cy="166" r="2.822" stroke="#666" stroke-width=".356"/>
   <g transform="translate(5.749 .7143)" fill-rule="evenodd" stroke="#666" stroke-width=".365">
    <path d="m46.63 165.2h2.144"/>
    <path d="m47.7 164.2v2.144"/>
   </g>
  </g>
  <g fill="none" stroke="#666" stroke-width=".365">
   <path d="m103 53.08h14.33" marker-end="url(#i)" opacity=".974"/>
   <path d="m52.04 82.52v-15.37"/>
   <path d="m63.17 82.52v-14.92" marker-end="url(#c)" opacity=".974"/>
   <path d="m52.75 63.71 6.396 3.51e-4" marker-end="url(#b)" opacity=".974"/>
  </g>
  <g transform="translate(-26.33 13.95)">
   <circle cx="78.39" cy="49.76" r="3.2" fill="#f0f0f5" stroke="#f0f0f5" stroke-width=".356"/>
   <circle cx="78.39" cy="49.76" r="2.822" fill="#e0cef5" stroke="#666" stroke-width=".356"/>
   <text x="77.123863" y="50.789658" fill="#666666" font-family="sans-serif" font-size="2.822px" letter-spacing="0px" stroke-width=".165" word-spacing="0px" style="line-height:125%" xml:space="preserve"><tspan x="77.123863" y="50.789658" fill="#666666" font-family="'Open Sans'" stroke="#666666" stroke-width=".165">1-</tspan></text>
  </g>
  <path d="m52.22 74.34h6.925" fill="none" marker-end="url(#d)" opacity=".974" stroke="#666" stroke-width=".365"/>
  <g>
   <circle cx="63.16" cy="74.34" r="3.2" fill="#f0f0f5" stroke="#f0f0f5" stroke-width=".356"/>
   <circle cx="63.16" cy="74.34" r="2.822" fill="#c6dea2" stroke="#666" stroke-width=".356"/>
   <circle cx="63.16" cy="74.34" r=".6" fill="#666"/>
  </g>
  <g transform="translate(9.711 -102.2)" fill="#ffb380">
   <circle cx="53.45" cy="166" r="3.2" stroke="#f0f0f5" stroke-width=".356"/>
   <circle cx="53.45" cy="166" r="2.822" stroke="#666" stroke-width=".356"/>
   <g transform="translate(5.749 .7143)" fill-rule="evenodd" stroke="#666" stroke-width=".365">
    <path d="m46.63 165.2h2.144"/>
    <path d="m47.7 164.2v2.144"/>
   </g>
  </g>
  <g>
   <circle cx="122.1" cy="53.07" r="3.2" fill="#f0f0f5" stroke="#f0f0f5" stroke-width=".356"/>
   <circle cx="122.1" cy="53.07" r="2.822" fill="#c6dea2" stroke="#666" stroke-width=".356"/>
   <circle cx="122.1" cy="53.07" r=".6" fill="#666"/>
  </g>
  <g fill="none" stroke="#666" stroke-width=".365">
   <path d="m111 82.52v-15.37"/>
   <path d="m122.1 82.52v-14.92" marker-end="url(#c)" opacity=".974"/>
   <path d="m111.7 63.71 6.396 3.51e-4" marker-end="url(#b)" opacity=".974"/>
  </g>
  <g transform="translate(32.6 13.95)">
   <circle cx="78.39" cy="49.76" r="3.2" fill="#f0f0f5" stroke="#f0f0f5" stroke-width=".356"/>
   <circle cx="78.39" cy="49.76" r="2.822" fill="#e0cef5" stroke="#666" stroke-width=".356"/>
   <text x="77.123863" y="50.789658" fill="#666666" font-family="sans-serif" font-size="2.822px" letter-spacing="0px" stroke-width=".165" word-spacing="0px" style="line-height:125%" xml:space="preserve"><tspan x="77.123863" y="50.789658" fill="#666666" font-family="'Open Sans'" stroke="#666666" stroke-width=".165">1-</tspan></text>
  </g>
  <path d="m111.2 74.34h6.925" fill="none" marker-end="url(#d)" opacity=".974" stroke="#666" stroke-width=".365"/>
  <g>
   <circle cx="122.1" cy="74.34" r="3.2" fill="#f0f0f5" stroke="#f0f0f5" stroke-width=".356"/>
   <circle cx="122.1" cy="74.34" r="2.822" fill="#c6dea2" stroke="#666" stroke-width=".356"/>
   <circle cx="122.1" cy="74.34" r=".6" fill="#666"/>
  </g>
  <path d="m122.1 62.41v-5.392" fill="none" marker-end="url(#e)" opacity=".974" stroke="#666" stroke-width=".365"/>
  <g>
   <g transform="translate(68.65 -102.2)" fill="#ffb481">
    <circle cx="53.45" cy="166" r="3.2" stroke="#f0f0f5" stroke-width=".356"/>
    <circle cx="53.45" cy="166" r="2.822" stroke="#666" stroke-width=".356"/>
    <g transform="translate(5.749 .7143)" fill-rule="evenodd" stroke="#666" stroke-width=".365">
     <path d="m46.63 165.2h2.144"/>
     <path d="m47.7 164.2v2.144"/>
    </g>
   </g>
   <g transform="matrix(.1156 0 0 .1156 97.48 85.86)">
    <g fill="#666666">
     <use x="-2.7288001" y="11.8482" width="100%" height="100%" xlink:href="#a"/>
     <use x="13.224112" y="11.8482" width="100%" height="100%" xlink:href="#a"/>
    </g>
    <g fill="#666">
     <use x="29.141159" y="11.8482" width="100%" height="100%" fill="#666666" xlink:href="#a"/>
    </g>
   </g>
   <g transform="matrix(.1156 0 0 .1156 97.48 52.72)" fill="#6a6a6a">
    <use x="-2.7288001" y="11.8482" width="100%" height="100%" xlink:href="#a"/>
    <use x="13.224112" y="11.8482" width="100%" height="100%" xlink:href="#a"/>
    <use x="29.141159" y="11.8482" width="100%" height="100%" fill="#6a6a6a" xlink:href="#a"/>
   </g>
  </g>
  <g stroke-width=".2646" aria-label="Neural Multiplication Unit">
   <path d="m54.99 31.64h0.3881l3.182 4.621h0.01411v-4.621h0.3104v5.038h-0.3669l-3.203-4.657h-0.01411v4.657h-0.3104z"/>
   <path d="m59.83 34.9v0.04233q0 0.3175 0.08467 0.6068t0.2469 0.508q0.1693 0.2187 0.4163 0.3457 0.254 0.127 0.5856 0.127 0.5433 0 0.8608-0.2822 0.3175-0.2893 0.4374-0.7973h0.2681q-0.1199 0.635-0.5221 0.9737-0.3951 0.3387-1.051 0.3387-0.4022 0-0.7056-0.1411-0.2963-0.1482-0.5009-0.3951-0.1976-0.254-0.2963-0.5927-0.09878-0.3457-0.09878-0.7408 0-0.381 0.09878-0.7267 0.1058-0.3528 0.3104-0.6138 0.2046-0.2681 0.508-0.4233 0.3104-0.1623 0.7267-0.1623 0.381 0 0.6703 0.1411 0.2963 0.1411 0.4939 0.3881 0.1976 0.2399 0.2963 0.5644 0.1058 0.3175 0.1058 0.6844 0 0.03528-0.0071 0.08467 0 0.04233 0 0.07056zm2.66-0.2328q-0.01411-0.2963-0.09878-0.5574-0.08467-0.2681-0.254-0.4657-0.1623-0.2046-0.4022-0.3246-0.2328-0.1199-0.5362-0.1199-0.3246 0-0.5715 0.127-0.2469 0.1199-0.4163 0.3246-0.1693 0.1976-0.2611 0.4657-0.09172 0.2681-0.1129 0.5503z"/>
   <path d="m66.26 36.68h-0.2681v-0.7761h-0.01411q-0.07055 0.2046-0.2046 0.3669-0.127 0.1552-0.3034 0.2681-0.1693 0.1129-0.3739 0.1693-0.2046 0.05645-0.4163 0.05645-0.3175 0-0.5433-0.07761-0.2187-0.07761-0.3598-0.2046-0.1411-0.127-0.2258-0.2822-0.07761-0.1623-0.1129-0.3246-0.03528-0.1623-0.04233-0.3104-0.0071-0.1552-0.0071-0.2681v-2.244h0.2681v2.293q0 0.1411 0.02117 0.3457 0.02117 0.1976 0.1199 0.3881 0.1058 0.1834 0.3104 0.3175 0.2046 0.1341 0.5786 0.1341 0.3034 0 0.5433-0.1129 0.2469-0.1129 0.4163-0.3104 0.1693-0.2046 0.254-0.4798 0.09172-0.2822 0.09172-0.6138v-1.961h0.2681z"/>
   <path d="m67.32 33.86h0.02117q0.04939-0.1764 0.1764-0.3316 0.1341-0.1552 0.3175-0.2681 0.1905-0.1129 0.4163-0.1693 0.2328-0.0635 0.4798-0.05645v0.2681q-0.2117-0.02822-0.4868 0.04233-0.2681 0.07056-0.5151 0.3104-0.09878 0.1058-0.1764 0.2046-0.07055 0.09878-0.1199 0.2187-0.04939 0.1199-0.07761 0.2681-0.02822 0.1482-0.03528 0.3528v1.983h-0.2681v-3.627h0.2681z"/>
   <path d="m71.28 35.96h-0.01411q-0.0635 0.1623-0.1834 0.3104-0.1199 0.1411-0.2963 0.254-0.1693 0.1129-0.3881 0.1764-0.2187 0.0635-0.4798 0.0635-0.5786 0-0.8961-0.2469-0.3175-0.254-0.3175-0.7761 0-0.3175 0.127-0.5151 0.127-0.2046 0.3175-0.3175 0.1976-0.1199 0.4304-0.1693 0.2399-0.04939 0.4586-0.07056l0.4163-0.03528q0.2893-0.02117 0.4516-0.0635 0.1693-0.04939 0.254-0.127 0.08467-0.08467 0.1058-0.2117 0.02117-0.127 0.02117-0.3175 0-0.1482-0.05644-0.2752-0.05645-0.127-0.1764-0.2258-0.1199-0.09878-0.3104-0.1552-0.1905-0.05644-0.4657-0.05644-0.4868 0-0.7902 0.2399-0.2963 0.2399-0.3246 0.7267h-0.2681q0.02822-0.5997 0.381-0.8961 0.3598-0.3034 1.016-0.3034t0.9525 0.2611q0.3034 0.254 0.3034 0.6703v2.11q0 0.07761 0 0.1552 0.0071 0.07761 0.02822 0.1411 0.02117 0.0635 0.07056 0.1058 0.04939 0.03528 0.1411 0.03528 0.07055 0 0.1976-0.02117v0.2258q-0.1058 0.02822-0.2187 0.02822-0.1623 0-0.2611-0.04233-0.09172-0.04233-0.1411-0.1129-0.04939-0.07056-0.07055-0.1623-0.01411-0.09878-0.01411-0.2117zm0-1.341q-0.09878 0.1199-0.3034 0.1623-0.1976 0.04233-0.4445 0.0635l-0.4516 0.04233q-0.1976 0.02117-0.3951 0.0635-0.1976 0.03528-0.3598 0.127-0.1552 0.09172-0.254 0.254-0.09878 0.1552-0.09878 0.4092 0 0.4022 0.254 0.5997 0.254 0.1905 0.6985 0.1905 0.4586 0 0.7267-0.1623 0.2681-0.1693 0.4092-0.381 0.1411-0.2187 0.1764-0.4163 0.04233-0.2046 0.04233-0.2752z"/>
   <path d="m72.73 31.64v5.038h-0.2681v-5.038z"/>
   <path d="m75.59 31.64h0.4445l1.969 4.692h0.01411l1.947-4.692h0.4445v5.038h-0.3104v-4.657h-0.01411l-1.919 4.657h-0.3104l-1.94-4.657h-0.01411v4.657h-0.3104z"/>
   <path d="m84.12 36.68h-0.2681v-0.7761h-0.01411q-0.07056 0.2046-0.2046 0.3669-0.127 0.1552-0.3034 0.2681-0.1693 0.1129-0.3739 0.1693-0.2046 0.05645-0.4163 0.05645-0.3175 0-0.5433-0.07761-0.2187-0.07761-0.3598-0.2046-0.1411-0.127-0.2258-0.2822-0.07761-0.1623-0.1129-0.3246-0.03528-0.1623-0.04233-0.3104-0.0071-0.1552-0.0071-0.2681v-2.244h0.2681v2.293q0 0.1411 0.02117 0.3457 0.02117 0.1976 0.1199 0.3881 0.1058 0.1834 0.3104 0.3175 0.2046 0.1341 0.5786 0.1341 0.3034 0 0.5433-0.1129 0.2469-0.1129 0.4163-0.3104 0.1693-0.2046 0.254-0.4798 0.09172-0.2822 0.09172-0.6138v-1.961h0.2681z"/>
   <path d="m85.25 31.64v5.038h-0.2681v-5.038z"/>
   <path d="m87.43 33.29h-0.7902v2.533q0 0.2187 0.04939 0.3457t0.1482 0.1976q0.1058 0.0635 0.2469 0.07761 0.1482 0.01411 0.3387 0.0071v0.2328q-0.2046 0.01411-0.4022 0-0.1905-0.02117-0.3387-0.1058-0.1482-0.09172-0.2399-0.2681-0.08467-0.1764-0.07055-0.4868v-2.533h-0.6703v-0.2328h0.6703v-1.129h0.2681v1.129h0.7902z"/>
   <path d="m87.99 32.37v-0.7267h0.2681v0.7267zm0 4.311v-3.627h0.2681v3.627z"/>
   <path d="m89.45 33.88h0.01411q0.04233-0.1341 0.1411-0.2963 0.09878-0.1623 0.2611-0.2963 0.1623-0.1411 0.3881-0.2328 0.2328-0.09172 0.5292-0.09172 0.4163 0 0.7197 0.1552 0.3104 0.1552 0.508 0.4163 0.2046 0.2611 0.3034 0.6068 0.09878 0.3457 0.09878 0.7267 0 0.4163-0.09878 0.762t-0.3034 0.5997q-0.1976 0.2469-0.508 0.3881-0.3034 0.1411-0.7197 0.1411-0.4516 0-0.8043-0.1976t-0.5151-0.6421h-0.01411v2.053h-0.2681v-4.925h0.2681zm1.334 2.646q0.3528 0 0.6068-0.1341 0.2611-0.1341 0.4233-0.3598 0.1693-0.2258 0.2469-0.5221 0.08467-0.3034 0.08467-0.6421 0-0.3104-0.07761-0.6068-0.07761-0.3034-0.2399-0.5362-0.1623-0.2399-0.4233-0.381-0.254-0.1482-0.6209-0.1482-0.3598 0-0.6138 0.1411-0.254 0.1411-0.4163 0.3739-0.1552 0.2328-0.2258 0.5362-0.07055 0.2963-0.07055 0.6209 0 0.3246 0.0635 0.6279 0.0635 0.2963 0.2117 0.5292 0.1552 0.2258 0.4092 0.3669 0.2611 0.1341 0.6421 0.1341z"/>
   <path d="m93.38 31.64v5.038h-0.2681v-5.038z"/>
   <path d="m94.29 32.37v-0.7267h0.2681v0.7267zm0 4.311v-3.627h0.2681v3.627z"/>
   <path d="m98.14 34.17q-0.02117-0.2399-0.127-0.4233-0.09878-0.1834-0.2611-0.3034-0.1623-0.1199-0.381-0.1834-0.2117-0.0635-0.4586-0.0635-0.3387 0-0.5997 0.1411-0.2611 0.1341-0.4374 0.3669-0.1764 0.2258-0.2681 0.5221-0.09172 0.2893-0.09172 0.5997 0 0.3669 0.08467 0.6773t0.2611 0.5433q0.1764 0.2258 0.4374 0.3528 0.2611 0.127 0.6138 0.127 0.254 0 0.4657-0.08467 0.2187-0.08467 0.381-0.2328 0.1693-0.1482 0.2752-0.3528 0.1058-0.2117 0.1411-0.4586h0.2681q-0.04233 0.3246-0.1764 0.5786-0.1341 0.254-0.3387 0.4304-0.2046 0.1693-0.4657 0.2611-0.2611 0.09172-0.5503 0.09172-0.4445 0-0.762-0.1552-0.3104-0.1623-0.5151-0.4304-0.1976-0.2681-0.2963-0.6138-0.09172-0.3528-0.09172-0.7338t0.1058-0.7197q0.1129-0.3387 0.3246-0.5927t0.5221-0.4022q0.3104-0.1482 0.7126-0.1482 0.2963 0 0.5503 0.07761 0.2611 0.07056 0.4586 0.2187 0.2046 0.1482 0.3316 0.381 0.127 0.2258 0.1552 0.5292z"/>
   <path d="m101.5 35.96h-0.0141q-0.0635 0.1623-0.1834 0.3104-0.12 0.1411-0.2963 0.254-0.1693 0.1129-0.388 0.1764-0.2187 0.0635-0.4798 0.0635-0.5786 0-0.8961-0.2469-0.3175-0.254-0.3175-0.7761 0-0.3175 0.127-0.5151 0.127-0.2046 0.3175-0.3175 0.1976-0.1199 0.4304-0.1693 0.2399-0.04939 0.4586-0.07056l0.4163-0.03528q0.2893-0.02117 0.4516-0.0635 0.1693-0.04939 0.254-0.127 0.0847-0.08467 0.1058-0.2117 0.0212-0.127 0.0212-0.3175 0-0.1482-0.0564-0.2752-0.0564-0.127-0.1764-0.2258-0.1199-0.09878-0.3104-0.1552-0.1905-0.05644-0.4657-0.05644-0.4868 0-0.7902 0.2399-0.2963 0.2399-0.3246 0.7267h-0.2681q0.02822-0.5997 0.381-0.8961 0.3598-0.3034 1.016-0.3034 0.6562 0 0.9525 0.2611 0.3034 0.254 0.3034 0.6703v2.11q0 0.07761 0 0.1552 7e-3 0.07761 0.0282 0.1411 0.0212 0.0635 0.0706 0.1058 0.0494 0.03528 0.1411 0.03528 0.0706 0 0.1976-0.02117v0.2258q-0.1058 0.02822-0.2187 0.02822-0.1623 0-0.2611-0.04233-0.0917-0.04233-0.1411-0.1129-0.0494-0.07056-0.0706-0.1623-0.0141-0.09878-0.0141-0.2117zm0-1.341q-0.0988 0.1199-0.3034 0.1623-0.1976 0.04233-0.4445 0.0635l-0.4516 0.04233q-0.1976 0.02117-0.3951 0.0635-0.1976 0.03528-0.3598 0.127-0.1552 0.09172-0.254 0.254-0.09878 0.1552-0.09878 0.4092 0 0.4022 0.254 0.5997 0.254 0.1905 0.6985 0.1905 0.4586 0 0.7267-0.1623 0.2681-0.1693 0.4092-0.381 0.1411-0.2187 0.1764-0.4163 0.0423-0.2046 0.0423-0.2752z"/>
   <path d="m103.9 33.29h-0.7902v2.533q0 0.2187 0.0494 0.3457t0.1482 0.1976q0.1058 0.0635 0.2469 0.07761 0.1482 0.01411 0.3387 0.0071v0.2328q-0.2046 0.01411-0.4022 0-0.1905-0.02117-0.3387-0.1058-0.1482-0.09172-0.2399-0.2681-0.0847-0.1764-0.0706-0.4868v-2.533h-0.6703v-0.2328h0.6703v-1.129h0.2681v1.129h0.7902z"/>
   <path d="m104.5 32.37v-0.7267h0.2681v0.7267zm0 4.311v-3.627h0.2681v3.627z"/>
   <path d="m105.5 34.87q0-0.3881 0.1058-0.7267 0.1129-0.3457 0.3246-0.6068 0.2117-0.2611 0.5221-0.4092 0.3104-0.1552 0.7126-0.1552t0.7126 0.1552q0.3104 0.1482 0.5221 0.4092 0.2117 0.2611 0.3175 0.6068 0.1129 0.3387 0.1129 0.7267t-0.1129 0.7338q-0.1058 0.3457-0.3175 0.6068-0.2117 0.254-0.5221 0.4092-0.3104 0.1482-0.7126 0.1482t-0.7126-0.1482q-0.3104-0.1552-0.5221-0.4092-0.2117-0.2611-0.3246-0.6068-0.1058-0.3457-0.1058-0.7338zm0.2681 0q0 0.3246 0.0917 0.6279 0.0917 0.2963 0.2681 0.5292 0.1764 0.2328 0.4374 0.3739 0.261 0.1341 0.5997 0.1341t0.5997-0.1341q0.2611-0.1411 0.4374-0.3739 0.1764-0.2328 0.2681-0.5292 0.0917-0.3034 0.0917-0.6279t-0.0917-0.6209q-0.0917-0.3034-0.2681-0.5362-0.1764-0.2328-0.4374-0.3669-0.261-0.1411-0.5997-0.1411t-0.5997 0.1411q-0.2611 0.1341-0.4374 0.3669-0.1764 0.2328-0.2681 0.5362-0.0917 0.2963-0.0917 0.6209z"/>
   <path d="m109.4 33.05h0.2681v0.7761h0.0141q0.0706-0.2046 0.1976-0.3598 0.134-0.1623 0.3034-0.2752 0.1764-0.1129 0.381-0.1693 0.2046-0.05644 0.4163-0.05644 0.3175 0 0.5362 0.07761 0.2258 0.07761 0.3669 0.2046 0.1411 0.127 0.2187 0.2893 0.0847 0.1552 0.1199 0.3175 0.0353 0.1623 0.0423 0.3175 7e-3 0.1482 7e-3 0.2611v2.244h-0.2681v-2.293q0-0.1341-0.0212-0.3387t-0.127-0.3881q-0.0988-0.1905-0.3104-0.3246-0.2046-0.1341-0.5715-0.1341-0.3104 0-0.5503 0.1129-0.2399 0.1129-0.4092 0.3175-0.1693 0.1976-0.261 0.4798-0.0847 0.2752-0.0847 0.6068v1.961h-0.268z"/>
   <path d="m115.4 31.64v3.02q0 0.1482 0.0141 0.3457t0.0706 0.4092q0.0564 0.2046 0.1552 0.4092 0.1058 0.1976 0.2822 0.3598 0.1764 0.1552 0.4304 0.254 0.2611 0.09172 0.628 0.09172 0.4657 0 0.7761-0.127 0.3175-0.1341 0.508-0.3739 0.1976-0.2469 0.2822-0.5927 0.0847-0.3457 0.0847-0.7761v-3.02h0.3104v3.02q0 0.4516-0.0988 0.8396-0.0917 0.3881-0.3175 0.6773-0.2258 0.2893-0.6068 0.4586-0.374 0.1623-0.9384 0.1623-0.4445 0-0.762-0.1129-0.3175-0.1129-0.5292-0.2893-0.2046-0.1834-0.3246-0.4163-0.1199-0.2328-0.1834-0.4657-0.0635-0.2399-0.0776-0.4586-0.0141-0.2258-0.0141-0.3951v-3.02z"/>
   <path d="m119.8 33.05h0.2681v0.7761h0.0141q0.0706-0.2046 0.1976-0.3598 0.1341-0.1623 0.3034-0.2752 0.1764-0.1129 0.381-0.1693 0.2046-0.05644 0.4163-0.05644 0.3175 0 0.5362 0.07761 0.2258 0.07761 0.3669 0.2046 0.1411 0.127 0.2187 0.2893 0.0847 0.1552 0.12 0.3175 0.0353 0.1623 0.0423 0.3175 7e-3 0.1482 7e-3 0.2611v2.244h-0.2681v-2.293q0-0.1341-0.0212-0.3387t-0.127-0.3881q-0.0988-0.1905-0.3104-0.3246-0.2046-0.1341-0.5715-0.1341-0.3104 0-0.5503 0.1129t-0.4092 0.3175q-0.1693 0.1976-0.2611 0.4798-0.0847 0.2752-0.0847 0.6068v1.961h-0.2681z"/>
   <path d="m123.5 32.37v-0.7267h0.2681v0.7267zm0 4.311v-3.627h0.2681v3.627z"/>
   <path d="m126 33.29h-0.7902v2.533q0 0.2187 0.0494 0.3457t0.1482 0.1976q0.1058 0.0635 0.2469 0.07761 0.1482 0.01411 0.3387 0.0071v0.2328q-0.2046 0.01411-0.4022 0-0.1905-0.02117-0.3387-0.1058-0.1482-0.09172-0.2399-0.2681-0.0847-0.1764-0.0706-0.4868v-2.533h-0.6703v-0.2328h0.6703v-1.129h0.2681v1.129h0.7902z"/>
  </g>
 </g>
</svg>
