<?xml version="1.0" encoding="UTF-8"?>
<svg version="1.1" viewBox="0 0 123.8 44.45" xmlns="http://www.w3.org/2000/svg" xmlns:xlink="http://www.w3.org/1999/xlink">
 <defs>
  <linearGradient id="f" x1="69.37" x2="65.23" y1="89.14" y2="89.14" gradientTransform="translate(0,1.411)" gradientUnits="userSpaceOnUse">
   <stop stop-color="#fff" offset="0"/>
   <stop stop-color="#fff" stop-opacity="0" offset="1"/>
  </linearGradient>
 </defs>
 <rect width="123.8" height="44.45" fill="#15b9ee"/>
 <g transform="translate(-40.78 -79.22)">
  <rect x="64.43" y="89.16" width="6.336" height="1.39" fill="url(#f)"/>
  <g fill="#fff">
   <g transform="matrix(.2646 0 0 .2646 41.85 76.8)">
    <path d="m196.9 57.72-15.47 36.95h3.162l4.152-9.188h17.94l4.377 9.188h3.379l-16.22-36.95zm.791 5.93 7.588 17.68-15.05.07227z"/>
    <path d="m239 57.72.1308 36.95h3.426v-15.47h13.62c4.34 0 7.335-3.508 7.335-8.604v-2.684c0-6.885-3.685-10.19-7.27-10.19zm3.713 3.707c4.245-8.3e-5 8.49 0 12.73 0 2.581 0 4.66 2.077 4.66 4.658v5.092c0 2.581-2.079 4.658-4.66 4.658-4.245.000643-8.49-.000615-12.73-.002z"/>
    <path d="m276.8 68.02c-4.362 0-7.875 3.511-7.875 7.873v10.9c0 4.362 3.513 7.873 7.875 7.873h8.754c4.362 0 7.873-3.511 7.873-7.873v-10.9c0-4.362-3.511-7.873-7.873-7.873zm-.6504 2.781h9.727c2.555 0 4.613 2.056 4.613 4.611v11.6c0 2.555-2.058 4.611-4.613 4.611h-9.727c-2.555 0-4.611-2.056-4.611-4.611v-11.6c0-2.555 2.056-4.611 4.611-4.611z"/>
    <path d="m321.2 55.88-.0449 12.15h-12.25c-9.039 0-8.916 8.165-8.916 10.49v8.131c0 4.169 4.665 8.024 8.83 8.023h3.299c7.697-.000265 9.184-3.992 9.184-3.992v3.992h3.256v-38.8zm-13.58 15.04c4.524-.000472 9.05.000914 13.57.002v13.94c0 2.665-3.777 6.947-6.706 6.931l-6.514-.04492c-2.488-.01512-5.162-2.531-5.162-4.621v-10.15c0-4.211 2.674-6.054 4.809-6.054z"/>
    <path d="m354.8 74.65c0-3.665-2.95-6.626-6.615-6.626h-11.02c-3.665 0-6.615 2.95-6.615 6.615v13.42c0 3.665 2.95 6.615 6.615 6.615h11.02c3.665 0 6.615-3.337 6.615-7.002l-2.891-.000651c0 2.142-1.725 3.932-3.867 3.932h-10.09c-2.142 0-4.24-2.748-4.24-4.89v-12.06c0-2.142 2.098-3.867 4.24-3.867h10.09c2.142 0 3.867 1.725 3.867 3.867"/>
    <path d="m368.4 68.02c-4.54 0-7.494.6097-7.494 6.688h3.215v-.9785c0-2.126 2.072-2.912 4.943-2.912h7.443c2.266 0 4.664 1.858 4.664 3.471l.002 2.912h-11.47c-6.916-.05465-8.755 2.275-8.793 6.412v3.283c0 4.168 2.191 7.775 8.828 7.775h3.949c4.492.000227 7.58-3.865 7.58-3.865l.002 3.867h3.025v-17.54c0-7.149-2.822-9.107-7.941-9.107h-7.949zm.6465 12.08h12.13l-.002 4.322c-.001 4.363-3.505 7.297-7.029 7.297h-6.594c-1.804 0-3.408-2.368-3.408-3.609v-3.877c0-4.037 2.733-4.133 4.906-4.133z"/>
   </g>
   <path d="m151.7 96.53c.0523-1.152-.4345-1.736-1.325-1.736l-3.154-.000352c-.9427-.000105-1.639.7309-1.639 1.639v.46c0 1.01.8097 1.659 1.752 1.659h3.188c.3477 0 .6973.3409.6973.6886v.7609c0 .5307-.6501 1.047-.9978 1.047h-2.887c-.3477 0-.9804-.3461-.9804-.6937v-.6504h-.7715v.5028c0 .9078.6217 1.639 1.992 1.639h2.439c.9078 0 1.992-.7309 1.992-1.639v-.8299c0-.9336-.6083-1.535-1.805-1.535h-2.489c-.9713 0-1.355-.2926-1.355-1.037v-.5507c0-.396.3362-.7322.7322-.7322h3.112c.396 0 .7148.2142.7148.6102v.3993z"/>
   <path d="m157.4 101.8h-.6694c-1.785 0-2.388-1.14-2.388-2.648v-3.712l-1.196-5.1e-5.00021-.6903h1.196v-1.911h.8385v1.911h2.379v.6657l-2.379 4e-6-.00027 4.085c-6e-5.8345.4239 1.432.9923 1.432h1.227z"/>
   <rect x="65.66" y="107.4" width=".5953" height="6.35"/>
   <rect x="100" y="92.07" width=".8738" height="9.777"/>
  </g>
  <g fill="#16296b">
   <path d="m47.9 89.14-.09862 9.93c-.01396 1.405.9871 2.777 2.521 2.777h1.389v-1.54l-1.106-.002c-.9777-.002-1.113-.4173-1.113-1.287v-5.306h1.923v-1.617h-1.824v-2.953z"/>
   <path id="g" d="m54.33 92.07 2.17 6.227 2.17-6.227h1.134l2.219 6.326 2.17-6.326h1.726l-3.365 9.777h-1.109l-2.157-6.016-2.12 6.016h-1.109l-3.501-9.777z" fill="#16296b"/>
   <path d="m65.06 101.8 3.365-9.777h1.479l-3.415 9.777z"/>
   <use transform="matrix(1,0,0,-1,16.34,193.9)" xlink:href="#g"/>
   <path d="m83.53 89.14-.09862 9.93c-.01396 1.405.9871 2.777 2.521 2.777h1.389v-1.54l-1.106-.002c-.9777-.002-1.113-.4173-1.113-1.287l.09862-9.876z"/>
   <path d="m52.05 112.9 1.048-3.283h-.5588l-.7366 2.686h-.0127l-.6858-2.686h-.5906l-.6604 2.686h-.0127l-.7429-2.686h-.5969l1.054 3.283h.5842l.6604-2.61h.0127l.6668 2.61z"/>
   <path d="m54.45 109v-.6604h-.5398v.6604zm-.5398.5906v3.283h.5398v-3.283z"/>
   <path d="m56.31 109.6v-.9842h-.5398v.9842h-.5588v.4762h.5588v2.089q0 .2286.04445.3683t.1334.2159q.09525.0762.2413.108.1524.0254.362.0254h.4128v-.4762h-.2476q-.127 0-.2096-.006-.0762-.0127-.1206-.0445-.04445-.0317-.0635-.0889-.0127-.0571-.0127-.1524v-2.038h.654v-.4762z"/>
   <path d="m57.82 108.3v4.534h.5398v-1.854q0-.2222.05715-.4064.0635-.1905.1842-.3302t.2984-.2159q.1842-.0762.4318-.0762.3112 0 .489.1778t.1778.4826v2.222h.5398v-2.159q0-.2667-.05715-.4826-.0508-.2222-.1842-.381t-.3492-.2476-.5398-.0889q-.146 0-.3048.0318-.1524.0318-.2984.1016-.1397.0635-.254.1714-.1143.1016-.1778.254h-.0127v-1.734z"/>
   <path d="m75.17 109.2h.762q-.01693-.4995-.1947-.8551-.1693-.3641-.4741-.6011-.2963-.2371-.6943-.3471-.3979-.1101-.8636-.1101-.4149 0-.8128.1101-.3895.1016-.7027.3217-.3048.2117-.4911.5503-.1863.3302-.1863.7874 0 .4149.1609.6943.1693.2709.4403.4487.2794.1693.6265.2794.3471.1016.7027.1863.3641.0762.7112.1524t.6181.2032q.2794.1185.4403.3133.1693.1947.1693.508 0 .3302-.1355.5419t-.3556.3387q-.2201.1185-.4995.1693-.2709.0508-.5419.0508-.3387 0-.6604-.0847t-.5673-.2625q-.2371-.1778-.3895-.4487-.1439-.2794-.1439-.6604h-.762q0 .5503.1947.9567.2032.3979.5419.6604.3471.254.7959.381.4572.127.9652.127.4149 0 .8297-.1016.4233-.0931.762-.3048.3387-.2201.5503-.5588.2201-.3471.2201-.8297 0-.4487-.1693-.7451-.1609-.2963-.4403-.4911-.2709-.1947-.6181-.3048-.3471-.1185-.7112-.2032-.3556-.0847-.7027-.1524-.3471-.0762-.6265-.1863-.2709-.1101-.4403-.2794-.1609-.1778-.1609-.4572 0-.2963.1101-.4911.1185-.2032.3048-.3217.1947-.1185.4403-.1693t.4995-.0508q.6265 0 1.024.2963.4064.2879.4741.9398z"/>
   <path id="h" d="m78.47 111 1.024-2.819h.01693l1.008 2.819zm.6011-3.548-2.354 6.045h.8213l.6773-1.82h2.557l.6604 1.82h.889l-2.362-6.045z"/>
   <path d="m83.2 107.4v6.045h.762v-5.029h.01693l1.888 5.029h.6858l1.888-5.029h.01693v5.029h.762v-6.045h-1.101l-1.913 5.08-1.905-5.08z"/>
   <path d="m98.75 109.3h.8043q-.06773-.4826-.2879-.8467-.2201-.3725-.5503-.6181-.3302-.2455-.7535-.3725t-.8975-.127q-.6943 0-1.236.254-.5334.2455-.8975.6773-.3556.4318-.5419 1.016-.1863.5757-.1863 1.236t.1693 1.236q.1778.5757.5249.9991.3471.4233.8721.6689.5249.2371 1.228.2371 1.16 0 1.829-.635.6689-.635.7874-1.778h-.8043q-.0254.3725-.1524.6943t-.3556.5588q-.2201.2286-.5334.3641-.3048.127-.7027.127-.5419 0-.9313-.2032t-.6435-.5419q-.2455-.3471-.3641-.8043-.1185-.4657-.1185-.9821 0-.4741.1185-.9144t.3641-.7789q.254-.3471.635-.5503.3895-.2032.9313-.2032.635 0 1.092.3217.4657.3217.6011.9652z"/>
   <path d="m100.9 107.4v6.045h.8043v-2.769h3.183v2.769h.8043v-6.045h-.8043v2.599h-3.183v-2.599z"/>
   <path id="i" d="m113 107.4v6.045h.8043v-2.582h1.964q.2963 0 .4741.0931.1778.0847.2879.2371.1101.1439.1609.3471.0508.1947.0847.4149.0423.2201.0508.4487.008.2286.0169.4318.008.1947.0339.3556.0339.1609.1185.254h.8975q-.127-.1524-.1947-.3471-.0593-.2032-.0931-.4233-.0339-.2201-.0423-.4487-.008-.2286-.0254-.4487-.0254-.2201-.0762-.4233-.0423-.2032-.1439-.3641-.0931-.1693-.2625-.2879-.1609-.1185-.4233-.1693v-.0169q.5503-.1524.7959-.5673.254-.4149.254-.9652 0-.7366-.4911-1.16-.4826-.4233-1.346-.4233zm2.481 2.786h-1.676v-2.108h1.998q.5673 0 .8213.2879t.254.7451q0 .3302-.1185.5419-.1101.2032-.3048.3302-.1863.1185-.4403.1609-.254.0423-.5334.0423z"/>
   <path d="m125.2 107.4v6.045h.8043v-6.045z"/>
   <path id="j" d="m127.6 107.4v6.045h.762v-4.851h.0169l3.158 4.851h.8805v-6.045h-.762v4.902h-.0169l-3.183-4.902z"/>
   <path d="m138.5 112.7.2117.7535h.508v-3.183h-2.65v.6773h1.93q.0169.4149-.1101.7789-.127.3556-.381.6265-.2455.2625-.6096.4149t-.8382.1524q-.508 0-.8975-.1947-.381-.2032-.6435-.5334-.2625-.3387-.3979-.7705-.1355-.4403-.1355-.9144 0-.4826.1185-.9398.1185-.4657.3641-.8213.254-.3641.6435-.5842.3979-.2201.9483-.2201.3387 0 .635.0847.3048.0762.5419.2371t.3979.4149q.1609.2455.2201.5927h.8043q-.0847-.5334-.3217-.9059-.2286-.381-.5757-.6265-.3387-.2455-.7789-.3556-.4318-.1185-.9229-.1185-.7197 0-1.262.2709-.5334.2625-.8975.7112-.3556.4487-.5419 1.05-.1778.5927-.1778 1.253 0 .5927.1947 1.143t.5673.9737q.3725.4233.9059.6773.5334.2455 1.211.2455.5334 0 1.058-.2032.5249-.2117.8805-.6858z"/>
   <path d="m142.1 108.1v5.368h.8043v-5.368h2.015v-.6773h-4.834v.6773z"/>
   <path d="m146.3 110.5q0-.4572.1185-.8975.1185-.4487.3725-.8043t.6519-.5673q.3979-.2201.9483-.2201.5503 0 .9483.2201.3979.2117.6519.5673t.3725.8043q.1185.4403.1185.8975t-.1185.9059q-.1185.4403-.3725.7959t-.6519.5757q-.3979.2117-.9483.2117-.5503 0-.9483-.2117-.3979-.2201-.6519-.5757t-.3725-.7959q-.1185-.4487-.1185-.9059zm-.8043 0q0 .6181.1778 1.194.1863.5673.5503 1.008t.9059.7027q.5419.254 1.262.254.7197 0 1.262-.254.5419-.2625.9059-.7027.3641-.4403.5419-1.008.1863-.5757.1863-1.194 0-.6181-.1863-1.185-.1778-.5757-.5419-1.016t-.9059-.7027-1.262-.2625q-.7197 0-1.262.2625-.5419.2625-.9059.7027-.3641.4403-.5503 1.016-.1778.5673-.1778 1.185z"/>
   <path d="m152.5 107.4v6.045h.762v-4.851h.0169l3.158 4.851h.8805v-6.045h-.762v4.902h-.0169l-3.183-4.902z"/>
   <use transform="translate(29.83)" xlink:href="#h"/>
   <use transform="translate(6.069)" xlink:href="#i"/>
   <use transform="translate(24.89)" xlink:href="#j"/>
  </g>
 </g>
</svg>
