<?xml version="1.0" encoding="UTF-8"?>
<svg version="1.2" viewBox="0 0 1078 556.5" xmlns="http://www.w3.org/2000/svg" xmlns:xlink="http://www.w3.org/1999/xlink">
 <defs>
  <symbol id="u" overflow="visible">
   <path d="m34.2-40.03v40.03h-9.109v-27.03l-3.625 27.03h-6.453l-3.844-26.41v26.41h-9.094v-40.03h13.47c.3945 2.406.8164 5.242 1.266 8.5l1.438 10.19 2.375-18.69z"/>
  </symbol>
  <symbol id="e" overflow="visible">
   <path d="m10.7-20.11h-9.375v-2.188c0-2.539.2891-4.5.875-5.875.5938-1.375 1.77-2.586 3.531-3.641 1.758-1.062 4.051-1.594 6.875-1.594 3.383 0 5.93.6016 7.641 1.797 1.719 1.188 2.75 2.652 3.094 4.391.3438 1.742.5156 5.324.5156 10.75v16.47h-9.719v-2.922c-.6055 1.18-1.391 2.059-2.359 2.641s-2.121.875-3.453.875c-1.742 0-3.344-.4922-4.812-1.469-1.461-.9766-2.188-3.125-2.188-6.438v-2.703c0-2.457.3828-4.129 1.156-5.016.7812-.8945 2.707-1.938 5.781-3.125 3.27-1.281 5.02-2.141 5.25-2.578.2383-.4453.3594-1.359.3594-2.734 0-1.707-.1328-2.82-.3906-3.344-.25-.5195-.6719-.7812-1.266-.7812-.6797 0-1.102.2188-1.266.6562-.168.4375-.25 1.57-.25 3.391zm3.172 4.5c-1.605 1.18-2.539 2.164-2.797 2.953-.25.793-.375 1.93-.375 3.406 0 1.699.1094 2.797.3281 3.297.2266.4922.6719.7344 1.328.7344.625 0 1.031-.1914 1.219-.5781.1953-.3828.2969-1.406.2969-3.062z"/>
  </symbol>
  <symbol id="af" overflow="visible">
   <path d="m23.3-32.81-4.062 13.08 5.266 19.73h-9.609l-3.125-14.3v14.3h-9.984v-40.03h9.984v16.81l3.125-9.594z"/>
  </symbol>
  <symbol id="d" overflow="visible">
   <path d="m12.06-40.03v5.219h-10.28v-5.219zm0 7.219v32.81h-10.28v-32.81z"/>
  </symbol>
  <symbol id="c" overflow="visible">
   <path d="m11.94-32.81-.1719 3.016c.7266-1.195 1.613-2.098 2.656-2.703 1.051-.6016 2.258-.9062 3.625-.9062 1.719 0 3.117.4062 4.203 1.219 1.094.8047 1.797 1.82 2.109 3.047.3125 1.23.4688 3.277.4688 6.141v23h-9.984v-22.72c0-2.258-.07812-3.633-.2344-4.125-.1484-.5-.5586-.75-1.234-.75-.7109 0-1.156.2891-1.344.8594-.1797.5625-.2656 2.078-.2656 4.547v22.19h-9.984v-32.81z"/>
  </symbol>
  <symbol id="r" overflow="visible">
   <path d="m24.48-32.81v25.27c0 3.418-.07812 5.625-.2344 6.625-.1562.9883-.7148 2.039-1.672 3.156-.9609 1.113-2.293 1.961-4 2.547-1.711.582-3.855.875-6.438.875-3.18 0-5.734-.543-7.672-1.625-1.93-1.074-2.922-3.195-2.984-6.359h9.688c0 1.461.5312 2.188 1.594 2.188.75 0 1.25-.2227 1.5-.6719.25-.4453.375-1.379.375-2.797v-2.469c-.8555.7734-1.758 1.355-2.703 1.75-.9492.3984-1.945.5938-2.984.5938-1.805 0-3.289-.3594-4.453-1.078-1.156-.7266-1.949-1.68-2.375-2.859-.4297-1.188-.6406-2.863-.6406-5.031v-11.92c0-3.113.5547-5.352 1.672-6.719 1.125-1.375 2.832-2.062 5.125-2.062 1.25 0 2.391.2578 3.422.7656 1.031.5117 1.953 1.277 2.766 2.297l.7188-2.469zm-10.02 8.703c0-1.5-.08984-2.453-.2656-2.859-.168-.4141-.5469-.625-1.141-.625-.5859 0-.9961.2344-1.234.7031-.2422.4688-.3594 1.398-.3594 2.781v11.03c0 1.469.08594 2.422.2656 2.859.1875.4375.5664.6562 1.141.6562.6641 0 1.098-.2656 1.297-.7969.1953-.5312.2969-1.727.2969-3.594z"/>
  </symbol>
  <symbol id="a" overflow="visible"></symbol>
  <symbol id="q" overflow="visible">
   <path d="m23.86-20.42h-9.422v-3.781c0-1.32-.1094-2.219-.3281-2.688-.2109-.4688-.6016-.7031-1.172-.7031-.5859 0-.9766.2109-1.172.625-.1992.4062-.2969 1.328-.2969 2.766v15.47c0 1.18.1445 2.059.4375 2.641.3008.5859.7422.875 1.328.875.6758 0 1.129-.3008 1.359-.9062.2383-.6133.3594-1.77.3594-3.469v-3.906h8.906c-.01172 2.625-.1055 4.594-.2812 5.906-.1797 1.305-.7344 2.641-1.672 4.016-.9297 1.375-2.141 2.418-3.641 3.125-1.5.6953-3.355 1.047-5.562 1.047-2.812 0-5.047-.4805-6.703-1.438-1.648-.9688-2.812-2.32-3.5-4.062-.6797-1.738-1.016-4.207-1.016-7.406v-9.328c0-2.781.2812-4.879.8438-6.297.5625-1.414 1.754-2.68 3.578-3.797 1.832-1.113 4.062-1.672 6.688-1.672 2.602 0 4.828.5547 6.672 1.656 1.844 1.105 3.066 2.5 3.672 4.188.6133 1.68.9219 4.059.9219 7.141z"/>
  </symbol>
  <symbol id="ae" overflow="visible">
   <path d="m11.77-40.03v9c.8633-.7891 1.789-1.383 2.781-1.781 1-.3945 2.066-.5938 3.203-.5938 1.75 0 3.238.4492 4.469 1.344 1.227.8867 1.977 1.914 2.25 3.078.2695 1.156.4062 3.277.4062 6.359v22.62h-9.984v-23.09c0-1.914-.1016-3.145-.2969-3.688-.1875-.5391-.6094-.8125-1.266-.8125-.6172 0-1.031.2812-1.25.8438-.2109.5625-.3125 1.672-.3125 3.328v23.42h-9.984v-40.03z"/>
  </symbol>
  <symbol id="b" overflow="visible">
   <path d="m24.41-15.83h-12.94v7.094c0 1.492.1016 2.449.3125 2.875.2188.4297.6328.6406 1.25.6406.7578 0 1.266-.2812 1.516-.8438.2578-.5703.3906-1.676.3906-3.312v-4.328h9.469v2.422c0 2.031-.1328 3.594-.3906 4.688-.25 1.086-.8516 2.246-1.797 3.484-.9375 1.23-2.125 2.156-3.562 2.781-1.438.6133-3.246.9219-5.422.9219-2.117 0-3.98-.3047-5.594-.9062-1.617-.6133-2.875-1.453-3.781-2.516-.8984-1.062-1.516-2.234-1.859-3.516s-.5156-3.141-.5156-5.578v-9.562c0-2.875.3828-5.141 1.156-6.797.7812-1.656 2.051-2.922 3.812-3.797 1.758-.8828 3.785-1.328 6.078-1.328 2.801 0 5.113.5312 6.938 1.594 1.82 1.062 3.098 2.477 3.828 4.234.7383 1.75 1.109 4.219 1.109 7.406zm-10.02-5.344v-2.391c0-1.695-.09375-2.789-.2812-3.281-.1797-.5-.5469-.75-1.109-.75-.6875 0-1.117.2148-1.281.6406-.168.418-.25 1.547-.25 3.391v2.391z"/>
  </symbol>
  <symbol id="ak" overflow="visible">
   <path d="m12.48-40.03v32.02h6.328v8.016h-16.73v-40.03z"/>
  </symbol>
  <symbol id="l" overflow="visible">
   <path d="m11.77-32.81-.3906 4.297c1.445-3.082 3.551-4.711 6.312-4.891v11.55c-1.836 0-3.184.25-4.047.75-.8555.4922-1.383 1.18-1.578 2.062-.1992.875-.2969 2.906-.2969 6.094v12.95h-9.984v-32.81z"/>
  </symbol>
  <symbol id="t" overflow="visible">
   <path d="m11.64-32.81-.1719 3.109c.7812-1.227 1.703-2.148 2.766-2.766 1.07-.625 2.297-.9375 3.672-.9375 2.664 0 4.766 1.234 6.297 3.703.8438-1.227 1.789-2.148 2.844-2.766 1.062-.625 2.234-.9375 3.516-.9375 1.695 0 3.102.4141 4.219 1.234 1.113.8242 1.828 1.836 2.141 3.031.3125 1.199.4688 3.141.4688 5.828v23.31h-9.703v-21.39c0-2.801-.09375-4.535-.2812-5.203-.1875-.6641-.625-1-1.312-1-.7109 0-1.168.3359-1.375 1-.2109.6562-.3125 2.391-.3125 5.203v21.39h-9.688v-20.84c0-3.219-.07812-5.145-.2344-5.781-.1562-.6445-.5938-.9688-1.312-.9688-.4375 0-.8125.1719-1.125.5156-.3125.3359-.4922.7461-.5312 1.234-.03125.4805-.04688 1.512-.04688 3.094v22.75h-9.688v-32.81z"/>
  </symbol>
  <symbol id="h" overflow="visible">
   <path d="m24.38-21.3v8.047c0 2.949-.1523 5.109-.4531 6.484-.293 1.375-.9219 2.664-1.891 3.859-.9688 1.199-2.219 2.086-3.75 2.656-1.523.5625-3.273.8438-5.25.8438-2.211 0-4.078-.2422-5.609-.7188-1.531-.4883-2.727-1.223-3.578-2.203-.8438-.9883-1.449-2.176-1.812-3.562-.3672-1.395-.5469-3.488-.5469-6.281v-8.406c0-3.039.3281-5.422.9844-7.141.6641-1.719 1.852-3.094 3.562-4.125 1.719-1.039 3.91-1.562 6.578-1.562 2.238 0 4.16.3359 5.766 1 1.613.668 2.859 1.539 3.734 2.609.875 1.074 1.469 2.18 1.781 3.312.3203 1.137.4844 2.867.4844 5.188zm-9.984-2.469c0-1.676-.09375-2.734-.2812-3.172-.1797-.4375-.5625-.6562-1.156-.6562s-.9922.2188-1.188.6562c-.1992.4375-.2969 1.496-.2969 3.172v14.81c0 1.555.09766 2.562.2969 3.031.1953.4688.5859.7031 1.172.7031.5938 0 .9844-.2109 1.172-.6406.1875-.4258.2812-1.348.2812-2.766z"/>
  </symbol>
  <symbol id="g" overflow="visible">
   <path d="m22.19-22.33h-8.859v-1.781c0-1.52-.08984-2.477-.2656-2.875-.168-.4062-.6016-.6094-1.297-.6094-.5625 0-.9844.1875-1.266.5625-.2734.3672-.4062.918-.4062 1.656 0 1.012.06641 1.75.2031 2.219.1445.4688.5664.9844 1.266 1.547.6953.5625 2.133 1.383 4.312 2.453 2.906 1.418 4.812 2.75 5.719 4s1.359 3.074 1.359 5.469c0 2.668-.3516 4.684-1.047 6.047-.6875 1.355-1.844 2.402-3.469 3.141-1.625.7266-3.586 1.094-5.875 1.094-2.543 0-4.715-.3984-6.516-1.188-1.805-.7891-3.043-1.859-3.719-3.203-.6797-1.352-1.016-3.398-1.016-6.141v-1.578h8.844v2.062c0 1.773.1094 2.922.3281 3.453.2266.5234.6719.7812 1.328.7812.707 0 1.203-.1758 1.484-.5312.2812-.3516.4219-1.098.4219-2.234 0-1.562-.1836-2.539-.5469-2.938-.375-.3945-2.309-1.566-5.797-3.516-2.938-1.645-4.73-3.141-5.375-4.484-.6484-1.344-.9688-2.941-.9688-4.797 0-2.613.3438-4.539 1.031-5.781.6953-1.25 1.875-2.211 3.531-2.891 1.656-.6758 3.582-1.016 5.781-1.016 2.176 0 4.023.2773 5.547.8281 1.531.5547 2.703 1.281 3.516 2.188s1.305 1.75 1.484 2.531c.1758.7734.2656 1.98.2656 3.625z"/>
  </symbol>
  <symbol id="k" overflow="visible">
   <path d="m12.06-40.03v40.03h-10.28v-40.03z"/>
  </symbol>
  <symbol id="aj" overflow="visible">
   <path d="m22.7-32.81-2.875 23.73c-.4492 3.762-.8242 6.328-1.125 7.703-.3047 1.367-.8086 2.488-1.516 3.375-.7109.8945-1.695 1.551-2.953 1.969-1.262.4141-3.277.625-6.047.625h-6.062v-5.234c1.551 0 2.547-.07812 2.984-.2344.4453-.1562.6719-.5039.6719-1.047 0-.2695-.2031-1.414-.6094-3.438l-5.469-27.45h9.078l3.266 22.12 1.578-22.12z"/>
  </symbol>
  <symbol id="s" overflow="visible">
   <path d="m11.94-32.81-.1719 2.891c.8945-1.164 1.875-2.035 2.938-2.609 1.07-.582 2.242-.875 3.516-.875 1.551 0 2.891.418 4.016 1.25 1.133.8359 1.844 1.797 2.125 2.891.2812 1.086.4219 2.93.4219 5.531v13.81c0 2.992-.1797 5.117-.5312 6.375-.3555 1.262-1.086 2.266-2.188 3.016-1.094.75-2.418 1.125-3.969 1.125-1.23 0-2.375-.2891-3.438-.8594-1.055-.582-2.016-1.441-2.891-2.578v7.516h-9.984v-37.48zm2.844 9.547c0-2.031-.07422-3.258-.2188-3.688-.1484-.4258-.5586-.6406-1.234-.6406-.6562 0-1.086.25-1.281.75-.1875.4922-.2812 1.684-.2812 3.578v13.59c0 1.98.09766 3.219.2969 3.719.1953.4922.6289.7344 1.297.7344.6328 0 1.031-.2227 1.188-.6719.1562-.457.2344-1.562.2344-3.312z"/>
  </symbol>
  <symbol id="ai" overflow="visible">
   <path d="m11.77-40.03v9.469c.8203-.957 1.738-1.672 2.75-2.141 1.02-.4688 2.125-.7031 3.312-.7031 1.363 0 2.547.2148 3.547.6406 1.008.4297 1.781 1.031 2.312 1.812.5312.7734.8477 1.527.9531 2.266.1016.7422.1562 2.324.1562 4.75v14.78c0 2.418-.1641 4.215-.4844 5.391-.3125 1.18-1.062 2.199-2.25 3.062s-2.602 1.297-4.234 1.297c-1.168 0-2.262-.2578-3.281-.7656-1.012-.5078-1.938-1.273-2.781-2.297l-.6406 2.469h-9.344v-40.03zm3.047 16.55c0-1.695-.1094-2.805-.3281-3.328-.2109-.5195-.625-.7812-1.25-.7812-.6172 0-1.016.2305-1.203.6875-.1797.4492-.2656 1.59-.2656 3.422v14.14c0 1.762.1016 2.891.3125 3.391.207.4922.6133.7344 1.219.7344.6328 0 1.047-.2539 1.234-.7656.1875-.5078.2812-1.738.2812-3.688z"/>
  </symbol>
  <symbol id="ah" overflow="visible">
   <path d="m7.594-7.844v3.594c0 1.875-.2266 3.414-.6719 4.609-.4492 1.207-1.219 2.234-2.312 3.078s-2.336 1.406-3.719 1.688v-2.875c.9883-.5625 1.551-1.312 1.688-2.25h-1.688v-7.844z"/>
  </symbol>
  <symbol id="j" overflow="visible">
   <path d="m12.31-37.19v5.172h2.703v5.188h-2.703v17.56c0 2.156.1094 3.359.3281 3.609.2266.2422 1.156.3594 2.781.3594v5.297h-4.016c-2.281 0-3.914-.09375-4.891-.2812-.9688-.1875-1.824-.625-2.562-1.312-.7422-.6875-1.203-1.469-1.391-2.344-.1797-.8828-.2656-2.957-.2656-6.219v-16.67h-2.156v-5.188h2.156v-5.172z"/>
  </symbol>
  <symbol id="ag" overflow="visible">
   <path d="m8.438-8.156v8.156h-7.547v-8.156z"/>
  </symbol>
  <symbol id="ad" overflow="visible">
   <path d="m41.17-71.53v14.31h-11.05v57.22h-18.59v-57.22h-11v-14.31z"/>
  </symbol>
  <symbol id="i" overflow="visible">
   <path d="m43.61-28.28h-23.11v12.69c0 2.648.1914 4.355.5781 5.125.3828.7617 1.117 1.141 2.203 1.141 1.352 0 2.258-.5039 2.719-1.516.457-1.02.6875-2.988.6875-5.906v-7.734h16.92v4.344c0 3.617-.2305 6.398-.6875 8.344-.4609 1.949-1.527 4.027-3.203 6.234-1.68 2.211-3.809 3.867-6.391 4.969-2.574 1.102-5.805 1.656-9.688 1.656-3.773 0-7.102-.543-9.984-1.625-2.887-1.094-5.137-2.586-6.75-4.484-1.605-1.906-2.715-4-3.328-6.281-.6172-2.281-.9219-5.602-.9219-9.969v-17.09c0-5.125.6875-9.164 2.062-12.12 1.383-2.969 3.656-5.238 6.812-6.812 3.156-1.57 6.781-2.359 10.88-2.359 5 0 9.125.9531 12.38 2.859 3.258 1.898 5.547 4.414 6.859 7.547 1.312 3.137 1.969 7.547 1.969 13.23zm-17.89-9.531v-4.297c0-3.031-.168-4.988-.5-5.875-.3242-.8828-.9844-1.328-1.984-1.328-1.23 0-1.996.3828-2.297 1.141-.293.75-.4375 2.773-.4375 6.062v4.297z"/>
  </symbol>
  <symbol id="y" overflow="visible">
   <path d="m38.53-58.62-7.125 28 8.625 30.62h-17.36c-1.711-7.719-3.008-14.36-3.891-19.92-1.18 6.949-2.461 13.59-3.844 19.92h-14.94l7.688-30.62-7.688-28h14.94c2.383 11.96 3.664 18.75 3.844 20.36 1.707-9.977 3.004-16.77 3.891-20.36z"/>
  </symbol>
  <symbol id="f" overflow="visible">
   <path d="m22-66.45v9.234h4.812v9.281h-4.812v31.38c0 3.855.1953 6.008.5938 6.453.4062.4375 2.062.6562 4.969.6562v9.453h-7.188c-4.074 0-6.98-.1641-8.719-.5-1.73-.3438-3.262-1.125-4.594-2.344-1.324-1.227-2.148-2.629-2.469-4.203-.3242-1.57-.4844-5.273-.4844-11.11v-29.78h-3.844v-9.281h3.844v-9.234z"/>
  </symbol>
  <symbol id="x" overflow="visible">
   <path d="m44.05-58.62v58.62h-18.16l.3125-4.859c-1.242 1.969-2.766 3.449-4.578 4.438s-3.898 1.484-6.25 1.484c-2.68 0-4.902-.4688-6.672-1.406-1.773-.9453-3.078-2.203-3.922-3.766-.8359-1.562-1.355-3.188-1.562-4.875-.1992-1.695-.2969-5.066-.2969-10.11v-39.53h17.84v39.89c0 4.562.1406 7.273.4219 8.125.2812.8555 1.035 1.281 2.266 1.281 1.332 0 2.125-.4375 2.375-1.312.25-.8828.375-3.727.375-8.531v-39.45z"/>
  </symbol>
  <symbol id="n" overflow="visible">
   <path d="m19.12-35.92h-16.73v-3.938c0-4.531.5195-8.023 1.562-10.48 1.039-2.457 3.141-4.629 6.297-6.516 3.156-1.883 7.25-2.828 12.28-2.828 6.039 0 10.59 1.07 13.66 3.203 3.062 2.137 4.898 4.762 5.516 7.875.625 3.105.9375 9.5.9375 19.19v29.42h-17.38v-5.219c-1.086 2.094-2.492 3.668-4.219 4.719-1.719 1.039-3.773 1.562-6.156 1.562-3.125 0-5.992-.875-8.594-2.625-2.605-1.758-3.906-5.598-3.906-11.52v-4.812c0-4.395.6875-7.383 2.062-8.969 1.383-1.594 4.816-3.445 10.3-5.562 5.863-2.301 9-3.848 9.406-4.641.4141-.8008.625-2.422.625-4.859 0-3.07-.2305-5.07-.6875-6-.4492-.9258-1.203-1.391-2.266-1.391-1.211 0-1.965.3906-2.266 1.172-.293.7812-.4375 2.809-.4375 6.078zm5.656 8.047c-2.855 2.094-4.512 3.852-4.969 5.266-.4609 1.406-.6875 3.434-.6875 6.078 0 3.043.1953 5.008.5938 5.891.4062.875 1.195 1.312 2.375 1.312 1.113 0 1.836-.3438 2.172-1.031.3438-.6953.5156-2.516.5156-5.453z"/>
  </symbol>
  <symbol id="m" overflow="visible">
   <path d="m21.56-71.53v71.53h-18.38v-71.53z"/>
  </symbol>
  <symbol id="w" overflow="visible"></symbol>
  <symbol id="v" overflow="visible">
   <path d="m22.31-71.53v71.53h-18.59v-71.53z"/>
  </symbol>
  <symbol id="ac" overflow="visible">
   <path d="m21.34-58.62-.3125 5.391c1.289-2.156 2.867-3.77 4.734-4.844 1.875-1.07 4.035-1.609 6.484-1.609 3.062 0 5.562.7266 7.5 2.172 1.945 1.438 3.203 3.258 3.766 5.453.5625 2.188.8438 5.844.8438 10.97v41.09h-17.84v-40.61c0-4.031-.1367-6.488-.4062-7.375-.2617-.8828-.9961-1.328-2.203-1.328-1.273 0-2.07.5117-2.391 1.531-.3242 1.012-.4844 3.73-.4844 8.156v39.62h-17.84v-58.62z"/>
  </symbol>
  <symbol id="p" overflow="visible">
   <path d="m21.03-58.62-.7031 7.688c2.594-5.508 6.348-8.426 11.27-8.75v20.62c-3.273 0-5.672.4453-7.203 1.328-1.531.8867-2.477 2.121-2.828 3.703-.3555 1.574-.5312 5.199-.5312 10.88v23.16h-17.84v-58.62z"/>
  </symbol>
  <symbol id="ab" overflow="visible">
   <path d="m21.34-58.62-.3125 5.172c1.594-2.094 3.344-3.656 5.25-4.688 1.914-1.031 4.008-1.547 6.281-1.547 2.77 0 5.16.7461 7.172 2.234 2.02 1.48 3.281 3.195 3.781 5.141.5 1.949.75 5.246.75 9.891v24.7c0 5.336-.3203 9.133-.9531 11.39-.625 2.25-1.918 4.047-3.875 5.391-1.961 1.332-4.324 2-7.094 2-2.211 0-4.258-.5156-6.141-1.547-1.887-1.031-3.609-2.562-5.172-4.594v13.42h-17.84v-66.97zm5.078 17.05c0-3.625-.1367-5.816-.4062-6.578-.2617-.7695-.9961-1.156-2.203-1.156-1.18 0-1.938.4453-2.281 1.328-.3359.8867-.5 3.023-.5 6.406v24.3c0 3.543.1758 5.758.5312 6.641.3516.875 1.117 1.312 2.297 1.312 1.145 0 1.859-.3984 2.141-1.203.2812-.8125.4219-2.781.4219-5.906z"/>
  </symbol>
  <symbol id="aa" overflow="visible">
   <path d="m21.03-71.53v16.92c1.469-1.707 3.109-2.977 4.922-3.812 1.812-.8438 3.781-1.266 5.906-1.266 2.438 0 4.551.3867 6.344 1.156 1.801.7617 3.172 1.836 4.109 3.219.9453 1.387 1.516 2.742 1.703 4.062.1953 1.324.2969 4.152.2969 8.484v26.42c0 4.305-.2891 7.508-.8594 9.609-.5742 2.105-1.922 3.934-4.047 5.484-2.117 1.539-4.633 2.312-7.547 2.312-2.094 0-4.047-.4531-5.859-1.359-1.812-.9141-3.469-2.289-4.969-4.125l-1.156 4.422h-16.69v-71.53zm5.438 29.56c0-3.039-.1953-5.023-.5781-5.953-.3867-.9258-1.137-1.391-2.25-1.391-1.094 0-1.805.4062-2.125 1.219-.3242.8125-.4844 2.855-.4844 6.125v25.27c0 3.156.1797 5.18.5469 6.062.375.875 1.102 1.312 2.188 1.312 1.125 0 1.852-.4531 2.188-1.359.3438-.9141.5156-3.113.5156-6.594z"/>
  </symbol>
  <symbol id="o" overflow="visible">
   <path d="m21.56-71.53v9.328h-18.38v-9.328zm0 12.91v58.62h-18.38v-58.62z"/>
  </symbol>
  <symbol id="z" overflow="visible">
   <path d="m40.56-58.62-5.125 42.41c-.8047 6.719-1.477 11.3-2.016 13.75-.543 2.438-1.449 4.453-2.719 6.047-1.262 1.594-3.023 2.766-5.281 3.516-2.25.75-5.852 1.125-10.8 1.125h-10.83v-9.375c2.77 0 4.551-.1328 5.344-.4062.8008-.2812 1.203-.9102 1.203-1.891 0-.4688-.3711-2.516-1.109-6.141l-9.766-49.03h16.22l5.828 39.53 2.828-39.53z"/>
  </symbol>
 </defs>
 <g>
  <path d="m0 0h1078v556.5h-1078z" fill="#002a35"/>
  <g fill="#ede7d4">
  <g transform="translate(0 295.77481)">
   <use x="273.068573" xlink:href="#u"/>
   <use x="309.326811" xlink:href="#e"/>
   <use x="334.798729" xlink:href="#af"/>
   <use x="359.004648" xlink:href="#d"/>
   <use x="372.829367" xlink:href="#c"/>
   <use x="399.263446" xlink:href="#r"/>
   <use x="425.494964" xlink:href="#a"/>
   <use x="434.407603" xlink:href="#u"/>
   <use x="470.665841" xlink:href="#e"/>
   <use x="496.13776" xlink:href="#q"/>
   <use x="521.153918" xlink:href="#ae"/>
   <use x="547.638637" xlink:href="#d"/>
   <use x="561.463356" xlink:href="#c"/>
   <use x="587.897434" xlink:href="#b"/>
   <use x="613.774473" xlink:href="#a"/>
   <use x="622.687112" xlink:href="#ak"/>
   <use x="641.930311" xlink:href="#b"/>
   <use x="667.80735" xlink:href="#e"/>
   <use x="693.279268" xlink:href="#l"/>
   <use x="711.357747" xlink:href="#c"/>
   <use x="737.791825" xlink:href="#d"/>
   <use x="751.616545" xlink:href="#c"/>
   <use x="778.050623" xlink:href="#r"/>
  </g>
  <g transform="translate(0 352.505938)">
   <use x="263.709593" xlink:href="#t"/>
   <use x="302.70239" xlink:href="#h"/>
   <use x="328.579429" xlink:href="#l"/>
   <use x="346.657908" xlink:href="#b"/>
   <use x="372.534946" xlink:href="#a"/>
   <use x="381.447586" xlink:href="#g"/>
   <use x="405.248384" xlink:href="#h"/>
   <use x="431.125423" xlink:href="#q"/>
   <use x="456.141581" xlink:href="#d"/>
   <use x="469.9663" xlink:href="#e"/>
   <use x="495.438219" xlink:href="#k"/>
   <use x="509.262938" xlink:href="#k"/>
   <use x="523.087657" xlink:href="#aj"/>
   <use x="545.774376" xlink:href="#a"/>
   <use x="554.687015" xlink:href="#l"/>
   <use x="572.765494" xlink:href="#b"/>
   <use x="598.642533" xlink:href="#g"/>
   <use x="622.443331" xlink:href="#s"/>
   <use x="648.72549" xlink:href="#h"/>
   <use x="674.602528" xlink:href="#c"/>
   <use x="701.036607" xlink:href="#g"/>
   <use x="724.837405" xlink:href="#d"/>
   <use x="738.662124" xlink:href="#ai"/>
   <use x="764.944283" xlink:href="#k"/>
   <use x="778.769002" xlink:href="#b"/>
   <use x="804.646041" xlink:href="#ah"/>
   </g>
   <g transform="translate(0 407.236988)">
   <use x="351.216875" xlink:href="#h"/>
   <use x="377.093913" xlink:href="#c"/>
   <use x="403.527992" xlink:href="#b"/>
   <use x="429.40503" xlink:href="#a"/>
   <use x="438.31767" xlink:href="#g"/>
   <use x="462.118468" xlink:href="#j"/>
   <use x="477.513027" xlink:href="#b"/>
   <use x="503.390066" xlink:href="#s"/>
   <use x="529.672224" xlink:href="#a"/>
   <use x="538.584864" xlink:href="#e"/>
   <use x="564.056782" xlink:href="#j"/>
   <use x="579.451341" xlink:href="#a"/>
   <use x="588.363981" xlink:href="#e"/>
   <use x="613.835899" xlink:href="#a"/>
   <use x="622.748539" xlink:href="#j"/>
   <use x="638.143098" xlink:href="#d"/>
   <use x="651.967817" xlink:href="#t"/>
   <use x="690.960615" xlink:href="#b"/>
   <use x="716.837653" xlink:href="#ag"/>
   </g>
   <g transform="translate(0 206.116526)">
   <use x="110.839565" xlink:href="#ad"/>
   <use x="152.460365" xlink:href="#i"/>
   <use x="198.695645" xlink:href="#y"/>
   <use x="237.873485" xlink:href="#f"/>
   <use x="265.379405" xlink:href="#x"/>
   <use x="312.609965" xlink:href="#n"/>
   <use x="358.121405" xlink:href="#m"/>
   <use x="382.822445" xlink:href="#w"/>
   <use x="398.746925" xlink:href="#v"/>
   <use x="424.805165" xlink:href="#ac"/>
   <use x="472.035725" xlink:href="#f"/>
   <use x="499.541645" xlink:href="#i"/>
   <use x="545.776925" xlink:href="#p"/>
   <use x="578.078285" xlink:href="#ab"/>
   <use x="625.037405" xlink:href="#p"/>
   <use x="657.338765" xlink:href="#i"/>
   <use x="703.574045" xlink:href="#f"/>
   <use x="731.079965" xlink:href="#n"/>
   <use x="776.591405" xlink:href="#aa"/>
   <use x="823.550525" xlink:href="#o"/>
   <use x="848.251565" xlink:href="#m"/>
   <use x="872.952605" xlink:href="#o"/>
   <use x="897.653645" xlink:href="#f"/>
   <use x="925.159565" xlink:href="#z"/>
   </g>
  </g>
 </g>
</svg>
