<?xml version="1.0" encoding="UTF-8"?>
<svg width="241.04" height="126.25" version="1.1" viewBox="0 0 241.03644 126.24672" xmlns="http://www.w3.org/2000/svg">
<defs>
<clipPath id="a">
<path d="m0 108h216v-108h-216z"/>
</clipPath>
</defs>
<g transform="matrix(1.3333 0 0 -1.3333 -49.077 149.22)">
<g transform="matrix(1.3527 0 0 1.3527 -14.04 -7.1347)">
<g transform="matrix(.64076 0 0 .64076 35.288 6.824)">
<g transform="translate(102.73 81.399)">
<path d="m0 0v-5.525h-2.902v-20.64h2.902v-5.524h-13.62v5.524h2.903v20.64h-2.903v5.525z" fill="#100f0d"/>
</g>
<g clip-path="url(#a)">
<g transform="translate(132.58 50.837)">
<path d="m0 0c-2.532-1.12-5.839-1.68-9.919-1.68-5.322 0-9.508 1.429-12.557 4.287-3.047 2.858-4.572 6.667-4.572 11.425 0 5.068 1.714 9.178 5.142 12.331 3.427 3.153 7.874 4.729 13.342 4.729 3.386 0 6.242-.39 8.564-1.171v-6.873c-2.322 1.267-4.968 1.901-7.936 1.901-3.257 0-5.886-.936-7.886-2.806-2-1.872-3-4.406-3-7.602 0-3.065.943-5.507 2.831-7.326 1.887-1.819 4.427-2.729 7.62-2.729 3.049 0 5.839.678 8.371 2.033z" fill="#100f0d"/>
</g>
<g transform="translate(178.16 49.71)">
<path d="m0 0h-7.717v18.96c0 2.048.097 4.31.29 6.784h-.193c-.403-1.944-.767-3.344-1.089-4.198l-8.129-21.546h-6.387l-8.273 21.325c-.227.574-.59 2.047-1.089 4.419h-.218c.209-3.123.315-5.863.315-8.22v-17.524h-7.04v31.689h11.443l7.088-18.784c.564-1.502.976-3.012 1.234-4.53h.145c.435 1.753.895 3.278 1.379 4.575l7.089 18.739h11.152z" fill="#100f0d"/>
</g>
<g transform="translate(206.71,49.71)">
<path d="m0 0h-20.66v31.689h7.814v-25.899h12.846z" fill="#100f0d"/>
</g>
<path d="m89.709 41.631h.708v-7.08h-.708z" fill="#100f0d"/>
<g transform="translate(91.767 39.784)">
<path d="m0 0h.67v-.67h.018c.202.316.718.804 1.608.804.641 0 1.177-.162 1.655-.641.393-.383.651-.985.651-1.847v-2.879h-.67v2.879c0 .679-.21 1.158-.497 1.435-.364.355-.842.45-1.139.45s-.775-.095-1.139-.45c-.287-.277-.497-.756-.487-1.435v-2.879h-.67z" fill="#100f0d"/>
</g>
<g transform="translate(98.217 39.182)">
<path d="m0 0h-1.101v.603h1.101v1.846h.67v-1.846h1.253v-.603h-1.253v-4.631h-.67z" fill="#100f0d"/>
</g>
<g transform="translate(105.36 37.526)">
<path d="m0 0c-.211 1.234-1.215 1.789-2.048 1.789-.822 0-1.846-.555-2.037-1.789zm-4.085-.603c.048-1.024 1.004-1.894 2.028-1.894.956.018 1.636.583 1.875 1.234h.708c-.364-1.043-1.368-1.837-2.574-1.837-1.464 0-2.726 1.186-2.726 2.737 0 1.482 1.196 2.726 2.717 2.755 1.148-.01 1.961-.689 2.334-1.34.355-.565.431-1.148.402-1.655z" fill="#100f0d"/>
</g>
<g transform="translate(107.07 39.784)">
<path d="m0 0h.67v-.756h.018c.316.736.91.852 1.474.89v-.708c-.469-.038-.871-.21-1.129-.517-.229-.287-.363-.66-.363-1.081v-3.061h-.67z" fill="#100f0d"/>
</g>
<g transform="translate(110.15 39.784)">
<path d="m0 0h.67v-.67h.018c.202.316.718.804 1.608.804.641 0 1.177-.162 1.655-.641.393-.383.651-.985.651-1.847v-2.879h-.67v2.879c0 .679-.21 1.158-.497 1.435-.364.355-.842.45-1.139.45s-.775-.095-1.139-.45c-.287-.277-.497-.756-.487-1.435v-2.879h-.67z" fill="#100f0d"/>
</g>
<g transform="translate(118.58 35.029)">
<path d="m0 0c1.129 0 2.095.909 2.095 2.134 0 1.147-.89 2.152-2.095 2.152-1.148 0-2.144-.832-2.144-2.162 0-1.167.862-2.124 2.144-2.124m2.727-.479h-.67v.918h-.02c-.573-.86-1.492-1.042-2.037-1.042-1.646 0-2.813 1.253-2.813 2.755 0 1.397 1.1 2.737 2.813 2.737.564 0 1.482-.182 2.037-1.053h.02v.919h.67z" fill="#100f0d"/>
</g>
<g transform="translate(123.14 39.182)">
<path d="m0 0h-1.101v.603h1.101v1.846h.67v-1.846h1.253v-.603h-1.253v-4.631h-.67z" fill="#100f0d"/>
</g>
<path d="m125.77 39.784h.67v-5.233h-.67zm0 1.847h.67v-1.206h-.67z" fill="#100f0d"/>
<g transform="translate(130.2 35.029)">
<path d="m0 0c1.015 0 2.066.804 2.066 2.172 0 1.377-1.167 2.114-2.066 2.114-.956 0-2.066-.784-2.066-2.172 0-1.215.985-2.114 2.066-2.114m-.009 4.889c1.55 0 2.745-1.311 2.745-2.746 0-1.425-1.176-2.746-2.745-2.746-1.531 0-2.727 1.291-2.727 2.707 0 1.656 1.349 2.785 2.727 2.785" fill="#100f0d"/>
</g>
<g transform="translate(133.95 39.784)">
<path d="m0 0h.67v-.67h.018c.202.316.718.804 1.608.804.641 0 1.177-.162 1.655-.641.393-.383.651-.985.651-1.847v-2.879h-.67v2.879c0 .679-.21 1.158-.497 1.435-.364.355-.842.45-1.139.45s-.775-.095-1.139-.45c-.287-.277-.497-.756-.487-1.435v-2.879h-.67z" fill="#100f0d"/>
</g>
<g transform="translate(142.38 35.029)">
<path d="m0 0c1.129 0 2.095.909 2.095 2.134 0 1.147-.89 2.152-2.095 2.152-1.148 0-2.144-.832-2.144-2.162 0-1.167.862-2.124 2.144-2.124m2.727-.479h-.67v.918h-.02c-.573-.86-1.492-1.042-2.037-1.042-1.646 0-2.813 1.253-2.813 2.755 0 1.397 1.1 2.737 2.813 2.737.564 0 1.482-.182 2.037-1.053h.02v.919h.67z" fill="#100f0d"/>
</g>
<path d="m146.33 41.631h.67v-7.08h-.67z" fill="#100f0d"/>
<g transform="translate(157.64 36.407)">
<path d="m0 0c-.756-1.388-2.124-1.98-3.262-1.98-1.98 0-3.703 1.559-3.703 3.654 0 2.096 1.675 3.664 3.694 3.664 1.817 0 2.965-1.273 3.243-1.933h-.794c-.776 1.158-2.029 1.292-2.459 1.292-1.656 0-2.976-1.454-2.976-3.033 0-1.655 1.454-3.004 2.986-3.004.353 0 1.511.048 2.477 1.34z" fill="#100f0d"/>
</g>
<g transform="translate(161.19 35.029)">
<path d="m0 0c1.015 0 2.066.804 2.066 2.172 0 1.377-1.167 2.114-2.066 2.114-.956 0-2.066-.784-2.066-2.172 0-1.215.985-2.114 2.066-2.114m-.009 4.889c1.55 0 2.745-1.311 2.745-2.746 0-1.425-1.176-2.746-2.745-2.746-1.531 0-2.727 1.291-2.727 2.707 0 1.656 1.349 2.785 2.727 2.785" fill="#100f0d"/>
</g>
<g transform="translate(164.94 39.784)">
<path d="m0 0h.67v-.67h.018c.202.316.718.804 1.608.804.641 0 1.177-.162 1.655-.641.393-.383.651-.985.651-1.847v-2.879h-.67v2.879c0 .679-.21 1.158-.497 1.435-.364.355-.842.45-1.139.45s-.775-.095-1.139-.45c-.287-.277-.497-.756-.487-1.435v-2.879h-.67z" fill="#100f0d"/>
</g>
<g transform="translate(171.15 39.182)">
<path d="m0 0h-.813v.603h.813c.019.726.076 1.951 2.009 1.97v-.622c-1.359 0-1.339-.86-1.339-1.348h1.339v-.603h-1.339v-4.631h-.67z" fill="#100f0d"/>
</g>
<g transform="translate(178.3 37.526)">
<path d="m0 0c-.211 1.234-1.215 1.789-2.048 1.789-.822 0-1.846-.555-2.037-1.789zm-4.085-.603c.048-1.024 1.004-1.894 2.028-1.894.956.018 1.636.583 1.875 1.234h.708c-.364-1.043-1.368-1.837-2.574-1.837-1.464 0-2.726 1.186-2.726 2.737 0 1.482 1.196 2.726 2.717 2.755 1.148-.01 1.961-.689 2.334-1.34.355-.565.431-1.148.403-1.655z" fill="#100f0d"/>
</g>
<g transform="translate(180 39.784)">
<path d="m0 0h.67v-.756h.018c.316.736.91.852 1.474.89v-.708c-.469-.038-.871-.21-1.129-.517-.229-.287-.363-.66-.363-1.081v-3.061h-.67z" fill="#100f0d"/>
</g>
<g transform="translate(187.36 37.526)">
<path d="m0 0c-.211 1.234-1.215 1.789-2.048 1.789-.822 0-1.846-.555-2.037-1.789zm-4.085-.603c.048-1.024 1.004-1.894 2.028-1.894.956.018 1.636.583 1.875 1.234h.708c-.364-1.043-1.368-1.837-2.574-1.837-1.464 0-2.726 1.186-2.726 2.737 0 1.482 1.196 2.726 2.717 2.755 1.148-.01 1.961-.689 2.334-1.34.355-.565.431-1.148.403-1.655z" fill="#100f0d"/>
</g>
<g transform="translate(189.07 39.784)">
<path d="m0 0h.67v-.67h.018c.202.316.718.804 1.608.804.641 0 1.177-.162 1.655-.641.393-.383.651-.985.651-1.847v-2.879h-.67v2.879c0 .679-.21 1.158-.497 1.435-.364.355-.842.45-1.139.45s-.775-.095-1.139-.45c-.287-.277-.497-.756-.487-1.435v-2.879h-.67z" fill="#100f0d"/>
</g>
<g transform="translate(200.09 36.091)">
<path d="m0 0c-.335-.65-1.033-1.664-2.603-1.664-1.635 0-2.812 1.272-2.812 2.736 0 1.511 1.253 2.755 2.812 2.755.918 0 2.095-.459 2.603-1.713h-.737c-.421.795-1.186 1.111-1.846 1.111-1.024 0-2.163-.766-2.163-2.134 0-1.177.909-2.153 2.163-2.153 1.09 0 1.636.661 1.846 1.062z" fill="#100f0d"/>
</g>
<g transform="translate(205.61 37.526)">
<path d="m0 0c-.211 1.234-1.215 1.789-2.048 1.789-.822 0-1.846-.555-2.037-1.789zm-4.085-.603c.048-1.024 1.004-1.894 2.028-1.894.956.018 1.636.583 1.875 1.234h.708c-.364-1.043-1.368-1.837-2.574-1.837-1.464 0-2.726 1.186-2.726 2.737 0 1.482 1.196 2.726 2.717 2.755 1.148-.01 1.961-.689 2.334-1.34.355-.565.431-1.148.402-1.655z" fill="#100f0d"/>
</g>
<g transform="translate(93.134 23.583)">
<path d="m0 0c1.636 0 3.042 1.33 3.042 3.014 0 1.655-1.368 3.033-3.042 3.033-1.598 0-3.033-1.302-3.033-3.062 0-1.617 1.387-2.985 3.033-2.985m0 6.688c1.99 0 3.75-1.579 3.75-3.665 0-2.085-1.77-3.664-3.75-3.664-2.009 0-3.741 1.636-3.741 3.626 0 2.229 1.856 3.703 3.741 3.703" fill="#100f0d"/>
</g>
<g transform="translate(97.92 28.3)">
<path d="m0 0h.67v-.67h.018c.202.316.718.804 1.608.804.641 0 1.177-.162 1.655-.641.393-.383.651-.985.651-1.847v-2.879h-.67v2.879c0 .679-.21 1.158-.497 1.435-.364.355-.842.45-1.139.45s-.775-.095-1.139-.45c-.287-.277-.497-.756-.487-1.435v-2.879h-.67z" fill="#100f0d"/>
</g>
<g transform="translate(106.51 30.146)">
<path d="m0 0h1.09l2.574-6.027 2.583 6.027h1.091v-7.08h-.708v6.305h-.02l-2.65-6.305h-.603l-2.63 6.305h-.019v-6.305h-.708z" fill="#100f0d"/>
</g>
<g transform="translate(117.8 23.545)">
<path d="m0 0c1.129 0 2.095.909 2.095 2.134 0 1.147-.89 2.152-2.095 2.152-1.148 0-2.144-.832-2.144-2.162 0-1.167.862-2.124 2.144-2.124m2.727-.479h-.67v.918h-.02c-.573-.86-1.492-1.042-2.037-1.042-1.646 0-2.813 1.253-2.813 2.755 0 1.397 1.1 2.737 2.813 2.737.564 0 1.482-.182 2.037-1.053h.02v.919h.67z" fill="#100f0d"/>
</g>
<g transform="translate(126.93 24.606)">
<path d="m0 0c-.335-.65-1.033-1.664-2.603-1.664-1.635 0-2.812 1.272-2.812 2.736 0 1.511 1.253 2.755 2.812 2.755.918 0 2.095-.459 2.603-1.713h-.737c-.421.795-1.186 1.111-1.846 1.111-1.024 0-2.163-.766-2.163-2.134 0-1.177.909-2.153 2.163-2.153 1.09 0 1.636.661 1.846 1.062z" fill="#100f0d"/>
</g>
<g transform="translate(127.9 30.146)">
<path d="m0 0h.67v-2.517h.019c.202.316.718.804 1.608.804.641 0 1.177-.162 1.655-.641.392-.382.651-.985.651-1.846v-2.88h-.67v2.88c0 .679-.211 1.157-.498 1.434-.364.355-.842.451-1.138.451-.297 0-.776-.096-1.139-.451-.287-.277-.498-.755-.488-1.434v-2.88h-.67z" fill="#100f0d"/>
</g>
<path d="m133.77 28.3h.67v-5.233h-.67zm0 1.846h.67v-1.206h-.67z" fill="#100f0d"/>
<g transform="translate(135.68 28.3)">
<path d="m0 0h.67v-.67h.018c.202.316.718.804 1.608.804.641 0 1.177-.162 1.655-.641.393-.383.651-.985.651-1.847v-2.879h-.67v2.879c0 .679-.21 1.158-.497 1.435-.364.355-.842.45-1.139.45s-.775-.095-1.139-.45c-.287-.277-.497-.756-.487-1.435v-2.879h-.67z" fill="#100f0d"/>
</g>
<g transform="translate(146.04 26.042)">
<path d="m0 0c-.211 1.234-1.215 1.789-2.048 1.789-.822 0-1.846-.555-2.037-1.789zm-4.085-.603c.048-1.024 1.004-1.894 2.028-1.894.956.018 1.636.583 1.875 1.234h.708c-.364-1.043-1.368-1.837-2.574-1.837-1.464 0-2.726 1.186-2.726 2.737 0 1.482 1.196 2.726 2.717 2.755 1.148-.01 1.961-.689 2.334-1.34.355-.565.431-1.148.403-1.655z" fill="#100f0d"/>
</g>
<g transform="translate(150.56 30.146)">
<path d="m0 0h.708v-6.439h2.928v-.641h-3.636z" fill="#100f0d"/>
</g>
<g transform="translate(159.33 26.042)">
<path d="m0 0c-.211 1.234-1.215 1.789-2.048 1.789-.822 0-1.846-.555-2.037-1.789zm-4.085-.603c.048-1.024 1.004-1.894 2.028-1.894.956.018 1.636.583 1.875 1.234h.708c-.364-1.043-1.368-1.837-2.574-1.837-1.464 0-2.726 1.186-2.726 2.737 0 1.482 1.196 2.726 2.717 2.755 1.148-.01 1.961-.689 2.334-1.34.355-.565.431-1.148.403-1.655z" fill="#100f0d"/>
</g>
<g transform="translate(163.63 23.545)">
<path d="m0 0c1.129 0 2.095.909 2.095 2.134 0 1.147-.89 2.152-2.095 2.152-1.148 0-2.144-.832-2.144-2.162 0-1.167.862-2.124 2.144-2.124m2.727-.479h-.67v.918h-.02c-.573-.86-1.492-1.042-2.037-1.042-1.646 0-2.813 1.253-2.813 2.755 0 1.397 1.1 2.737 2.813 2.737.564 0 1.482-.182 2.037-1.053h.02v.919h.67z" fill="#100f0d"/>
</g>
<g transform="translate(167.57 28.3)">
<path d="m0 0h.67v-.756h.018c.316.736.91.852 1.474.89v-.708c-.469-.038-.871-.21-1.129-.517-.229-.287-.363-.66-.363-1.081v-3.061h-.67z" fill="#100f0d"/>
</g>
<g transform="translate(170.65 28.3)">
<path d="m0 0h.67v-.67h.018c.202.316.718.804 1.608.804.641 0 1.177-.162 1.655-.641.393-.383.651-.985.651-1.847v-2.879h-.67v2.879c0 .679-.21 1.158-.497 1.435-.364.355-.842.45-1.139.45s-.775-.095-1.139-.45c-.287-.277-.497-.756-.487-1.435v-2.879h-.67z" fill="#100f0d"/>
</g>
<path d="m176.49 28.3h.67v-5.233h-.67zm0 1.846h.67v-1.206h-.67z" fill="#100f0d"/>
<g transform="translate(178.41 28.3)">
<path d="m0 0h.67v-.67h.018c.202.316.718.804 1.608.804.641 0 1.177-.162 1.655-.641.393-.383.651-.985.651-1.847v-2.879h-.67v2.879c0 .679-.21 1.158-.497 1.435-.364.355-.842.45-1.139.45s-.775-.095-1.139-.45c-.287-.277-.497-.756-.487-1.435v-2.879h-.67z" fill="#100f0d"/>
</g>
<g transform="translate(186.71 23.545)">
<path d="m0 0c1.388 0 2.076 1.243 2.076 2.134 0 1.147-.899 2.152-2.076 2.152-1.186 0-2.066-1.005-2.066-2.152 0-1.139.88-2.134 2.066-2.134m2.708.345c0-.565 0-1.273-.479-1.914-.66-.918-1.865-.966-2.076-.966-.746 0-2.2.287-2.678 1.923h.708c.171-.431.688-1.321 1.961-1.321.88 0 1.894.507 1.894 1.952v.46h-.018c-.393-.747-1.254-1.082-2.02-1.082-1.377 0-2.736 1.072-2.736 2.717 0 1.665 1.359 2.775 2.736 2.775.479 0 1.416-.144 2.02-1.072h.018v.938h.67z" fill="#100f0d"/>
</g>
<g transform="translate(88.983 45.722)">
<path d="m0 0h119.21" fill="none" stroke="#100f0d" stroke-linecap="round" stroke-miterlimit="10"/>
</g>
<g transform="translate(25.226 57.973)">
<path d="m0 0c0-.682-.553-1.235-1.235-1.235h-8.4c-.682 0-1.236.553-1.236 1.235v8.4c0 .683.554 1.236 1.236 1.236h8.4c.682 0 1.235-.553 1.235-1.236z" fill="#94d222"/>
</g>
<g transform="translate(35.674 68.844)">
<path d="m0 0c0-.682-.554-1.235-1.235-1.235h-7.11c-.682 0-1.236.553-1.236 1.235v7.11c0 .682.554 1.235 1.236 1.235h7.11c.681 0 1.235-.553 1.235-1.235z" fill="#2a419e"/>
</g>
<g transform="translate(23.319 75.064)">
<path d="m0 0c0-.683-.553-1.235-1.234-1.235h-4.924c-.682 0-1.236.552-1.236 1.235v4.923c0 .682.554 1.236 1.236 1.236h4.924c.681 0 1.234-.554 1.234-1.236z" fill="#ed1e24"/>
</g>
<g transform="translate(12.969 69.148)">
<path d="m0 0c0-.682-.554-1.235-1.236-1.235h-3.444c-.682 0-1.236.553-1.236 1.235v3.444c0 .683.554 1.236 1.236 1.236h3.444c.682 0 1.236-.553 1.236-1.236z" fill="#f79011"/>
</g>
<g transform="translate(60.2 72.383)">
<path d="m0 0c0-.682-.554-1.235-1.235-1.235h-1.412c-.682 0-1.236.553-1.236 1.235v1.412c0 .682.554 1.234 1.236 1.234h1.412c.681 0 1.235-.552 1.235-1.234zm-1.479-10.26c0-.682-.553-1.235-1.236-1.235h-4.553c-.682 0-1.236.553-1.236 1.235v4.554c0 .683.554 1.236 1.236 1.236h4.553c.683 0 1.236-.553 1.236-1.236zm-8.596-10.629c0-.681-.554-1.235-1.236-1.235h-8.159c-.681 0-1.234.554-1.234 1.235v8.159c0 .682.553 1.235 1.234 1.235h8.159c.682 0 1.236-.553 1.236-1.235zm-2.033 27.753c0 .683.552 1.236 1.234 1.236h2.983c.682 0 1.236-.553 1.236-1.236v-2.982c0-.682-.554-1.236-1.236-1.236h-2.983c-.682 0-1.234.554-1.234 1.236zm22.554-20.287c-.772-.387-.966-.58-.966.483v6.275c0 1.452.548 20.951-21.916 20.951-6.089 0-11.648-1.545-11.648-2.994 0-1.448-.033-3.475-.033-4.634 0-1.244.675-1.852 1.641-1.852h5.6c.677 0 1.737-.071 1.737-1.265v-6.248c0-1.641-.809-1.858-1.678-1.858h-5.792c-.869 0-1.702-.459-1.702-1.521v-5.873c0-.854-.385-1.561-1.64-1.561h-5.813c-.772 0-1.606-.964-1.606-2.412s-.016-4.443-.016-5.312-.772-.772-2.703-.772c0 0 0-2.799 1.255-5.986.671-1.704 1.738-2.123 3.572-1.544 0 0 .222-4.619 1.284-7.515s1.999-4.748 4.992-6.871c2.994-2.125 3.283-2.704 5.31-4.345 2.027-1.642 2.896-3.186 8.014-3.186 5.213 0 6.468 2.027 8.592 4.151 2.124 2.125 4.56 2.207 7.53 6.663 2.511 3.765 2.647 6.812 2.993 11.2 0 0 2.704-1.352 3.573 1.351.532 1.657 2.123 9.075 2.703 13.033.579 3.959-2.51 2.028-3.283 1.642" fill="#231f20"/>
</g>
</g>
</g>
<g transform="scale(1,-1)" stroke-width=".33812px" aria-label="New In ML">
<path d="m49.859-85.79h1.3886l11.386 16.536h.05049v-16.536h1.1108v18.026h-1.3128l-11.462-16.663h-.05049v16.663h-1.1108z"/>
<path d="m67.171-74.126v.15148q0 1.1361.30296 2.1712t.88363 1.8177q.60592.78264 1.4895 1.2371.90887.45444 2.0955.45444 1.944 0 3.0801-1.0099 1.1361-1.0351 1.5653-2.8529h.95937q-.42919 2.2722-1.8682 3.484-1.4138 1.2118-3.7617 1.2118-1.439 0-2.5246-.50493-1.0604-.53018-1.7925-1.4138-.7069-.90887-1.0604-2.1207-.35345-1.2371-.35345-2.6509 0-1.3633.35345-2.6004.3787-1.2623 1.1108-2.1964.73215-.95937 1.8177-1.5148 1.1108-.58067 2.6004-.58067 1.3633 0 2.3984.50493 1.0604.50493 1.7673 1.3886.7069.85838 1.0604 2.0197.3787 1.1361.3787 2.4489 0 .12623-.02525.30296 0 .15148 0 .25246zm9.5179-.83313q-.05049-1.0604-.35345-1.9945-.30296-.95937-.90887-1.6663-.58067-.73215-1.439-1.1613-.83313-.42919-1.9187-.42919-1.1613 0-2.045.45444-.88363.42919-1.4895 1.1613-.60592.7069-.93412 1.6663-.3282.95937-.40394 1.9692z"/>
<path d="m83.14-68.875h.05049l3.5345-11.866h1.2876l3.5598 11.866h.05049l3.6355-11.866h1.0604l-4.1657 12.977h-1.1866l-3.5598-11.765h-.05049l-3.585 11.765h-1.2118l-4.1152-12.977h1.0351z"/>
<path d="m104.84-85.79h1.1108v18.026h-1.1108z"/>
<path d="m108.95-80.741h.95936v2.7771h.0505q.25246-.73215.7069-1.2876.47968-.58067 1.0856-.98461.63116-.40394 1.3633-.60592t1.4895-.20197q1.1361 0 1.9187.27771.80789.27771 1.3128.73215t.78264 1.0351q.30296.55542.42919 1.1361.12624.58067.15148 1.1361.0252.53018.0252.93412v8.0284h-.95937v-8.2051q0-.47968-.0757-1.2118-.0757-.73215-.45443-1.3886-.35345-.68166-1.1108-1.1613-.73215-.47968-2.045-.47968-1.1108 0-1.9692.40394t-1.4643 1.1361q-.60591.7069-.93412 1.7168-.30296.98461-.30296 2.1712v7.0185h-.95936z"/>
<path d="m129.25-85.79h1.5905l7.0438 16.789h.0505l6.968-16.789h1.5905v18.026h-1.1108v-16.663h-.0505l-6.867 16.663h-1.1108l-6.9428-16.663h-.0505v16.663h-1.1108z"/>
<path d="m149.66-85.79h1.1108v17.067h10.225v.95937h-11.336z"/>
</g>
</g>
</g>
</svg>
