<?xml version="1.0" encoding="UTF-8"?>
<svg version="1.2" viewBox="0 0 232.5 121.8" xmlns="http://www.w3.org/2000/svg" xmlns:xlink="http://www.w3.org/1999/xlink">
 <defs>
  <symbol id="w" overflow="visible">
   <path d="m1.922-5.234c-.4062 0-.7344.1406-1.016.4062-.4375.4375-.7188 1.328-.7188 2.234 0 .8438.25 1.75.5938 2.172.2812.3438.6719.5312 1.109.5312.3906 0 .7188-.125.9844-.4062.4375-.4219.7344-1.312.7344-2.25 0-1.594-.6875-2.688-1.688-2.688zm-.01562.2031c.625 0 .9688.875.9688 2.5 0 1.609-.3281 2.438-.9844 2.438-.6406 0-.9844-.8281-.9844-2.438 0-1.641.3438-2.5 1-2.5z"/>
  </symbol>
  <symbol id="v" overflow="visible">
   <path d="m5.062-2.875c-.8438 0-1.656.9062-1.656 1.875 0 .6094.3594 1 .9062 1 .3438 0 .625-.125.8906-.3906.3906-.4219.6406-1.047.6406-1.656 0-.5156-.2812-.8281-.7812-.8281zm.0625.25c.2812 0 .5312.2812.5312.625 0 .4375-.1875.9688-.4844 1.328-.2344.3125-.4531.4375-.7344.4375-.2656 0-.4531-.2031-.4531-.5 0-.4062.2031-1.031.4844-1.438.2031-.3125.4219-.4531.6562-.4531zm-.3281-2.609h-.2812c-.4219.4062-.7188.5312-1.188.5312-.2969 0-.4844-.04688-.6562-.2031-.2031-.1719-.2969-.2188-.5312-.2188-.875 0-1.672.9219-1.672 1.906 0 .5469.3906.9844.8906.9844.3281 0 .6562-.1562.9219-.4219.3906-.4219.625-1.031.625-1.594 0-.1094-.01562-.2031-.04688-.3438.1406.0625.2656.07812.4844.07812.3438 0 .5312-.04688.8438-.2188l-2.672 4.828h.375zm-2.141.5938c.04688.1562.0625.2656.0625.375 0 .875-.625 1.766-1.234 1.766-.2656 0-.4531-.1875-.4531-.4688 0-.3281.1562-.8594.3594-1.234.2188-.4219.5156-.6875.75-.6875.03125 0 .04688.01562.09375.04688.1094.1094.2031.1406.4219.2031z"/>
  </symbol>
  <symbol id="aa" overflow="visible">
   <path d="m2.203-5.234-1.359.7031v.1094c.09375-.03125.1719-.0625.2031-.07812.1406-.0625.2656-.09375.3438-.09375.1562 0 .2188.125.2188.375v3.5c0 .25-.0625.4375-.1719.5-.125.07812-.2188.09375-.5469.1094v.1094h2.094v-.1094c-.5938-.01562-.7188-.09375-.7188-.4688v-4.641z"/>
  </symbol>
  <symbol id="z" overflow="visible">
   <path d="m3.594-1.062-.09375-.03125c-.2812.4375-.375.5-.7188.5h-1.812l1.281-1.359c.6719-.7188.9688-1.297.9688-1.906 0-.7812-.625-1.375-1.406-1.375-.4219 0-.8125.1719-1.094.4844-.2344.2656-.3594.5156-.4844 1.062l.1562.03125c.3125-.75.5781-1 1.109-1 .625 0 1.062.4375 1.062 1.094 0 .5938-.3438 1.312-.9844 2.016l-1.344 1.453v.09375h2.953z"/>
  </symbol>
  <symbol id="u" overflow="visible">
   <path d="m1.969-4.797v3.875c0 .6562-.09375.7344-.7344.7812v.1406h2.266v-.1406c-.6406-.03125-.75-.1406-.75-.7031v-3.953h.4219c.875 0 1.047.1406 1.234.9844h.1875l-.04688-1.312h-4.375l-.04688 1.312h.1875c.1875-.8281.375-.9844 1.234-.9844z"/>
  </symbol>
  <symbol id="q" overflow="visible">
   <path d="m1.219-2.656c.3281-.3594.5469-.4844.8594-.4844.375 0 .5781.2812.5781.8281v1.531c0 .5156-.07812.625-.5312.6719v.1094h1.641v-.1094c-.4219-.07812-.4688-.1406-.4688-.6719v-1.547c0-.8125-.3125-1.234-.9531-1.234-.4531 0-.7812.1875-1.125.6562v-2.359l-.04688-.01562c-.2656.09375-.4531.1562-.8906.2812l-.2031.0625v.125c.03125-.01562.04688-.01562.09375-.01562.3281 0 .3906.0625.3906.3906v3.656c0 .5312-.04688.6094-.5.6719v.1094h1.672v-.1094c-.4375-.04688-.5156-.1406-.5156-.6719z"/>
  </symbol>
  <symbol id="a" overflow="visible">
   <path d="m3.156-1.266c-.375.5781-.7031.8125-1.203.8125-.4375 0-.7656-.2344-1-.6719-.1406-.2969-.1875-.5469-.2031-1.016h2.375c-.04688-.5-.125-.7344-.3281-.9688-.2344-.2812-.5781-.4531-.9844-.4531-.3906 0-.75.1406-1.047.4062-.3594.3125-.5781.8594-.5781 1.5 0 1.062.5625 1.734 1.453 1.734.7344 0 1.312-.4531 1.641-1.297zm-2.391-1.125c.07812-.6094.3438-.8906.8125-.8906.4844 0 .6719.2188.7656.8906z"/>
  </symbol>
  <symbol id="k" overflow="visible">
   <path d="m.1406-3.078c.1094-.01562.1719-.03125.25-.03125.2031 0 .2812.125.2812.5v1.953c0 .4219-.1094.5312-.5469.5469v.1094h1.719v-.1094c-.4062-.01562-.5312-.1094-.5312-.4062v-2.188c0-.01562.0625-.09375.125-.1406.1875-.1875.5156-.3125.7969-.3125.3281 0 .5.2656.5.8125v1.672c0 .4375-.07812.5312-.5156.5625v.1094h1.719v-.1094c-.4375-.01562-.5469-.1406-.5469-.625v-1.953c.2344-.3281.4844-.4688.8438-.4688.4375 0 .5781.2031.5781.8438v1.641c0 .4375-.0625.5-.5156.5625v.1094h1.703v-.1094l-.2031-.01562c-.2344-.01562-.3438-.1562-.3438-.4688v-1.594c0-.9062-.2969-1.375-.8906-1.375-.4531 0-.8438.2031-1.266.6562-.1406-.4375-.3906-.6562-.8125-.6562-.3438 0-.5625.1094-1.203.5938v-.5781l-.04688-.01562c-.4062.1562-.6562.2344-1.094.3594z"/>
  </symbol>
  <symbol id="j" overflow="visible">
   <path d="m1.938-3.562c-1.016 0-1.719.75-1.719 1.812 0 1.047.7188 1.828 1.703 1.828.9688 0 1.719-.8281 1.719-1.891 0-1.016-.7188-1.75-1.703-1.75zm-.1094.2188c.6562 0 1.109.75 1.109 1.797 0 .875-.3438 1.406-.9219 1.406-.3125 0-.5938-.1875-.75-.5-.2188-.3906-.3438-.9375-.3438-1.484 0-.7344.3594-1.219.9062-1.219z"/>
  </symbol>
  <symbol id="i" overflow="visible">
   <path d="m3.688-3.484h-1.078v.125c.25.01562.375.09375.375.25 0 .0625-.01562.1406-.04688.2188l-.7656 2.016-.7969-1.984c-.04688-.1094-.0625-.2188-.0625-.2812 0-.1406.07812-.2031.3438-.2188v-.125h-1.516v.125c.2969.01562.3594.09375.7031.8906l.9375 2.219c.01562.04688.03125.09375.0625.1562.04688.1406.09375.2031.1406.2031s.09375-.1094.2188-.3906l.9844-2.484c.2188-.5156.2656-.5781.5-.5938z"/>
  </symbol>
  <symbol id="b" overflow="visible">
   <path d="m1.359-3.562-1.203.4375v.1094l.0625-.01562c.09375-.01562.1875-.01562.2656-.01562.1875 0 .25.125.25.4688v1.797c0 .5469-.07812.6406-.6094.6719v.1094h1.828v-.1094c-.5-.04688-.5625-.125-.5625-.6719v-2.75zm-.375-1.719c-.2031 0-.375.1719-.375.3906s.1562.3906.375.3906c.2344 0 .4062-.1562.4062-.3906 0-.2188-.1719-.3906-.4062-.3906z"/>
  </symbol>
  <symbol id="h" overflow="visible">
   <path d="m2.438-2.422-.03125-1.062h-.09375v.01562c-.07812.0625-.07812.0625-.1094.0625-.04688 0-.125-.01562-.2188-.04688-.1719-.0625-.3438-.09375-.5312-.09375-.625 0-1.062.3906-1.062.9531 0 .4219.25.7344.9062 1.109l.4531.25c.2656.1562.4062.3438.4062.5781 0 .3438-.25.5625-.6406.5625-.2656 0-.5156-.09375-.6562-.2656-.1562-.2031-.2344-.375-.3281-.8125h-.125v1.203h.09375c.0625-.07812.09375-.09375.1875-.09375.0625 0 .1719.01562.3438.0625.2188.04688.4375.07812.5625.07812.6094 0 1.094-.4531 1.094-.9844 0-.3906-.1875-.6406-.6406-.9219l-.8438-.5c-.2188-.125-.3281-.3125-.3281-.5312 0-.2969.2344-.5156.5938-.5156.4375 0 .6719.2656.8438.9531z"/>
  </symbol>
  <symbol id="ab" overflow="visible">
   <path d="m3.641-3v-.2969h-.5938c-.1562 0-.2812-.03125-.4375-.07812l-.1719-.0625c-.2031-.07812-.4062-.125-.6094-.125-.7188 0-1.297.5625-1.297 1.266 0 .4844.2188.7812.7188 1.031-.1406.1406-.2812.2812-.3281.3125-.25.2188-.3594.375-.3594.5312 0 .1719.09375.2656.4062.4219-.5469.3906-.75.6562-.75.9375 0 .4062.5938.75 1.328.75.5938 0 1.188-.2031 1.594-.5312.2969-.2344.4219-.4844.4219-.7812 0-.4688-.3594-.7969-.9375-.8281l-1-.04688c-.4062-.01562-.5938-.07812-.5938-.2031 0-.1562.25-.4219.4688-.4844.0625 0 .1094.01562.1406.01562.1406.01562.25.01562.2969.01562.2812 0 .5938-.1094.8281-.3281.2656-.2031.375-.4844.375-.8594 0-.2344-.04688-.4062-.1406-.6562zm-2.5 3.016c.25.04688.875.09375 1.25.09375.7031 0 .9531.1094.9531.3906 0 .4375-.5781.75-1.453.75-.6875 0-1.125-.2344-1.125-.5625 0-.1875.04688-.2812.375-.6719zm.03125-2.625c0-.4688.2188-.7344.5781-.7344.2344 0 .4375.1406.5625.3594.1406.2812.2344.6406.2344.9375 0 .4375-.2344.7031-.5781.7031-.4688 0-.7969-.5-.7969-1.25z"/>
  </symbol>
  <symbol id="g" overflow="visible">
   <path d="m.04688-3.016c.1094-.03125.1875-.03125.2812-.03125.1875 0 .2656.125.2656.4688v1.922c0 .3906-.0625.4531-.5625.5469v.1094h1.859v-.1094c-.5156-.03125-.6562-.1406-.6562-.5938v-1.734c0-.25.3281-.6406.5469-.6406.04688 0 .1094.04688.2031.125.125.1094.2031.1562.3125.1562.1719 0 .2969-.1406.2969-.3438 0-.2656-.1719-.4219-.4219-.4219-.3281 0-.5625.1875-.9375.7344v-.7188l-.03125-.01562c-.4219.1719-.6875.2812-1.156.4219z"/>
  </symbol>
  <symbol id="f" overflow="visible">
   <path d="m3.422-.5156c-.1406.1094-.2344.1562-.3438.1562-.1719 0-.2344-.1094-.2344-.4531v-1.5c0-.4062-.03125-.6406-.1562-.8125-.1719-.2812-.5-.4375-.9531-.4375-.7344 0-1.297.3906-1.297.875 0 .1719.1562.3281.3281.3281.1875 0 .3438-.1562.3438-.3281 0-.03125 0-.0625-.01562-.125s-.01562-.125-.01562-.1875c0-.2031.25-.375.5469-.375.3906 0 .5938.2344.5938.6406v.4688c-1.188.4844-1.328.5469-1.656.8438-.1719.1562-.2812.4219-.2812.6719 0 .4844.3438.8281.8125.8281.3438 0 .6562-.1562 1.141-.5625.03125.4062.1719.5625.4844.5625.2656 0 .4219-.09375.7031-.3906zm-1.203-.4375c0 .2344-.03125.3125-.2031.4062-.1875.1094-.4062.1719-.5625.1719-.2656 0-.4844-.2656-.4844-.5938v-.03125c0-.4531.3125-.7344 1.25-1.078z"/>
  </symbol>
  <symbol id="e" overflow="visible">
   <path d="m1.969-3.484h-.7812v-.8906c0-.07812 0-.1094-.04688-.1094-.0625.07812-.1094.1406-.1562.2188-.2969.4219-.625.7969-.75.8281-.09375.0625-.1406.1094-.1406.1562 0 .01562.01562.03125.03125.04688h.4219v2.328c0 .6562.2188.9844.6875.9844.375 0 .6719-.1875.9219-.5938l-.09375-.07812c-.1719.1875-.2969.2656-.4688.2656-.2812 0-.4062-.2031-.4062-.6875v-2.219h.7812z"/>
  </symbol>
  <symbol id="d" overflow="visible">
   <path d="m.9688-.7656c-.2344 0-.4219.1875-.4219.4375 0 .2188.1875.4062.4062.4062.25 0 .4531-.1875.4531-.4062 0-.25-.2031-.4375-.4375-.4375z"/>
  </symbol>
  <symbol id="t" overflow="visible">
   <path d="m.8906-.8438c0 .5781-.1094.6719-.75.7031v.1406h2.297v-.1406c-.6406-.03125-.7656-.1406-.7656-.7031v-3.438c0-.5625.1094-.6562.7656-.6875v-.1562h-2.297v.1562c.6562.03125.75.125.75.6875z"/>
  </symbol>
  <symbol id="c" overflow="visible">
   <path d="m.1406-4.812h.04688c.09375-.01562.1875-.01562.25-.01562.25 0 .3281.1094.3281.4688v3.688c0 .4219-.1094.5156-.6094.5625v.1094h1.828v-.1094c-.4844-.03125-.5781-.1094-.5781-.5469v-4.609l-.03125-.01562c-.4062.125-.6875.2031-1.234.3438z"/>
  </symbol>
  <symbol id="s" overflow="visible">
   <path d="m3.672-3.484h-1.047v.125c.25 0 .375.0625.375.1875 0 .03125 0 .07812-.03125.125l-.75 2.141-.8906-1.953c-.04688-.1094-.07812-.2188-.07812-.2969 0-.1406.125-.1875.4531-.2031v-.125h-1.594v.1094c.2031.03125.3281.125.3906.25l.8906 1.906.01562.0625.125.2344c.2031.375.3281.6562.3281.7812 0 .1094-.1719.5938-.3125.8281-.09375.2031-.2656.3438-.375.3438-.04688 0-.125-.01562-.2031-.04688-.1406-.0625-.2656-.09375-.4062-.09375-.1719 0-.3281.1562-.3281.3438 0 .2656.25.4531.5625.4531.5312 0 .8906-.4375 1.312-1.547l1.188-3.156c.1094-.25.1875-.3281.375-.3438z"/>
  </symbol>
  <symbol id="y" overflow="visible">
   <path d="m.04688-4.812c.1094-.01562.1719-.01562.25-.01562.2656 0 .3438.09375.3438.4688v3.719c0 .4062-.03125.4375-.5938.5312v.1094h1.812v-.1094l-.1562-.01562c-.2969-.01562-.4219-.125-.4219-.3906v-1.422l1.078 1.438.03125.03125c.01562.03125.03125.04688.04688.07812.0625.07812.09375.125.09375.1562 0 .07812-.07812.125-.1719.125h-.1406v.1094h1.688v-.1094c-.3438-.03125-.5781-.1719-.9062-.5781l-1.188-1.5.2344-.2031c.5469-.5156 1.031-.8594 1.25-.9219.1094-.03125.2188-.04688.3594-.04688h.0625v-.125h-1.578v.1094c.2969.01562.375.04688.375.1562 0 .0625-.0625.1562-.1719.25l-1.062.9531v-3.25l-.03125-.01562c-.2969.09375-.5156.1562-.9688.2812l-.2344.0625z"/>
  </symbol>
  <symbol id="x" overflow="visible">
   <path d="m2.656.07812 1.141-.4062v-.125c-.1406.01562-.1562.01562-.1719.01562-.2812 0-.3438-.09375-.3438-.4375v-4.391l-.04688-.01562c-.3594.125-.6406.2031-1.125.3438v.125c.0625-.01562.1094-.01562.1719-.01562.2812 0 .3438.07812.3438.3906v1.219c-.2969-.25-.5-.3438-.8125-.3438-.8906 0-1.609.875-1.609 1.984 0 .9844.5781 1.656 1.438 1.656.4375 0 .7188-.1562.9844-.5156v.4844zm-.03125-.8594c0 .04688-.04688.1406-.125.2188-.1406.1562-.3281.2344-.5625.2344-.6406 0-1.062-.6094-1.062-1.562 0-.875.375-1.453.9688-1.453.4062 0 .7812.3594.7812.7812z"/>
  </symbol>
  <symbol id="r" overflow="visible">
   <path d="m2.312 1.016h-.6719c-.25 0-.375-.1406-.375-.4062v-5.203c0-.2344.1094-.3281.3438-.3281h.7031v-.2031h-1.625v6.328h1.625z"/>
  </symbol>
  <symbol id="p" overflow="visible">
   <path d="m5.219-4.438v3.516c0 .6406-.09375.7344-.7031.7812v.1406h2.156v-.1406c-.5625-.04688-.6719-.1562-.6719-.7031v-3.438c0-.5469.1094-.6406.6719-.6875v-.1562h-1.531l-1.719 3.906-1.781-3.906h-1.531v.1562c.6406.03125.7344.125.7344.6875v3.141c0 .7969-.1094.9531-.75 1v.1406h1.812v-.1406c-.5938-.03125-.7188-.2188-.7188-1v-3.109l1.938 4.25h.1094z"/>
  </symbol>
  <symbol id="o" overflow="visible">
   <path d="m5.453-.1406c-.3438-.03125-.4219-.1094-.6875-.6719l-1.922-4.406h-.1562l-1.609 3.797c-.5 1.141-.5938 1.266-.9688 1.281v.1406h1.531v-.1406c-.3594 0-.5156-.1094-.5156-.3281 0-.09375.01562-.2031.0625-.2969l.3594-.9062h2.016l.3125.75c.09375.2031.1562.4062.1562.5156 0 .1875-.1406.25-.5469.2656v.1406h1.969zm-3.781-1.844.8906-2.125.8906 2.125z"/>
  </symbol>
  <symbol id="n" overflow="visible">
   <path d="m3.453-5.234h-.1562c-.03125.1875-.125.2656-.25.2656-.07812 0-.2031-.03125-.3438-.09375-.2812-.1094-.5625-.1719-.8125-.1719-.3438 0-.6719.1406-.9375.3594-.2656.2344-.4062.5625-.4062.9688 0 .625.3438 1.047 1.203 1.516.5625.2812.9688.6094 1.156.8906.07812.1094.1094.2656.1094.4531 0 .5156-.3906.875-.9531.875-.6875 0-1.172-.4219-1.562-1.375h-.1719l.2344 1.641h.1719c0-.1406.09375-.25.2031-.25.09375 0 .2188.03125.375.09375.2812.1094.5938.1719.9062.1719.8906 0 1.578-.6094 1.578-1.406 0-.6406-.4219-1.141-1.453-1.688-.7969-.4531-1.125-.7969-1.125-1.203 0-.4375.3281-.7188.7969-.7188.3438 0 .6719.1406.9531.4219.2344.25.3438.4531.4688.9062h.1875z"/>
  </symbol>
  <symbol id="m" overflow="visible">
   <path d="m3.188-4.969h.2031c.2344.01562.3281.07812.3281.2344 0 .1719-.1719.4062-.6094.7969l-1.359 1.25v-1.594c0-.5625.07812-.6406.7031-.6875v-.1562h-2.188v.1562c.5938.04688.6875.1406.6875.6875v3.359c0 .6406-.07812.7344-.6875.7812v.1406h2.172v-.1406c-.5938-.04688-.6875-.1406-.6875-.7031v-1.453l.2031-.1562.8125.8125c.5938.5781 1.016 1.125 1.016 1.312 0 .1094-.1094.1719-.3281.1719-.04688 0-.125 0-.2188.01562v.1406h2.359v-.1406c-.4062-.01562-.5156-.09375-1.219-.8438l-1.797-1.938 1.469-1.453c.5312-.5.6406-.5625 1.172-.5938v-.1562h-2.031z"/>
  </symbol>
  <symbol id="l" overflow="visible">
   <path d="m.2656 1.016v.1875h1.625v-6.328h-1.625v.2031h.6562c.2656 0 .3906.125.3906.3906v5.203c0 .2344-.1094.3438-.3594.3438z"/>
  </symbol>
 </defs>
 <g transform="translate(-139.4 -185)">
  <g transform="matrix(1.069 0 0 1.054 -16.05 -12.76)">
   <path d="m146 187.9h216.3" fill="none" stroke="#000" stroke-miterlimit="10" stroke-width=".7534"/>
   <path d="m146 234.4h216.3" fill="none" stroke="#000" stroke-miterlimit="10" stroke-width=".7534"/>
   <g fill="#fdeed9">
    <path d="m166.4 204.8h17.19v-13.75h-17.19z"/>
    <path d="m246 204.8h9.668v-13.75h-9.668z"/>
    <path d="m166.4 218.6h17.19v-13.76h-17.19z"/>
    <path d="m258.1 218.6h9.672v-13.76h-9.672z"/>
    <path d="m166.4 232.3h17.19v-13.76h-17.19z"/>
    <path d="m258.1 232.3h9.672v-13.76h-9.672z"/>
    <path d="m323.2 232.3h9.465v-13.76h-9.465z"/>
   </g>
   <path d="m183.6 204.8h24.39v-13.75h-24.39z" fill="#fdbd87"/>
   <path d="m267.7 218.6h22.78v-13.76h-22.78z" fill="#fdbd87"/>
   <g fill="#fff5eb">
    <path d="m208 204.8h10.32v-13.75h-10.32z"/>
    <path d="m238.9 204.8h7.094v-13.75h-7.094z"/>
    <path d="m278.5 204.8h20.55v-13.75h-20.55z"/>
    <path d="m208 218.6h10.32v-13.76h-10.32z"/>
    <path d="m251 218.6h7.094v-13.76h-7.094z"/>
    <path d="m320.5 218.6h7.094v-13.76h-7.094z"/>
    <path d="m251 232.3h7.094v-13.76h-7.094z"/>
    <path d="m332.6 232.3h7.09v-13.76h-7.09z"/>
    <path d="m290.5 232.3h32.66v-13.76h-32.66z"/>
    <path d="m308.5 204.8h7.094v-13.75h-7.094z"/>
    <path d="m208 232.3h10.32v-13.76h-10.32z"/>
   </g>
   <path d="m218.3 204.8h20.62v-13.75h-20.62z" fill="#fa8c57"/>
   <path d="m290.5 218.6h20.55v-13.76h-20.55z" fill="#fa8c57"/>
   <g fill="#fde3bd">
    <path d="m255.7 204.8h22.78v-13.75h-22.78z"/>
    <path d="m299 204.8h9.461v-13.75h-9.461z"/>
    <path d="m183.6 218.6h24.39v-13.76h-24.39z"/>
    <path d="m218.3 218.6h32.66v-13.76h-32.66z"/>
    <path d="m311.1 218.6h9.461v-13.76h-9.461z"/>
    <path d="m218.3 232.3h32.66v-13.76h-32.66z"/>
    <path d="m267.7 232.3h22.78v-13.76h-22.78z"/>
   </g>
   <path d="m183.6 232.3h24.39v-13.76h-24.39z" fill="#ffbd87"/>
   <g transform="translate(-160.1 -208.4)">
    <g transform="translate(0 408)">
     <use x="311.30014" xlink:href="#w"/>
     <use x="315.09177" xlink:href="#v"/>
     <use x="329.09003" xlink:href="#u"/>
     <use x="333.81796" xlink:href="#q"/>
     <use x="337.68695" xlink:href="#a"/>
     <use x="346.28098" xlink:href="#k"/>
     <use x="352.30115" xlink:href="#j"/>
     <use x="356.05408" xlink:href="#i"/>
     <use x="359.9231" xlink:href="#b"/>
     <use x="362.07425" xlink:href="#a"/>
     <use x="370.66852" xlink:href="#b"/>
     <use x="372.81967" xlink:href="#h"/>
     <use x="380.98825" xlink:href="#ab"/>
     <use x="384.85727" xlink:href="#g"/>
     <use x="387.43402" xlink:href="#a"/>
     <use x="390.86969" xlink:href="#f"/>
     <use x="394.30536" xlink:href="#e"/>
     <use x="401.61484" xlink:href="#d"/>
     <use x="408.70782" xlink:href="#t"/>
     <use x="418.37775" xlink:href="#g"/>
     <use x="420.9545" xlink:href="#a"/>
     <use x="424.39017" xlink:href="#f"/>
     <use x="427.82584" xlink:href="#c"/>
     <use x="429.97699" xlink:href="#c"/>
     <use x="432.12817" xlink:href="#s"/>
     <use x="441.15576" xlink:href="#c"/>
     <use x="443.30692" xlink:href="#b"/>
     <use x="445.4581" xlink:href="#y"/>
     <use x="449.24969" xlink:href="#a"/>
     <use x="452.68539" xlink:href="#x"/>
     <use x="461.7124" xlink:href="#b"/>
     <use x="463.86359" xlink:href="#e"/>
     <use x="471.17349" xlink:href="#d"/>
    </g>
    <g transform="translate(0 421.8)">
     <use x="310.72021" xlink:href="#aa"/>
     <use x="314.51184" xlink:href="#w"/>
     <use x="318.30347" xlink:href="#v"/>
     <use x="329.09003" xlink:href="#u"/>
     <use x="333.81796" xlink:href="#q"/>
     <use x="337.68695" xlink:href="#a"/>
     <use x="346.28098" xlink:href="#k"/>
     <use x="352.30115" xlink:href="#j"/>
     <use x="356.05408" xlink:href="#i"/>
     <use x="359.9231" xlink:href="#b"/>
     <use x="362.07425" xlink:href="#a"/>
     <use x="370.66852" xlink:href="#b"/>
     <use x="372.81967" xlink:href="#h"/>
     <use x="380.98825" xlink:href="#r"/>
     <use x="383.565" xlink:href="#p"/>
     <use x="390.44409" xlink:href="#o"/>
     <use x="396.03094" xlink:href="#n"/>
     <use x="400.33328" xlink:href="#m"/>
     <use x="405.9201" xlink:href="#l"/>
     <use x="413.65454" xlink:href="#d"/>
     <use x="420.74838" xlink:href="#t"/>
     <use x="430.41745" xlink:href="#g"/>
     <use x="432.9942" xlink:href="#a"/>
     <use x="436.42987" xlink:href="#f"/>
     <use x="439.86554" xlink:href="#c"/>
     <use x="442.01672" xlink:href="#c"/>
     <use x="444.16788" xlink:href="#s"/>
     <use x="453.19547" xlink:href="#c"/>
     <use x="455.34665" xlink:href="#b"/>
     <use x="457.4978" xlink:href="#y"/>
     <use x="461.28943" xlink:href="#a"/>
     <use x="464.7251" xlink:href="#x"/>
     <use x="473.75299" xlink:href="#b"/>
     <use x="475.90414" xlink:href="#e"/>
     <use x="483.2132" xlink:href="#d"/>
    </g>
    <g transform="translate(0 435.5)">
     <use x="311.30014" xlink:href="#z"/>
     <use x="315.09177" xlink:href="#w"/>
     <use x="318.88339" xlink:href="#v"/>
     <use x="329.09003" xlink:href="#u"/>
     <use x="333.81796" xlink:href="#q"/>
     <use x="337.68695" xlink:href="#a"/>
     <use x="346.28098" xlink:href="#k"/>
     <use x="352.30115" xlink:href="#j"/>
     <use x="356.05408" xlink:href="#i"/>
     <use x="359.9231" xlink:href="#b"/>
     <use x="362.07425" xlink:href="#a"/>
     <use x="370.66852" xlink:href="#b"/>
     <use x="372.81967" xlink:href="#h"/>
     <use x="380.98825" xlink:href="#r"/>
     <use x="383.565" xlink:href="#p"/>
     <use x="390.44409" xlink:href="#o"/>
     <use x="396.03094" xlink:href="#n"/>
     <use x="400.33328" xlink:href="#m"/>
     <use x="405.9201" xlink:href="#l"/>
     <use x="413.65454" xlink:href="#d"/>
     <use x="420.74838" xlink:href="#t"/>
     <use x="430.41745" xlink:href="#g"/>
     <use x="432.9942" xlink:href="#a"/>
     <use x="436.42987" xlink:href="#f"/>
     <use x="439.86554" xlink:href="#c"/>
     <use x="442.01672" xlink:href="#c"/>
     <use x="444.16788" xlink:href="#s"/>
     <use x="453.19547" xlink:href="#r"/>
     <use x="455.77222" xlink:href="#p"/>
     <use x="462.65131" xlink:href="#o"/>
     <use x="468.23816" xlink:href="#n"/>
     <use x="472.54047" xlink:href="#m"/>
     <use x="478.12732" xlink:href="#l"/>
     <use x="485.86261" xlink:href="#b"/>
     <use x="488.01376" xlink:href="#e"/>
     <use x="495.32367" xlink:href="#d"/>
    </g>
   </g>
  </g>
  <g transform="translate(0,10)">
   <path d="m139.9 296.3h231.5v-58.59h-231.5z" fill="#ebebeb"/>
   <g fill="none" stroke="#fff" stroke-linecap="square" stroke-linejoin="round" stroke-miterlimit="10">
    <path d="m150.4 296.3v-58.59"/>
    <path d="m192.5 296.3v-58.59"/>
    <path d="m234.5 296.3v-58.59"/>
    <path d="m276.6 296.3v-58.59"/>
    <path d="m318.7 296.3v-58.59"/>
    <path d="m360.8 296.3v-58.59"/>
    <g stroke-width=".5">
     <path d="m171.4 296.3v-58.59"/>
     <path d="m213.5 296.3v-58.59"/>
     <path d="m255.6 296.3v-58.59"/>
     <path d="m297.7 296.3v-58.59"/>
     <path d="m339.8 296.3v-58.59"/>
    </g>
    <path d="m139.9 295.7h231.5"/>
    <path d="m139.9 284h231.5"/>
    <path d="m139.9 272.3h231.5"/>
    <path d="m139.9 260.6h231.5"/>
    <path d="m139.9 248.9h231.5"/>
    <g stroke-width=".5">
     <path d="m139.9 289.9h231.5"/>
     <path d="m139.9 278.2h231.5"/>
     <path d="m139.9 266.5h231.5"/>
     <path d="m139.9 254.8h231.5"/>
     <path d="m139.9 243.1h231.5"/>
    </g>
   </g>
   <g fill-opacity=".349">
    <path d="m150.4 243.2v8.73l21.04 40.29 21.04-.457 21.05-5.375 21.04.2734 21.04 2.914 21.04-1.855 21.04-1.719 21.04 4.031 21.05-5.062 21.04 5.492-21.04-16.42-21.05 1.625-21.04 4.281-21.04-5.461-21.04-3.078-21.04-2.152-21.04 3.098-21.05 5.871-21.04-6.793z" fill="#d95e57"/>
    <path d="m150.4 243.2v8.73l21.04 25.73 21.04 16.05 21.05-2.82 21.04-6.219 21.04 6.512 21.04-1.648 21.04-6.43 21.04-3.012 21.05 3.555 21.04 6.82-21.04-19.27-21.05 2.488-21.04 5.219-21.04-4.984-21.04-2.148-21.04-.4453-21.04-5.227-21.05-6.465-21.04 3.5z" fill="#b8d957"/>
    <path d="m150.4 243.2v8.73l21.04-1.75 21.04 16.25 21.05-2.188 21.04 10.68 21.04-7.535 21.04 1.582 21.04 10.9 21.04-7.891 21.05 11.95 21.04 6.539-21.04-30.92-21.05.1797-21.04-2.117-21.04 2.395-21.04-6.723-21.04-2.465-21.04-.0625-21.05.2773-21.04-3.25z" fill="#57d994"/>
    <path d="m150.4 243.2v8.73l21.04 1.699 21.04 2.137 21.05 2.375 21.04 1.164 21.04 3.18 21.04-6.023 21.04 11.52 21.04 2.285 21.05 11.25 21.04 8.941-21.04-13.84-21.05-18.94-21.04-3.105-21.04-1.562-21.04-5.152-21.04.6992-21.04-2.805-21.05-.0391-21.04-2.562z" fill="#c757d9"/>
   </g>
   <g stroke-linejoin="round" stroke-miterlimit="10" stroke-width=".8862">
    <g fill="none">
     <path d="m150.4 247.2 21.04 34.53 21.04 3.254 21.05-5.707 21.04-1.484 21.04 2.586 21.04.6641 21.04 1.906 21.04-.1406 21.05-3.367 21.04 11" stroke="#f8756b"/>
     <path d="m150.4 247.2 21.04 22.94 21.04 5.797 21.05 2.258 21.04-.3086 21.04 3.484 21.04.2812 21.04-.6836 21.04-4.133 21.05.4805 21.04 13.12" stroke="#a1a300"/>
     <path d="m150.4 247.2 21.04 1.73 21.04 9.219 21.05-1.133 21.04 4.73 21.04-1.859 21.04 4.445 21.04 3.758 21.04-2.488 21.05 5.516 21.04 19.32" stroke="#00bd7d"/>
     <path d="m150.4 247.2 21.04.7031 21.04 2.441 21.05 1.051 21.04 2.16 21.04.9766 21.04.1445 21.04 6.219 21.04 2.785 21.05 15.36 21.04 11.4" stroke="#e668f3"/>
    </g>
    <path d="m213.5 258.7 2.504-2.508-2.504-2.504-2.508 2.504z" fill="#00b0f5" stroke="#00b0f5"/>
    <g fill="#a1a300" stroke="#a1a300">
     <path d="m150.4 245.4-1.773 3.547h3.547z"/>
     <path d="m171.4 268.4-1.77 3.543h3.543z"/>
     <path d="m192.5 274.2-1.77 3.543h3.543z"/>
     <path d="m213.5 276.4-1.773 3.543h3.543z"/>
     <path d="m234.5 276.1-1.773 3.547h3.547z"/>
     <path d="m255.6 279.6-1.773 3.543h3.547z"/>
     <path d="m276.6 279.9-1.773 3.547h3.547z"/>
     <path d="m297.7 279.2-1.77 3.543h3.543z"/>
     <path d="m318.7 275-1.77 3.547h3.543z"/>
     <path d="m339.8 275.5-1.773 3.543h3.543z"/>
     <path d="m360.8 288.7-1.773 3.547h3.547z"/>
    </g>
    <g fill="#f8756b" stroke="#f8756b">
     <path d="m150.4 249c.4688 0 .9219-.1875 1.254-.5195s.5195-.7852.5195-1.254-.1875-.9219-.5195-1.254-.7852-.5195-1.254-.5195-.9219.1875-1.254.5195c-.332.332-.5195.7852-.5195 1.254s.1875.9219.5195 1.254c.332.332.7852.5195 1.254.5195z"/>
     <path d="m171.4 283.5c.4727 0 .9219-.1836 1.254-.5156.332-.3359.5195-.7852.5195-1.254 0-.4726-.1875-.9219-.5195-1.254-.332-.332-.7812-.5195-1.254-.5195-.4688 0-.918.1875-1.254.5195-.332.332-.5156.7812-.5156 1.254 0 .4688.1836.918.5156 1.254.3359.332.7852.5156 1.254.5156z"/>
     <path d="m192.5 286.7c.4726 0 .9219-.1836 1.254-.5156.332-.3359.5195-.7852.5195-1.254 0-.4727-.1875-.9219-.5195-1.254-.332-.332-.7812-.5195-1.254-.5195-.4688 0-.918.1875-1.25.5195s-.5195.7812-.5195 1.254c0 .4688.1875.918.5195 1.254.332.332.7812.5156 1.25.5156z"/>
     <path d="m213.5 281c.4688 0 .918-.1875 1.25-.5195.3359-.332.5195-.7812.5195-1.254 0-.4688-.1836-.918-.5195-1.25-.332-.3359-.7812-.5195-1.25-.5195-.4726 0-.9219.1836-1.254.5195-.332.332-.5195.7812-.5195 1.25 0 .4726.1875.9219.5195 1.254.332.332.7812.5195 1.254.5195z"/>
     <path d="m234.5 279.6c.4688 0 .9219-.1875 1.254-.5195s.5195-.7812.5195-1.254c0-.4688-.1875-.918-.5195-1.25s-.7852-.5195-1.254-.5195c-.4726 0-.9219.1875-1.254.5195-.332.332-.5195.7812-.5195 1.25 0 .4727.1875.9219.5195 1.254.332.332.7812.5195 1.254.5195z"/>
     <path d="m255.6 282.1c.4688 0 .9219-.1875 1.254-.5195s.5195-.7852.5195-1.254-.1875-.9219-.5195-1.254c-.332-.332-.7852-.5195-1.254-.5195s-.9219.1875-1.254.5195c-.332.332-.5195.7852-.5195 1.254s.1875.9219.5195 1.254c.332.332.7852.5195 1.254.5195z"/>
     <path d="m276.6 282.8c.4688 0 .9219-.1875 1.254-.5195.332-.332.5195-.7852.5195-1.254s-.1875-.9219-.5195-1.254c-.332-.332-.7852-.5195-1.254-.5195s-.9219.1875-1.254.5195-.5195.7852-.5195 1.254.1875.9219.5195 1.254.7852.5195 1.254.5195z"/>
     <path d="m297.7 284.7c.4726 0 .9219-.1836 1.254-.5156.332-.3359.5195-.7852.5195-1.254 0-.4726-.1875-.9219-.5195-1.254-.332-.332-.7812-.5195-1.254-.5195-.4688 0-.918.1875-1.254.5195-.332.332-.5156.7812-.5156 1.254 0 .4688.1836.918.5156 1.254.3359.332.7852.5156 1.254.5156z"/>
     <path d="m318.7 284.6c.4726 0 .9219-.1875 1.254-.5195.332-.332.5195-.7852.5195-1.254 0-.4727-.1875-.9219-.5195-1.254s-.7812-.5195-1.254-.5195c-.4688 0-.918.1875-1.25.5195s-.5195.7812-.5195 1.254c0 .4688.1875.9219.5195 1.254.332.332.7812.5195 1.25.5195z"/>
     <path d="m339.8 281.2c.4688 0 .918-.1875 1.25-.5195.3359-.332.5195-.7812.5195-1.254 0-.4688-.1836-.918-.5195-1.254-.332-.332-.7812-.5156-1.25-.5156-.4726 0-.9219.1836-1.254.5156-.332.3359-.5195.7852-.5195 1.254 0 .4727.1875.9219.5195 1.254.332.332.7812.5195 1.254.5195z"/>
     <path d="m360.8 292.2c.4688 0 .9219-.1875 1.254-.5195s.5195-.7852.5195-1.254-.1875-.9219-.5195-1.254-.7852-.5195-1.254-.5195c-.4727 0-.9219.1875-1.254.5195-.332.332-.5195.7852-.5195 1.254s.1875.9219.5195 1.254c.332.332.7812.5195 1.254.5195z"/>
    </g>
    <g fill="#00bd7d" stroke="#00bd7d">
     <path d="m148.6 249h3.547v-3.547h-3.547z"/>
     <path d="m169.6 250.7h3.543v-3.543h-3.543z"/>
     <path d="m190.7 259.9h3.543v-3.547h-3.543z"/>
     <path d="m211.7 258.8h3.543v-3.547h-3.543z"/>
     <path d="m232.8 263.5h3.547v-3.547h-3.547z"/>
     <path d="m253.8 261.6h3.547v-3.547h-3.547z"/>
     <path d="m274.9 266.1h3.547v-3.547h-3.547z"/>
     <path d="m295.9 269.9h3.543v-3.547h-3.543z"/>
     <path d="m316.9 267.4h3.543v-3.547h-3.543z"/>
     <path d="m338 272.9h3.543v-3.543h-3.543z"/>
     <path d="m359 292.2h3.547v-3.547h-3.547z"/>
    </g>
    <g fill="#e668f3" stroke="#e668f3">
     <path d="m150.4 249 1.773-3.547h-3.547z"/>
     <path d="m171.4 249.7 1.773-3.543h-3.543z"/>
     <path d="m192.5 252.1 1.773-3.543h-3.543z"/>
     <path d="m213.5 253.2 1.77-3.547h-3.543z"/>
     <path d="m234.5 255.3 1.773-3.547h-3.547z"/>
     <path d="m255.6 256.3 1.773-3.547h-3.547z"/>
     <path d="m276.6 256.4 1.773-3.543h-3.547z"/>
     <path d="m297.7 262.7 1.773-3.547h-3.543z"/>
     <path d="m318.7 265.4 1.773-3.543h-3.543z"/>
     <path d="m339.8 280.8 1.77-3.547h-3.543z"/>
     <path d="m360.8 292.2 1.773-3.547h-3.547z"/>
    </g>
   </g>
  </g>
 </g>
</svg>
