<?xml version="1.0" encoding="UTF-8"?>
<svg version="1.1" viewBox="0 0 445.6 356.4" xmlns="http://www.w3.org/2000/svg" xmlns:xlink="http://www.w3.org/1999/xlink">
 <style><![CDATA[.B{overflow:visible}.C{stroke-miterlimit:10}]]></style>
 <defs>
  <symbol id="al" class="B">
   <path d="M2.2 0v-.27c-.58 0-.67 0-.67-.39V-6l-1.25.09v.27c.61 0 .67.06.67.48v4.5c0 .39-.09.39-.67.39V0l.97-.03z"/>
  </symbol>
  <symbol id="aa" class="B">
   <path d="M3.58-1.03c0-.08-.06-.09-.11-.09-.08 0-.09.05-.11.11-.3.89-1.08.89-1.17.89-.42 0-.77-.25-.97-.58C.95-1.11.95-1.69.95-2h2.42c.19 0 .2 0 .2-.17 0-.86-.45-1.7-1.53-1.7-1.02 0-1.81.89-1.81 1.97 0 1.16.92 2 1.91 2 1.06 0 1.44-.95 1.44-1.12zm-.56-1.14H.97c.05-1.3.78-1.52 1.08-1.52.88 0 .97 1.17.97 1.52z"/>
  </symbol>
  <symbol id="ah" class="B">
   <path d="M3.11-1.11c0-.45-.27-.72-.36-.81-.28-.28-.62-.34-.98-.42-.48-.09-1.06-.2-1.06-.7 0-.31.22-.66.97-.66.95 0 .98.78 1 1.05.02.08.11.08.11.08.11 0 .11-.05.11-.22v-.86c0-.16 0-.22-.09-.22-.05 0-.06 0-.17.11l-.14.14c-.33-.25-.69-.25-.81-.25C.61-3.87.28-3.3.28-2.81a.9.9 0 0 0 .38.73c.28.23.52.28 1.14.41.19.03.91.17.91.8 0 .44-.31.78-.98.78C1-.09.69-.59.52-1.33.5-1.44.48-1.47.39-1.47c-.11 0-.11.06-.11.22v1.14c0 .14 0 .2.09.2.05 0 .06 0 .22-.17.02-.02.02-.03.17-.2.39.38.77.38.95.38 1 0 1.39-.58 1.39-1.2z"/>
  </symbol>
  <symbol id="af" class="B">
   <path d="M2.14 0v-.27c-.58 0-.61-.05-.61-.38v-3.17l-1.22.09v.27c.56 0 .64.05.64.47v2.33c0 .39-.09.39-.67.39V0l.95-.03.91.03zm-.48-5.22c0-.23-.2-.45-.45-.45-.3 0-.47.23-.47.45 0 .23.2.45.45.45.3 0 .47-.23.47-.45z"/>
  </symbol>
  <symbol id="ag" class="B">
   <path d="M4.63 0v-.27c-.45 0-.67 0-.67-.27v-1.64c0-.75 0-1.02-.27-1.33-.12-.14-.41-.31-.91-.31-.64 0-1.05.36-1.28.91v-.91l-1.22.09v.27c.59 0 .67.06.67.48v2.31c0 .39-.09.39-.67.39V0l.97-.03.97.03v-.27c-.58 0-.67 0-.67-.39v-1.59c0-.89.61-1.37 1.17-1.37.53 0 .64.47.64.95v2.02c0 .39-.11.39-.69.39V0l.98-.03z"/>
  </symbol>
  <symbol id="bj" class="B">
   <path d="M3.08-5.48c0-.33-.31-.61-.77-.61-.61 0-1.34.45-1.34 1.38v1H.28v.27h.69v2.8c0 .39-.09.39-.67.39V0l.98-.03L2.37 0v-.27h-.19c-.62 0-.66-.09-.66-.41v-2.78h.98v-.27h-1v-1c0-.77.41-1.19.8-1.19.02 0 .16 0 .28.06-.11.03-.27.16-.27.36s.14.38.38.38c.25 0 .38-.17.38-.37z"/>
  </symbol>
  <symbol id="ae" class="B">
   <path d="m4.06-1.84c0-1.11-.86-2.03-1.91-2.03-1.08 0-1.92.95-1.92 2.03 0 1.11.91 1.93 1.93 1.93 1.05 0 1.91-.84 1.91-1.94zm-.7-.08c0 .31 0 .78-.2 1.16a1.1 1.1 0 01-1 .64c-.37 0-.75-.17-.98-.58-.22-.37-.22-.91-.22-1.22 0-.33 0-.8.22-1.19.23-.39.64-.58.98-.58.38 0 .75.2.97.56.23.38.23.88.23 1.2z"/>
  </symbol>
  <symbol id="ad" class="B">
   <path d="M3.14-3.3c0-.27-.27-.52-.64-.52-.62 0-.94.58-1.06.94v-.94l-1.2.09v.27c.61 0 .69.06.69.48v2.31c0 .39-.09.39-.69.39V0l1-.03L2.33 0v-.27h-.19c-.64 0-.66-.09-.66-.41V-2c0-.86.36-1.62 1.02-1.62h.09c-.02.02-.19.11-.19.34s.17.38.38.38c.14 0 .36-.11.36-.39z"/>
  </symbol>
  <symbol id="ao" class="B">
   <path d="M7.03 0v-.27c-.45 0-.67 0-.69-.27v-1.64c0-.75 0-1.02-.27-1.33-.11-.14-.41-.31-.91-.31-.72 0-1.11.52-1.25.84-.12-.75-.77-.84-1.14-.84-.64 0-1.05.36-1.28.91v-.91l-1.22.09v.27c.59 0 .67.06.67.48v2.31c0 .39-.09.39-.67.39V0l.97-.03.97.03v-.27c-.58 0-.67 0-.67-.39v-1.59c0-.89.61-1.37 1.17-1.37.53 0 .64.47.64.95v2.02c0 .39-.11.39-.69.39V0l.98-.03.97.03v-.27c-.58 0-.67 0-.67-.39v-1.59c0-.89.61-1.37 1.16-1.37s.64.47.64.95v2.02c0 .39-.09.39-.67.39V0l.98-.03z"/>
  </symbol>
  <symbol id="ac" class="B">
   <path d="M4.17-.77v-.48h-.22v.48c0 .5-.22.55-.31.55-.28 0-.31-.39-.31-.42v-1.73c0-.36 0-.7-.31-1.02-.34-.34-.77-.48-1.19-.48-.7 0-1.3.41-1.3.98 0 .25.17.41.39.41.25 0 .41-.17.41-.41 0-.09-.05-.39-.45-.39.23-.3.66-.41.94-.41.42 0 .92.34.92 1.11v.33c-.44.02-1.05.05-1.59.31C.5-1.66.28-1.2.28-.83c0 .7.83.92 1.38.92A1.2 1.2 0 0 0 2.8-.66c.03.34.27.7.67.7.17 0 .7-.11.7-.81zM2.73-1.2c0 .81-.62 1.11-1.02 1.11-.42 0-.78-.3-.78-.73 0-.48.37-1.19 1.8-1.25z"/>
  </symbol>
  <symbol id="ab" class="B">
   <path d="M2.88-1.08v-.48h-.22v.47c0 .64-.27.97-.58.97-.58 0-.58-.78-.58-.92v-2.41h1.23v-.27H1.5v-1.59h-.22c-.02.7-.27 1.63-1.11 1.67v.19h.73v2.38C.91-.02 1.7.09 2.02.09c.61 0 .86-.61.86-1.17z"/>
  </symbol>
  <symbol id="av" class="B">
   <path d="M4.5-1.86c0-1.11-.84-1.95-1.8-1.95-.69 0-1.05.38-1.22.56v-.56l-1.25.09v.27c.63 0 .69.05.69.42v4.05c0 .39-.09.39-.69.39v.27l.97-.02.98.02v-.27c-.58 0-.67 0-.67-.39V-.51c.05.14.41.61 1.06.61C3.61.09 4.5-.75 4.5-1.86zm-.72 0c0 1.03-.59 1.77-1.23 1.77-.36 0-.69-.17-.91-.53-.12-.17-.12-.19-.12-.36v-1.92c.25-.45.67-.7 1.11-.7.63 0 1.16.77 1.16 1.75z"/>
  </symbol>
  <symbol id="am" class="B">
   <path d="m4.63 0v-.27c-.61 0-.67-.06-.67-.48v-3.06l-1.28.09v.27c.61 0 .69.06.69.48v1.53c0 .75-.42 1.34-1.05 1.34-.73 0-.77-.41-.77-.86v-2.86l-1.27.09v.27c.67 0 .67.02.67.8v1.3c0 .67 0 1.45 1.31 1.45.48 0 .86-.23 1.11-.78v.78z"/>
  </symbol>
  <symbol id="az" class="B">
   <path d="M4.55 0v-.27c-.59 0-.67-.06-.67-.48V-6l-1.23.09v.27c.59 0 .67.06.67.48v1.88c-.25-.31-.62-.53-1.09-.53C1.2-3.81.3-2.97.3-1.86.3-.77 1.14.09 2.12.09a1.5 1.5 0 0 0 1.16-.56v.56zM3.28-1.02c0 .16 0 .17-.09.31-.27.42-.64.61-1.02.61-.39 0-.7-.22-.91-.55-.23-.36-.25-.86-.25-1.2 0-.33.02-.84.27-1.23.17-.27.5-.55.97-.55a1.1 1.1 0 0 1 .94.52c.09.14.09.16.09.31z"/>
  </symbol>
  <symbol id="ce" class="B">
   <path d="M4.39-3.45v-.27c-.2.02-.45.02-.66.02l-.75-.02v.27c.33 0 .42.2.42.38 0 .08-.02.11-.05.2l-.89 2.2-.97-2.41c-.05-.12-.05-.16-.05-.16 0-.22.33-.22.48-.22v-.27L1-3.7c-.23 0-.58 0-.83-.02v.27c.53 0 .58.05.69.31L2.09-.06c.06.11.08.16.19.16s.14-.08.19-.16l1.13-2.81c.08-.2.22-.58.8-.58z"/>
  </symbol>
  <symbol id="bi" class="B">
   <path d="M4.45 0v-.27c-.47 0-.61-.02-.81-.27l-1.16-1.5.8-.97c.27-.31.61-.45 1.02-.45v-.27c-.22.02-.48.02-.7.02-.27 0-.72-.02-.83-.02v.27c.19.02.25.13.25.27s-.09.25-.12.3l-.55.67-.67-.86c-.08-.09-.08-.11-.08-.16 0-.14.14-.22.31-.22v-.27l-.94.02c-.19 0-.59 0-.83-.02v.27c.61 0 .63 0 1.03.53l.84 1.11L1.2-.78C.8-.28.28-.27.11-.27V0l.72-.03.81.03v-.27c-.19-.03-.25-.14-.25-.27 0-.19.25-.48.78-1.11l.66.88c.06.09.17.23.17.28 0 .08-.08.2-.3.22V0l.92-.03.83.03z"/>
  </symbol>
  <symbol id="an" class="B">
   <path d="M3.58-1.03c0-.08-.08-.08-.11-.08-.08 0-.09.03-.11.08-.25.81-.81.91-1.12.91-.47 0-1.22-.37-1.22-1.77 0-1.41.7-1.77 1.16-1.77.08 0 .63.02.94.33-.36.02-.41.28-.41.39 0 .22.14.39.39.39.22 0 .39-.14.39-.41 0-.58-.66-.92-1.31-.92C1.09-3.88.3-2.94.3-1.86.3-.77 1.16.09 2.16.09a1.4 1.4 0 0 0 1.42-1.12z"/>
  </symbol>
  <symbol id="bq" class="B">
   <path d="M2.39-1.61v-.5H.09v.5z"/>
  </symbol>
  <symbol id="bh" class="B">
   <path d="M4.19-3.48c0-.16-.09-.44-.44-.44-.17 0-.55.06-.92.41-.36-.28-.72-.3-.91-.3-.81 0-1.41.59-1.41 1.25 0 .39.19.72.41.89-.11.14-.27.42-.27.72 0 .27.11.59.38.77-.52.16-.8.53-.8.88 0 .63.86 1.09 1.92 1.09 1.02 0 1.91-.44 1.91-1.11 0-.31-.11-.75-.55-.98-.47-.25-.97-.25-1.5-.25h-.64C1.09-.61.92-.87.92-1.16c0-.03 0-.22.14-.41.34.25.69.28.86.28.8 0 1.39-.61 1.39-1.27 0-.33-.12-.64-.34-.84.31-.3.61-.33.77-.33h.09c-.09.03-.14.14-.14.23 0 .16.11.25.25.25.09 0 .25-.06.25-.25zm-1.52.92c0 .23-.02.52-.14.73-.06.09-.27.34-.61.34-.75 0-.75-.86-.75-1.06 0-.23 0-.52.14-.73.06-.09.27-.34.61-.34.75 0 .75.88.75 1.06zM3.63.69c0 .47-.62.89-1.47.89-.87 0-1.47-.44-1.47-.89 0-.41.33-.72.72-.75h.5c.75 0 1.72 0 1.72.75z"/>
  </symbol>
  <symbol id="as" class="B">
   <path d="M4.5-1.86c0-1.11-.84-1.95-1.83-1.95-.67 0-1.05.41-1.19.56V-6l-1.25.09v.27c.61 0 .69.06.69.48V0h.2l.31-.53c.14.19.5.63 1.14.63C3.61.09 4.5-.75 4.5-1.86zm-.72-.02c0 .31-.02.84-.27 1.23-.19.27-.52.55-.97.55-.39 0-.7-.2-.91-.53-.12-.17-.12-.2-.12-.36v-1.78c0-.16 0-.17.09-.31.33-.48.81-.55 1.02-.55.39 0 .7.22.91.55.23.36.25.84.25 1.2z"/>
  </symbol>
  <symbol id="bp" class="B">
   <path d="M4.39-3.45v-.27c-.2.02-.45.02-.66.02l-.75-.02v.27c.27 0 .41.16.41.38 0 .08 0 .09-.05.2L2.47-.75l-.95-2.33c-.03-.08-.06-.12-.06-.16 0-.22.33-.22.48-.22v-.27L1-3.7c-.23 0-.58 0-.83-.02v.27c.41 0 .58 0 .69.3L2.16 0l-.22.52c-.19.47-.42 1.06-.98 1.06-.03 0-.23 0-.41-.16.28-.03.34-.22.34-.36C.89.84.72.7.53.7.36.7.17.81.17 1.08c0 .38.36.69.78.69.55 0 .91-.48 1.11-.98l1.52-3.69c.23-.55.67-.55.81-.55z"/>
  </symbol>
  <symbol id="cd" class="B">
   <path d="M4.42 0v-.27c-.33 0-.52 0-.84-.45L2.48-2.27c-.02-.03-.06-.08-.06-.11s.63-.55.7-.61c.55-.45.91-.47 1.09-.47v-.27l-.61.02c-.31 0-.84-.02-.97-.02v.27c.17 0 .25.09.25.22 0 .17-.11.27-.19.33L1.48-1.84V-6l-1.25.09v.27c.61 0 .69.06.69.48v4.5c0 .39-.09.39-.69.39V0l.95-.03.95.03v-.27c-.58 0-.69 0-.69-.39v-.89l.56-.47L3.05-.47c0 .17-.16.2-.31.2V0l.92-.03.77.03z"/>
  </symbol>
  <symbol id="cr" class="B">
   <path d="M6.08-3.45v-.27c-.19.02-.44.02-.64.02l-.8-.02v.27c.31 0 .5.16.5.41 0 .06 0 .08-.05.19L4.31-.64l-.86-2.42c-.03-.09-.05-.12-.05-.16 0-.23.34-.23.52-.23v-.27l-.89.02c-.27 0-.52 0-.78-.02v.27c.33 0 .47.02.55.13.05.05.14.31.2.48L2.25-.77l-.81-2.3c-.05-.11-.05-.12-.05-.16 0-.23.34-.23.52-.23v-.27l-.95.02-.8-.02v.27c.44 0 .53.02.64.3L1.89-.09c.03.13.06.19.17.19s.13-.05.17-.17l.88-2.44.88 2.45c.05.09.06.16.19.16.11 0 .13-.08.17-.16l1-2.84c.16-.42.42-.55.73-.55z"/>
  </symbol>
  <symbol id="cc" class="B">
   <path d="M4.63 0v-.27c-.45 0-.67 0-.67-.27v-1.64c0-.75 0-1.02-.27-1.33-.12-.14-.41-.31-.91-.31-.73 0-1.11.52-1.25.83h-.02V-6l-1.23.09v.27c.59 0 .67.06.67.48v4.5c0 .39-.09.39-.67.39V0l.97-.03.97.03v-.27c-.58 0-.67 0-.67-.39v-1.59c0-.89.61-1.37 1.17-1.37.53 0 .64.47.64.95v2.02c0 .39-.11.39-.69.39V0l.98-.03z"/>
  </symbol>
  <symbol id="da" class="B">
   <path d="M4.55 0v-.27c-.58 0-.67 0-.67-.39v-3.17l-1.08.08-.16.02c-.02.02-.05.02-.16.02H1.45v-.98c0-.86.75-1.2 1.28-1.2.27 0 .58.09.75.3-.36.02-.41.25-.41.39 0 .28.22.39.39.39.19 0 .39-.12.39-.39 0-.52-.47-.87-1.11-.87-.81 0-1.83.44-1.83 1.39v.98H.24v.27h.69v2.8c0 .39-.09.39-.69.39V0l.97-.03.95.03v-.27c-.58 0-.67 0-.67-.39v-2.8h1.36c.41 0 .47.11.47.47v2.33c0 .39-.09.39-.67.39V0l.95-.03z"/>
  </symbol>
  <symbol id="be" class="B">
   <path d="m4.31-1.61c0-.86-.58-1.58-1.3-1.75l-1.11-.27c-.53-.12-.87-.59-.87-1.09 0-.61.47-1.12 1.14-1.12 1.45 0 1.64 1.41 1.69 1.8.02.06.02.11.11.11.11 0 .11-.05.11-.2v-1.75c0-.14 0-.2-.09-.2-.06 0-.06.02-.12.11l-.31.5c-.25-.25-.61-.61-1.37-.61-.97 0-1.69.77-1.69 1.67 0 .72.45 1.36 1.13 1.59.09.03.55.13 1.14.28.23.06.5.13.73.44.19.22.28.52.28.8 0 .61-.44 1.23-1.17 1.23-.25 0-.91-.05-1.36-.47-.51-.48-.55-1.02-.55-1.33-.01-.1-.07-.1-.11-.1-.11 0-.11.06-.11.22v1.73c0 .14 0 .2.09.2.07.01.07-.01.13-.1 0 0 .03-.03.31-.5.27.3.83.61 1.59.61 1.02 0 1.7-.84 1.7-1.8z"/>
  </symbol>
  <symbol id="cq" class="B">
   <path d="M6.19 0v-.27h-.2c-.67 0-.69-.09-.69-.41v-4.56c0-.3.02-.41.69-.41h.2v-.27c-.3.03-.94.03-1.27.03s-.98 0-1.28-.03v.27h.2c.67 0 .69.11.69.41v2.03H1.94v-2.03c0-.3.03-.41.69-.41h.2v-.27c-.3.03-.94.03-1.27.03s-.97 0-1.28-.03v.27H.5c.66 0 .67.11.67.41v4.56c0 .31-.02.41-.67.41H.28V0c.31-.03.95-.03 1.28-.03L2.83 0v-.27h-.2c-.66 0-.69-.09-.69-.41v-2.27h2.59v2.27c0 .31-.02.41-.69.41h-.2V0c.3-.03.94-.03 1.27-.03L6.19 0z"/>
  </symbol>
  <symbol id="ay" class="B">
   <path d="M6.19 0v-.27h-.14c-.53 0-.64-.06-.73-.34L3.44-6.02c-.05-.11-.06-.17-.2-.17-.12 0-.16.05-.2.17L1.25-.84c-.16.44-.5.56-.97.58V0l.87-.03 1 .03v-.27c-.44 0-.66-.22-.66-.44 0-.03.02-.12.02-.14l.41-1.12h2.13l.47 1.33c0 .03.02.08.02.11 0 .27-.48.27-.72.27V0c.31-.03.92-.03 1.25-.03zM3.95-2.23H2.02l.97-2.81z"/>
  </symbol>
  <symbol id="ar" class="B">
   <path d="M5.39-4.3c0-.84-.86-1.61-2.03-1.61H.3v.27h.22c.66 0 .67.11.67.41v4.56c0 .31-.02.41-.67.41H.3V0c.31-.03.95-.03 1.28-.03L2.85 0v-.27h-.2c-.66 0-.67-.09-.67-.41v-2.06h1.45c1.03 0 1.97-.7 1.97-1.56zm-.89 0c0 .41 0 1.34-1.37 1.34H1.94v-2.33c0-.3.02-.36.42-.36h.77c1.38 0 1.38.92 1.38 1.34z"/>
  </symbol>
  <symbol id="ak" class="B">
   <path d="m3.86-1.67c0-.67-.52-1.17-1.11-1.5l-.77-.44c-.42-.23-.8-.58-.8-1.05 0-.59.36-1.12.91-1.12.48 0 .86.36 1 .83-.03 0-.08-.02-.12-.02-.22 0-.39.19-.39.39a.4.4 0 00.39.41c.22 0 .41-.19.41-.41 0-.83-.5-1.59-1.28-1.59-.81 0-1.42.69-1.42 1.52a1.7 1.7 0 00.34 1.02c-.39.23-.7.56-.7 1 0 .66.53 1.16 1.11 1.48l.77.44c.44.23.81.59.81 1.06 0 .58-.36 1.11-.91 1.11-.5 0-.86-.36-1-.83.03.02.08.02.11.02a.4.4 0 00.41-.39.4.4 0 00-.41-.39c-.21-.01-.4.16-.4.38 0 .84.5 1.61 1.28 1.61.8 0 1.42-.69 1.42-1.52 0-.37-.12-.72-.36-1.02.39-.23.7-.56.7-1zm-.67 0c0 .3-.03.61-.19.81-.16-.14-.33-.27-.52-.39l-.77-.42c-.37-.22-.71-.55-.71-.97 0-.3.02-.61.19-.81.14.14.31.27.5.38l.78.44c.38.22.72.53.72.97z"/>
  </symbol>
  <symbol id="bg" class="B">
   <path d="M3.95-1.77c0-1.09-.77-1.92-1.73-1.92-.58 0-.91.44-1.08.86v-.22c0-2.19 1.08-2.48 1.52-2.48.2 0 .56.05.75.34-.12 0-.47 0-.47.39 0 .27.2.39.39.39.14 0 .41-.08.41-.42 0-.52-.37-.92-1.09-.92C1.53-5.75.36-4.64.36-2.73.36-.42 1.36.19 2.17.19c.95 0 1.78-.81 1.78-1.95zm-.78 0c0 .41 0 .84-.14 1.16-.27.52-.66.56-.86.56-.55 0-.81-.52-.86-.66-.16-.41-.16-1.09-.16-1.25 0-.67.28-1.53 1.06-1.53.13 0 .53 0 .8.53.16.31.16.77.16 1.19z"/>
  </symbol>
  <symbol id="aj" class="B">
   <path d="m1.66-.45c0-.25-.2-.47-.45-.47s-.46.22-.46.47.2.45.45.45.45-.2.45-.45z"/>
  </symbol>
  <symbol id="bo" class="B">
   <path d="M4.06-1.42v-.27H3.2v-3.94c0-.17 0-.22-.14-.22-.08 0-.09 0-.17.09L.23-1.69v.27h2.31v.75c0 .31-.03.41-.66.41H1.7V0c.36-.03.8-.03 1.17-.03L4.05 0v-.27h-.19c-.64 0-.66-.09-.66-.41v-.75zm-1.47-.27H.48l2.11-3.23z"/>
  </symbol>
  <symbol id="cb" class="B">
   <path d="M5.03-2.23h-.22c-.09.89-.22 1.97-1.73 1.97h-.7c-.41 0-.44-.06-.44-.34v-4.61c0-.3 0-.42.83-.42h.28v-.27c-.31.03-1.09.03-1.45.03-.33 0-1 0-1.31-.03v.27H.5c.66 0 .67.11.67.41v4.56c0 .31-.02.41-.67.41H.28V0h4.5z"/>
  </symbol>
  <symbol id="bd" class="B">
   <path d="M2.88 0v-.27h-.22c-.69 0-.72-.09-.72-.41v-4.56c0-.3.03-.41.72-.41h.22v-.27c-.3.03-.98.03-1.31.03s-1.02 0-1.33-.03v.27h.23c.69 0 .7.11.7.41v4.56c0 .31-.02.41-.7.41H.23V0c.31-.03 1-.03 1.33-.03L2.88 0z"/>
  </symbol>
  <symbol id="ca" class="B">
   <path d="M7.59 0v-.27h-.2c-.67 0-.69-.09-.69-.41v-4.56c0-.3.02-.41.69-.41h.2v-.27H6.14c-.23 0-.23.02-.3.17L3.95-.87 2.08-5.72c-.08-.19-.09-.19-.3-.19H.31v.27h.22c.66 0 .67.11.67.41v4.33c0 .23 0 .64-.89.64V0l1.02-.03L2.34 0v-.27c-.89 0-.89-.41-.89-.64v-4.66L3.55-.19c.03.11.08.19.17.19s.13-.06.16-.17L6-5.64v4.97c0 .31-.02.41-.67.41h-.22V0c.33-.03.91-.03 1.25-.03L7.59 0z"/>
  </symbol>
  <symbol id="aq" class="B">
   <path d="M5.64-2.23h-.22C5.2-.91 5-.26 3.52-.26H2.38c-.41 0-.44-.06-.44-.34v-2.31h.78c.84 0 .94.28.94 1.02h.22v-2.3h-.22c0 .75-.09 1.02-.94 1.02h-.78v-2.08c0-.28.03-.34.44-.34h1.11c1.31 0 1.55.48 1.69 1.67h.22l-.23-1.94H.28v.27H.5c.66 0 .67.09.67.41v4.53c0 .31-.02.41-.67.41H.28V0h4.98z"/>
  </symbol>
  <symbol id="cp" class="B">
   <path d="m3.95-1.48c0-.7-.55-1.37-1.45-1.56.72-.23 1.22-.83 1.22-1.52 0-.7-.77-1.19-1.59-1.19-.87 0-1.53.52-1.53 1.17 0 .28.19.45.44.45.28 0 .45-.19.45-.45-.01-.42-.41-.42-.55-.42.27-.42.84-.53 1.16-.53.34 0 .83.19.83.95 0 .11-.02.61-.25 1-.25.41-.55.44-.77.44-.06.02-.27.03-.33.03-.08 0-.14.02-.14.11s.06.09.22.09h.38c.7 0 1.03.58 1.03 1.42 0 1.19-.59 1.44-.98 1.44s-1.03-.15-1.32-.65c.3.03.56-.16.56-.48 0-.31-.23-.48-.48-.48-.2 0-.48.13-.48.5 0 .8.81 1.36 1.75 1.36 1.05 0 1.84-.78 1.84-1.67z"/>
  </symbol>
  <symbol id="bn" class="B">
   <path d="m1.75-.02c0-.55-.2-.91-.55-.91-.3 0-.45.23-.45.47 0 .22.14.45.45.45.13 0 .25-.05.34-.14.02.69-.22 1.22-.61 1.63-.05.05-.06.05-.06.09 0 .06.05.09.09.09.11 0 .78-.69.78-1.69z"/>
  </symbol>
  <symbol id="co" class="B">
   <path d="m3.88-1.73c0-1.03-.7-1.89-1.64-1.89-.41 0-.78.14-1.09.44v-1.69c.17.05.45.11.73.11 1.06 0 1.67-.78 1.67-.89 0-.06-.03-.09-.09-.09 0 0-.02 0-.06.02-.17.08-.59.25-1.17.25-.36 0-.75-.05-1.16-.23-.07-.05-.12-.05-.12-.05-.08 0-.08.08-.08.22v2.55c0 .16 0 .23.13.23.05 0 .08-.03.11-.08.09-.14.41-.61 1.11-.61.45 0 .67.39.73.55.14.33.16.66.16 1.09 0 .3 0 .83-.2 1.19a1.1 1.1 0 01-.92.56c-.65 0-1.13-.47-1.29-.97.03 0 .06.02.16.02.28 0 .42-.22.42-.42a.4.4 0 00-.42-.42c-.12 0-.42.06-.42.45 0 .75.59 1.58 1.56 1.58a1.9 1.9 0 001.88-1.92z"/>
  </symbol>
  <symbol id="bm" class="B">
   <path d="M6.34-2.09v-.27l-1.05.03c-.34 0-1.08 0-1.39-.03v.27h.28c.77 0 .8.09.8.42v.55c0 .97-1.09 1.05-1.34 1.05-.56 0-2.27-.3-2.27-2.87s1.7-2.87 2.22-2.87c.92 0 1.72.78 1.89 2.05.02.13.02.16.13.16.14 0 .14-.03.14-.22v-2.05c0-.14 0-.2-.09-.2-.03 0-.06 0-.14.11l-.42.64c-.28-.28-.75-.75-1.61-.75a3.1 3.1 0 0 0-3 3.14C.48-1.19 1.86.19 3.52.19c.62 0 1.31-.22 1.61-.73.11.19.45.53.55.53.08 0 .08-.06.08-.19v-1.5c0-.34.05-.39.59-.39z"/>
  </symbol>
  <symbol id="ai" class="B">
   <path d="M3.63 0v-.27h-.28c-.78 0-.8-.09-.8-.42v-4.84c0-.2 0-.22-.2-.22-.53.55-1.3.55-1.58.55v.27c.17 0 .69 0 1.14-.22v4.47c0 .31-.03.42-.81.42H.83V0c.3-.03 1.05-.03 1.39-.03L3.63 0z"/>
  </symbol>
  <symbol id="ap" class="B">
   <path d="M3.88-1.5h-.22c-.03.25-.09.64-.19.77-.06.06-.62.06-.81.06H1.09l.92-.89c1.34-1.19 1.86-1.66 1.86-2.52 0-.98-.77-1.67-1.83-1.67A1.6 1.6 0 0 0 .44-4.19c0 .48.42.48.45.48.14 0 .45-.11.45-.47 0-.22-.16-.44-.47-.44H.77c.2-.56.67-.87 1.17-.87.78 0 1.16.7 1.16 1.41 0 .69-.44 1.38-.91 1.91L.53-.31C.44-.22.44-.2.44 0h3.2z"/>
  </symbol>
  <symbol id="cn" class="B">
   <path d="m4.19-5.56h-2.1c-1.06 0-1.08-.11-1.11-.28h-.21l-.29 1.78h.22c.02-.14.09-.69.22-.78.05-.06.73-.06.84-.06h1.78l-.97 1.38a6.1 6.1 0 00-1.05 3.24c0 .08 0 .47.41.47.39 0 .39-.39.39-.47v-.44a10.7 10.7 0 01.09-1.42 3.7 3.7 0 01.55-1.48l1.16-1.64c.08-.09.08-.12.08-.3z"/>
  </symbol>
  <symbol id="bz" class="B">
   <path d="M5.27-3.94l-.23-1.94H.28v.27H.5c.66 0 .67.09.67.41v4.53c0 .31-.02.41-.67.41H.28V0c.31-.03.98-.03 1.31-.03L3.05 0v-.27h-.28c-.83 0-.83-.11-.83-.42v-2.12h.75c.83 0 .92.28.92 1.02h.2v-2.3h-.2c0 .73-.09 1.02-.92 1.02h-.75v-2.19c0-.28.03-.34.44-.34h1.03c1.3 0 1.52.48 1.66 1.67z"/>
  </symbol>
  <symbol id="cz" class="B">
   <path d="M4.55 0v-.27c-.58 0-.67 0-.67-.39V-6l-.31.06c-.03 0-.03-.02-.08-.03-.27-.12-.62-.12-.72-.12-.91 0-1.84.48-1.84 1.39v.98H.23v.27h.69v2.8c0 .39-.09.39-.69.39V0l.97-.03.95.03v-.27c-.58 0-.67 0-.67-.39v-2.8h1.83v2.8c0 .39-.09.39-.67.39V0l.95-.03zM3.31-3.72H1.45v-.98c0-.8.66-1.2 1.3-1.2a1.9 1.9 0 0 1 .56.08c-.08.03-.22.13-.22.34 0 .16.06.3.22.34z"/>
  </symbol>
  <symbol id="cm" class="B">
   <path d="M3.95-1.45c0-.31-.09-.7-.42-1.06-.17-.19-.31-.27-.86-.61.63-.33 1.05-.77 1.05-1.34 0-.8-.77-1.28-1.56-1.28-.86 0-1.56.64-1.56 1.44 0 .16.02.55.38.95.11.11.42.31.64.47-.5.25-1.25.73-1.25 1.58 0 .92.89 1.5 1.8 1.5.97 0 1.8-.72 1.8-1.64zm-.62-3.02c0 .5-.33.91-.84 1.22l-1.08-.7c-.39-.25-.44-.55-.44-.7 0-.52.56-.87 1.19-.87s1.17.44 1.17 1.06zm.19 3.33c0 .64-.64 1.09-1.36 1.09C1.42-.05.8-.59.8-1.31c0-.5.28-1.05 1.02-1.45l1.06.67c.23.17.64.42.64.95z"/>
  </symbol>
  <symbol id="by" class="B">
   <path d="M6.33-.77c0-.05 0-.14-.11-.14-.09 0-.09.08-.11.14-.05.61-.36.77-.58.77-.42 0-.48-.44-.61-1.25l-.11-.69c-.16-.55-.58-.84-1.05-1 .83-.2 1.5-.73 1.5-1.41 0-.83-.98-1.56-2.25-1.56H.3v.27h.22c.66 0 .67.11.67.41v4.56c0 .31-.02.41-.67.41H.3V0c.31-.03.94-.03 1.27-.03L2.83 0v-.27h-.2c-.67 0-.69-.09-.69-.41v-2.19h.98c.14 0 .52 0 .81.3.33.31.33.58.33 1.16 0 .56 0 .91.36 1.23.34.31.83.36 1.08.36.67 0 .83-.7.83-.95zM4.38-4.34c0 .59-.2 1.3-1.48 1.3h-.95v-2.23c0-.2 0-.31.19-.33.09-.03.34-.03.52-.03.77 0 1.73.05 1.73 1.3z"/>
  </symbol>
  <symbol id="bx" class="B">
   <path d="M6.19-5.64v-.27l-1.02.03-1-.03v.27c.89 0 .89.41.89.64v3.69L2-5.8c-.08-.09-.08-.11-.25-.11H.28v.27h.25c.14 0 .31.02.44.03.2.02.2.03.2.19v4.52c0 .23 0 .64-.89.64V0L1.3-.03 2.31 0v-.27c-.89 0-.89-.41-.89-.64v-4.5l.08.11L5.03-.11c.08.09.08.11.14.11.13 0 .13-.06.13-.22V-5c0-.23 0-.64.89-.64z"/>
  </symbol>
  <symbol id="cl" class="B">
   <path d="M1.81.44v-4.25L.5-3.72v.27c.67 0 .75.06.75.48V.45c0 .39-.08 1.13-.64 1.13-.05 0-.23 0-.47-.11.14-.03.31-.16.31-.39C.45.86.3.69.05.69c-.23 0-.39.17-.39.39 0 .45.48.69.97.69.66 0 1.19-.55 1.19-1.33zm0-5.66c0-.23-.2-.45-.45-.45-.3 0-.47.23-.47.45 0 .23.2.45.45.45.3 0 .47-.23.47-.45z"/>
  </symbol>
  <symbol id="ck" class="B">
   <path d="m3.95-2.84c0-2.33-1-2.91-1.77-2.91-.48 0-.91.16-1.27.55a1.8 1.8 0 00-.56 1.39c0 1.08.77 1.92 1.73 1.92.53 0 .88-.36 1.08-.86v.28c0 2.02-.91 2.42-1.41 2.42-.14 0-.61-.02-.84-.31.39 0 .45-.25.45-.41 0-.27-.2-.39-.41-.39-.12 0-.39.08-.39.41 0 .58.47.94 1.2.94 1.11 0 2.17-1.17 2.17-3.03zm-.8-.8c0 .72-.3 1.56-1.06 1.56-.12 0-.53 0-.8-.55-.16-.33-.16-.75-.16-1.17 0-.47 0-.87.19-1.2.23-.42.56-.53.86-.53.39 0 .69.28.83.67.11.28.14.83.14 1.22z"/>
  </symbol>
  <symbol id="cj" class="B">
   <path d="m5.75-2.02c0-.08 0-.14-.11-.14s-.11.05-.11.14c-.08 1.23-1 1.94-1.94 1.94-.53 0-2.22-.3-2.22-2.87s1.69-2.87 2.2-2.87c.95 0 1.72.8 1.89 2.05.02.13.02.16.14.16.14 0 .14-.03.14-.22v-2.05c0-.14 0-.2-.09-.2-.05 0-.08 0-.14.11l-.44.64c-.31-.31-.77-.75-1.59-.75-1.61 0-3 1.38-3 3.14 0 1.78 1.41 3.14 3 3.14 1.42 0 2.27-1.2 2.27-2.2z"/>
  </symbol>
  <symbol id="dn" class="B">
   <path d="m3.97-2.77c0-.69-.03-1.37-.34-2.02a1.6 1.6 0 00-1.47-.97c-.52 0-1.14.22-1.5 1.03-.28.59-.31 1.27-.31 1.95 0 .66.03 1.42.38 2.08a1.6 1.6 0 001.44.88c.47 0 1.13-.17 1.5-1 .28-.59.31-1.27.31-1.95zm-.72-.11c0 .66 0 1.23-.09 1.8-.12.81-.61 1.08-1 1.08-.34 0-.84-.22-1-1.05-.11-.52-.11-1.31-.11-1.83 0-.55 0-1.11.08-1.58.16-1.03.81-1.11 1.03-1.11.28 0 .84.16 1.02 1.02.08.48.08 1.14.08 1.67z"/>
  </symbol>
  <symbol id="dm" class="B">
   <path d="M5.63-1.58c0-.75-.7-1.41-1.67-1.5.84-.17 1.44-.72 1.44-1.36 0-.75-.8-1.47-1.92-1.47H.31v.27h.2c.67 0 .69.11.69.41v4.56c0 .31-.02.41-.69.41h-.2V0H3.7c1.14 0 1.92-.77 1.92-1.58zM4.55-4.44a1.3 1.3 0 0 1-1.37 1.28H1.92v-2.12c0-.3.02-.36.42-.36h1.06c.84 0 1.14.73 1.14 1.2zm.22 2.84c0 .63-.45 1.33-1.34 1.33H2.34c-.41 0-.42-.06-.42-.34v-2.36h1.63c.84 0 1.22.8 1.22 1.38z"/>
  </symbol>
  <symbol id="dl" class="B">
   <path d="M5.92-3.91l-.17-1.94H.47L.31-3.91h.22C.64-5.3.78-5.58 2.08-5.58l.47.02c.19.03.19.13.19.33v4.55c0 .3 0 .42-.91.42h-.34V0c.34-.03 1.23-.03 1.63-.03L4.75 0v-.27h-.34c-.91 0-.91-.12-.91-.42v-4.55c0-.17 0-.3.16-.33.09-.02.33-.02.48-.02 1.31 0 1.44.28 1.56 1.67z"/>
  </symbol>
  <symbol id="dk" class="B">
   <path d="M0 2.2h.27c0-.58 0-.67.39-.67H6L5.91.28h-.27c0 .61-.06.67-.48.67H.66C.27.95.27.86.27.28H0l.03.97z"/>
  </symbol>
  <symbol id="ci" class="B">
   <path d="m1.84 4.06c1.11 0 2.03-.86 2.03-1.91 0-1.08-.95-1.92-2.03-1.92-1.11 0-1.94.91-1.94 1.92 0 1.05.84 1.91 1.94 1.91zm.08-.7c-.31 0-.78 0-1.16-.2a1.1 1.1 0 01-.64-1c0-.37.17-.75.58-.98.38-.22.91-.22 1.22-.22.33 0 .8 0 1.19.22.39.23.58.64.58.98 0 .38-.2.75-.56.97-.37.23-.87.23-1.2.23z"/>
  </symbol>
  <symbol id="dj" class="B">
   <path d="M3.45 6.08h.27l-.02-.64.02-.8h-.27c0 .31-.16.5-.41.5-.06 0-.08 0-.19-.05L.64 4.31l2.42-.86c.09-.03.13-.05.16-.05.23 0 .23.34.23.52h.27l-.02-.89.02-.78h-.27c0 .33-.02.47-.12.55-.05.05-.31.14-.48.2L.77 2.25l2.3-.81c.11-.05.13-.05.16-.05.23 0 .23.34.23.52h.27L3.7.95l.02-.8h-.27c0 .44-.02.53-.3.64L.09 1.89c-.12.03-.19.06-.19.17s.05.13.17.17l2.44.88-2.45.88c-.09.05-.16.06-.16.19 0 .11.08.13.16.17l2.84 1c.42.16.55.42.55.73z"/>
  </symbol>
  <symbol id="cy" class="B">
   <path d="M1.03 3.58c.08 0 .09-.06.09-.11 0-.08-.05-.09-.11-.11-.89-.3-.89-1.08-.89-1.17 0-.42.25-.77.58-.97.41-.27.98-.27 1.3-.27v2.42c0 .19 0 .2.17.2.86 0 1.7-.45 1.7-1.53 0-1.02-.89-1.81-1.97-1.81-1.16 0-2 .92-2 1.91 0 1.06.95 1.44 1.13 1.44zm1.14-.56V.97c1.3.05 1.52.78 1.52 1.08 0 .88-1.17.97-1.52.97z"/>
  </symbol>
  <symbol id="bw" class="B">
   <path d="M3.3 3.14c.27 0 .52-.27.52-.64 0-.62-.58-.94-.94-1.06h.94L3.72.24h-.27c0 .61-.06.69-.48.69H.66C.27.92.27.83.27.24H0l.03 1L0 2.33h.27v-.19c0-.64.09-.66.41-.66H2c.86 0 1.63.36 1.63 1.02v.09c-.02-.02-.11-.19-.34-.19s-.37.17-.37.38c0 .14.11.36.39.36z"/>
  </symbol>
  <symbol id="bv" class="B">
   <path d="M.77 4.17h.48v-.22H.77c-.5 0-.55-.22-.55-.31 0-.28.39-.31.42-.31h1.73c.36 0 .7 0 1.02-.31.34-.34.48-.77.48-1.19 0-.7-.41-1.3-.98-1.3-.25 0-.41.17-.41.39 0 .25.17.41.41.41.09 0 .39-.05.39-.45.3.23.41.66.41.94 0 .42-.34.92-1.11.92h-.33c-.02-.44-.05-1.05-.31-1.59C1.66.5 1.2.28.83.28c-.7 0-.92.83-.92 1.38A1.2 1.2 0 0 0 .66 2.8c-.34.03-.7.27-.7.67 0 .17.11.7.81.7zm.44-1.44C.39 2.73.09 2.11.09 1.72c0-.42.3-.78.73-.78.48 0 1.19.37 1.25 1.8z"/>
  </symbol>
  <symbol id="cx" class="B">
   <path d="M1.86 4.5c1.11 0 1.95-.84 1.95-1.83 0-.67-.41-1.05-.56-1.19H6L5.91.23h-.27c0 .61-.06.69-.48.69H0v.2l.53.31c-.19.14-.62.5-.62 1.14 0 1.03.84 1.92 1.95 1.92zm.02-.72c-.31 0-.84-.02-1.23-.27C.38 3.33.09 3 .09 2.55c0-.39.2-.7.53-.91.17-.12.2-.12.36-.12h1.78c.16 0 .17 0 .31.09.48.33.55.81.55 1.02 0 .39-.22.7-.55.91-.36.23-.84.25-1.2.25z"/>
  </symbol>
  <symbol id="cw" class="B">
   <path d="M1.11 3.11c.45 0 .72-.27.81-.36.28-.28.34-.62.42-.98.09-.48.2-1.06.7-1.06.31 0 .66.22.66.97 0 .95-.78.98-1.05 1-.08.02-.08.11-.08.11 0 .11.05.11.22.11h.86c.16 0 .22 0 .22-.09 0-.05 0-.06-.11-.17l-.14-.14c.25-.33.25-.69.25-.81C3.87.61 3.3.28 2.81.28a.9.9 0 0 0-.73.38c-.23.28-.28.52-.41 1.14-.03.19-.17.91-.8.91-.44 0-.78-.31-.78-.98C.09 1 .59.69 1.33.52c.11-.02.14-.03.14-.12 0-.11-.06-.11-.22-.11H.11c-.14 0-.2 0-.2.09 0 .05 0 .06.17.22.02.02.03.02.2.17-.37.39-.37.77-.37.95 0 1 .58 1.39 1.2 1.39z"/>
  </symbol>
  <symbol id="bu" class="B">
   <path d="M1.08 2.88h.48v-.22h-.47c-.64 0-.97-.27-.97-.58 0-.58.78-.58.92-.58h2.41v1.23h.27V1.5h1.59v-.22c-.7-.02-1.62-.27-1.67-1.11h-.19v.73H1.08C.02.91-.09 1.7-.09 2.02c0 .61.61.86 1.17.86z"/>
  </symbol>
  <symbol id="cv" class="B">
   <path d="M1.03 3.58c.08 0 .08-.08.08-.11 0-.08-.03-.09-.08-.11-.81-.25-.91-.81-.91-1.12 0-.47.38-1.22 1.77-1.22 1.41 0 1.77.7 1.77 1.16 0 .08-.02.63-.33.94-.02-.36-.28-.41-.39-.41-.22 0-.39.14-.39.39 0 .22.14.39.41.39.58 0 .92-.66.92-1.31C3.88 1.09 2.94.3 1.86.3.77.3-.09 1.16-.09 2.16a1.4 1.4 0 0 0 1.13 1.42z"/>
  </symbol>
  <symbol id="ch" class="B">
   <path d="M0 2.14h.27c0-.58.05-.61.38-.61h3.17L3.72.31h-.27c0 .56-.05.64-.47.64H.66C.27.95.27.86.27.28H0l.03.95-.03.91zm5.22-.48c.23 0 .45-.2.45-.45 0-.3-.23-.47-.45-.47-.23 0-.45.2-.45.45 0 .3.23.47.45.47z"/>
  </symbol>
  <symbol id="cu" class="B">
   <path d="M0 4.63h.27c0-.45 0-.67.27-.67h1.64c.75 0 1.02 0 1.33-.27.14-.12.31-.41.31-.91 0-.64-.36-1.05-.91-1.28h.91L3.72.28h-.27c0 .59-.06.67-.48.67H.66C.27.95.27.86.27.28H0l.03.97-.03.97h.27c0-.58 0-.67.39-.67h1.59c.89 0 1.38.61 1.38 1.17 0 .53-.47.64-.95.64H.66c-.39 0-.39-.11-.39-.69H0l.03.98z"/>
  </symbol>
  <symbol id="ct" class="B">
   <path d="M0 4.63h.27c0-.45 0-.67.27-.67h1.64c.75 0 1.02 0 1.33-.27.14-.12.31-.41.31-.91 0-.73-.52-1.11-.83-1.25v-.02H6L5.91.28h-.27c0 .59-.06.67-.48.67H.66C.27.95.27.86.27.28H0l.03.97-.03.97h.27c0-.58 0-.67.39-.67h1.59c.89 0 1.38.61 1.38 1.17 0 .53-.47.64-.95.64H.66c-.39 0-.39-.11-.39-.69H0l.03.98z"/>
  </symbol>
  <symbol id="di" class="B">
   <path d="M3.48 4.19c.16 0 .44-.09.44-.44 0-.17-.06-.55-.41-.92.28-.36.3-.72.3-.91 0-.81-.59-1.41-1.25-1.41-.39 0-.72.19-.89.41C1.53.81 1.25.66.95.66.69.66.36.77.19 1.03.03.52-.34.24-.69.24c-.62 0-1.09.86-1.09 1.92 0 1.02.44 1.91 1.11 1.91.31 0 .75-.11.98-.55.25-.47.25-.97.25-1.5v-.64c.05-.28.31-.45.59-.45.03 0 .22 0 .41.14-.25.34-.28.69-.28.86 0 .8.61 1.39 1.27 1.39.33 0 .64-.12.84-.34.3.31.33.61.33.77v.09c-.03-.09-.14-.14-.23-.14-.16 0-.25.11-.25.25 0 .09.06.25.25.25zm-.92-1.52c-.23 0-.52-.02-.73-.14-.09-.06-.34-.27-.34-.61 0-.75.86-.75 1.06-.75.23 0 .52 0 .73.14.09.06.34.27.34.61 0 .75-.87.75-1.06.75zm-3.25.95c-.47 0-.89-.62-.89-1.47 0-.87.44-1.47.89-1.47.41 0 .72.33.75.72v.5c0 .75 0 1.72-.75 1.72z"/>
  </symbol>
  <symbol id="ax" class="B">
   <path d="M1.84 0v-.22c-.45 0-.53 0-.53-.33v-4.37l-1.06.08v.22c.48 0 .55.05.55.39v3.69c0 .33-.08.33-.55.33V0l.8-.02.8.02z"/>
  </symbol>
  <symbol id="bc" class="B">
   <path d="M3.44-1.52c0-.92-.73-1.66-1.61-1.66C.92-3.17.2-2.42.2-1.52A1.6 1.6 0 0 0 1.81.08c.91 0 1.63-.72 1.63-1.59zm-.61-.06c0 .27 0 .67-.19.98-.19.33-.52.47-.81.47-.36 0-.66-.17-.83-.45-.17-.3-.19-.67-.19-1 0-.27 0-.66.19-.95.2-.36.56-.47.81-.47.41 0 .7.22.84.47.16.3.17.66.17.95z"/>
  </symbol>
  <symbol id="bt" class="B">
   <path d="m3.03-.84c0-.08-.08-.08-.11-.08-.06 0-.06 0-.11.13-.17.48-.56.67-.92.67-.45-.01-1.05-.36-1.05-1.43 0-1.09.58-1.44 1-1.44a1.4 1.4 0 01.73.2c-.14.02-.28.13-.28.33 0 .19.14.33.33.33.17 0 .33-.12.33-.34 0-.44-.5-.7-1.12-.7-.91 0-1.59.75-1.59 1.64a1.6 1.6 0 001.57 1.61 1.2 1.2 0 001.22-.92z"/>
  </symbol>
  <symbol id="au" class="B">
   <path d="M3.53-.62v-.41h-.2v.39c0 .08 0 .44-.25.44-.27 0-.27-.34-.27-.45v-1.25c0-.41 0-.64-.31-.94-.27-.23-.61-.33-.95-.33-.61 0-1.09.3-1.09.75 0 .22.14.34.33.34s.33-.16.33-.33c0-.31-.33-.34-.33-.34.2-.19.53-.25.75-.25.36 0 .77.27.77.89v.23a3.4 3.4 0 0 0-1.39.28c-.52.25-.67.61-.67.91 0 .58.69.77 1.16.77.59 0 .86-.39.97-.59.03.3.23.56.55.56.17 0 .63-.11.63-.67zM2.3-1c0 .69-.53.91-.84.91C1.11-.09.8-.34.8-.69c0-.47.41-.97 1.5-1.02z"/>
  </symbol>
  <symbol id="cg" class="B">
   <path d="M3.03-.84c0-.05-.03-.09-.11-.09-.06 0-.08.05-.09.08-.23.72-.87.73-.98.73-.33 0-.62-.19-.78-.42C.83-.91.81-1.33.81-1.62h2.03c.16 0 .19 0 .19-.14 0-.73-.41-1.41-1.31-1.41C.87-3.17.2-2.44.2-1.56.2-.63.95.08 1.81.08c.87 0 1.22-.77 1.22-.92zm-.48-.95H.83c.06-1.09.7-1.2.89-1.2.39 0 .83.3.83 1.2z"/>
  </symbol>
  <symbol id="cf" class="B">
   <path d="M3.75 0v-.22c-.28 0-.5 0-.66-.2l-.94-1.17c-.05-.06-.05-.08-.05-.08l.61-.75c.22-.23.47-.41.91-.42v-.22c-.22.03-.41.03-.61.03-.27 0-.39 0-.69-.03v.22c.11.02.2.08.2.22 0 .11-.06.19-.09.23l-.45.56-.56-.7c-.05-.06-.06-.08-.06-.12 0-.09.08-.17.25-.19v-.22l-.78.03s-.42 0-.69-.03v.22c.48 0 .5.02.83.44l.73.92-.7.83c-.34.42-.75.44-.91.44V0L.7-.02l.69.02v-.22c-.19-.02-.2-.14-.2-.22 0-.02 0-.11.11-.25l.53-.64.56.72c.13.16.13.17.13.22 0 .08-.06.16-.23.17V0l.77-.02.7.02z"/>
  </symbol>
  <symbol id="bs" class="B">
   <path d="M3.8-1.53c0-.89-.69-1.61-1.53-1.61-.37 0-.73.16-1 .45v-.45l-1.05.08v.22c.5 0 .55.05.55.36V.83c0 .33-.08.33-.55.33v.22l.8-.02.81.02v-.22c-.47 0-.55 0-.55-.33V-.34c.19.19.42.42.89.42.84 0 1.63-.69 1.63-1.61zm-.61 0c0 .81-.48 1.44-1.05 1.44-.33 0-.59-.19-.77-.44-.09-.14-.09-.16-.09-.3v-1.56c.25-.41.64-.55.94-.55.55 0 .97.64.97 1.41z"/>
  </symbol>
  <symbol id="aw" class="B">
   <path d="M3.88 0v-.22c-.36 0-.53 0-.55-.22V-1.8c0-.59 0-.8-.19-1.05-.17-.2-.44-.3-.8-.3-.66 0-.95.5-1.06.69v-.69l-1.03.08v.22c.48 0 .55.06.55.41v1.89c0 .33-.08.33-.55.33V0l.81-.02.8.02v-.22c-.47 0-.55 0-.55-.33v-1.3c0-.75.53-1.11.98-1.11.42 0 .52.34.52.77v1.64c0 .33-.08.33-.55.33V0l.81-.02.8.02z"/>
  </symbol>
  <symbol id="bl" class="B">
   <path d="M2.42-.87v-.41h-.19v.38c0 .53-.23.78-.48.78-.47 0-.47-.62-.47-.75v-1.97h1.03v-.22H1.28v-1.3h-.2c0 .59-.25 1.33-.94 1.34v.17h.61v1.97c0 .8.58.95.95.95.47 0 .72-.45.72-.95z"/>
  </symbol>
  <symbol id="bf" class="B">
   <path d="M1.8 0v-.22c-.47 0-.48-.03-.48-.31v-2.61l-1.03.08v.22c.45 0 .52.05.52.39v1.91c0 .33-.08.33-.55.33V0l.78-.02.77.02zm-.41-4.28c0-.2-.16-.37-.37-.37s-.39.17-.39.38c0 .22.17.39.39.39s.38-.17.38-.39z"/>
  </symbol>
  <symbol id="br" class="B">
   <path d="m2.63-.91c0-.33-.14-.52-.3-.67-.25-.23-.5-.28-1.02-.39-.19-.03-.7-.12-.7-.53 0-.22.16-.52.8-.52.77 0 .83.58.83.77.02.08.02.13.11.13s.09-.05.09-.19v-.69c0-.11 0-.17-.08-.17-.05 0-.05 0-.14.08-.02.02-.08.08-.12.11-.22-.16-.44-.19-.69-.19-.94 0-1.17.52-1.17.88a.8.8 0 00.27.56c.25.22.52.27.88.34.36.06.48.08.64.2.06.06.25.19.25.47 0 .63-.72.63-.81.63-.73 0-.91-.61-1-.98-.03-.09-.05-.13-.13-.13-.11 0-.11.06-.11.19v.91c0 .13 0 .19.09.19.05 0 .05 0 .17-.14.03-.05.11-.14.14-.17.3.3.63.31.81.31.86 0 1.17-.52 1.17-.98z"/>
  </symbol>
  <symbol id="dh" class="B">
   <path d="M3.55-2.86c0-.14-.11-.36-.39-.36-.2 0-.53.08-.77.34-.2-.16-.47-.27-.77-.27-.69 0-1.19.48-1.19 1.05 0 .36.2.63.33.72-.02.02-.22.27-.22.59 0 .23.11.5.3.63C.48-.05.2.22.2.55c0 .52.7.92 1.61.92.88 0 1.63-.39 1.63-.92 0-.3-.14-.61-.41-.78-.39-.25-.8-.25-1.48-.25-.14 0-.36 0-.42-.02C.92-.55.78-.73.78-.95c0-.12.05-.22.11-.31.17.11.39.22.72.22.67 0 1.19-.48 1.19-1.05 0-.34-.2-.59-.3-.69.28-.25.63-.25.7-.25-.03.02-.09.05-.09.17 0 .08.05.22.22.22.09 0 .22-.06.22-.22zm-1.3.77c0 .17 0 .86-.64.86-.62 0-.62-.7-.62-.86 0-.19.02-.44.13-.61.11-.14.3-.23.5-.23.64 0 .64.69.64.84zM3.03.55c0 .41-.55.72-1.2.72C1.13 1.27.61.94.61.55c0-.11.06-.58.67-.58h.66c.22 0 1.09 0 1.09.58z"/>
  </symbol>
  <symbol id="dg" class="B">
   <path d="M3.8-1.53c0-.89-.7-1.61-1.55-1.61-.48 0-.81.25-.98.44v-2.22l-1.05.08v.22c.47 0 .55.05.55.39V0h.19l.27-.44c.22.31.58.52.95.52.84 0 1.63-.69 1.63-1.61zm-.61-.02c0 .34-.03.72-.22 1-.16.23-.45.45-.83.45-.31 0-.59-.17-.75-.44-.11-.16-.11-.16-.11-.3v-1.44c0-.12 0-.14.08-.25.25-.33.59-.44.86-.44.31 0 .59.17.78.47a2 2 0 0 1 .19.94z"/>
  </symbol>
  <symbol id="df" class="B">
   <path d="M2.02-1.31v-.44H.08v.44z"/>
  </symbol>
  <symbol id="de" class="B">
   <path d="M3.88 0v-.22c-.36 0-.53 0-.55-.22V-1.8c0-.59 0-.8-.19-1.05-.17-.2-.44-.3-.8-.3-.47 0-.81.25-1.03.66H1.3v-2.44l-1.05.08v.22c.48 0 .55.05.55.39v3.69c0 .33-.08.33-.55.33V0l.81-.02.8.02v-.22c-.47 0-.55 0-.55-.33v-1.3c0-.75.53-1.11.98-1.11.42 0 .52.34.52.77v1.64c0 .33-.08.33-.55.33V0l.81-.02.8.02z"/>
  </symbol>
  <symbol id="dd" class="B">
   <path d="M2.64-2.7c0-.22-.2-.44-.53-.44-.42 0-.72.3-.87.75h-.02v-.75l-1 .08v.22c.47 0 .55.06.55.41v1.89c0 .33-.08.33-.55.33V0l.83-.02.89.02v-.22H1.8c-.52 0-.53-.08-.53-.34v-1.06c0-.3.08-1.33.89-1.33-.02.02-.14.09-.14.27 0 .19.16.31.31.31s.31-.11.31-.33z"/>
  </symbol>
  <symbol id="bk" class="B">
   <path d="M7.48-.23c0-.05-.05-.05-.08-.05-.08 0-.2.05-.22.06l-.06.03c-.2 0-.2-.36-.2-.73 0-.52.16-2.03.41-3.25.03-.12.03-.14.03-.17 0-.02 0-.09-.05-.09s-.05.02-.12.09l-.16.19L5.84-2.8 3.95-.86c-.27-.48-.39-.87-.56-1.47L2.9-4.34c-.02-.08-.02-.09-.09-.09-.02 0-.39.05-.42.34a10.5 10.5 0 0 1-.64 2.5C1.25-.28 1.09-.28.97-.28a.8.8 0 0 1-.48-.17C.44-.5.42-.5.42-.5.33-.5.19-.2.19-.02c0 .06 0 .14.22.25.2.09.36.09.36.09.39 0 .77-.84.84-1.03.33-.75.73-1.83.92-2.81.3 1.28.56 2.22.91 2.89.06.13.14.23.22.36.02.02.03.05.08.05.11 0 1.06-.98 1.08-1l.8-.89 1.05-1.16c-.23 1.36-.3 2.31-.3 2.63 0 .52 0 .81.34.81.27 0 .78-.27.78-.41z"/>
  </symbol>
  <symbol id="dc" class="B">
   <path d="m5.42-.42c0-.03-.03-.05-.06-.05-.06 0-.17.03-.27.09-.12.06-.22.16-.23.2 0 .03-.02.05-.03.08-.11.03-.22.05-.34.05-.17.02-.3-.12-.28-.31.03-.44.11-.89.22-1.33.22-.86.48-1.72.83-2.56 0-.06-.02-.06-.06-.06-.06 0-.17.03-.27.08-.11.08-.2.16-.22.2l-.66 1.91h-1.81l.13-.45c.11-.45.17-.89.2-1.33.03-.25-.16-.41-.41-.41-.22 0-.44.02-.64.08a2.4 2.4 0 00-.95.53c-.17.16-.31.34-.42.55l-.02.03c0 .03.03.05.08.05a.6.6 0 00.27-.09c.09-.06.19-.12.22-.19.06-.14.16-.27.27-.37.09-.08.2-.12.3-.16.16-.05.33-.06.47-.06.19 0 .31.14.28.31a7.6 7.6 0 01-.2 1.31l-.05.2h-.27a.6.6 0 00-.27.09c-.12.08-.22.17-.22.23 0 .02.02.03.06.03h.56l-.64 1.97c-.02.05.02.06.06.06a.6.6 0 00.27-.09c.11-.06.2-.14.22-.2l.59-1.73h1.63c.06 0 .14-.02.22-.06l-.09.38c-.12.47-.19.92-.23 1.36-.02.27.17.42.44.41.17 0 .36-.02.53-.08.06 0 .11-.03.16-.05.25-.11.5-.25.61-.48l.05-.12z"/>
  </symbol>
  <symbol id="db" class="B">
   <path d="m2.59-2.72c0-.05-.02-.23-.25-.23-.09 0-.25.03-.41.08a2.3 2.3 0 01-.37.08c.02-.11.02-.25.08-.62.03-.16.08-.53.08-.73 0-.05 0-.28-.23-.28s-.23.22-.23.28a5.6 5.6 0 00.08.72c.08.41.08.5.08.64-.11-.02-.2-.03-.36-.08-.14-.05-.3-.08-.42-.08-.25 0-.25.23-.25.23 0 .05.02.23.25.23.09 0 .25-.02.41-.08l.38-.08c0 .11-.02.2-.06.44-.09.44-.09.48-.09.83a30 30 0 00.13 2.59c.02.09.02.14.11.14.05 0 .09-.02.09-.08a27.5 27.5 0 00.14-2.66c0-.31 0-.39-.08-.78-.06-.28-.06-.34-.08-.48.11.02.22.05.36.08.14.05.31.08.42.08.25 0 .25-.23.25-.23z"/>
  </symbol>
  <symbol id="at" class="B">
   <path d="M5.16-2.84c0-.52-.23-.92-.72-1.17-.56-.3-1.19-.3-1.77-.3-.56 0-1.02 0-1.58.25-.84.38-.95.91-.95.94 0 .05.03.06.06.06.14 0 .45-.17.5-.33.08-.23.17-.52 1.14-.56-.11 1.63-.53 2.77-.86 3.59C.8-.3.59-.13.59-.05.59 0 .62 0 .73 0h.72c1.53 0 3.7-1.09 3.7-2.84zm-.56.28c0 1.36-1.31 2.2-2.75 2.2h-.39c.75-1.72.89-3.14.94-3.59h.2c.61 0 2 .16 2 1.39z"/>
  </symbol>
  <symbol id="cs" class="B">
   <path d="m1.36-.02c0-.41-.16-.69-.44-.69-.22 0-.34.17-.34.34 0 .19.13.36.36.36.14 0 .25-.09.25-.09 0 .41-.09.77-.48 1.16-.03.02-.05.03-.05.06 0 .06.06.09.09.09.08 0 .61-.5.61-1.23z"/>
  </symbol>
  <path id="bb" d="M24.01 165.9v-24.68H80.1v24.68z"/>
  <path id="ba" d="m84.58 165.9v-24.68h56.09v24.68z"/>
 </defs>
 <g fill="#f8f8f8">
  <path d="M24.01 85.18V60.5H80.1v24.68zm0 26.92V87.42H80.1v24.68zm0 26.9v-24.68H80.1V139z"/>
  <use xlink:href="#bb"/>
  <use y="27" xlink:href="#bb"/>
  <use y="62.9" xlink:href="#bb"/>
  <use y="98.8" xlink:href="#bb"/>
  <use y="125.7" xlink:href="#bb"/>
  <use y="152.6" xlink:href="#bb"/>
  <use y="179.5" xlink:href="#bb"/>
  <path d="M84.58 56.02V31.34h56.09v24.68zm58.32 0V31.34h56.08v24.68zm58.3 0V31.34h56.08v24.68zm58.4 0V31.34h56.08v24.68zm58.3 0V31.34h56.09v24.68zm60.6 0V31.34h56.09v24.68z"/>
 </g>
 <g class="C" stroke="#000" stroke-width=".32">
  <path d="M84.58 20.12h346.8M21.76 60.51v281.7M84.58 58.27h289.4m4.52 0h56.09M84.58 201.8h289.4m4.52 0h56.09M84.58 237.7h289.4m4.52 0h56.09M82.33 345.4V60.5M376.2 345.4V60.5" fill="none"/>
  <path d="m434 20.12a13.6 13.6 0 01-2.71-1.36v2.72a13 13 0 012.71-1.36zm-412.2 324.8a13.6 13.6 0 011.36-2.71h-2.72a13 13 0 011.36 2.71z"/>
 </g>
 <g fill-opacity=".06">
  <path d="M84.58 85.18V60.5h56.09v24.68z"/>
  <path d="M84.58 85.18V60.5h114.4v24.68zm116.62 0V60.5h56.08v24.68zm177.3 0V60.5h56.09v24.68zM84.58 112.1V87.42h56.09v24.68zm116.62 0V87.42h114.4v24.68zM142.9 139v-24.68h114.4V139z"/>
  <path d="M142.9 139v-24.68H374V139zm235.6 0v-24.68h56.09V139z"/>
  <use xlink:href="#ba"/>
  <path d="m84.58 165.9v-24.68h172.7v24.68z"/>
  <use y="27" xlink:href="#ba"/>
  <use x="293.92" y="27" xlink:href="#ba"/>
  <use x="233.32" y="62.9" xlink:href="#ba"/>
  <path d="m259.6 264.7v-24.68h56.08v24.68zm-175 26.9v-24.68h114.4v24.68z"/>
  <use y="152.6" xlink:href="#ba"/>
  <path d="m259.6 318.5v-24.68h56.08v24.68z"/>
  <use x="233.32" y="152.6" xlink:href="#ba"/>
  <use x="293.92" y="152.6" xlink:href="#ba"/>
  <path d="m84.58 345.4v-24.68h114.4v24.68z"/>
 </g>
 <g transform="translate(-81.77 -115.4)">
  <g transform="translate(0 132.5)">
   <use x="169.06" xlink:href="#al"/>
   <use x="171.45" xlink:href="#aa"/>
   <use x="175.29" xlink:href="#ah"/>
   <use x="178.7" xlink:href="#ah"/>
   <use x="184.98" xlink:href="#af"/>
   <use x="187.38" xlink:href="#ag"/>
   <use x="192.17" xlink:href="#bj"/>
   <use x="194.81" xlink:href="#ae"/>
   <use x="199.13" xlink:href="#ad"/>
   <use x="202.51" xlink:href="#ao"/>
   <use x="209.7" xlink:href="#ac"/>
   <use x="214.02" xlink:href="#ab"/>
   <use x="217.38" xlink:href="#af"/>
   <use x="219.78" xlink:href="#ae"/>
   <use x="224.09" xlink:href="#ag"/>
   <use x="443.28" xlink:href="#ao"/>
   <use x="450.47" xlink:href="#ae"/>
   <use x="454.79" xlink:href="#ad"/>
   <use x="458.17" xlink:href="#aa"/>
   <use x="464.89" xlink:href="#af"/>
   <use x="467.29" xlink:href="#ag"/>
   <use x="472.09" xlink:href="#bj"/>
   <use x="474.73" xlink:href="#ae"/>
   <use x="479.04" xlink:href="#ad"/>
   <use x="482.43" xlink:href="#ao"/>
   <use x="489.62" xlink:href="#ac"/>
   <use x="493.94" xlink:href="#ab"/>
   <use x="497.3" xlink:href="#af"/>
   <use x="499.69" xlink:href="#ae"/>
   <use x="504.01" xlink:href="#ag"/>
  </g>
  <g transform="translate(94.56)">
   <use y="200.52" xlink:href="#dk"/>
   <use y="202.92" xlink:href="#ci"/>
   <use y="206.99" xlink:href="#dj"/>
   <use y="212.99" xlink:href="#cy"/>
   <use y="216.83" xlink:href="#bw"/>
   <use y="223.09" xlink:href="#bv"/>
   <use y="227.41" xlink:href="#cx"/>
   <use y="232.2" xlink:href="#cw"/>
   <use y="235.61" xlink:href="#bu"/>
   <use y="238.97" xlink:href="#bw"/>
   <use y="242.35" xlink:href="#bv"/>
   <use y="246.67" xlink:href="#cv"/>
   <use y="250.5" xlink:href="#bu"/>
   <use y="253.86" xlink:href="#ch"/>
   <use y="256.26" xlink:href="#ci"/>
   <use y="260.58" xlink:href="#cu"/>
   <use y="383.3" xlink:href="#ct"/>
   <use y="388.1" xlink:href="#ch"/>
   <use y="390.5" xlink:href="#di"/>
   <use y="394.81" xlink:href="#ct"/>
   <use y="399.61" xlink:href="#cy"/>
   <use y="403.45" xlink:href="#bw"/>
   <use y="409.7" xlink:href="#bv"/>
   <use y="414.02" xlink:href="#cx"/>
   <use y="418.82" xlink:href="#cw"/>
   <use y="422.22" xlink:href="#bu"/>
   <use y="425.58" xlink:href="#bw"/>
   <use y="428.96" xlink:href="#bv"/>
   <use y="433.28" xlink:href="#cv"/>
   <use y="437.12" xlink:href="#bu"/>
   <use y="440.47" xlink:href="#ch"/>
   <use y="442.87" xlink:href="#ci"/>
   <use y="447.19" xlink:href="#cu"/>
  </g>
  <g transform="translate(0 172.1)">
   <use x="106.77" xlink:href="#ax"/>
   <use x="108.8" xlink:href="#bc"/>
   <use x="112.65" xlink:href="#bt"/>
   <use x="115.89" xlink:href="#au"/>
   <use x="119.54" xlink:href="#ax"/>
   <use x="123.99" xlink:href="#cg"/>
   <use x="127.23" xlink:href="#cf"/>
   <use x="131.08" xlink:href="#bs"/>
   <use x="135.13" xlink:href="#ax"/>
   <use x="137.16" xlink:href="#au"/>
   <use x="140.81" xlink:href="#aw"/>
   <use x="144.86" xlink:href="#au"/>
   <use x="148.51" xlink:href="#bl"/>
   <use x="151.34" xlink:href="#bf"/>
   <use x="153.37" xlink:href="#bc"/>
   <use x="157.01" xlink:href="#aw"/>
  </g>
  <g transform="translate(0 185.5)">
   <use x="123.75" xlink:href="#af"/>
   <use x="126.15" xlink:href="#ag"/>
   <use x="130.95" xlink:href="#av"/>
   <use x="135.75" xlink:href="#am"/>
   <use x="140.55" xlink:href="#ab"/>
  </g>
  <g transform="translate(0 196.2)">
   <use x="119.04" xlink:href="#bj"/>
   <use x="121.68" xlink:href="#aa"/>
   <use x="125.52" xlink:href="#ac"/>
   <use x="129.83" xlink:href="#ab"/>
   <use x="133.19" xlink:href="#am"/>
   <use x="137.99" xlink:href="#ad"/>
   <use x="141.37" xlink:href="#aa"/>
   <use x="145.21" xlink:href="#ah"/>
  </g>
  <g transform="translate(0 212.4)">
   <use x="113.39" xlink:href="#ac"/>
   <use x="117.71" xlink:href="#az"/>
   <use x="122.51" xlink:href="#ce"/>
   <use x="126.82" xlink:href="#aa"/>
   <use x="130.66" xlink:href="#ad"/>
   <use x="134.04" xlink:href="#ah"/>
   <use x="137.45" xlink:href="#ac"/>
   <use x="141.76" xlink:href="#ad"/>
   <use x="145.14" xlink:href="#af"/>
   <use x="147.54" xlink:href="#ac"/>
   <use x="151.86" xlink:href="#al"/>
  </g>
  <g transform="translate(0 223.2)">
   <use x="116.65" xlink:href="#aa"/>
   <use x="120.49" xlink:href="#bi"/>
   <use x="125.05" xlink:href="#ac"/>
   <use x="129.36" xlink:href="#ao"/>
   <use x="136.56" xlink:href="#av"/>
   <use x="141.36" xlink:href="#al"/>
   <use x="143.75" xlink:href="#aa"/>
   <use x="147.59" xlink:href="#ah"/>
  </g>
  <g transform="translate(0 239.3)">
   <use x="121.08" xlink:href="#ah"/>
   <use x="124.48" xlink:href="#af"/>
   <use x="126.88" xlink:href="#ao"/>
   <use x="134.08" xlink:href="#af"/>
   <use x="136.47" xlink:href="#al"/>
   <use x="138.87" xlink:href="#ac"/>
   <use x="143.19" xlink:href="#ad"/>
  </g>
  <g transform="translate(0 250.1)">
   <use x="116.65" xlink:href="#aa"/>
   <use x="120.49" xlink:href="#bi"/>
   <use x="125.05" xlink:href="#ac"/>
   <use x="129.36" xlink:href="#ao"/>
   <use x="136.56" xlink:href="#av"/>
   <use x="141.36" xlink:href="#al"/>
   <use x="143.75" xlink:href="#aa"/>
   <use x="147.59" xlink:href="#ah"/>
  </g>
  <g transform="translate(0 266.3)">
   <use x="118.34" xlink:href="#an"/>
   <use x="122.18" xlink:href="#ae"/>
   <use x="126.5" xlink:href="#am"/>
   <use x="131.3" xlink:href="#ag"/>
   <use x="135.85" xlink:href="#ab"/>
   <use x="139.21" xlink:href="#aa"/>
   <use x="143.05" xlink:href="#ad"/>
   <use x="146.43" xlink:href="#bq"/>
  </g>
  <g transform="translate(0 277)">
   <use x="119.29" xlink:href="#bj"/>
   <use x="121.93" xlink:href="#ac"/>
   <use x="126.25" xlink:href="#an"/>
   <use x="130.08" xlink:href="#ab"/>
   <use x="133.44" xlink:href="#am"/>
   <use x="138.24" xlink:href="#ac"/>
   <use x="142.56" xlink:href="#al"/>
   <use x="144.95" xlink:href="#ah"/>
  </g>
  <g transform="translate(0 293.2)">
   <use x="120.14" xlink:href="#ag"/>
   <use x="124.94" xlink:href="#ac"/>
   <use x="129.26" xlink:href="#ab"/>
   <use x="132.61" xlink:href="#am"/>
   <use x="137.41" xlink:href="#ad"/>
   <use x="140.79" xlink:href="#ac"/>
   <use x="145.11" xlink:href="#al"/>
  </g>
  <g transform="translate(0 303.9)">
   <use x="117.28" xlink:href="#al"/>
   <use x="119.68" xlink:href="#ac"/>
   <use x="123.99" xlink:href="#ag"/>
   <use x="128.79" xlink:href="#bh"/>
   <use x="133.11" xlink:href="#am"/>
   <use x="137.9" xlink:href="#ac"/>
   <use x="142.22" xlink:href="#bh"/>
   <use x="146.54" xlink:href="#aa"/>
  </g>
  <g transform="translate(0 315.7)">
   <use x="106.83" xlink:href="#bt"/>
   <use x="110.07" xlink:href="#ax"/>
   <use x="112.1" xlink:href="#au"/>
   <use x="115.75" xlink:href="#br"/>
   <use x="118.62" xlink:href="#br"/>
   <use x="123.93" xlink:href="#cg"/>
   <use x="127.18" xlink:href="#cf"/>
   <use x="131.03" xlink:href="#bs"/>
   <use x="135.08" xlink:href="#ax"/>
   <use x="137.1" xlink:href="#au"/>
   <use x="140.75" xlink:href="#aw"/>
   <use x="144.8" xlink:href="#au"/>
   <use x="148.45" xlink:href="#bl"/>
   <use x="151.28" xlink:href="#bf"/>
   <use x="153.3" xlink:href="#bc"/>
   <use x="156.95" xlink:href="#aw"/>
  </g>
  <g transform="translate(0 334.4)">
   <use x="117.73" xlink:href="#an"/>
   <use x="121.57" xlink:href="#ae"/>
   <use x="125.89" xlink:href="#ag"/>
   <use x="130.68" xlink:href="#an"/>
   <use x="134.52" xlink:href="#aa"/>
   <use x="138.36" xlink:href="#av"/>
   <use x="143.16" xlink:href="#ab"/>
   <use x="146.51" xlink:href="#ah"/>
  </g>
  <g transform="translate(0 351.6)">
   <use x="104.64" xlink:href="#dh"/>
   <use x="108.29" xlink:href="#ax"/>
   <use x="110.32" xlink:href="#bc"/>
   <use x="113.96" xlink:href="#dg"/>
   <use x="118.01" xlink:href="#au"/>
   <use x="121.66" xlink:href="#ax"/>
   <use x="126.12" xlink:href="#cg"/>
   <use x="129.36" xlink:href="#cf"/>
   <use x="133.21" xlink:href="#bs"/>
   <use x="137.27" xlink:href="#ax"/>
   <use x="139.29" xlink:href="#au"/>
   <use x="142.94" xlink:href="#aw"/>
   <use x="146.99" xlink:href="#au"/>
   <use x="150.64" xlink:href="#bl"/>
   <use x="153.47" xlink:href="#bf"/>
   <use x="155.5" xlink:href="#bc"/>
   <use x="159.14" xlink:href="#aw"/>
  </g>
  <g transform="translate(0 370.3)">
   <use x="113.19" xlink:href="#ce"/>
   <use x="117.5" xlink:href="#ae"/>
   <use x="122.06" xlink:href="#an"/>
   <use x="125.9" xlink:href="#ac"/>
   <use x="130.22" xlink:href="#as"/>
   <use x="135.01" xlink:href="#am"/>
   <use x="139.81" xlink:href="#al"/>
   <use x="142.21" xlink:href="#ac"/>
   <use x="146.52" xlink:href="#ad"/>
   <use x="149.91" xlink:href="#bp"/>
  </g>
  <g transform="translate(0 397.3)">
   <use x="116.89" xlink:href="#aa"/>
   <use x="120.73" xlink:href="#ag"/>
   <use x="125.53" xlink:href="#ah"/>
   <use x="128.93" xlink:href="#aa"/>
   <use x="132.77" xlink:href="#ao"/>
   <use x="139.72" xlink:href="#as"/>
   <use x="144.52" xlink:href="#al"/>
   <use x="146.92" xlink:href="#aa"/>
  </g>
  <g transform="translate(0 418.8)">
   <use x="116.77" xlink:href="#al"/>
   <use x="119.17" xlink:href="#af"/>
   <use x="121.57" xlink:href="#ag"/>
   <use x="126.37" xlink:href="#bh"/>
   <use x="130.68" xlink:href="#am"/>
   <use x="135.48" xlink:href="#af"/>
   <use x="137.88" xlink:href="#ah"/>
   <use x="141.28" xlink:href="#ab"/>
   <use x="144.64" xlink:href="#af"/>
   <use x="147.04" xlink:href="#an"/>
  </g>
  <g transform="translate(0 429.5)">
   <use x="111.87" xlink:href="#af"/>
   <use x="114.27" xlink:href="#ag"/>
   <use x="119.06" xlink:href="#bj"/>
   <use x="121.7" xlink:href="#ae"/>
   <use x="126.02" xlink:href="#ad"/>
   <use x="129.4" xlink:href="#ao"/>
   <use x="136.6" xlink:href="#ac"/>
   <use x="140.91" xlink:href="#ab"/>
   <use x="144.27" xlink:href="#af"/>
   <use x="146.67" xlink:href="#ae"/>
   <use x="150.99" xlink:href="#ag"/>
  </g>
  <g transform="translate(0 451.1)">
   <use x="124.92" xlink:href="#ad"/>
   <use x="128.3" xlink:href="#am"/>
   <use x="133.09" xlink:href="#al"/>
   <use x="135.49" xlink:href="#aa"/>
   <use x="139.33" xlink:href="#ah"/>
  </g>
  <g transform="translate(0 142.9)">
   <use x="169.58" xlink:href="#bs"/>
   <use x="173.84" xlink:href="#bc"/>
   <use x="177.49" xlink:href="#br"/>
   <use x="180.37" xlink:href="#bl"/>
   <use x="183.2" xlink:href="#df"/>
   <use x="185.63" xlink:href="#de"/>
   <use x="189.69" xlink:href="#bc"/>
   <use x="193.53" xlink:href="#bt"/>
  </g>
  <g transform="translate(0 161.7)">
   <use x="176.29" xlink:href="#as"/>
   <use x="181.09" xlink:href="#al"/>
   <use x="183.48" xlink:href="#ac"/>
   <use x="187.8" xlink:href="#an"/>
   <use x="191.4" xlink:href="#cd"/>
   <use x="195.95" xlink:href="#bq"/>
   <use x="198.83" xlink:href="#as"/>
   <use x="203.87" xlink:href="#ae"/>
   <use x="207.94" xlink:href="#bi"/>
   <use x="239.03" xlink:href="#az"/>
   <use x="243.83" xlink:href="#ac"/>
   <use x="248.14" xlink:href="#ab"/>
   <use x="251.5" xlink:href="#ac"/>
   <use x="255.82" xlink:href="#ah"/>
   <use x="259.22" xlink:href="#aa"/>
   <use x="263.06" xlink:href="#ab"/>
   <use x="295.57" xlink:href="#bh"/>
   <use x="299.89" xlink:href="#ad"/>
   <use x="303.27" xlink:href="#ac"/>
   <use x="307.59" xlink:href="#az"/>
   <use x="312.38" xlink:href="#af"/>
   <use x="314.78" xlink:href="#aa"/>
   <use x="318.62" xlink:href="#ag"/>
   <use x="323.17" xlink:href="#ab"/>
   <use x="347.29" xlink:href="#aa"/>
   <use x="351.13" xlink:href="#ao"/>
   <use x="358.08" xlink:href="#as"/>
   <use x="363.12" xlink:href="#aa"/>
   <use x="366.96" xlink:href="#az"/>
   <use x="371.75" xlink:href="#az"/>
   <use x="376.55" xlink:href="#af"/>
   <use x="378.95" xlink:href="#ag"/>
   <use x="383.75" xlink:href="#bh"/>
   <use x="388.06" xlink:href="#ah"/>
   <use x="409.12" xlink:href="#cr"/>
   <use x="415.36" xlink:href="#cc"/>
   <use x="420.15" xlink:href="#af"/>
   <use x="422.55" xlink:href="#ab"/>
   <use x="425.91" xlink:href="#aa"/>
   <use x="429.75" xlink:href="#bq"/>
   <use x="432.62" xlink:href="#as"/>
   <use x="437.66" xlink:href="#ae"/>
   <use x="441.73" xlink:href="#bi"/>
  </g>
  <g transform="translate(0 143.4)">
   <use x="463.95" xlink:href="#aw"/>
   <use x="461.92" xlink:href="#bf"/>
   <use x="467.8" xlink:href="#bl"/>
   <use x="470.63" xlink:href="#dd"/>
   <use x="473.48" xlink:href="#bf"/>
   <use x="475.51" xlink:href="#aw"/>
   <use x="479.56" xlink:href="#br"/>
   <use x="482.44" xlink:href="#bf"/>
   <use x="484.47" xlink:href="#bt"/>
  </g>
  <g transform="translate(0 161.7)">
   <use x="461.87" xlink:href="#ao"/>
   <use x="469.07" xlink:href="#ae"/>
   <use x="473.63" xlink:href="#az"/>
   <use x="478.42" xlink:href="#aa"/>
   <use x="482.26" xlink:href="#al"/>
   <use x="487.54" xlink:href="#ah"/>
   <use x="490.94" xlink:href="#av"/>
   <use x="495.98" xlink:href="#aa"/>
   <use x="499.81" xlink:href="#an"/>
   <use x="503.65" xlink:href="#af"/>
   <use x="506.04" xlink:href="#da"/>
   <use x="510.84" xlink:href="#an"/>
  </g>
  <g transform="translate(0 190.9)">
   <use x="172.82" xlink:href="#be"/>
   <use x="177.62" xlink:href="#cq"/>
   <use x="184.09" xlink:href="#ay"/>
   <use x="190.57" xlink:href="#ar"/>
   <use x="199.32" xlink:href="#ak"/>
   <use x="204.94" xlink:href="#bg"/>
   <use x="209.26" xlink:href="#aj"/>
   <use x="211.65" xlink:href="#bo"/>
  </g>
  <g transform="translate(0 185.5)">
   <use x="225" xlink:href="#cb"/>
   <use x="230.4" xlink:href="#bd"/>
   <use x="233.51" xlink:href="#ca"/>
   <use x="241.43" xlink:href="#aq"/>
   <use x="250.18" xlink:href="#ak"/>
   <use x="255.8" xlink:href="#bg"/>
   <use x="260.12" xlink:href="#aj"/>
   <use x="262.51" xlink:href="#cp"/>
   <use x="266.83" xlink:href="#bn"/>
  </g>
  <g transform="translate(0 196.2)">
   <use x="221.97" xlink:href="#ay"/>
   <use x="228.44" xlink:href="#ag"/>
   <use x="233.24" xlink:href="#an"/>
   <use x="236.83" xlink:href="#cc"/>
   <use x="241.63" xlink:href="#ae"/>
   <use x="245.95" xlink:href="#ad"/>
   <use x="249.33" xlink:href="#ah"/>
   <use x="255.62" xlink:href="#ak"/>
   <use x="261.23" xlink:href="#bg"/>
   <use x="265.55" xlink:href="#aj"/>
   <use x="267.95" xlink:href="#co"/>
  </g>
  <g transform="translate(0 185.5)">
   <use x="283.38" xlink:href="#bm"/>
   <use x="290.15" xlink:href="#ad"/>
   <use x="293.54" xlink:href="#ac"/>
   <use x="297.85" xlink:href="#az"/>
   <use x="302.65" xlink:href="#af"/>
   <use x="305.05" xlink:href="#aa"/>
   <use x="308.88" xlink:href="#ag"/>
   <use x="313.44" xlink:href="#ab"/>
   <use x="319.68" xlink:href="#ak"/>
   <use x="325.29" xlink:href="#bg"/>
   <use x="329.61" xlink:href="#aj"/>
   <use x="332.01" xlink:href="#ai"/>
   <use x="336.32" xlink:href="#bn"/>
  </g>
  <g transform="translate(0 196.2)">
   <use x="296.34" xlink:href="#bd"/>
   <use x="299.46" xlink:href="#bm"/>
   <use x="309.11" xlink:href="#ak"/>
   <use x="314.73" xlink:href="#bg"/>
   <use x="319.05" xlink:href="#aj"/>
   <use x="321.44" xlink:href="#ap"/>
  </g>
  <g transform="translate(0 190.9)">
   <use x="470.17" xlink:href="#ay"/>
   <use x="476.4" xlink:href="#ab"/>
   <use x="479.76" xlink:href="#ab"/>
   <use x="483.12" xlink:href="#aa"/>
   <use x="486.96" xlink:href="#ag"/>
   <use x="491.51" xlink:href="#ab"/>
   <use x="494.87" xlink:href="#af"/>
   <use x="497.27" xlink:href="#ae"/>
   <use x="501.58" xlink:href="#ag"/>
  </g>
  <g transform="translate(0 217.8)">
   <use x="171.87" xlink:href="#be"/>
   <use x="176.67" xlink:href="#aq"/>
   <use x="182.55" xlink:href="#ay"/>
   <use x="200.27" xlink:href="#ak"/>
   <use x="205.89" xlink:href="#cn"/>
   <use x="210.21" xlink:href="#aj"/>
   <use x="212.6" xlink:href="#ap"/>
  </g>
  <g transform="translate(0 217.8)">
   <use x="315.76" xlink:href="#cq"/>
   <use x="322.24" xlink:href="#ae"/>
   <use x="326.55" xlink:href="#ab"/>
   <use x="329.91" xlink:href="#bz"/>
   <use x="335.55" xlink:href="#al"/>
   <use x="337.95" xlink:href="#af"/>
   <use x="340.34" xlink:href="#av"/>
   <use x="348.02" xlink:href="#ak"/>
   <use x="353.64" xlink:href="#cn"/>
   <use x="357.95" xlink:href="#aj"/>
   <use x="360.35" xlink:href="#ai"/>
  </g>
  <use x="189.02" y="214.72" xlink:href="#bk"/>
  <g transform="translate(0 244.8)">
   <use x="232.41" xlink:href="#bd"/>
   <use x="235.53" xlink:href="#ag"/>
   <use x="240.33" xlink:href="#cz"/>
   <use x="245.13" xlink:href="#am"/>
   <use x="249.92" xlink:href="#aa"/>
   <use x="253.76" xlink:href="#ag"/>
   <use x="258.56" xlink:href="#an"/>
   <use x="262.39" xlink:href="#aa"/>
   <use x="269.11" xlink:href="#bz"/>
   <use x="274.03" xlink:href="#am"/>
   <use x="278.82" xlink:href="#ag"/>
   <use x="283.62" xlink:href="#an"/>
   <use x="287.46" xlink:href="#ab"/>
   <use x="290.82" xlink:href="#af"/>
   <use x="293.21" xlink:href="#ae"/>
   <use x="297.53" xlink:href="#ag"/>
   <use x="302.33" xlink:href="#ah"/>
   <use x="314.71" xlink:href="#ak"/>
   <use x="320.33" xlink:href="#cm"/>
   <use x="324.65" xlink:href="#aj"/>
   <use x="327.05" xlink:href="#ai"/>
  </g>
  <g transform="translate(0 244.8)">
   <use x="339.26" xlink:href="#by"/>
   <use x="345.62" xlink:href="#aa"/>
   <use x="349.45" xlink:href="#av"/>
   <use x="354.25" xlink:href="#ad"/>
   <use x="357.63" xlink:href="#aa"/>
   <use x="361.47" xlink:href="#ah"/>
   <use x="364.88" xlink:href="#aa"/>
   <use x="368.71" xlink:href="#ag"/>
   <use x="373.27" xlink:href="#ab"/>
   <use x="376.63" xlink:href="#aa"/>
   <use x="380.46" xlink:href="#ad"/>
   <use x="386.72" xlink:href="#ar"/>
   <use x="392.36" xlink:href="#ae"/>
   <use x="396.68" xlink:href="#af"/>
   <use x="399.08" xlink:href="#ag"/>
   <use x="403.63" xlink:href="#ab"/>
   <use x="406.99" xlink:href="#aa"/>
   <use x="410.83" xlink:href="#ad"/>
   <use x="414.21" xlink:href="#ah"/>
   <use x="423.86" xlink:href="#ak"/>
   <use x="429.48" xlink:href="#cm"/>
   <use x="433.8" xlink:href="#aj"/>
   <use x="436.2" xlink:href="#ap"/>
  </g>
  <use x="305.73" y="241.64" xlink:href="#dc"/>
  <use x="417.61" y="241.68" xlink:href="#db"/>
  <g transform="translate(0 239.3)">
   <use x="469.38" xlink:href="#ar"/>
   <use x="475.26" xlink:href="#ad"/>
   <use x="478.64" xlink:href="#ae"/>
   <use x="482.95" xlink:href="#ab"/>
   <use x="486.31" xlink:href="#ae"/>
   <use x="490.63" xlink:href="#ab"/>
   <use x="493.74" xlink:href="#bp"/>
   <use x="498.3" xlink:href="#av"/>
   <use x="503.34" xlink:href="#aa"/>
  </g>
  <g transform="translate(0 250.1)">
   <use x="470.73" xlink:href="#bx"/>
   <use x="477.21" xlink:href="#aa"/>
   <use x="481.05" xlink:href="#ab"/>
   <use x="484.16" xlink:href="#cr"/>
   <use x="490.16" xlink:href="#ae"/>
   <use x="494.47" xlink:href="#ad"/>
   <use x="497.86" xlink:href="#cd"/>
   <use x="502.41" xlink:href="#ah"/>
  </g>
  <g transform="translate(0 266.3)">
   <use x="169.39" xlink:href="#ar"/>
   <use x="175.02" xlink:href="#ae"/>
   <use x="179.34" xlink:href="#al"/>
   <use x="181.74" xlink:href="#bp"/>
   <use x="186.29" xlink:href="#cl"/>
   <use x="188.93" xlink:href="#am"/>
   <use x="193.73" xlink:href="#af"/>
   <use x="196.13" xlink:href="#an"/>
   <use x="199.97" xlink:href="#aa"/>
  </g>
  <g transform="translate(0 263.2)">
   <use x="203.8" xlink:href="#bk"/>
   <use x="211.78" xlink:href="#cs"/>
   <use x="213.64" xlink:href="#at"/>
  </g>
  <g transform="translate(0 277.1)">
   <use x="186.07" xlink:href="#ak"/>
   <use x="191.69" xlink:href="#ck"/>
   <use x="196.01" xlink:href="#aj"/>
   <use x="198.41" xlink:href="#ai"/>
  </g>
  <g transform="translate(0 271.7)">
   <use x="227.56" xlink:href="#ca"/>
   <use x="235.48" xlink:href="#af"/>
   <use x="237.87" xlink:href="#cj"/>
   <use x="244.11" xlink:href="#aq"/>
   <use x="261.23" xlink:href="#ak"/>
   <use x="266.85" xlink:href="#ck"/>
   <use x="271.17" xlink:href="#aj"/>
   <use x="273.57" xlink:href="#ap"/>
  </g>
  <use x="249.99" y="268.56" xlink:href="#bk"/>
  <g transform="translate(0 293.3)">
   <use x="174.03" xlink:href="#cj"/>
   <use x="180.27" xlink:href="#ay"/>
   <use x="186.5" xlink:href="#bm"/>
   <use x="193.28" xlink:href="#aq"/>
  </g>
  <g transform="translate(0 290.1)">
   <use x="199.16" xlink:href="#bk"/>
   <use x="207.13" xlink:href="#cs"/>
   <use x="208.99" xlink:href="#at"/>
  </g>
  <g transform="translate(0 304)">
   <use x="183.91" xlink:href="#ak"/>
   <use x="189.53" xlink:href="#ai"/>
   <use x="193.85" xlink:href="#dn"/>
   <use x="198.17" xlink:href="#aj"/>
   <use x="200.57" xlink:href="#ai"/>
  </g>
  <g transform="translate(0 298.6)">
   <use x="460.3" xlink:href="#bm"/>
   <use x="467.08" xlink:href="#aq"/>
   <use x="472.95" xlink:href="#bz"/>
  </g>
  <g transform="translate(0 295.5)">
   <use x="478.59" xlink:href="#at"/>
   <use x="510.49" xlink:href="#at"/>
  </g>
  <g transform="translate(0 298.6)">
   <use x="484.35" xlink:href="#bn"/>
   <use x="489.62" xlink:href="#bx"/>
   <use x="496.1" xlink:href="#bd"/>
   <use x="499.22" xlink:href="#cb"/>
   <use x="504.61" xlink:href="#aq"/>
  </g>
  <g transform="translate(0 334.5)">
   <use x="405.17" xlink:href="#bx"/>
   <use x="411.64" xlink:href="#bd"/>
   <use x="414.76" xlink:href="#aq"/>
   <use x="429.28" xlink:href="#ak"/>
   <use x="434.9" xlink:href="#ai"/>
   <use x="439.22" xlink:href="#ai"/>
   <use x="443.53" xlink:href="#aj"/>
   <use x="445.93" xlink:href="#ai"/>
  </g>
  <use x="420.64" y="331.38" xlink:href="#at"/>
  <g transform="translate(0 365)">
   <use x="342.52" xlink:href="#ar"/>
   <use x="348.39" xlink:href="#ad"/>
   <use x="351.77" xlink:href="#ae"/>
   <use x="356.33" xlink:href="#cl"/>
   <use x="358.97" xlink:href="#aa"/>
   <use x="362.81" xlink:href="#an"/>
   <use x="366.65" xlink:href="#ab"/>
   <use x="372.88" xlink:href="#ak"/>
   <use x="378.5" xlink:href="#ai"/>
   <use x="382.81" xlink:href="#ap"/>
   <use x="387.13" xlink:href="#aj"/>
   <use x="389.53" xlink:href="#ai"/>
   <use x="393.85" xlink:href="#bn"/>
  </g>
  <g transform="translate(0 375.7)">
   <use x="344.69" xlink:href="#by"/>
   <use x="351.04" xlink:href="#ae"/>
   <use x="355.36" xlink:href="#ab"/>
   <use x="358.72" xlink:href="#ac"/>
   <use x="363.03" xlink:href="#ab"/>
   <use x="366.39" xlink:href="#aa"/>
   <use x="373.1" xlink:href="#ak"/>
   <use x="378.72" xlink:href="#ai"/>
   <use x="383.04" xlink:href="#ap"/>
   <use x="387.36" xlink:href="#aj"/>
   <use x="389.76" xlink:href="#ap"/>
  </g>
  <g transform="translate(0 397.3)">
   <use x="193.71" xlink:href="#be"/>
   <use x="198.51" xlink:href="#ar"/>
   <use x="204.38" xlink:href="#bq"/>
   <use x="207.26" xlink:href="#cb"/>
   <use x="212.66" xlink:href="#bd"/>
   <use x="215.77" xlink:href="#ca"/>
   <use x="223.69" xlink:href="#aq"/>
   <use x="232.45" xlink:href="#ak"/>
   <use x="238.06" xlink:href="#ai"/>
   <use x="242.38" xlink:href="#cp"/>
   <use x="246.69" xlink:href="#aj"/>
   <use x="249.09" xlink:href="#ai"/>
  </g>
  <g transform="translate(0 418.8)">
   <use x="174.3" xlink:href="#dm"/>
   <use x="180.41" xlink:href="#aa"/>
   <use x="184.25" xlink:href="#cc"/>
   <use x="189.05" xlink:href="#ac"/>
   <use x="193.12" xlink:href="#ce"/>
   <use x="197.68" xlink:href="#af"/>
   <use x="200.08" xlink:href="#ae"/>
   <use x="204.4" xlink:href="#ad"/>
   <use x="207.78" xlink:href="#ac"/>
   <use x="212.09" xlink:href="#al"/>
   <use x="350.17" xlink:href="#be"/>
   <use x="354.97" xlink:href="#ab"/>
   <use x="358.32" xlink:href="#ad"/>
   <use x="361.71" xlink:href="#am"/>
   <use x="366.5" xlink:href="#an"/>
   <use x="370.34" xlink:href="#ab"/>
   <use x="373.7" xlink:href="#am"/>
   <use x="378.49" xlink:href="#ad"/>
   <use x="381.88" xlink:href="#ac"/>
   <use x="386.19" xlink:href="#al"/>
   <use x="408.5" xlink:href="#be"/>
   <use x="413.29" xlink:href="#ab"/>
   <use x="416.65" xlink:href="#ad"/>
   <use x="420.03" xlink:href="#am"/>
   <use x="424.83" xlink:href="#an"/>
   <use x="428.67" xlink:href="#ab"/>
   <use x="432.02" xlink:href="#am"/>
   <use x="436.82" xlink:href="#ad"/>
   <use x="440.2" xlink:href="#ac"/>
   <use x="444.52" xlink:href="#al"/>
  </g>
  <g transform="translate(0 429.5)">
   <use x="166.67" xlink:href="#ar"/>
   <use x="172.54" xlink:href="#ad"/>
   <use x="175.92" xlink:href="#ae"/>
   <use x="180.24" xlink:href="#as"/>
   <use x="185.28" xlink:href="#aa"/>
   <use x="189.12" xlink:href="#ah"/>
   <use x="201.16" xlink:href="#ak"/>
   <use x="206.78" xlink:href="#ai"/>
   <use x="211.1" xlink:href="#bo"/>
   <use x="215.41" xlink:href="#aj"/>
   <use x="217.81" xlink:href="#ai"/>
   <use x="341.65" xlink:href="#ar"/>
   <use x="347.52" xlink:href="#ad"/>
   <use x="350.91" xlink:href="#ae"/>
   <use x="355.22" xlink:href="#as"/>
   <use x="360.26" xlink:href="#aa"/>
   <use x="364.1" xlink:href="#ah"/>
   <use x="376.14" xlink:href="#ak"/>
   <use x="381.76" xlink:href="#ai"/>
   <use x="386.08" xlink:href="#bo"/>
   <use x="390.4" xlink:href="#aj"/>
   <use x="392.79" xlink:href="#ap"/>
   <use x="399.98" xlink:href="#ar"/>
   <use x="405.85" xlink:href="#ad"/>
   <use x="409.23" xlink:href="#ae"/>
   <use x="413.55" xlink:href="#as"/>
   <use x="418.59" xlink:href="#aa"/>
   <use x="422.43" xlink:href="#ah"/>
   <use x="434.47" xlink:href="#ak"/>
   <use x="440.09" xlink:href="#ai"/>
   <use x="444.41" xlink:href="#bo"/>
   <use x="448.72" xlink:href="#aj"/>
   <use x="451.12" xlink:href="#ap"/>
   <use x="476.5" xlink:href="#dl"/>
   <use x="482.02" xlink:href="#ac"/>
   <use x="486.33" xlink:href="#ah"/>
   <use x="489.74" xlink:href="#cd"/>
  </g>
  <g transform="translate(0 426.4)">
   <use x="192.52" xlink:href="#at"/>
   <use x="367.5" xlink:href="#at"/>
   <use x="425.83" xlink:href="#at"/>
   <use x="494.29" xlink:href="#at"/>
  </g>
  <g transform="translate(0 418.8)">
   <use x="470.76" xlink:href="#ay"/>
   <use x="476.99" xlink:href="#am"/>
   <use x="481.79" xlink:href="#bi"/>
   <use x="486.35" xlink:href="#af"/>
   <use x="488.74" xlink:href="#al"/>
   <use x="491.14" xlink:href="#af"/>
   <use x="493.54" xlink:href="#ac"/>
   <use x="497.86" xlink:href="#ad"/>
   <use x="501.24" xlink:href="#bp"/>
  </g>
  <use x="219.2" y="448.03" xlink:href="#bk"/>
  <g transform="translate(0 451.2)">
   <use x="195.7" xlink:href="#be"/>
   <use x="200.5" xlink:href="#aq"/>
   <use x="206.37" xlink:href="#ay"/>
   <use x="212.85" xlink:href="#by"/>
   <use x="230.45" xlink:href="#ak"/>
   <use x="236.07" xlink:href="#ai"/>
   <use x="240.39" xlink:href="#co"/>
   <use x="244.71" xlink:href="#aj"/>
   <use x="247.1" xlink:href="#ai"/>
  </g>
 </g>
</svg>
