<?xml version="1.0" encoding="UTF-8"?>
<svg version="1.2" viewBox="0 0 445.6 356.4" xmlns="http://www.w3.org/2000/svg" xmlns:xlink="http://www.w3.org/1999/xlink">
 <defs>
  <symbol id="l" overflow="visible">
   <path d="m2.203 0v-.2656c-.5781 0-.6719 0-.6719-.3906v-5.344l-1.25.09375v.2656c.6094 0 .6719.0625.6719.4844v4.5c0 .3906-.09375.3906-.6719.3906v.2656l.9688-.03125z"/>
  </symbol>
  <symbol id="a" overflow="visible">
   <path d="m3.578-1.031c0-.07812-.0625-.09375-.1094-.09375-.07812 0-.09375.04688-.1094.1094-.2969.8906-1.078.8906-1.172.8906-.4219 0-.7656-.25-.9688-.5781-.2656-.4062-.2656-.9844-.2656-1.297h2.422c.1875 0 .2031 0 .2031-.1719 0-.8594-.4531-1.703-1.531-1.703-1.016 0-1.812.8906-1.812 1.969 0 1.156.9219 2 1.906 2 1.062 0 1.438-.9531 1.438-1.125zm-.5625-1.141h-2.047c.04688-1.297.7812-1.516 1.078-1.516.875 0 .9688 1.172.9688 1.516z"/>
  </symbol>
  <symbol id="h" overflow="visible">
   <path d="m3.109-1.109c0-.4531-.2656-.7188-.3594-.8125-.2812-.2812-.625-.3438-.9844-.4219-.4844-.09375-1.062-.2031-1.062-.7031 0-.3125.2188-.6562.9688-.6562.9531 0 .9844.7812 1 1.047.01562.07812.1094.07812.1094.07812.1094 0 .1094-.04688.1094-.2188v-.8594c0-.1562 0-.2188-.09375-.2188-.04688 0-.0625 0-.1719.1094l-.1406.1406c-.3281-.25-.6875-.25-.8125-.25-1.062 0-1.391.5781-1.391 1.062 0 .3125.1406.5469.375.7344.2812.2344.5156.2812 1.141.4062.1875.03125.9062.1719.9062.7969 0 .4375-.3125.7812-.9844.7812-.7188 0-1.031-.5-1.203-1.234-.01562-.1094-.03125-.1406-.125-.1406-.1094 0-.1094.0625-.1094.2188v1.141c0 .1406 0 .2031.09375.2031.04688 0 .0625 0 .2188-.1719.01562-.01562.01562-.03125.1719-.2031.3906.375.7656.375.9531.375 1 0 1.391-.5781 1.391-1.203z"/>
  </symbol>
  <symbol id="f" overflow="visible">
   <path d="m2.141 0v-.2656c-.5781 0-.6094-.04688-.6094-.375v-3.172l-1.219.09375v.2656c.5625 0 .6406.04688.6406.4688v2.328c0 .3906-.09375.3906-.6719.3906v.2656l.9531-.03125c.2969 0 .6094.01562.9062.03125zm-.4844-5.219c0-.2344-.2031-.4531-.4531-.4531-.2969 0-.4688.2344-.4688.4531 0 .2344.2031.4531.4531.4531.2969 0 .4688-.2344.4688-.4531z"/>
  </symbol>
  <symbol id="g" overflow="visible">
   <path d="m4.625 0v-.2656c-.4531 0-.6719 0-.6719-.2656v-1.641c0-.75 0-1.016-.2656-1.328-.125-.1406-.4062-.3125-.9062-.3125-.6406 0-1.047.3594-1.281.9062v-.9062l-1.219.09375v.2656c.5938 0 .6719.0625.6719.4844v2.312c0 .3906-.09375.3906-.6719.3906v.2656l.9688-.03125.9688.03125v-.2656c-.5781 0-.6719 0-.6719-.3906v-1.594c0-.8906.6094-1.375 1.172-1.375.5312 0 .6406.4688.6406.9531v2.016c0 .3906-.1094.3906-.6875.3906v.2656l.9844-.03125z"/>
  </symbol>
  <symbol id="dr" overflow="visible">
   <path d="m3.078-5.484c0-.3281-.3125-.6094-.7656-.6094-.6094 0-1.344.4531-1.344 1.375v1h-.6875v.2656h.6875v2.797c0 .3906-.09375.3906-.6719.3906v.2656l.9844-.03125c.3438 0 .75 0 1.094.03125v-.2656h-.1875c-.625 0-.6562-.09375-.6562-.4062v-2.781h.9844v-.2656h-1v-1c0-.7656.4062-1.188.7969-1.188.01562 0 .1562 0 .2812.0625-.1094.03125-.2656.1562-.2656.3594s.1406.375.375.375c.25 0 .375-.1719.375-.375z"/>
  </symbol>
  <symbol id="e" overflow="visible">
   <path d="m4.062-1.844c0-1.109-.8594-2.031-1.906-2.031-1.078 0-1.922.9531-1.922 2.031 0 1.109.9062 1.938 1.922 1.938 1.047 0 1.906-.8438 1.906-1.938zm-.7031-.07812c0 .3125 0 .7812-.2031 1.156-.1875.3906-.5625.6406-1 .6406-.375 0-.75-.1719-.9844-.5781-.2188-.375-.2188-.9062-.2188-1.219 0-.3281 0-.7969.2188-1.188.2344-.3906.6406-.5781.9844-.5781.375 0 .75.2031.9688.5625.2344.375.2344.875.2344 1.203z"/>
  </symbol>
  <symbol id="c" overflow="visible">
   <path d="m3.141-3.297c0-.2656-.2656-.5156-.6406-.5156-.625 0-.9375.5781-1.062.9375v-.9375l-1.203.09375v.2656c.6094 0 .6875.0625.6875.4844v2.312c0 .3906-.09375.3906-.6875.3906v.2656l1-.03125c.3438 0 .75 0 1.094.03125v-.2656h-.1875c-.6406 0-.6562-.09375-.6562-.4062v-1.328c0-.8594.3594-1.625 1.016-1.625h.09375c-.01562.01562-.1875.1094-.1875.3438s.1719.375.375.375c.1406 0 .3594-.1094.3594-.3906z"/>
  </symbol>
  <symbol id="o" overflow="visible">
   <path d="m7.031 0v-.2656c-.4531 0-.6719 0-.6875-.2656v-1.641c0-.75 0-1.016-.2656-1.328-.1094-.1406-.4062-.3125-.9062-.3125-.7188 0-1.109.5156-1.25.8438-.125-.75-.7656-.8438-1.141-.8438-.6406 0-1.047.3594-1.281.9062v-.9062l-1.219.09375v.2656c.5938 0 .6719.0625.6719.4844v2.312c0 .3906-.09375.3906-.6719.3906v.2656l.9688-.03125.9688.03125v-.2656c-.5781 0-.6719 0-.6719-.3906v-1.594c0-.8906.6094-1.375 1.172-1.375.5312 0 .6406.4688.6406.9531v2.016c0 .3906-.1094.3906-.6875.3906v.2656l.9844-.03125.9688.03125v-.2656c-.5781 0-.6719 0-.6719-.3906v-1.594c0-.8906.6094-1.375 1.156-1.375s.6406.4688.6406.9531v2.016c0 .3906-.09375.3906-.6719.3906v.2656l.9844-.03125z"/>
  </symbol>
  <symbol id="d" overflow="visible">
   <path d="m4.172-.7656v-.4844h-.2188v.4844c0 .5-.2188.5469-.3125.5469-.2812 0-.3125-.3906-.3125-.4219v-1.734c0-.3594 0-.7031-.3125-1.016-.3438-.3438-.7656-.4844-1.188-.4844-.7031 0-1.297.4062-1.297.9844 0 .25.1719.4062.3906.4062.25 0 .4062-.1719.4062-.4062 0-.09375-.04688-.3906-.4531-.3906.2344-.2969.6562-.4062.9375-.4062.4219 0 .9219.3438.9219 1.109v.3281c-.4375.01562-1.047.04688-1.594.3125-.6406.2812-.8594.7344-.8594 1.109 0 .7031.8281.9219 1.375.9219.5781 0 .9688-.3438 1.141-.75.03125.3438.2656.7031.6719.7031.1719 0 .7031-.1094.7031-.8125zm-1.438-.4375c0 .8125-.625 1.109-1.016 1.109-.4219 0-.7812-.2969-.7812-.7344 0-.4844.375-1.188 1.797-1.25z"/>
  </symbol>
  <symbol id="b" overflow="visible">
   <path d="m2.875-1.078v-.4844h-.2188v.4688c0 .6406-.2656.9688-.5781.9688-.5781 0-.5781-.7812-.5781-.9219v-2.406h1.234v-.2656h-1.234v-1.594h-.2188c-.01562.7031-.2656 1.625-1.109 1.672v.1875h.7344v2.375c0 1.062.7969 1.172 1.109 1.172.6094 0 .8594-.6094.8594-1.172z"/>
  </symbol>
  <symbol id="x" overflow="visible">
   <path d="m4.5-1.859c0-1.109-.8438-1.953-1.797-1.953-.6875 0-1.047.375-1.219.5625v-.5625l-1.25.09375v.2656c.625 0 .6875.04688.6875.4219v4.047c0 .3906-.09375.3906-.6875.3906v.2656l.9688-.01562.9844.01562v-.2656c-.5781 0-.6719 0-.6719-.3906v-1.531c.04688.1406.4062.6094 1.062.6094 1.031 0 1.922-.8438 1.922-1.953zm-.7188 0c0 1.031-.5938 1.766-1.234 1.766-.3594 0-.6875-.1719-.9062-.5312-.125-.1719-.125-.1875-.125-.3594v-1.922c.25-.4531.6719-.7031 1.109-.7031.625 0 1.156.7656 1.156 1.75z"/>
  </symbol>
  <symbol id="m" overflow="visible">
   <path d="m4.625 0v-.2656c-.6094 0-.6719-.0625-.6719-.4844v-3.062l-1.281.09375v.2656c.6094 0 .6875.0625.6875.4844v1.531c0 .75-.4219 1.344-1.047 1.344-.7344 0-.7656-.4062-.7656-.8594v-2.859l-1.266.09375v.2656c.6719 0 .6719.01562.6719.7969v1.297c0 .6719 0 1.453 1.312 1.453.4844 0 .8594-.2344 1.109-.7812v.7812z"/>
  </symbol>
  <symbol id="y" overflow="visible">
   <path d="m4.547 0v-.2656c-.5938 0-.6719-.0625-.6719-.4844v-5.25l-1.234.09375v.2656c.5938 0 .6719.0625.6719.4844v1.875c-.25-.3125-.625-.5312-1.094-.5312-1.016 0-1.922.8438-1.922 1.953 0 1.094.8438 1.953 1.828 1.953.5469 0 .9375-.2969 1.156-.5625v.5625zm-1.266-1.016c0 .1562 0 .1719-.09375.3125-.2656.4219-.6406.6094-1.016.6094-.3906 0-.7031-.2188-.9062-.5469-.2344-.3594-.25-.8594-.25-1.203 0-.3281.01562-.8438.2656-1.234.1719-.2656.5-.5469.9688-.5469.3125 0 .6719.125.9375.5156.09375.1406.09375.1562.09375.3125z"/>
  </symbol>
  <symbol id="ef" overflow="visible">
   <path d="m4.391-3.453v-.2656c-.2031.01562-.4531.01562-.6562.01562l-.75-.01562v.2656c.3281 0 .4219.2031.4219.375 0 .07812-.01562.1094-.04688.2031l-.8906 2.203-.9688-2.406c-.04688-.125-.04688-.1562-.04688-.1562 0-.2188.3281-.2188.4844-.2188v-.2656l-.9375.01562c-.2344 0-.5781 0-.8281-.01562v.2656c.5312 0 .5781.04688.6875.3125l1.234 3.078c.0625.1094.07812.1562.1875.1562s.1406-.07812.1875-.1562l1.125-2.812c.07812-.2031.2188-.5781.7969-.5781z"/>
  </symbol>
  <symbol id="do" overflow="visible">
   <path d="m4.453 0v-.2656c-.4688 0-.6094-.01562-.8125-.2656l-1.156-1.5c.25-.3281.5781-.75.7969-.9688.2656-.3125.6094-.4531 1.016-.4531v-.2656c-.2188.01562-.4844.01562-.7031.01562-.2656 0-.7188-.01562-.8281-.01562v.2656c.1875.01562.25.125.25.2656s-.09375.25-.125.2969l-.5469.6719-.6719-.8594c-.07812-.09375-.07812-.1094-.07812-.1562 0-.1406.1406-.2188.3125-.2188v-.2656l-.9375.01562c-.1875 0-.5938 0-.8281-.01562v.2656c.6094 0 .625 0 1.031.5312l.8438 1.109c-.4062.5156-.4062.5312-.8125 1.031s-.9219.5156-1.094.5156v.2656c.2188-.01562.4844-.03125.7188-.03125l.8125.03125v-.2656c-.1875-.03125-.25-.1406-.25-.2656 0-.1875.25-.4844.7812-1.109l.6562.875c.0625.09375.1719.2344.1719.2812 0 .07812-.07812.2031-.2969.2188v.2656l.9219-.03125c.2344 0 .5781.01562.8281.03125z"/>
  </symbol>
  <symbol id="n" overflow="visible">
   <path d="m3.578-1.031c0-.07812-.07812-.07812-.1094-.07812-.07812 0-.09375.03125-.1094.07812-.25.8125-.8125.9062-1.125.9062-.4688 0-1.219-.375-1.219-1.766 0-1.406.7031-1.766 1.156-1.766.07812 0 .625.01562.9375.3281-.3594.01562-.4062.2812-.4062.3906 0 .2188.1406.3906.3906.3906.2188 0 .3906-.1406.3906-.4062 0-.5781-.6562-.9219-1.312-.9219-1.078 0-1.875.9375-1.875 2.016 0 1.094.8594 1.953 1.859 1.953 1.156 0 1.422-1.031 1.422-1.125z"/>
  </symbol>
  <symbol id="du" overflow="visible">
   <path d="m2.391-1.609v-.5h-2.297v.5z"/>
  </symbol>
  <symbol id="dp" overflow="visible">
   <path d="m4.188-3.484c0-.1562-.09375-.4375-.4375-.4375-.1719 0-.5469.0625-.9219.4062-.3594-.2812-.7188-.2969-.9062-.2969-.8125 0-1.406.5938-1.406 1.25 0 .3906.1875.7188.4062.8906-.1094.1406-.2656.4219-.2656.7188 0 .2656.1094.5938.375.7656-.5156.1562-.7969.5312-.7969.875 0 .625.8594 1.094 1.922 1.094 1.016 0 1.906-.4375 1.906-1.109 0-.3125-.1094-.75-.5469-.9844-.4688-.25-.9688-.25-1.5-.25h-.6406c-.2812-.04688-.4531-.3125-.4531-.5938 0-.03125 0-.2188.1406-.4062.3438.25.6875.2812.8594.2812.7969 0 1.391-.6094 1.391-1.266 0-.3281-.125-.6406-.3438-.8438.3125-.2969.6094-.3281.7656-.3281h.09375c-.09375.03125-.1406.1406-.1406.2344 0 .1562.1094.25.25.25.09375 0 .25-.0625.25-.25zm-1.516.9219c0 .2344-.01562.5156-.1406.7344-.0625.09375-.2656.3438-.6094.3438-.75 0-.75-.8594-.75-1.062 0-.2344 0-.5156.1406-.7344.0625-.09375.2656-.3438.6094-.3438.75 0 .75.875.75 1.062zm.9531 3.25c0 .4688-.625.8906-1.469.8906-.875 0-1.469-.4375-1.469-.8906 0-.4062.3281-.7188.7188-.75h.5c.75 0 1.719 0 1.719.75z"/>
  </symbol>
  <symbol id="u" overflow="visible">
   <path d="m4.5-1.859c0-1.109-.8438-1.953-1.828-1.953-.6719 0-1.047.4062-1.188.5625v-2.75l-1.25.09375v.2656c.6094 0 .6875.0625.6875.4844v5.156h.2031l.3125-.5312c.1406.1875.5.625 1.141.625 1.031 0 1.922-.8438 1.922-1.953zm-.7188-.01562c0 .3125-.01562.8438-.2656 1.234-.1875.2656-.5156.5469-.9688.5469-.3906 0-.7031-.2031-.9062-.5312-.125-.1719-.125-.2031-.125-.3594v-1.781c0-.1562 0-.1719.09375-.3125.3281-.4844.8125-.5469 1.016-.5469.3906 0 .7031.2188.9062.5469.2344.3594.25.8438.25 1.203z"/>
  </symbol>
  <symbol id="dv" overflow="visible">
   <path d="m4.391-3.453v-.2656c-.2031.01562-.4531.01562-.6562.01562l-.75-.01562v.2656c.2656 0 .4062.1562.4062.375 0 .07812 0 .09375-.04688.2031l-.875 2.125-.9531-2.328c-.03125-.07812-.0625-.125-.0625-.1562 0-.2188.3281-.2188.4844-.2188v-.2656l-.9375.01562c-.2344 0-.5781 0-.8281-.01562v.2656c.4062 0 .5781 0 .6875.2969l1.297 3.156-.2188.5156c-.1875.4688-.4219 1.062-.9844 1.062-.03125 0-.2344 0-.4062-.1562.2812-.03125.3438-.2188.3438-.3594 0-.2188-.1719-.3594-.3594-.3594-.1719 0-.3594.1094-.3594.375 0 .375.3594.6875.7812.6875.5469 0 .9062-.4844 1.109-.9844l1.516-3.688c.2344-.5469.6719-.5469.8125-.5469z"/>
  </symbol>
  <symbol id="eg" overflow="visible">
   <path d="m4.422 0v-.2656c-.3281 0-.5156 0-.8438-.4531l-1.094-1.547c-.01562-.03125-.0625-.07812-.0625-.1094s.625-.5469.7031-.6094c.5469-.4531.9062-.4688 1.094-.4688v-.2656c-.25.01562-.3594.01562-.6094.01562-.3125 0-.8438-.01562-.9688-.01562v.2656c.1719 0 .25.09375.25.2188 0 .1719-.1094.2656-.1875.3281l-1.219 1.062v-4.156l-1.25.09375v.2656c.6094 0 .6875.0625.6875.4844v4.5c0 .3906-.09375.3906-.6875.3906v.2656l.9531-.03125.9531.03125v-.2656c-.5781 0-.6875 0-.6875-.3906v-.8906l.5625-.4688c.6562.9062 1.031 1.391 1.031 1.547 0 .1719-.1562.2031-.3125.2031v.2656l.9219-.03125c.2656 0 .5156.01562.7656.03125z"/>
  </symbol>
  <symbol id="er" overflow="visible">
   <path d="m6.078-3.453v-.2656c-.1875.01562-.4375.01562-.6406.01562l-.7969-.01562v.2656c.3125 0 .5.1562.5.4062 0 .0625 0 .07812-.04688.1875l-.7812 2.219-.8594-2.422c-.03125-.09375-.04688-.125-.04688-.1562 0-.2344.3438-.2344.5156-.2344v-.2656l-.8906.01562c-.2656 0-.5156 0-.7812-.01562v.2656c.3281 0 .4688.01562.5469.125.04688.04688.1406.3125.2031.4844l-.75 2.078-.8125-2.297c-.04688-.1094-.04688-.125-.04688-.1562 0-.2344.3438-.2344.5156-.2344v-.2656l-.9531.01562-.7969-.01562v.2656c.4375 0 .5312.01562.6406.2969l1.094 3.062c.03125.125.0625.1875.1719.1875s.125-.04688.1719-.1719l.875-2.438.875 2.453c.04688.09375.0625.1562.1875.1562.1094 0 .125-.07812.1719-.1562l1-2.844c.1562-.4219.4219-.5469.7344-.5469z"/>
  </symbol>
  <symbol id="eh" overflow="visible">
   <path d="m4.625 0v-.2656c-.4531 0-.6719 0-.6719-.2656v-1.641c0-.75 0-1.016-.2656-1.328-.125-.1406-.4062-.3125-.9062-.3125-.7344 0-1.109.5156-1.25.8281h-.01562v-3.016l-1.234.09375v.2656c.5938 0 .6719.0625.6719.4844v4.5c0 .3906-.09375.3906-.6719.3906v.2656l.9688-.03125.9688.03125v-.2656c-.5781 0-.6719 0-.6719-.3906v-1.594c0-.8906.6094-1.375 1.172-1.375.5312 0 .6406.4688.6406.9531v2.016c0 .3906-.1094.3906-.6875.3906v.2656l.9844-.03125z"/>
  </symbol>
  <symbol id="fh" overflow="visible">
   <path d="m4.547 0v-.2656c-.5781 0-.6719 0-.6719-.3906v-3.172l-1.078.07812c-.1406.01562-.1562.01562-.1562.01562-.01562.01562-.04688.01562-.1562.01562h-1.031v-.9844c0-.8594.75-1.203 1.281-1.203.2656 0 .5781.09375.75.2969-.3594.01562-.4062.25-.4062.3906 0 .2812.2188.3906.3906.3906.1875 0 .3906-.125.3906-.3906 0-.5156-.4688-.875-1.109-.875-.8125 0-1.828.4375-1.828 1.391v.9844h-.6875v.2656h.6875v2.797c0 .3906-.09375.3906-.6875.3906v.2656l.9688-.03125.9531.03125v-.2656c-.5781 0-.6719 0-.6719-.3906v-2.797h1.359c.4062 0 .4688.1094.4688.4688v2.328c0 .3906-.09375.3906-.6719.3906v.2656l.9531-.03125z"/>
  </symbol>
  <symbol id="dl" overflow="visible">
   <path d="m4.312-1.609c0-.8594-.5781-1.578-1.297-1.75l-1.109-.2656c-.5312-.125-.875-.5938-.875-1.094 0-.6094.4688-1.125 1.141-1.125 1.453 0 1.641 1.406 1.688 1.797.01562.0625.01562.1094.1094.1094.1094 0 .1094-.04688.1094-.2031v-1.75c0-.1406 0-.2031-.09375-.2031-.0625 0-.0625.01562-.125.1094l-.3125.5c-.25-.25-.6094-.6094-1.375-.6094-.9688 0-1.688.7656-1.688 1.672 0 .7188.4531 1.359 1.125 1.594.09375.03125.5469.125 1.141.2812.2344.0625.5.125.7344.4375.1875.2188.2812.5156.2812.7969 0 .6094-.4375 1.234-1.172 1.234-.25 0-.9062-.04688-1.359-.4688-.5-.4688-.5312-1.016-.5312-1.328-.01562-.09375-.07812-.09375-.1094-.09375-.1094 0-.1094.0625-.1094.2188v1.734c0 .1406 0 .2031.09375.2031.0625 0 .0625-.01562.125-.1094 0 0 .03125-.03125.3125-.5.2656.2969.8281.6094 1.594.6094 1.016 0 1.703-.8438 1.703-1.797z"/>
  </symbol>
  <symbol id="es" overflow="visible">
   <path d="m6.188 0v-.2656h-.2031c-.6719 0-.6875-.09375-.6875-.4062v-4.562c0-.2969.01562-.4062.6875-.4062h.2031v-.2656c-.2969.03125-.9375.03125-1.266.03125s-.9844 0-1.281-.03125v.2656h.2031c.6719 0 .6875.1094.6875.4062v2.031h-2.594v-2.031c0-.2969.03125-.4062.6875-.4062h.2031v-.2656c-.2969.03125-.9375.03125-1.266.03125s-.9688 0-1.281-.03125v.2656h.2188c.6562 0 .6719.1094.6719.4062v4.562c0 .3125-.01562.4062-.6719.4062h-.2188v.2656c.3125-.03125.9531-.03125 1.281-.03125s.9688 0 1.266.03125v-.2656h-.2031c-.6562 0-.6875-.09375-.6875-.4062v-2.266h2.594v2.266c0 .3125-.01562.4062-.6875.4062h-.2031v.2656c.2969-.03125.9375-.03125 1.266-.03125s.9844 0 1.281.03125z"/>
  </symbol>
  <symbol id="di" overflow="visible">
   <path d="m6.188 0v-.2656h-.1406c-.5312 0-.6406-.0625-.7344-.3438l-1.875-5.406c-.04688-.1094-.0625-.1719-.2031-.1719-.125 0-.1562.04688-.2031.1719l-1.781 5.172c-.1562.4375-.5.5625-.9688.5781v.2656l.875-.03125 1 .03125v-.2656c-.4375 0-.6562-.2188-.6562-.4375 0-.03125.01562-.125.01562-.1406l.4062-1.125h2.125l.4688 1.328c0 .03125.01562.07812.01562.1094 0 .2656-.4844.2656-.7188.2656v.2656c.3125-.03125.9219-.03125 1.25-.03125zm-2.234-2.234h-1.938l.9688-2.812z"/>
  </symbol>
  <symbol id="t" overflow="visible">
   <path d="m5.391-4.297c0-.8438-.8594-1.609-2.031-1.609h-3.062v.2656h.2188c.6562 0 .6719.1094.6719.4062v4.562c0 .3125-.01562.4062-.6719.4062h-.2188v.2656c.3125-.03125.9531-.03125 1.281-.03125s.9688 0 1.266.03125v-.2656h-.2031c-.6562 0-.6719-.09375-.6719-.4062v-2.062h1.453c1.031 0 1.969-.7031 1.969-1.562zm-.8906 0c0 .4062 0 1.344-1.375 1.344h-1.188v-2.328c0-.2969.01562-.3594.4219-.3594h.7656c1.375 0 1.375.9219 1.375 1.344z"/>
  </symbol>
  <symbol id="k" overflow="visible">
   <path d="m3.859-1.672c0-.6719-.5156-1.172-1.109-1.5l-.7656-.4375c-.4219-.2344-.7969-.5781-.7969-1.047 0-.5938.3594-1.125.9062-1.125.4844 0 .8594.3594 1 .8281-.03125 0-.07812-.01562-.125-.01562-.2188 0-.3906.1875-.3906.3906 0 .2188.1719.4062.3906.4062s.4062-.1875.4062-.4062c0-.8281-.5-1.594-1.281-1.594-.8125 0-1.422.6875-1.422 1.516 0 .375.125.7188.3438 1.016-.3906.2344-.7031.5625-.7031 1 0 .6562.5312 1.156 1.109 1.484l.7656.4375c.4375.2344.8125.5938.8125 1.062 0 .5781-.3594 1.109-.9062 1.109-.5 0-.8594-.3594-1-.8281.03125.01562.07812.01562.1094.01562.2188 0 .4062-.1719.4062-.3906s-.1875-.3906-.4062-.3906c-.2031 0-.3906.1719-.3906.3906 0 .8438.5 1.609 1.281 1.609.7969 0 1.422-.6875 1.422-1.516 0-.375-.125-.7188-.3594-1.016.3906-.2344.7031-.5625.7031-1zm-.6719 0c0 .2969-.03125.6094-.1875.8125-.1562-.1406-.3281-.2656-.5156-.3906l-.7656-.4219c-.375-.2188-.7188-.5469-.7188-.9688 0-.2969.01562-.6094.1875-.8125.1406.1406.3125.2656.5.375l.7812.4375c.375.2188.7188.5312.7188.9688z"/>
  </symbol>
  <symbol id="dq" overflow="visible">
   <path d="m3.953-1.766c0-1.094-.7656-1.922-1.734-1.922-.5781 0-.9062.4375-1.078.8594v-.2188c0-2.188 1.078-2.484 1.516-2.484.2031 0 .5625.04688.75.3438-.125 0-.4688 0-.4688.3906 0 .2656.2031.3906.3906.3906.1406 0 .4062-.07812.4062-.4219 0-.5156-.375-.9219-1.094-.9219-1.109 0-2.281 1.109-2.281 3.016 0 2.312 1 2.922 1.812 2.922.9531 0 1.781-.8125 1.781-1.953zm-.7812 0c0 .4062 0 .8438-.1406 1.156-.2656.5156-.6562.5625-.8594.5625-.5469 0-.8125-.5156-.8594-.6562-.1562-.4062-.1562-1.094-.1562-1.25 0-.6719.2812-1.531 1.062-1.531.125 0 .5312 0 .7969.5312.1562.3125.1562.7656.1562 1.188z"/>
  </symbol>
  <symbol id="j" overflow="visible">
   <path d="m1.656-.4531c0-.25-.2031-.4688-.4531-.4688s-.4531.2188-.4531.4688.2031.4531.4531.4531.4531-.2031.4531-.4531z"/>
  </symbol>
  <symbol id="dw" overflow="visible">
   <path d="m4.062-1.422v-.2656h-.8594v-3.938c0-.1719 0-.2188-.1406-.2188-.07812 0-.09375 0-.1719.09375l-2.656 4.062v.2656h2.312v.75c0 .3125-.03125.4062-.6562.4062h-.1875v.2656c.3594-.03125.7969-.03125 1.172-.03125.3594 0 .8125 0 1.172.03125v-.2656h-.1875c-.6406 0-.6562-.09375-.6562-.4062v-.75zm-1.469-.2656h-2.109l2.109-3.234z"/>
  </symbol>
  <symbol id="ei" overflow="visible">
   <path d="m5.031-2.234h-.2188c-.09375.8906-.2188 1.969-1.734 1.969h-.7031c-.4062 0-.4375-.0625-.4375-.3438v-4.609c0-.2969 0-.4219.8281-.4219h.2812v-.2656c-.3125.03125-1.094.03125-1.453.03125-.3281 0-1 0-1.312-.03125v.2656h.2188c.6562 0 .6719.1094.6719.4062v4.562c0 .3125-.01562.4062-.6719.4062h-.2188v.2656h4.5z"/>
  </symbol>
  <symbol id="dm" overflow="visible">
   <path d="m2.875 0v-.2656h-.2188c-.6875 0-.7188-.09375-.7188-.4062v-4.562c0-.2969.03125-.4062.7188-.4062h.2188v-.2656c-.2969.03125-.9844.03125-1.312.03125s-1.016 0-1.328-.03125v.2656h.2344c.6875 0 .7031.1094.7031.4062v4.562c0 .3125-.01562.4062-.7031.4062h-.2344v.2656c.3125-.03125 1-.03125 1.328-.03125s1.016 0 1.312.03125z"/>
  </symbol>
  <symbol id="ej" overflow="visible">
   <path d="m7.594 0v-.2656h-.2031c-.6719 0-.6875-.09375-.6875-.4062v-4.562c0-.2969.01562-.4062.6875-.4062h.2031v-.2656h-1.453c-.2344 0-.2344.01562-.2969.1719l-1.891 4.859-1.875-4.844c-.07812-.1875-.09375-.1875-.2969-.1875h-1.469v.2656h.2188c.6562 0 .6719.1094.6719.4062v4.328c0 .2344 0 .6406-.8906.6406v.2656l1.016-.03125 1.016.03125v-.2656c-.8906 0-.8906-.4062-.8906-.6406v-4.656l2.094 5.375c.03125.1094.07812.1875.1719.1875s.125-.0625.1562-.1719l2.125-5.469v4.969c0 .3125-.01562.4062-.6719.4062h-.2188v.2656c.3281-.03125.9062-.03125 1.25-.03125s.9219 0 1.234.03125z"/>
  </symbol>
  <symbol id="s" overflow="visible">
   <path d="m5.641-2.234h-.2188c-.2188 1.328-.4219 1.969-1.906 1.969h-1.141c-.4062 0-.4375-.0625-.4375-.3438v-2.312h.7812c.8438 0 .9375.2812.9375 1.016h.2188v-2.297h-.2188c0 .75-.09375 1.016-.9375 1.016h-.7812v-2.078c0-.2812.03125-.3438.4375-.3438h1.109c1.312 0 1.547.4844 1.688 1.672h.2188l-.2344-1.938h-4.875v.2656h.2188c.6562 0 .6719.09375.6719.4062v4.531c0 .3125-.01562.4062-.6719.4062h-.2188v.2656h4.984z"/>
  </symbol>
  <symbol id="et" overflow="visible">
   <path d="m3.953-1.484c0-.7031-.5469-1.375-1.453-1.562.7188-.2344 1.219-.8281 1.219-1.516 0-.7031-.7656-1.188-1.594-1.188-.875 0-1.531.5156-1.531 1.172 0 .2812.1875.4531.4375.4531.2812 0 .4531-.1875.4531-.4531 0-.4219-.4062-.4219-.5469-.4219.2656-.4219.8438-.5312 1.156-.5312.3438 0 .8281.1875.8281.9531 0 .1094-.01562.6094-.25 1-.25.4062-.5469.4375-.7656.4375-.0625.01562-.2656.03125-.3281.03125-.07812 0-.1406.01562-.1406.1094s.0625.09375.2188.09375h.375c.7031 0 1.031.5781 1.031 1.422 0 1.188-.5938 1.438-.9844 1.438-.375 0-1.016-.1562-1.312-.6562.2969.03125.5625-.1562.5625-.4844 0-.3125-.2344-.4844-.4844-.4844-.2031 0-.4844.125-.4844.5 0 .7969.8125 1.359 1.75 1.359 1.047 0 1.844-.7812 1.844-1.672z"/>
  </symbol>
  <symbol id="dx" overflow="visible">
   <path d="m1.75-.01562c0-.5469-.2031-.9062-.5469-.9062-.2969 0-.4531.2344-.4531.4688 0 .2188.1406.4531.4531.4531.125 0 .25-.04688.3438-.1406.01562.6875-.2188 1.219-.6094 1.625-.04688.04688-.0625.04688-.0625.09375 0 .0625.04688.09375.09375.09375.1094 0 .7812-.6875.7812-1.688z"/>
  </symbol>
  <symbol id="eu" overflow="visible">
   <path d="m3.875-1.734c0-1.031-.7031-1.891-1.641-1.891-.4062 0-.7812.1406-1.094.4375v-1.688c.1719.04688.4531.1094.7344.1094 1.062 0 1.672-.7812 1.672-.8906 0-.0625-.03125-.09375-.09375-.09375 0 0-.01562 0-.0625.01562-.1719.07812-.5938.25-1.172.25-.3594 0-.75-.04688-1.156-.2344-.0625-.03125-.1094-.03125-.1094-.03125-.07812 0-.07812.07812-.07812.2188v2.547c0 .1562 0 .2344.125.2344.04688 0 .07812-.03125.1094-.07812.09375-.1406.4062-.6094 1.109-.6094.4531 0 .6719.3906.7344.5469.1406.3281.1562.6562.1562 1.094 0 .2969 0 .8281-.2031 1.188-.2031.3281-.5312.5625-.9219.5625-.6406 0-1.125-.4688-1.281-.9688.03125 0 .0625.01562.1562.01562.2812 0 .4219-.2188.4219-.4219 0-.2188-.1406-.4219-.4219-.4219-.125 0-.4219.0625-.4219.4531 0 .75.5938 1.578 1.562 1.578 1 0 1.875-.8281 1.875-1.922z"/>
  </symbol>
  <symbol id="dy" overflow="visible">
   <path d="m6.344-2.094v-.2656l-1.047.03125c-.3438 0-1.078 0-1.391-.03125v.2656h.2812c.7656 0 .7969.09375.7969.4219v.5469c0 .9688-1.094 1.047-1.344 1.047-.5625 0-2.266-.2969-2.266-2.875s1.703-2.875 2.219-2.875c.9219 0 1.719.7812 1.891 2.047.01562.125.01562.1562.125.1562.1406 0 .1406-.03125.1406-.2188v-2.047c0-.1406 0-.2031-.09375-.2031-.03125 0-.0625 0-.1406.1094l-.4219.6406c-.2812-.2812-.75-.75-1.609-.75-1.594 0-3 1.375-3 3.141s1.375 3.141 3.031 3.141c.625 0 1.312-.2188 1.609-.7344.1094.1875.4531.5312.5469.5312.07812 0 .07812-.0625.07812-.1875v-1.5c0-.3438.04688-.3906.5938-.3906z"/>
  </symbol>
  <symbol id="i" overflow="visible">
   <path d="m3.625 0v-.2656h-.2812c-.7812 0-.7969-.09375-.7969-.4219v-4.844c0-.2031 0-.2188-.2031-.2188-.5312.5469-1.297.5469-1.578.5469v.2656c.1719 0 .6875 0 1.141-.2188v4.469c0 .3125-.03125.4219-.8125.4219h-.2656v.2656c.2969-.03125 1.047-.03125 1.391-.03125s1.094 0 1.406.03125z"/>
  </symbol>
  <symbol id="r" overflow="visible">
   <path d="m3.875-1.5h-.2188c-.03125.25-.09375.6406-.1875.7656-.0625.0625-.625.0625-.8125.0625h-1.562l.9219-.8906c1.344-1.188 1.859-1.656 1.859-2.516 0-.9844-.7656-1.672-1.828-1.672-.9688 0-1.609.7969-1.609 1.562 0 .4844.4219.4844.4531.4844.1406 0 .4531-.1094.4531-.4688 0-.2188-.1562-.4375-.4688-.4375h-.1094c.2031-.5625.6719-.875 1.172-.875.7812 0 1.156.7031 1.156 1.406 0 .6875-.4375 1.375-.9062 1.906l-1.656 1.859c-.09375.09375-.09375.1094-.09375.3125h3.203z"/>
  </symbol>
  <symbol id="ev" overflow="visible">
   <path d="m4.188-5.562h-2.094c-1.062 0-1.078-.1094-1.109-.2812h-.2188l-.2812 1.781h.2188c.01562-.1406.09375-.6875.2188-.7812.04688-.0625.7344-.0625.8438-.0625h1.781l-.9688 1.375c-.7656 1.156-1.062 2.359-1.062 3.25 0 .07812 0 .4688.4062.4688.3906 0 .3906-.3906.3906-.4688v-.4375c0-.4844.03125-.9531.09375-1.422.03125-.2031.1562-.9375.5469-1.484l1.156-1.641c.07812-.09375.07812-.125.07812-.2969z"/>
  </symbol>
  <symbol id="ek" overflow="visible">
   <path d="m5.266-3.938-.2344-1.938h-4.75v.2656h.2188c.6562 0 .6719.09375.6719.4062v4.531c0 .3125-.01562.4062-.6719.4062h-.2188v.2656c.3125-.03125.9844-.03125 1.312-.03125.3594 0 1.141 0 1.453.03125v-.2656h-.2812c-.8281 0-.8281-.1094-.8281-.4219v-2.125h.75c.8281 0 .9219.2812.9219 1.016h.2031v-2.297h-.2031c0 .7344-.09375 1.016-.9219 1.016h-.75v-2.188c0-.2812.03125-.3438.4375-.3438h1.031c1.297 0 1.516.4844 1.656 1.672z"/>
  </symbol>
  <symbol id="fi" overflow="visible">
   <path d="m4.547 0v-.2656c-.5781 0-.6719 0-.6719-.3906v-5.344l-.3125.0625c-.03125 0-.03125-.01562-.07812-.03125-.2656-.125-.625-.125-.7188-.125-.9062 0-1.844.4844-1.844 1.391v.9844h-.6875v.2656h.6875v2.797c0 .3906-.09375.3906-.6875.3906v.2656l.9688-.03125.9531.03125v-.2656c-.5781 0-.6719 0-.6719-.3906v-2.797h1.828v2.797c0 .3906-.09375.3906-.6719.3906v.2656l.9531-.03125zm-1.234-3.719h-1.859v-.9844c0-.7969.6562-1.203 1.297-1.203.07812 0 .3125 0 .5625.07812-.07812.03125-.2188.125-.2188.3438 0 .1562.0625.2969.2188.3438z"/>
  </symbol>
  <symbol id="ew" overflow="visible">
   <path d="m3.953-1.453c0-.3125-.09375-.7031-.4219-1.062-.1719-.1875-.3125-.2656-.8594-.6094.625-.3281 1.047-.7656 1.047-1.344 0-.7969-.7656-1.281-1.562-1.281-.8594 0-1.562.6406-1.562 1.438 0 .1562.01562.5469.375.9531.1094.1094.4219.3125.6406.4688-.5.25-1.25.7344-1.25 1.578 0 .9219.8906 1.5 1.797 1.5.9688 0 1.797-.7188 1.797-1.641zm-.625-3.016c0 .5-.3281.9062-.8438 1.219l-1.078-.7031c-.3906-.25-.4375-.5469-.4375-.7031 0-.5156.5625-.875 1.188-.875s1.172.4375 1.172 1.062zm.1875 3.328c0 .6406-.6406 1.094-1.359 1.094-.7344 0-1.359-.5469-1.359-1.266 0-.5.2812-1.047 1.016-1.453l1.062.6719c.2344.1719.6406.4219.6406.9531z"/>
  </symbol>
  <symbol id="el" overflow="visible">
   <path d="m6.328-.7656c0-.04688 0-.1406-.1094-.1406-.09375 0-.09375.07812-.1094.1406-.04688.6094-.3594.7656-.5781.7656-.4219 0-.4844-.4375-.6094-1.25l-.1094-.6875c-.1562-.5469-.5781-.8438-1.047-1 .8281-.2031 1.5-.7344 1.5-1.406 0-.8281-.9844-1.562-2.25-1.562h-2.719v.2656h.2188c.6562 0 .6719.1094.6719.4062v4.562c0 .3125-.01562.4062-.6719.4062h-.2188v.2656c.3125-.03125.9375-.03125 1.266-.03125.3438 0 .9531 0 1.266.03125v-.2656h-.2031c-.6719 0-.6875-.09375-.6875-.4062v-2.188h.9844c.1406 0 .5156 0 .8125.2969.3281.3125.3281.5781.3281 1.156 0 .5625 0 .9062.3594 1.234.3438.3125.8281.3594 1.078.3594.6719 0 .8281-.7031.8281-.9531zm-1.953-3.578c0 .5938-.2031 1.297-1.484 1.297h-.9531v-2.234c0-.2031 0-.3125.1875-.3281.09375-.03125.3438-.03125.5156-.03125.7656 0 1.734.04688 1.734 1.297z"/>
  </symbol>
  <symbol id="em" overflow="visible">
   <path d="m6.188-5.641v-.2656l-1.016.03125-1-.03125v.2656c.8906 0 .8906.4062.8906.6406v3.688l-3.062-4.484c-.07812-.09375-.07812-.1094-.25-.1094h-1.469v.2656h.25c.1406 0 .3125.01562.4375.03125.2031.01562.2031.03125.2031.1875v4.516c0 .2344 0 .6406-.8906.6406v.2656l1.016-.03125 1.016.03125v-.2656c-.8906 0-.8906-.4062-.8906-.6406v-4.5c.03125.04688.04688.0625.07812.1094l3.531 5.188c.07812.09375.07812.1094.1406.1094.125 0 .125-.0625.125-.2188v-4.781c0-.2344 0-.6406.8906-.6406z"/>
  </symbol>
  <symbol id="ex" overflow="visible">
   <path d="m1.812.4375v-4.25l-1.312.09375v.2656c.6719 0 .75.0625.75.4844v3.422c0 .3906-.07812 1.125-.6406 1.125-.04688 0-.2344 0-.4688-.1094.1406-.03125.3125-.1562.3125-.3906 0-.2188-.1562-.3906-.4062-.3906-.2344 0-.3906.1719-.3906.3906 0 .4531.4844.6875.9688.6875.6562 0 1.188-.5469 1.188-1.328zm0-5.656c0-.2344-.2031-.4531-.4531-.4531-.2969 0-.4688.2344-.4688.4531 0 .2344.2031.4531.4531.4531.2969 0 .4688-.2344.4688-.4531z"/>
  </symbol>
  <symbol id="ey" overflow="visible">
   <path d="m3.953-2.844c0-2.328-1-2.906-1.766-2.906-.4844 0-.9062.1562-1.266.5469-.3594.375-.5625.75-.5625 1.391 0 1.078.7656 1.922 1.734 1.922.5312 0 .875-.3594 1.078-.8594v.2812c0 2.016-.9062 2.422-1.406 2.422-.1406 0-.6094-.01562-.8438-.3125.3906 0 .4531-.25.4531-.4062 0-.2656-.2031-.3906-.4062-.3906-.125 0-.3906.07812-.3906.4062 0 .5781.4688.9375 1.203.9375 1.109 0 2.172-1.172 2.172-3.031zm-.7969-.7969c0 .7188-.2969 1.562-1.062 1.562-.125 0-.5312 0-.7969-.5469-.1562-.3281-.1562-.75-.1562-1.172 0-.4688 0-.875.1875-1.203.2344-.4219.5625-.5312.8594-.5312.3906 0 .6875.2812.8281.6719.1094.2812.1406.8281.1406 1.219z"/>
  </symbol>
  <symbol id="ez" overflow="visible">
   <path d="m5.75-2.016c0-.07812 0-.1406-.1094-.1406s-.1094.04688-.1094.1406c-.07812 1.234-1 1.938-1.938 1.938-.5312 0-2.219-.2969-2.219-2.875s1.688-2.875 2.203-2.875c.9531 0 1.719.7969 1.891 2.047.01562.125.01562.1562.1406.1562.1406 0 .1406-.03125.1406-.2188v-2.047c0-.1406 0-.2031-.09375-.2031-.04688 0-.07812 0-.1406.1094l-.4375.6406c-.3125-.3125-.7656-.75-1.594-.75-1.609 0-3 1.375-3 3.141 0 1.781 1.406 3.141 3 3.141 1.422 0 2.266-1.203 2.266-2.203z"/>
  </symbol>
  <symbol id="fj" overflow="visible">
   <path d="m3.969-2.766c0-.6875-.03125-1.375-.3438-2.016-.3906-.8281-1.109-.9688-1.469-.9688-.5156 0-1.141.2188-1.5 1.031-.2812.5938-.3125 1.266-.3125 1.953 0 .6562.03125 1.422.375 2.078.375.7031 1.016.875 1.438.875.4688 0 1.125-.1719 1.5-1 .2812-.5938.3125-1.266.3125-1.953zm-.7188-.1094c0 .6562 0 1.234-.09375 1.797-.125.8125-.6094 1.078-1 1.078-.3438 0-.8438-.2188-1-1.047-.1094-.5156-.1094-1.312-.1094-1.828 0-.5469 0-1.109.07812-1.578.1562-1.031.8125-1.109 1.031-1.109.2812 0 .8438.1562 1.016 1.016.07812.4844.07812 1.141.07812 1.672z"/>
  </symbol>
  <symbol id="fk" overflow="visible">
   <path d="m5.625-1.578c0-.75-.7031-1.406-1.672-1.5.8438-.1719 1.438-.7188 1.438-1.359 0-.75-.7969-1.469-1.922-1.469h-3.156v.2656h.2031c.6719 0 .6875.1094.6875.4062v4.562c0 .3125-.01562.4062-.6875.4062h-.2031v.2656h3.391c1.141 0 1.922-.7656 1.922-1.578zm-1.078-2.859c0 .5469-.4219 1.281-1.375 1.281h-1.25v-2.125c0-.2969.01562-.3594.4219-.3594h1.062c.8438 0 1.141.7344 1.141 1.203zm.2188 2.844c0 .625-.4531 1.328-1.344 1.328h-1.078c-.4062 0-.4219-.0625-.4219-.3438v-2.359h1.625c.8438 0 1.219.7969 1.219 1.375z"/>
  </symbol>
  <symbol id="fl" overflow="visible">
   <path d="m5.922-3.906-.1719-1.938h-5.281l-.1562 1.938h.2188c.1094-1.391.25-1.672 1.547-1.672.1562 0 .3906 0 .4688.01562.1875.03125.1875.125.1875.3281v4.547c0 .2969 0 .4219-.9062.4219h-.3438v.2656c.3438-.03125 1.234-.03125 1.625-.03125.4062 0 1.281 0 1.641.03125v-.2656h-.3438c-.9062 0-.9062-.125-.9062-.4219v-4.547c0-.1719 0-.2969.1562-.3281.09375-.01562.3281-.01562.4844-.01562 1.312 0 1.438.2812 1.562 1.672z"/>
  </symbol>
  <symbol id="fm" overflow="visible">
   <path d="m0 2.203h.2656c0-.5781 0-.6719.3906-.6719h5.344l-.09375-1.25h-.2656c0 .6094-.0625.6719-.4844.6719h-4.5c-.3906 0-.3906-.09375-.3906-.6719h-.2656l.03125.9688z"/>
  </symbol>
  <symbol id="eo" overflow="visible">
   <path d="m1.844 4.062c1.109 0 2.031-.8594 2.031-1.906 0-1.078-.9531-1.922-2.031-1.922-1.109 0-1.938.9062-1.938 1.922 0 1.047.8438 1.906 1.938 1.906zm.07812-.7031c-.3125 0-.7812 0-1.156-.2031-.3906-.1875-.6406-.5625-.6406-1 0-.375.1719-.75.5781-.9844.375-.2188.9062-.2188 1.219-.2188.3281 0 .7969 0 1.188.2188.3906.2344.5781.6406.5781.9844 0 .375-.2031.75-.5625.9688-.375.2344-.875.2344-1.203.2344z"/>
  </symbol>
  <symbol id="fo" overflow="visible">
   <path d="m3.453 6.078h.2656c-.01562-.1875-.01562-.4375-.01562-.6406l.01562-.7969h-.2656c0 .3125-.1562.5-.4062.5-.0625 0-.07812 0-.1875-.04688l-2.219-.7812 2.422-.8594c.09375-.03125.125-.04688.1562-.04688.2344 0 .2344.3438.2344.5156h.2656l-.01562-.8906c0-.2656 0-.5156.01562-.7812h-.2656c0 .3281-.01562.4688-.125.5469-.04688.04688-.3125.1406-.4844.2031l-2.078-.75 2.297-.8125c.1094-.04688.125-.04688.1562-.04688.2344 0 .2344.3438.2344.5156h.2656l-.01562-.9531.01562-.7969h-.2656c0 .4375-.01562.5312-.2969.6406l-3.062 1.094c-.125.03125-.1875.0625-.1875.1719s.04688.125.1719.1719l2.438.875-2.453.875c-.09375.04688-.1562.0625-.1562.1875 0 .1094.07812.125.1562.1719l2.844 1c.4219.1562.5469.4219.5469.7344z"/>
  </symbol>
  <symbol id="fd" overflow="visible">
   <path d="m1.031 3.578c.07812 0 .09375-.0625.09375-.1094 0-.07812-.04688-.09375-.1094-.1094-.8906-.2969-.8906-1.078-.8906-1.172 0-.4219.25-.7656.5781-.9688.4062-.2656.9844-.2656 1.297-.2656v2.422c0 .1875 0 .2031.1719.2031.8594 0 1.703-.4531 1.703-1.531 0-1.016-.8906-1.812-1.969-1.812-1.156 0-2 .9219-2 1.906 0 1.062.9531 1.438 1.125 1.438zm1.141-.5625v-2.047c1.297.04688 1.516.7812 1.516 1.078 0 .875-1.172.9688-1.516.9688z"/>
  </symbol>
  <symbol id="dz" overflow="visible">
   <path d="m3.297 3.141c.2656 0 .5156-.2656.5156-.6406 0-.625-.5781-.9375-.9375-1.062h.9375l-.09375-1.203h-.2656c0 .6094-.0625.6875-.4844.6875h-2.312c-.3906 0-.3906-.09375-.3906-.6875h-.2656l.03125 1c0 .3438 0 .75-.03125 1.094h.2656v-.1875c0-.6406.09375-.6562.4062-.6562h1.328c.8594 0 1.625.3594 1.625 1.016v.09375c-.01562-.01562-.1094-.1875-.3438-.1875s-.375.1719-.375.375c0 .1406.1094.3594.3906.3594z"/>
  </symbol>
  <symbol id="ea" overflow="visible">
   <path d="m.7656 4.172h.4844v-.2188h-.4844c-.5 0-.5469-.2188-.5469-.3125 0-.2812.3906-.3125.4219-.3125h1.734c.3594 0 .7031 0 1.016-.3125.3438-.3438.4844-.7656.4844-1.188 0-.7031-.4062-1.297-.9844-1.297-.25 0-.4062.1719-.4062.3906 0 .25.1719.4062.4062.4062.09375 0 .3906-.04688.3906-.4531.2969.2344.4062.6562.4062.9375 0 .4219-.3438.9219-1.109.9219h-.3281c-.01562-.4375-.04688-1.047-.3125-1.594-.2812-.6406-.7344-.8594-1.109-.8594-.7031 0-.9219.8281-.9219 1.375 0 .5781.3438.9688.75 1.141-.3438.03125-.7031.2656-.7031.6719 0 .1719.1094.7031.8125.7031zm.4375-1.438c-.8125 0-1.109-.625-1.109-1.016 0-.4219.2969-.7812.7344-.7812.4844 0 1.188.375 1.25 1.797z"/>
  </symbol>
  <symbol id="fe" overflow="visible">
   <path d="m1.859 4.5c1.109 0 1.953-.8438 1.953-1.828 0-.6719-.4062-1.047-.5625-1.188h2.75l-.09375-1.25h-.2656c0 .6094-.0625.6875-.4844.6875h-5.156v.2031l.5312.3125c-.1875.1406-.625.5-.625 1.141 0 1.031.8438 1.922 1.953 1.922zm.01562-.7188c-.3125 0-.8438-.01562-1.234-.2656-.2656-.1875-.5469-.5156-.5469-.9688 0-.3906.2031-.7031.5312-.9062.1719-.125.2031-.125.3594-.125h1.781c.1562 0 .1719 0 .3125.09375.4844.3281.5469.8125.5469 1.016 0 .3906-.2188.7031-.5469.9062-.3594.2344-.8438.25-1.203.25z"/>
  </symbol>
  <symbol id="ff" overflow="visible">
   <path d="m1.109 3.109c.4531 0 .7188-.2656.8125-.3594.2812-.2812.3438-.625.4219-.9844.09375-.4844.2031-1.062.7031-1.062.3125 0 .6562.2188.6562.9688 0 .9531-.7812.9844-1.047 1-.07812.01562-.07812.1094-.07812.1094 0 .1094.04688.1094.2188.1094h.8594c.1562 0 .2188 0 .2188-.09375 0-.04688 0-.0625-.1094-.1719l-.1406-.1406c.25-.3281.25-.6875.25-.8125 0-1.062-.5781-1.391-1.062-1.391-.3125 0-.5469.1406-.7344.375-.2344.2812-.2812.5156-.4062 1.141-.03125.1875-.1719.9062-.7969.9062-.4375 0-.7812-.3125-.7812-.9844 0-.7188.5-1.031 1.234-1.203.1094-.01562.1406-.03125.1406-.125 0-.1094-.0625-.1094-.2188-.1094h-1.141c-.1406 0-.2031 0-.2031.09375 0 .04688 0 .0625.1719.2188.01562.01562.03125.01562.2031.1719-.375.3906-.375.7656-.375.9531 0 1 .5781 1.391 1.203 1.391z"/>
  </symbol>
  <symbol id="eb" overflow="visible">
   <path d="m1.078 2.875h.4844v-.2188h-.4688c-.6406 0-.9688-.2656-.9688-.5781 0-.5781.7812-.5781.9219-.5781h2.406v1.234h.2656v-1.234h1.594v-.2188c-.7031-.01562-1.625-.2656-1.672-1.109h-.1875v.7344h-2.375c-1.062 0-1.172.7969-1.172 1.109 0 .6094.6094.8594 1.172.8594z"/>
  </symbol>
  <symbol id="fa" overflow="visible">
   <path d="m1.031 3.578c.07812 0 .07812-.07812.07812-.1094 0-.07812-.03125-.09375-.07812-.1094-.8125-.25-.9062-.8125-.9062-1.125 0-.4688.375-1.219 1.766-1.219 1.406 0 1.766.7031 1.766 1.156 0 .07812-.01562.625-.3281.9375-.01562-.3594-.2812-.4062-.3906-.4062-.2188 0-.3906.1406-.3906.3906 0 .2188.1406.3906.4062.3906.5781 0 .9219-.6562.9219-1.312 0-1.078-.9375-1.875-2.016-1.875-1.094 0-1.953.8594-1.953 1.859 0 1.156 1.031 1.422 1.125 1.422z"/>
  </symbol>
  <symbol id="en" overflow="visible">
   <path d="m0 2.141h.2656c0-.5781.04688-.6094.375-.6094h3.172l-.09375-1.219h-.2656c0 .5625-.04688.6406-.4688.6406h-2.328c-.3906 0-.3906-.09375-.3906-.6719h-.2656l.03125.9531c0 .2969-.01562.6094-.03125.9062zm5.219-.4844c.2344 0 .4531-.2031.4531-.4531 0-.2969-.2344-.4688-.4531-.4688-.2344 0-.4531.2031-.4531.4531 0 .2969.2344.4688.4531.4688z"/>
  </symbol>
  <symbol id="fb" overflow="visible">
   <path d="m0 4.625h.2656c0-.4531 0-.6719.2656-.6719h1.641c.75 0 1.016 0 1.328-.2656.1406-.125.3125-.4062.3125-.9062 0-.6406-.3594-1.047-.9062-1.281h.9062l-.09375-1.219h-.2656c0 .5938-.0625.6719-.4844.6719h-2.312c-.3906 0-.3906-.09375-.3906-.6719h-.2656l.03125.9688-.03125.9688h.2656c0-.5781 0-.6719.3906-.6719h1.594c.8906 0 1.375.6094 1.375 1.172 0 .5312-.4688.6406-.9531.6406h-2.016c-.3906 0-.3906-.1094-.3906-.6875h-.2656l.03125.9844z"/>
  </symbol>
  <symbol id="fc" overflow="visible">
   <path d="m0 4.625h.2656c0-.4531 0-.6719.2656-.6719h1.641c.75 0 1.016 0 1.328-.2656.1406-.125.3125-.4062.3125-.9062 0-.7344-.5156-1.109-.8281-1.25v-.01562h3.016l-.09375-1.234h-.2656c0 .5938-.0625.6719-.4844.6719h-4.5c-.3906 0-.3906-.09375-.3906-.6719h-.2656l.03125.9688-.03125.9688h.2656c0-.5781 0-.6719.3906-.6719h1.594c.8906 0 1.375.6094 1.375 1.172 0 .5312-.4688.6406-.9531.6406h-2.016c-.3906 0-.3906-.1094-.3906-.6875h-.2656l.03125.9844z"/>
  </symbol>
  <symbol id="fn" overflow="visible">
   <path d="m3.484 4.188c.1562 0 .4375-.09375.4375-.4375 0-.1719-.0625-.5469-.4062-.9219.2812-.3594.2969-.7188.2969-.9062 0-.8125-.5938-1.406-1.25-1.406-.3906 0-.7188.1875-.8906.4062-.1406-.1094-.4219-.2656-.7188-.2656-.2656 0-.5938.1094-.7656.375-.1562-.5156-.5312-.7969-.875-.7969-.625 0-1.094.8594-1.094 1.922 0 1.016.4375 1.906 1.109 1.906.3125 0 .75-.1094.9844-.5469.25-.4688.25-.9688.25-1.5v-.6406c.04688-.2812.3125-.4531.5938-.4531.03125 0 .2188 0 .4062.1406-.25.3438-.2812.6875-.2812.8594 0 .7969.6094 1.391 1.266 1.391.3281 0 .6406-.125.8438-.3438.2969.3125.3281.6094.3281.7656v.09375c-.03125-.09375-.1406-.1406-.2344-.1406-.1562 0-.25.1094-.25.25 0 .09375.0625.25.25.25zm-.9219-1.516c-.2344 0-.5156-.01562-.7344-.1406-.09375-.0625-.3438-.2656-.3438-.6094 0-.75.8594-.75 1.062-.75.2344 0 .5156 0 .7344.1406.09375.0625.3438.2656.3438.6094 0 .75-.875.75-1.062.75zm-3.25.9531c-.4688 0-.8906-.625-.8906-1.469 0-.875.4375-1.469.8906-1.469.4062 0 .7188.3281.75.7188v.5c0 .75 0 1.719-.75 1.719z"/>
  </symbol>
  <symbol id="w" overflow="visible">
   <path d="m1.844 0v-.2188c-.4531 0-.5312 0-.5312-.3281v-4.375l-1.062.07812v.2188c.4844 0 .5469.04688.5469.3906v3.688c0 .3281-.07812.3281-.5469.3281v.2188c.3438-.01562.4688-.01562.7969-.01562.3438 0 .4531 0 .7969.01562z"/>
  </symbol>
  <symbol id="z" overflow="visible">
   <path d="m3.438-1.516c0-.9219-.7344-1.656-1.609-1.656-.9062 0-1.625.75-1.625 1.656 0 .8906.7344 1.594 1.609 1.594.9062 0 1.625-.7188 1.625-1.594zm-.6094-.0625c0 .2656 0 .6719-.1875.9844-.1875.3281-.5156.4688-.8125.4688-.3594 0-.6562-.1719-.8281-.4531-.1719-.2969-.1875-.6719-.1875-1 0-.2656 0-.6562.1875-.9531.2031-.3594.5625-.4688.8125-.4688.4062 0 .7031.2188.8438.4688.1562.2969.1719.6562.1719.9531z"/>
  </symbol>
  <symbol id="ed" overflow="visible">
   <path d="m3.031-.8438c0-.07812-.07812-.07812-.1094-.07812-.0625 0-.0625 0-.1094.125-.1719.4844-.5625.6719-.9219.6719-.4531 0-1.047-.3594-1.047-1.422 0-1.094.5781-1.438 1-1.438.09375 0 .4688.01562.7344.2031-.1406.01562-.2812.125-.2812.3281 0 .1875.1406.3281.3281.3281.1719 0 .3281-.125.3281-.3438 0-.4375-.5-.7031-1.125-.7031-.9062 0-1.594.75-1.594 1.641 0 .9219.75 1.609 1.578 1.609.9844 0 1.219-.8594 1.219-.9219z"/>
  </symbol>
  <symbol id="q" overflow="visible">
   <path d="m3.531-.625v-.4062h-.2031v.3906c0 .07812 0 .4375-.25.4375-.2656 0-.2656-.3438-.2656-.4531v-1.25c0-.4062 0-.6406-.3125-.9375-.2656-.2344-.6094-.3281-.9531-.3281-.6094 0-1.094.2969-1.094.75 0 .2188.1406.3438.3281.3438s.3281-.1562.3281-.3281c0-.3125-.3281-.3438-.3281-.3438.2031-.1875.5312-.25.75-.25.3594 0 .7656.2656.7656.8906v.2344c-.3906.01562-.9219.04688-1.391.2812-.5156.25-.6719.6094-.6719.9062 0 .5781.6875.7656 1.156.7656.5938 0 .8594-.3906.9688-.5938.03125.2969.2344.5625.5469.5625.1719 0 .625-.1094.625-.6719zm-1.234-.375c0 .6875-.5312.9062-.8438.9062-.3438 0-.6562-.25-.6562-.5938 0-.4688.4062-.9688 1.5-1.016z"/>
  </symbol>
  <symbol id="ep" overflow="visible">
   <path d="m3.031-.8438c0-.04688-.03125-.09375-.1094-.09375-.0625 0-.07812.04688-.09375.07812-.2344.7188-.875.7344-.9844.7344-.3281 0-.625-.1875-.7812-.4219-.2344-.3594-.25-.7812-.25-1.078h2.031c.1562 0 .1875 0 .1875-.1406 0-.7344-.4062-1.406-1.312-1.406-.8438 0-1.516.7344-1.516 1.609 0 .9375.75 1.641 1.609 1.641.875 0 1.219-.7656 1.219-.9219zm-.4844-.9531h-1.719c.0625-1.094.7031-1.203.8906-1.203.3906 0 .8281.2969.8281 1.203z"/>
  </symbol>
  <symbol id="eq" overflow="visible">
   <path d="m3.75 0v-.2188c-.2812 0-.5 0-.6562-.2031l-.9375-1.172c-.04688-.0625-.04688-.07812-.04688-.07812s.5625-.6875.6094-.75c.2188-.2344.4688-.4062.9062-.4219v-.2188c-.2188.03125-.4062.03125-.6094.03125-.2656 0-.3906 0-.6875-.03125v.2188c.1094.01562.2031.07812.2031.2188 0 .1094-.0625.1875-.09375.2344l-.4531.5625-.5625-.7031c-.04688-.0625-.0625-.07812-.0625-.125 0-.09375.07812-.1719.25-.1875v-.2188c-.2812.01562-.4531.03125-.7812.03125 0 0-.4219 0-.6875-.03125v.2188c.4844 0 .5.01562.8281.4375l.7344.9219-.7031.8281c-.3438.4219-.75.4375-.9062.4375v.2188c.2188-.01562.4062-.01562.6094-.01562.2188 0 .4531 0 .6875.01562v-.2188c-.1875-.01562-.2031-.1406-.2031-.2188 0-.01562 0-.1094.1094-.25.1719-.2188.3438-.4219.5312-.6406l.5625.7188c.125.1562.125.1719.125.2188 0 .07812-.0625.1562-.2344.1719v.2188c.2969-.01562.4688-.01562.7656-.01562 0 0 .4219 0 .7031.01562z"/>
  </symbol>
  <symbol id="ee" overflow="visible">
   <path d="m3.797-1.531c0-.8906-.6875-1.609-1.531-1.609-.375 0-.7344.1562-1 .4531v-.4531l-1.047.07812v.2188c.5 0 .5469.04688.5469.3594v3.312c0 .3281-.07812.3281-.5469.3281v.2188c.3281-.01562.4688-.01562.7969-.01562.3438 0 .4375 0 .8125.01562v-.2188c-.4688 0-.5469 0-.5469-.3281v-1.172c.1875.1875.4219.4219.8906.4219.8438 0 1.625-.6875 1.625-1.609zm-.6094 0c0 .8125-.4844 1.438-1.047 1.438-.3281 0-.5938-.1875-.7656-.4375-.09375-.1406-.09375-.1562-.09375-.2969v-1.562c.25-.4062.6406-.5469.9375-.5469.5469 0 .9688.6406.9688 1.406z"/>
  </symbol>
  <symbol id="v" overflow="visible">
   <path d="m3.875 0v-.2188c-.3594 0-.5312 0-.5469-.2188v-1.359c0-.5938 0-.7969-.1875-1.047-.1719-.2031-.4375-.2969-.7969-.2969-.6562 0-.9531.5-1.062.6875v-.6875l-1.031.07812v.2188c.4844 0 .5469.0625.5469.4062v1.891c0 .3281-.07812.3281-.5469.3281v.2188c.3281-.01562.4688-.01562.8125-.01562.3281 0 .4219 0 .7969.01562v-.2188c-.4688 0-.5469 0-.5469-.3281v-1.297c0-.75.5312-1.109.9844-1.109.4219 0 .5156.3438.5156.7656v1.641c0 .3281-.07812.3281-.5469.3281v.2188c.3281-.01562.4688-.01562.8125-.01562.3281 0 .4219 0 .7969.01562z"/>
  </symbol>
  <symbol id="ds" overflow="visible">
   <path d="m2.422-.875v-.4062h-.1875v.375c0 .5312-.2344.7812-.4844.7812-.4688 0-.4688-.625-.4688-.75v-1.969h1.031v-.2188h-1.031v-1.297h-.2031c0 .5938-.25 1.328-.9375 1.344v.1719h.6094v1.969c0 .7969.5781.9531.9531.9531.4688 0 .7188-.4531.7188-.9531z"/>
  </symbol>
  <symbol id="dn" overflow="visible">
   <path d="m1.797 0v-.2188c-.4688 0-.4844-.03125-.4844-.3125v-2.609l-1.031.07812v.2188c.4531 0 .5156.04688.5156.3906v1.906c0 .3281-.07812.3281-.5469.3281v.2188c.3281-.01562.4688-.01562.7812-.01562.125 0 .4219 0 .7656.01562zm-.4062-4.281c0-.2031-.1562-.375-.375-.375s-.3906.1719-.3906.375c0 .2188.1719.3906.3906.3906s.375-.1719.375-.3906z"/>
  </symbol>
  <symbol id="ec" overflow="visible">
   <path d="m2.625-.9062c0-.3281-.1406-.5156-.2969-.6719-.25-.2344-.5-.2812-1.016-.3906-.1875-.03125-.7031-.125-.7031-.5312 0-.2188.1562-.5156.7969-.5156.7656 0 .8281.5781.8281.7656.01562.07812.01562.125.1094.125s.09375-.04688.09375-.1875v-.6875c0-.1094 0-.1719-.07812-.1719-.04688 0-.04688 0-.1406.07812-.01562.01562-.07812.07812-.125.1094-.2188-.1562-.4375-.1875-.6875-.1875-.9375 0-1.172.5156-1.172.875 0 .2188.1094.4062.2656.5625.25.2188.5156.2656.875.3438.3594.0625.4844.07812.6406.2031.0625.0625.25.1875.25.4688 0 .625-.7188.625-.8125.625-.7344 0-.9062-.6094-1-.9844-.01562-.07812-.03125-.125-.1094-.125-.1094 0-.1094.0625-.1094.1875v.9062c0 .125 0 .1875.09375.1875.04688 0 .04688 0 .1719-.1406.03125-.04688.1094-.1406.1406-.1719.2969.2969.625.3125.8125.3125.8594 0 1.172-.5156 1.172-.9844z"/>
  </symbol>
  <symbol id="fp" overflow="visible">
   <path d="m3.547-2.859c0-.1406-.1094-.3594-.3906-.3594-.2031 0-.5312.07812-.7656.3438-.2031-.1562-.4688-.2656-.7656-.2656-.6875 0-1.188.4844-1.188 1.047 0 .3594.2031.625.3281.7188-.01562.01562-.2188.2656-.2188.5938 0 .2344.1094.5.2969.625-.3594.1094-.6406.375-.6406.7031 0 .5156.7031.9219 1.609.9219.875 0 1.625-.3906 1.625-.9219 0-.2969-.1406-.6094-.4062-.7812-.3906-.25-.7969-.25-1.484-.25-.1406 0-.3594 0-.4219-.01562-.2031-.04688-.3438-.2344-.3438-.4531 0-.125.04688-.2188.1094-.3125.1719.1094.3906.2188.7188.2188.6719 0 1.188-.4844 1.188-1.047 0-.3438-.2031-.5938-.2969-.6875.2812-.25.625-.25.7031-.25-.03125.01562-.09375.04688-.09375.1719 0 .07812.04688.2188.2188.2188.09375 0 .2188-.0625.2188-.2188zm-1.297.7656c0 .1719 0 .8594-.6406.8594-.625 0-.625-.7031-.625-.8594 0-.1875.01562-.4375.125-.6094.1094-.1406.2969-.2344.5-.2344.6406 0 .6406.6875.6406.8438zm.7812 2.641c0 .4062-.5469.7188-1.203.7188-.7031 0-1.219-.3281-1.219-.7188 0-.1094.0625-.5781.6719-.5781h.6562c.2188 0 1.094 0 1.094.5781z"/>
  </symbol>
  <symbol id="fq" overflow="visible">
   <path d="m3.797-1.531c0-.8906-.7031-1.609-1.547-1.609-.4844 0-.8125.25-.9844.4375v-2.219l-1.047.07812v.2188c.4688 0 .5469.04688.5469.3906v4.234h.1875l.2656-.4375c.2188.3125.5781.5156.9531.5156.8438 0 1.625-.6875 1.625-1.609zm-.6094-.01562c0 .3438-.03125.7188-.2188 1-.1562.2344-.4531.4531-.8281.4531-.3125 0-.5938-.1719-.75-.4375-.1094-.1562-.1094-.1562-.1094-.2969v-1.438c0-.125 0-.1406.07812-.25.25-.3281.5938-.4375.8594-.4375.3125 0 .5938.1719.7812.4688.1719.2969.1875.7188.1875.9375z"/>
  </symbol>
  <symbol id="fr" overflow="visible">
   <path d="m2.016-1.312v-.4375h-1.938v.4375z"/>
  </symbol>
  <symbol id="fs" overflow="visible">
   <path d="m3.875 0v-.2188c-.3594 0-.5312 0-.5469-.2188v-1.359c0-.5938 0-.7969-.1875-1.047-.1719-.2031-.4375-.2969-.7969-.2969-.4688 0-.8125.25-1.031.6562h-.01562v-2.438l-1.047.07812v.2188c.4844 0 .5469.04688.5469.3906v3.688c0 .3281-.07812.3281-.5469.3281v.2188c.3281-.01562.4688-.01562.8125-.01562.3281 0 .4219 0 .7969.01562v-.2188c-.4688 0-.5469 0-.5469-.3281v-1.297c0-.75.5312-1.109.9844-1.109.4219 0 .5156.3438.5156.7656v1.641c0 .3281-.07812.3281-.5469.3281v.2188c.3281-.01562.4688-.01562.8125-.01562.3281 0 .4219 0 .7969.01562z"/>
  </symbol>
  <symbol id="ft" overflow="visible">
   <path d="m2.641-2.703c0-.2188-.2031-.4375-.5312-.4375-.4219 0-.7188.2969-.875.75h-.01562v-.75l-1 .07812v.2188c.4688 0 .5469.0625.5469.4062v1.891c0 .3281-.07812.3281-.5469.3281v.2188c.375-.01562.4688-.01562.8281-.01562l.8906.01562v-.2188h-.1406c-.5156 0-.5312-.07812-.5312-.3438v-1.062c0-.2969.07812-1.328.8906-1.328-.01562.01562-.1406.09375-.1406.2656 0 .1875.1562.3125.3125.3125s.3125-.1094.3125-.3281z"/>
  </symbol>
  <symbol id="dt" overflow="visible">
   <path d="m7.484-.2344c0-.04688-.04688-.04688-.07812-.04688-.07812 0-.2031.04688-.2188.0625l-.0625.03125c-.2031 0-.2031-.3594-.2031-.7344 0-.5156.1562-2.031.4062-3.25.03125-.125.03125-.1406.03125-.1719 0-.01562 0-.09375-.04688-.09375s-.04688.01562-.125.09375c-.1094.125-.1094.1406-.1562.1875l-1.188 1.359c-.6094.6562-1.281 1.406-1.891 1.938-.2656-.4844-.3906-.875-.5625-1.469-.1875-.6562-.3438-1.328-.4844-2.016-.01562-.07812-.01562-.09375-.09375-.09375-.01562 0-.3906.04688-.4219.3438-.09375.7031-.25 1.484-.6406 2.5-.5 1.312-.6562 1.312-.7812 1.312-.1719 0-.3438-.0625-.4844-.1719-.04688-.04688-.0625-.04688-.0625-.04688-.09375 0-.2344.2969-.2344.4844 0 .0625 0 .1406.2188.25.2031.09375.3594.09375.3594.09375.3906 0 .7656-.8438.8438-1.031.3281-.75.7344-1.828.9219-2.812.2969 1.281.5625 2.219.9062 2.891.0625.125.1406.2344.2188.3594.01562.01562.03125.04688.07812.04688.1094 0 1.062-.9844 1.078-1l.7969-.8906 1.047-1.156c-.2344 1.359-.2969 2.312-.2969 2.625 0 .5156 0 .8125.3438.8125.2656 0 .7812-.2656.7812-.4062z"/>
  </symbol>
  <symbol id="fu" overflow="visible">
   <path d="m5.422-.4219c0-.03125-.03125-.04688-.0625-.04688-.0625 0-.1719.03125-.2656.09375-.125.0625-.2188.1562-.2344.2031 0 .03125-.01562.04688-.03125.07812-.1094.03125-.2188.04688-.3438.04688-.1719.01562-.2969-.125-.2812-.3125.03125-.4375.1094-.8906.2188-1.328.2188-.8594.4844-1.719.8281-2.562 0-.0625-.01562-.0625-.0625-.0625-.0625 0-.1719.03125-.2656.07812-.1094.07812-.2031.1562-.2188.2031-.25.6406-.4688 1.266-.6562 1.906h-1.812l.125-.4531c.1094-.4531.1719-.8906.2031-1.328.03125-.25-.1562-.4062-.4062-.4062-.2188 0-.4375.01562-.6406.07812-.3438.09375-.6719.2812-.9531.5312-.1719.1562-.3125.3438-.4219.5469l-.01562.03125c0 .03125.03125.04688.07812.04688.0625 0 .1562-.03125.2656-.09375.09375-.0625.1875-.125.2188-.1875.0625-.1406.1562-.2656.2656-.375.09375-.07812.2031-.125.2969-.1562.1562-.04688.3281-.0625.4688-.0625.1875 0 .3125.1406.2812.3125-.03125.4375-.09375.875-.2031 1.312l-.04688.2031h-.25c-.0625 0-.1562.03125-.2656.09375-.125.07812-.2188.1719-.2188.2344 0 .01562.01562.03125.0625.03125h.5625c-.1875.6562-.4062 1.312-.6562 1.969-.01562.04688.01562.0625.0625.0625.0625 0 .1562-.03125.2656-.09375s.2031-.1406.2188-.2031c.2188-.5625.4219-1.156.5938-1.734h1.625c.0625 0 .1406-.01562.2188-.0625l-.09375.375c-.125.4688-.1875.9219-.2344 1.359-.01562.2656.1719.4219.4375.4062.1719 0 .3594-.01562.5312-.07812.0625 0 .1094-.03125.1562-.04688.25-.1094.5-.25.6094-.4844.01562-.04688.03125-.07812.04688-.125z"/>
  </symbol>
  <symbol id="fv" overflow="visible">
   <path d="m2.594-2.719c0-.04688-.01562-.2344-.25-.2344-.09375 0-.25.03125-.4062.07812s-.2656.0625-.375.07812c.01562-.1094.01562-.25.07812-.625.03125-.1562.07812-.5312.07812-.7344 0-.04688 0-.2812-.2344-.2812s-.2344.2188-.2344.2812c0 .2031.04688.5156.07812.7188.07812.4062.07812.5.07812.6406-.1094-.01562-.2031-.03125-.3594-.07812-.1406-.04688-.2969-.07812-.4219-.07812-.25 0-.25.2344-.25.2344 0 .04688.01562.2344.25.2344.09375 0 .25-.01562.4062-.07812.1562-.03125.2812-.0625.375-.07812 0 .1094-.01562.2031-.0625.4375-.09375.4375-.09375.4844-.09375.8281 0 .75.04688 1.781.125 2.594.01562.09375.01562.1406.1094.1406.04688 0 .09375-.01562.09375-.07812.01562-.09375.1406-1.406.1406-2.656 0-.3125 0-.3906-.07812-.7812-.0625-.2812-.0625-.3438-.07812-.4844.1094.01562.2188.04688.3594.07812.1406.04688.3125.07812.4219.07812.25 0 .25-.2344.25-.2344z"/>
  </symbol>
  <symbol id="p" overflow="visible">
   <path d="m5.156-2.844c0-.5156-.2344-.9219-.7188-1.172-.5625-.2969-1.188-.2969-1.766-.2969-.5625 0-1.016 0-1.578.25-.8438.375-.9531.9062-.9531.9375 0 .04688.03125.0625.0625.0625.1406 0 .4531-.1719.5-.3281.07812-.2344.1719-.5156 1.141-.5625-.1094 1.625-.5312 2.766-.8594 3.594-.1875.0625-.3906.2344-.3906.3125 0 .04688.03125.04688.1406.04688h.7188c1.531 0 3.703-1.094 3.703-2.844zm-.5625.2812c0 1.359-1.312 2.203-2.75 2.203h-.3906c.75-1.719.8906-3.141.9375-3.594h.2031c.6094 0 2 .1562 2 1.391z"/>
  </symbol>
  <symbol id="fg" overflow="visible">
   <path d="m1.359-.01562c0-.4062-.1562-.6875-.4375-.6875-.2188 0-.3438.1719-.3438.3438 0 .1875.125.3594.3594.3594.1406 0 .25-.09375.25-.09375 0 .4062-.09375.7656-.4844 1.156-.03125.01562-.04688.03125-.04688.0625 0 .0625.0625.09375.09375.09375.07812 0 .6094-.5.6094-1.234z"/>
  </symbol>
 </defs>
 <g fill="#f8f8f8">
  <path d="m24.01 85.18v-24.68h56.09v24.68z"/>
  <path d="m24.01 112.1v-24.68h56.09v24.68z"/>
  <path d="m24.01 139v-24.68h56.09v24.68z"/>
  <path d="m24.01 165.9v-24.68h56.09v24.68z"/>
  <path d="m24.01 192.9v-24.68h56.09v24.68z"/>
  <path d="m24.01 228.8v-24.68h56.09v24.68z"/>
  <path d="m24.01 264.7v-24.68h56.09v24.68z"/>
  <path d="m24.01 291.6v-24.68h56.09v24.68z"/>
  <path d="m24.01 318.5v-24.68h56.09v24.68z"/>
  <path d="m24.01 345.4v-24.68h56.09v24.68z"/>
  <path d="m84.58 56.02v-24.68h56.09v24.68z"/>
  <path d="m142.9 56.02v-24.68h56.08v24.68z"/>
  <path d="m201.2 56.02v-24.68h56.08v24.68z"/>
  <path d="m259.6 56.02v-24.68h56.08v24.68z"/>
  <path d="m317.9 56.02v-24.68h56.09v24.68z"/>
  <path d="m378.5 56.02v-24.68h56.09v24.68z"/>
 </g>
 <g fill="none" stroke="#000" stroke-miterlimit="10" stroke-width=".3154">
  <path d="m84.58 20.12h346.8"/>
  <path d="m21.76 60.51v281.7"/>
  <path d="m84.58 58.27h289.4"/>
  <path d="m378.5 58.27h56.09"/>
  <path d="m84.58 201.8h289.4"/>
  <path d="m378.5 201.8h56.09"/>
  <path d="m84.58 237.7h289.4"/>
  <path d="m378.5 237.7h56.09"/>
  <path d="m82.33 345.4v-284.9"/>
  <path d="m376.2 345.4v-284.9"/>
 </g>
 <g stroke="#000" stroke-miterlimit="10" stroke-width=".3154">
  <path d="m434 20.12c-.332-.1055-1.793-.707-2.707-1.359v2.719c.9141-.6523 2.375-1.254 2.707-1.359z"/>
  <path d="m21.76 344.9c.1055-.332.707-1.793 1.359-2.707h-2.719c.6523.9141 1.254 2.375 1.359 2.707z"/>
 </g>
 <g fill-opacity=".06">
  <path d="m84.58 85.18v-24.68h56.09v24.68z"/>
  <path d="m84.58 85.18v-24.68h114.4v24.68z"/>
  <path d="m201.2 85.18v-24.68h56.08v24.68z"/>
  <path d="m378.5 85.18v-24.68h56.09v24.68z"/>
  <path d="m84.58 112.1v-24.68h56.09v24.68z"/>
  <path d="m201.2 112.1v-24.68h114.4v24.68z"/>
  <path d="m142.9 139v-24.68h114.4v24.68z"/>
  <path d="m142.9 139v-24.68h231.1v24.68z"/>
  <path d="m378.5 139v-24.68h56.09v24.68z"/>
  <path d="m84.58 165.9v-24.68h56.09v24.68z"/>
  <path d="m84.58 165.9v-24.68h172.7v24.68z"/>
  <path d="m84.58 192.9v-24.68h56.09v24.68z"/>
  <path d="m378.5 192.9v-24.68h56.09v24.68z"/>
  <path d="m317.9 228.8v-24.68h56.09v24.68z"/>
  <path d="m259.6 264.7v-24.68h56.08v24.68z"/>
  <path d="m84.58 291.6v-24.68h114.4v24.68z"/>
  <path d="m84.58 318.5v-24.68h56.09v24.68z"/>
  <path d="m259.6 318.5v-24.68h56.08v24.68z"/>
  <path d="m317.9 318.5v-24.68h56.09v24.68z"/>
  <path d="m378.5 318.5v-24.68h56.09v24.68z"/>
  <path d="m84.58 345.4v-24.68h114.4v24.68z"/>
 </g>
 <g transform="translate(-81.77 -115.4)">
  <g transform="translate(0 132.52)">
   <use x="169.05553" xlink:href="#l"/>
   <use x="171.45393" xlink:href="#a"/>
   <use x="175.29155" xlink:href="#h"/>
   <use x="178.69749" xlink:href="#h"/>
   <use x="184.97842" xlink:href="#f"/>
   <use x="187.37683" xlink:href="#g"/>
   <use x="192.17365" xlink:href="#dr"/>
   <use x="194.81206" xlink:href="#e"/>
   <use x="199.12885" xlink:href="#c"/>
   <use x="202.51062" xlink:href="#o"/>
   <use x="209.70497" xlink:href="#d"/>
   <use x="214.02176" xlink:href="#b"/>
   <use x="217.37935" xlink:href="#f"/>
   <use x="219.77776" xlink:href="#e"/>
   <use x="224.09454" xlink:href="#g"/>
   <use x="443.28018" xlink:href="#o"/>
   <use x="450.47455" xlink:href="#e"/>
   <use x="454.79132" xlink:href="#c"/>
   <use x="458.1731" xlink:href="#a"/>
   <use x="464.89432" xlink:href="#f"/>
   <use x="467.29272" xlink:href="#g"/>
   <use x="472.08954" xlink:href="#dr"/>
   <use x="474.72797" xlink:href="#e"/>
   <use x="479.04474" xlink:href="#c"/>
   <use x="482.42651" xlink:href="#o"/>
   <use x="489.62088" xlink:href="#d"/>
   <use x="493.93765" xlink:href="#b"/>
   <use x="497.29526" xlink:href="#f"/>
   <use x="499.69366" xlink:href="#e"/>
   <use x="504.01044" xlink:href="#g"/>
  </g>
  <g transform="translate(94.556)">
   <use y="200.52115" xlink:href="#fm"/>
   <use y="202.91956" xlink:href="#eo"/>
   <use y="206.9946" xlink:href="#fo"/>
   <use y="212.98802" xlink:href="#fd"/>
   <use y="216.82565" xlink:href="#dz"/>
   <use y="223.09103" xlink:href="#ea"/>
   <use y="227.40781" xlink:href="#fe"/>
   <use y="232.20462" xlink:href="#ff"/>
   <use y="235.61057" xlink:href="#eb"/>
   <use y="238.96817" xlink:href="#dz"/>
   <use y="242.34993" xlink:href="#ea"/>
   <use y="246.66672" xlink:href="#fa"/>
   <use y="250.50435" xlink:href="#eb"/>
   <use y="253.86194" xlink:href="#en"/>
   <use y="256.26035" xlink:href="#eo"/>
   <use y="260.57712" xlink:href="#fb"/>
   <use y="383.2999" xlink:href="#fc"/>
   <use y="388.09671" xlink:href="#en"/>
   <use y="390.49512" xlink:href="#fn"/>
   <use y="394.81189" xlink:href="#fc"/>
   <use y="399.6087" xlink:href="#fd"/>
   <use y="403.44632" xlink:href="#dz"/>
   <use y="409.70306" xlink:href="#ea"/>
   <use y="414.01987" xlink:href="#fe"/>
   <use y="418.81668" xlink:href="#ff"/>
   <use y="422.22263" xlink:href="#eb"/>
   <use y="425.5802" xlink:href="#dz"/>
   <use y="428.96198" xlink:href="#ea"/>
   <use y="433.27878" xlink:href="#fa"/>
   <use y="437.11639" xlink:href="#eb"/>
   <use y="440.47397" xlink:href="#en"/>
   <use y="442.87238" xlink:href="#eo"/>
   <use y="447.18918" xlink:href="#fb"/>
  </g>
  <g transform="translate(0 172.09)">
   <use x="106.76998" xlink:href="#w"/>
   <use x="108.79591" xlink:href="#z"/>
   <use x="112.64838" xlink:href="#ed"/>
   <use x="115.88988" xlink:href="#q"/>
   <use x="119.53657" xlink:href="#w"/>
   <use x="123.98937" xlink:href="#ep"/>
   <use x="127.2337" xlink:href="#eq"/>
   <use x="131.08263" xlink:href="#ee"/>
   <use x="135.13451" xlink:href="#w"/>
   <use x="137.16045" xlink:href="#q"/>
   <use x="140.80713" xlink:href="#v"/>
   <use x="144.85899" xlink:href="#q"/>
   <use x="148.50568" xlink:href="#ds"/>
   <use x="151.342" xlink:href="#dn"/>
   <use x="153.36794" xlink:href="#z"/>
   <use x="157.01462" xlink:href="#v"/>
  </g>
  <g transform="translate(0 185.5)">
   <use x="123.75205" xlink:href="#f"/>
   <use x="126.15046" xlink:href="#g"/>
   <use x="130.94901" xlink:href="#x"/>
   <use x="135.74754" xlink:href="#m"/>
   <use x="140.54608" xlink:href="#b"/>
  </g>
  <g transform="translate(0 196.23)">
   <use x="119.03921" xlink:href="#dr"/>
   <use x="121.67763" xlink:href="#a"/>
   <use x="125.51525" xlink:href="#d"/>
   <use x="129.83203" xlink:href="#b"/>
   <use x="133.18964" xlink:href="#m"/>
   <use x="137.98643" xlink:href="#c"/>
   <use x="141.36821" xlink:href="#a"/>
   <use x="145.20584" xlink:href="#h"/>
  </g>
  <g transform="translate(0 212.42)">
   <use x="113.39171" xlink:href="#d"/>
   <use x="117.70849" xlink:href="#y"/>
   <use x="122.5053" xlink:href="#ef"/>
   <use x="126.82036" xlink:href="#a"/>
   <use x="130.65799" xlink:href="#c"/>
   <use x="134.03975" xlink:href="#h"/>
   <use x="137.44569" xlink:href="#d"/>
   <use x="141.76248" xlink:href="#c"/>
   <use x="145.14426" xlink:href="#f"/>
   <use x="147.54266" xlink:href="#d"/>
   <use x="151.85945" xlink:href="#l"/>
  </g>
  <g transform="translate(0 223.15)">
   <use x="116.65311" xlink:href="#a"/>
   <use x="120.49073" xlink:href="#do"/>
   <use x="125.04752" xlink:href="#d"/>
   <use x="129.36432" xlink:href="#o"/>
   <use x="136.55867" xlink:href="#x"/>
   <use x="141.35548" xlink:href="#l"/>
   <use x="143.75389" xlink:href="#a"/>
   <use x="147.59151" xlink:href="#h"/>
  </g>
  <g transform="translate(0 239.34)">
   <use x="121.07788" xlink:href="#h"/>
   <use x="124.48383" xlink:href="#f"/>
   <use x="126.88223" xlink:href="#o"/>
   <use x="134.07658" xlink:href="#f"/>
   <use x="136.47499" xlink:href="#l"/>
   <use x="138.8734" xlink:href="#d"/>
   <use x="143.19019" xlink:href="#c"/>
  </g>
  <g transform="translate(0 250.07)">
   <use x="116.65311" xlink:href="#a"/>
   <use x="120.49073" xlink:href="#do"/>
   <use x="125.04752" xlink:href="#d"/>
   <use x="129.36432" xlink:href="#o"/>
   <use x="136.55867" xlink:href="#x"/>
   <use x="141.35548" xlink:href="#l"/>
   <use x="143.75389" xlink:href="#a"/>
   <use x="147.59151" xlink:href="#h"/>
  </g>
  <g transform="translate(0 266.26)">
   <use x="118.34435" xlink:href="#n"/>
   <use x="122.18197" xlink:href="#e"/>
   <use x="126.49876" xlink:href="#m"/>
   <use x="131.29556" xlink:href="#g"/>
   <use x="135.85065" xlink:href="#b"/>
   <use x="139.20824" xlink:href="#a"/>
   <use x="143.04585" xlink:href="#c"/>
   <use x="146.42763" xlink:href="#du"/>
  </g>
  <g transform="translate(0 276.99)">
   <use x="119.29166" xlink:href="#dr"/>
   <use x="121.93008" xlink:href="#d"/>
   <use x="126.24687" xlink:href="#n"/>
   <use x="130.08449" xlink:href="#b"/>
   <use x="133.44209" xlink:href="#m"/>
   <use x="138.23891" xlink:href="#d"/>
   <use x="142.55569" xlink:href="#l"/>
   <use x="144.95409" xlink:href="#h"/>
  </g>
  <g transform="translate(0 293.18)">
   <use x="120.14243" xlink:href="#g"/>
   <use x="124.93925" xlink:href="#d"/>
   <use x="129.25603" xlink:href="#b"/>
   <use x="132.61363" xlink:href="#m"/>
   <use x="137.41043" xlink:href="#c"/>
   <use x="140.79221" xlink:href="#d"/>
   <use x="145.10899" xlink:href="#l"/>
  </g>
  <g transform="translate(0 303.91)">
   <use x="117.27673" xlink:href="#l"/>
   <use x="119.67514" xlink:href="#d"/>
   <use x="123.99193" xlink:href="#g"/>
   <use x="128.78874" xlink:href="#dp"/>
   <use x="133.10553" xlink:href="#m"/>
   <use x="137.90234" xlink:href="#d"/>
   <use x="142.21912" xlink:href="#dp"/>
   <use x="146.5359" xlink:href="#a"/>
  </g>
  <g transform="translate(0 315.66)">
   <use x="106.83092" xlink:href="#ed"/>
   <use x="110.07241" xlink:href="#w"/>
   <use x="112.09835" xlink:href="#q"/>
   <use x="115.74503" xlink:href="#ec"/>
   <use x="118.6218" xlink:href="#ec"/>
   <use x="123.93251" xlink:href="#ep"/>
   <use x="127.17685" xlink:href="#eq"/>
   <use x="131.02577" xlink:href="#ee"/>
   <use x="135.07765" xlink:href="#w"/>
   <use x="137.10358" xlink:href="#q"/>
   <use x="140.75027" xlink:href="#v"/>
   <use x="144.80214" xlink:href="#q"/>
   <use x="148.44882" xlink:href="#ds"/>
   <use x="151.27805" xlink:href="#dn"/>
   <use x="153.30397" xlink:href="#z"/>
   <use x="156.95067" xlink:href="#v"/>
  </g>
  <g transform="translate(0 334.44)">
   <use x="117.73259" xlink:href="#n"/>
   <use x="121.57021" xlink:href="#e"/>
   <use x="125.88699" xlink:href="#g"/>
   <use x="130.68381" xlink:href="#n"/>
   <use x="134.52144" xlink:href="#a"/>
   <use x="138.35905" xlink:href="#x"/>
   <use x="143.15587" xlink:href="#b"/>
   <use x="146.51346" xlink:href="#h"/>
  </g>
  <g transform="translate(0 351.56)">
   <use x="104.64267" xlink:href="#fp"/>
   <use x="108.28935" xlink:href="#w"/>
   <use x="110.31529" xlink:href="#z"/>
   <use x="113.96198" xlink:href="#fq"/>
   <use x="118.01385" xlink:href="#q"/>
   <use x="121.66053" xlink:href="#w"/>
   <use x="126.12043" xlink:href="#ep"/>
   <use x="129.36476" xlink:href="#eq"/>
   <use x="133.21368" xlink:href="#ee"/>
   <use x="137.26556" xlink:href="#w"/>
   <use x="139.2915" xlink:href="#q"/>
   <use x="142.93819" xlink:href="#v"/>
   <use x="146.99005" xlink:href="#q"/>
   <use x="150.63673" xlink:href="#ds"/>
   <use x="153.47305" xlink:href="#dn"/>
   <use x="155.49899" xlink:href="#z"/>
   <use x="159.13858" xlink:href="#v"/>
  </g>
  <g transform="translate(0 370.33)">
   <use x="113.18752" xlink:href="#ef"/>
   <use x="117.50258" xlink:href="#e"/>
   <use x="122.0611" xlink:href="#n"/>
   <use x="125.89873" xlink:href="#d"/>
   <use x="130.21552" xlink:href="#u"/>
   <use x="135.01233" xlink:href="#m"/>
   <use x="139.80914" xlink:href="#l"/>
   <use x="142.20755" xlink:href="#d"/>
   <use x="146.52432" xlink:href="#c"/>
   <use x="149.9061" xlink:href="#dv"/>
  </g>
  <g transform="translate(0 397.26)">
   <use x="116.89291" xlink:href="#a"/>
   <use x="120.73052" xlink:href="#g"/>
   <use x="125.52647" xlink:href="#h"/>
   <use x="128.93242" xlink:href="#a"/>
   <use x="132.77003" xlink:href="#o"/>
   <use x="139.72438" xlink:href="#u"/>
   <use x="144.52032" xlink:href="#l"/>
   <use x="146.91615" xlink:href="#a"/>
  </g>
  <g transform="translate(0 418.81)">
   <use x="116.7734" xlink:href="#l"/>
   <use x="119.17181" xlink:href="#f"/>
   <use x="121.57021" xlink:href="#g"/>
   <use x="126.36703" xlink:href="#dp"/>
   <use x="130.68381" xlink:href="#m"/>
   <use x="135.48062" xlink:href="#f"/>
   <use x="137.87903" xlink:href="#h"/>
   <use x="141.28497" xlink:href="#b"/>
   <use x="144.64256" xlink:href="#f"/>
   <use x="147.04097" xlink:href="#n"/>
  </g>
  <g transform="translate(0 429.54)">
   <use x="111.86903" xlink:href="#f"/>
   <use x="114.26744" xlink:href="#g"/>
   <use x="119.06425" xlink:href="#dr"/>
   <use x="121.70267" xlink:href="#e"/>
   <use x="126.01945" xlink:href="#c"/>
   <use x="129.40123" xlink:href="#o"/>
   <use x="136.59558" xlink:href="#d"/>
   <use x="140.91237" xlink:href="#b"/>
   <use x="144.26996" xlink:href="#f"/>
   <use x="146.66837" xlink:href="#e"/>
   <use x="150.98515" xlink:href="#g"/>
  </g>
  <g transform="translate(0 451.1)">
   <use x="124.91543" xlink:href="#c"/>
   <use x="128.2972" xlink:href="#m"/>
   <use x="133.09486" xlink:href="#l"/>
   <use x="135.49242" xlink:href="#a"/>
   <use x="139.33176" xlink:href="#h"/>
  </g>
  <g transform="translate(0 142.92)">
   <use x="169.58498" xlink:href="#ee"/>
   <use x="173.84264" xlink:href="#z"/>
   <use x="177.48932" xlink:href="#ec"/>
   <use x="180.36609" xlink:href="#ds"/>
   <use x="183.20239" xlink:href="#fr"/>
   <use x="185.63351" xlink:href="#fs"/>
   <use x="189.68539" xlink:href="#z"/>
   <use x="193.53076" xlink:href="#ed"/>
  </g>
  <g transform="translate(0 161.7)">
   <use x="176.28902" xlink:href="#u"/>
   <use x="181.08583" xlink:href="#l"/>
   <use x="183.48424" xlink:href="#d"/>
   <use x="187.80103" xlink:href="#n"/>
   <use x="191.3969" xlink:href="#eg"/>
   <use x="195.9537" xlink:href="#du"/>
   <use x="198.83127" xlink:href="#u"/>
   <use x="203.86983" xlink:href="#e"/>
   <use x="207.94487" xlink:href="#do"/>
   <use x="239.02963" xlink:href="#y"/>
   <use x="243.82643" xlink:href="#d"/>
   <use x="248.14322" xlink:href="#b"/>
   <use x="251.50082" xlink:href="#d"/>
   <use x="255.8176" xlink:href="#h"/>
   <use x="259.22354" xlink:href="#a"/>
   <use x="263.06116" xlink:href="#b"/>
   <use x="295.57034" xlink:href="#dp"/>
   <use x="299.88712" xlink:href="#c"/>
   <use x="303.26889" xlink:href="#d"/>
   <use x="307.58566" xlink:href="#y"/>
   <use x="312.38248" xlink:href="#f"/>
   <use x="314.78088" xlink:href="#a"/>
   <use x="318.6185" xlink:href="#g"/>
   <use x="323.17358" xlink:href="#b"/>
   <use x="347.29135" xlink:href="#a"/>
   <use x="351.12897" xlink:href="#o"/>
   <use x="358.08157" xlink:href="#u"/>
   <use x="363.12015" xlink:href="#a"/>
   <use x="366.95776" xlink:href="#y"/>
   <use x="371.75458" xlink:href="#y"/>
   <use x="376.55139" xlink:href="#f"/>
   <use x="378.9498" xlink:href="#g"/>
   <use x="383.74661" xlink:href="#dp"/>
   <use x="388.06339" xlink:href="#h"/>
   <use x="409.12024" xlink:href="#er"/>
   <use x="415.35541" xlink:href="#eh"/>
   <use x="420.14877" xlink:href="#f"/>
   <use x="422.55063" xlink:href="#b"/>
   <use x="425.91083" xlink:href="#a"/>
   <use x="429.74585" xlink:href="#du"/>
   <use x="432.62256" xlink:href="#u"/>
   <use x="437.65765" xlink:href="#e"/>
   <use x="441.73444" xlink:href="#do"/>
  </g>
  <g transform="translate(0 143.41)">
   <use x="463.94986" xlink:href="#v"/>
   <use x="461.92392" xlink:href="#dn"/>
   <use x="467.79593" xlink:href="#ds"/>
   <use x="470.63226" xlink:href="#ft"/>
   <use x="473.48489" xlink:href="#dn"/>
   <use x="475.51083" xlink:href="#v"/>
   <use x="479.56268" xlink:href="#ec"/>
   <use x="482.43945" xlink:href="#dn"/>
   <use x="484.46539" xlink:href="#ed"/>
  </g>
  <g transform="translate(0 161.7)">
   <use x="461.87326" xlink:href="#o"/>
   <use x="469.06763" xlink:href="#e"/>
   <use x="473.62875" xlink:href="#y"/>
   <use x="478.42297" xlink:href="#a"/>
   <use x="482.25885" xlink:href="#l"/>
   <use x="487.53656" xlink:href="#h"/>
   <use x="490.94077" xlink:href="#x"/>
   <use x="495.97675" xlink:href="#a"/>
   <use x="499.81262" xlink:href="#n"/>
   <use x="503.64853" xlink:href="#f"/>
   <use x="506.04263" xlink:href="#fh"/>
   <use x="510.83685" xlink:href="#n"/>
  </g>
  <g transform="translate(0 190.86)">
   <use x="172.82106" xlink:href="#dl"/>
   <use x="177.61787" xlink:href="#es"/>
   <use x="184.09305" xlink:href="#di"/>
   <use x="190.56822" xlink:href="#t"/>
   <use x="199.31921" xlink:href="#k"/>
   <use x="204.93967" xlink:href="#dq"/>
   <use x="209.25645" xlink:href="#j"/>
   <use x="211.65486" xlink:href="#dw"/>
  </g>
  <g transform="translate(0 185.5)">
   <use x="225.00031" xlink:href="#ei"/>
   <use x="230.39629" xlink:href="#dm"/>
   <use x="233.51387" xlink:href="#ej"/>
   <use x="241.42825" xlink:href="#s"/>
   <use x="250.17924" xlink:href="#k"/>
   <use x="255.7997" xlink:href="#dq"/>
   <use x="260.11649" xlink:href="#j"/>
   <use x="262.51489" xlink:href="#et"/>
   <use x="266.83167" xlink:href="#dx"/>
  </g>
  <g transform="translate(0 196.23)">
   <use x="221.96683" xlink:href="#di"/>
   <use x="228.442" xlink:href="#g"/>
   <use x="233.23882" xlink:href="#n"/>
   <use x="236.8347" xlink:href="#eh"/>
   <use x="241.63152" xlink:href="#e"/>
   <use x="245.9483" xlink:href="#c"/>
   <use x="249.33006" xlink:href="#h"/>
   <use x="255.61963" xlink:href="#k"/>
   <use x="261.23145" xlink:href="#dq"/>
   <use x="265.54822" xlink:href="#j"/>
   <use x="267.94662" xlink:href="#eu"/>
  </g>
  <g transform="translate(0 185.5)">
   <use x="283.37866" xlink:href="#dy"/>
   <use x="290.15341" xlink:href="#c"/>
   <use x="293.53519" xlink:href="#d"/>
   <use x="297.85199" xlink:href="#y"/>
   <use x="302.6488" xlink:href="#f"/>
   <use x="305.04718" xlink:href="#a"/>
   <use x="308.88483" xlink:href="#g"/>
   <use x="313.43988" xlink:href="#b"/>
   <use x="319.68109" xlink:href="#k"/>
   <use x="325.29291" xlink:href="#dq"/>
   <use x="329.60971" xlink:href="#j"/>
   <use x="332.00812" xlink:href="#i"/>
   <use x="336.32489" xlink:href="#dx"/>
  </g>
  <g transform="translate(0 196.23)">
   <use x="296.34116" xlink:href="#dm"/>
   <use x="299.45874" xlink:href="#dy"/>
   <use x="309.10849" xlink:href="#k"/>
   <use x="314.72894" xlink:href="#dq"/>
   <use x="319.04572" xlink:href="#j"/>
   <use x="321.44412" xlink:href="#r"/>
  </g>
  <g transform="translate(0 190.86)">
   <use x="470.17041" xlink:href="#di"/>
   <use x="476.40384" xlink:href="#b"/>
   <use x="479.76144" xlink:href="#b"/>
   <use x="483.11905" xlink:href="#a"/>
   <use x="486.95667" xlink:href="#g"/>
   <use x="491.51175" xlink:href="#b"/>
   <use x="494.86932" xlink:href="#f"/>
   <use x="497.26773" xlink:href="#e"/>
   <use x="501.58453" xlink:href="#g"/>
  </g>
  <g transform="translate(0 217.85)">
   <use x="171.87294" xlink:href="#dl"/>
   <use x="176.66975" xlink:href="#s"/>
   <use x="182.54576" xlink:href="#di"/>
   <use x="200.26874" xlink:href="#k"/>
   <use x="205.88919" xlink:href="#ev"/>
   <use x="210.20598" xlink:href="#j"/>
   <use x="212.60439" xlink:href="#r"/>
  </g>
  <g transform="translate(0 217.78)">
   <use x="315.76157" xlink:href="#es"/>
   <use x="322.23676" xlink:href="#e"/>
   <use x="326.55353" xlink:href="#b"/>
   <use x="329.91113" xlink:href="#ek"/>
   <use x="335.54712" xlink:href="#l"/>
   <use x="337.94553" xlink:href="#f"/>
   <use x="340.34393" xlink:href="#x"/>
   <use x="348.01572" xlink:href="#k"/>
   <use x="353.6362" xlink:href="#ev"/>
   <use x="357.95297" xlink:href="#j"/>
   <use x="360.35138" xlink:href="#i"/>
  </g>
  <use x="189.02043" y="214.72142" xlink:href="#dt"/>
  <g transform="translate(0 244.78)">
   <use x="232.41423" xlink:href="#dm"/>
   <use x="235.53181" xlink:href="#g"/>
   <use x="240.32863" xlink:href="#fi"/>
   <use x="245.12544" xlink:href="#m"/>
   <use x="249.92224" xlink:href="#a"/>
   <use x="253.75987" xlink:href="#g"/>
   <use x="258.55667" xlink:href="#n"/>
   <use x="262.39432" xlink:href="#a"/>
   <use x="269.1069" xlink:href="#ek"/>
   <use x="274.02631" xlink:href="#m"/>
   <use x="278.82312" xlink:href="#g"/>
   <use x="283.61993" xlink:href="#n"/>
   <use x="287.45755" xlink:href="#b"/>
   <use x="290.81516" xlink:href="#f"/>
   <use x="293.21356" xlink:href="#e"/>
   <use x="297.53033" xlink:href="#g"/>
   <use x="302.32715" xlink:href="#h"/>
   <use x="314.71057" xlink:href="#k"/>
   <use x="320.33102" xlink:href="#ew"/>
   <use x="324.64783" xlink:href="#j"/>
   <use x="327.04623" xlink:href="#i"/>
  </g>
  <g transform="translate(0 244.81)">
   <use x="339.26093" xlink:href="#el"/>
   <use x="345.61609" xlink:href="#a"/>
   <use x="349.4537" xlink:href="#x"/>
   <use x="354.25052" xlink:href="#c"/>
   <use x="357.63229" xlink:href="#a"/>
   <use x="361.46991" xlink:href="#h"/>
   <use x="364.87585" xlink:href="#a"/>
   <use x="368.71347" xlink:href="#g"/>
   <use x="373.26855" xlink:href="#b"/>
   <use x="376.62613" xlink:href="#a"/>
   <use x="380.46378" xlink:href="#c"/>
   <use x="386.72052" xlink:href="#t"/>
   <use x="392.3634" xlink:href="#e"/>
   <use x="396.68021" xlink:href="#f"/>
   <use x="399.07861" xlink:href="#g"/>
   <use x="403.63367" xlink:href="#b"/>
   <use x="406.99127" xlink:href="#a"/>
   <use x="410.82889" xlink:href="#c"/>
   <use x="414.21066" xlink:href="#h"/>
   <use x="423.86105" xlink:href="#k"/>
   <use x="429.48151" xlink:href="#ew"/>
   <use x="433.79831" xlink:href="#j"/>
   <use x="436.19672" xlink:href="#r"/>
  </g>
  <use x="305.72729" y="241.64203" xlink:href="#fu"/>
  <use x="417.6105" y="241.67685" xlink:href="#fv"/>
  <g transform="translate(0 239.34)">
   <use x="469.379" xlink:href="#t"/>
   <use x="475.255" xlink:href="#c"/>
   <use x="478.63678" xlink:href="#e"/>
   <use x="482.95355" xlink:href="#b"/>
   <use x="486.31116" xlink:href="#e"/>
   <use x="490.62796" xlink:href="#b"/>
   <use x="493.7438" xlink:href="#dv"/>
   <use x="498.3006" xlink:href="#x"/>
   <use x="503.33914" xlink:href="#a"/>
  </g>
  <g transform="translate(0 250.07)">
   <use x="470.73468" xlink:href="#em"/>
   <use x="477.20987" xlink:href="#a"/>
   <use x="481.04749" xlink:href="#b"/>
   <use x="484.16333" xlink:href="#er"/>
   <use x="490.15677" xlink:href="#e"/>
   <use x="494.47354" xlink:href="#c"/>
   <use x="497.85532" xlink:href="#eg"/>
   <use x="502.41211" xlink:href="#h"/>
  </g>
  <g transform="translate(0 266.33)">
   <use x="169.38792" xlink:href="#t"/>
   <use x="175.02219" xlink:href="#e"/>
   <use x="179.33897" xlink:href="#l"/>
   <use x="181.73738" xlink:href="#dv"/>
   <use x="186.29417" xlink:href="#ex"/>
   <use x="188.9326" xlink:href="#m"/>
   <use x="193.72942" xlink:href="#f"/>
   <use x="196.12781" xlink:href="#n"/>
   <use x="199.96544" xlink:href="#a"/>
  </g>
  <g transform="translate(0 263.2)">
   <use x="203.80238" xlink:href="#dt"/>
   <use x="211.77821" xlink:href="#fg"/>
   <use x="213.6396" xlink:href="#p"/>
  </g>
  <g transform="translate(0 277.06)">
   <use x="186.07085" xlink:href="#k"/>
   <use x="191.6913" xlink:href="#ey"/>
   <use x="196.00809" xlink:href="#j"/>
   <use x="198.40649" xlink:href="#i"/>
  </g>
  <g transform="translate(0 271.7)">
   <use x="227.56288" xlink:href="#ej"/>
   <use x="235.47728" xlink:href="#f"/>
   <use x="237.87482" xlink:href="#ez"/>
   <use x="244.1143" xlink:href="#s"/>
   <use x="261.23422" xlink:href="#k"/>
   <use x="266.85468" xlink:href="#ey"/>
   <use x="271.17145" xlink:href="#j"/>
   <use x="273.56985" xlink:href="#r"/>
  </g>
  <use x="249.9859" y="268.56262" xlink:href="#dt"/>
  <g transform="translate(0 293.26)">
   <use x="174.03429" xlink:href="#ez"/>
   <use x="180.26945" xlink:href="#di"/>
   <use x="186.50462" xlink:href="#dy"/>
   <use x="193.27507" xlink:href="#s"/>
  </g>
  <g transform="translate(0 290.12)">
   <use x="199.15523" xlink:href="#dt"/>
   <use x="207.13106" xlink:href="#fg"/>
   <use x="208.99324" xlink:href="#p"/>
  </g>
  <g transform="translate(0 303.98)">
   <use x="183.91267" xlink:href="#k"/>
   <use x="189.53313" xlink:href="#i"/>
   <use x="193.84991" xlink:href="#fj"/>
   <use x="198.16669" xlink:href="#j"/>
   <use x="200.56509" xlink:href="#i"/>
  </g>
  <g transform="translate(0 298.62)">
   <use x="460.30075" xlink:href="#dy"/>
   <use x="467.0755" xlink:href="#s"/>
   <use x="472.95236" xlink:href="#ek"/>
  </g>
  <g transform="translate(0 295.48)">
   <use x="478.58707" xlink:href="#p"/>
   <use x="510.49039" xlink:href="#p"/>
  </g>
  <g transform="translate(0 298.62)">
   <use x="484.3501" xlink:href="#dx"/>
   <use x="489.6235" xlink:href="#em"/>
   <use x="496.09866" xlink:href="#dm"/>
   <use x="499.21625" xlink:href="#ei"/>
   <use x="504.61224" xlink:href="#s"/>
  </g>
  <g transform="translate(0 334.51)">
   <use x="405.16794" xlink:href="#em"/>
   <use x="411.64313" xlink:href="#dm"/>
   <use x="414.76071" xlink:href="#s"/>
   <use x="429.27826" xlink:href="#k"/>
   <use x="434.89871" xlink:href="#i"/>
   <use x="439.21548" xlink:href="#i"/>
   <use x="443.53229" xlink:href="#j"/>
   <use x="445.93069" xlink:href="#i"/>
  </g>
  <use x="420.63605" y="331.37762" xlink:href="#p"/>
  <g transform="translate(0 364.97)">
   <use x="342.5152" xlink:href="#t"/>
   <use x="348.3912" xlink:href="#c"/>
   <use x="351.77298" xlink:href="#e"/>
   <use x="356.33148" xlink:href="#ex"/>
   <use x="358.96991" xlink:href="#a"/>
   <use x="362.80753" xlink:href="#n"/>
   <use x="366.64514" xlink:href="#b"/>
   <use x="372.87772" xlink:href="#k"/>
   <use x="378.4982" xlink:href="#i"/>
   <use x="382.81497" xlink:href="#r"/>
   <use x="387.13174" xlink:href="#j"/>
   <use x="389.53015" xlink:href="#i"/>
   <use x="393.84695" xlink:href="#dx"/>
  </g>
  <g transform="translate(0 375.7)">
   <use x="344.68604" xlink:href="#el"/>
   <use x="351.0412" xlink:href="#e"/>
   <use x="355.35797" xlink:href="#b"/>
   <use x="358.71558" xlink:href="#d"/>
   <use x="363.03238" xlink:href="#b"/>
   <use x="366.38995" xlink:href="#a"/>
   <use x="373.10257" xlink:href="#k"/>
   <use x="378.72302" xlink:href="#i"/>
   <use x="383.03979" xlink:href="#r"/>
   <use x="387.3566" xlink:href="#j"/>
   <use x="389.755" xlink:href="#r"/>
  </g>
  <g transform="translate(0 397.26)">
   <use x="193.71033" xlink:href="#dl"/>
   <use x="198.50714" xlink:href="#t"/>
   <use x="204.38315" xlink:href="#du"/>
   <use x="207.26071" xlink:href="#ei"/>
   <use x="212.65669" xlink:href="#dm"/>
   <use x="215.77428" xlink:href="#ej"/>
   <use x="223.68867" xlink:href="#s"/>
   <use x="232.44829" xlink:href="#k"/>
   <use x="238.06012" xlink:href="#i"/>
   <use x="242.37689" xlink:href="#et"/>
   <use x="246.69368" xlink:href="#j"/>
   <use x="249.09209" xlink:href="#i"/>
  </g>
  <g transform="translate(0 418.81)">
   <use x="174.29861" xlink:href="#fk"/>
   <use x="180.41377" xlink:href="#a"/>
   <use x="184.2514" xlink:href="#eh"/>
   <use x="189.04822" xlink:href="#d"/>
   <use x="193.12326" xlink:href="#ef"/>
   <use x="197.68005" xlink:href="#f"/>
   <use x="200.07846" xlink:href="#e"/>
   <use x="204.39525" xlink:href="#c"/>
   <use x="207.77702" xlink:href="#d"/>
   <use x="212.0938" xlink:href="#l"/>
   <use x="350.16891" xlink:href="#dl"/>
   <use x="354.96573" xlink:href="#b"/>
   <use x="358.32333" xlink:href="#c"/>
   <use x="361.70508" xlink:href="#m"/>
   <use x="366.50189" xlink:href="#n"/>
   <use x="370.33954" xlink:href="#b"/>
   <use x="373.69711" xlink:href="#m"/>
   <use x="378.49393" xlink:href="#c"/>
   <use x="381.8757" xlink:href="#d"/>
   <use x="386.19247" xlink:href="#l"/>
   <use x="408.49661" xlink:href="#dl"/>
   <use x="413.29343" xlink:href="#b"/>
   <use x="416.65103" xlink:href="#c"/>
   <use x="420.03281" xlink:href="#m"/>
   <use x="424.82962" xlink:href="#n"/>
   <use x="428.66724" xlink:href="#b"/>
   <use x="432.02484" xlink:href="#m"/>
   <use x="436.82166" xlink:href="#c"/>
   <use x="440.2034" xlink:href="#d"/>
   <use x="444.5202" xlink:href="#l"/>
  </g>
  <g transform="translate(0 429.54)">
   <use x="166.66547" xlink:href="#t"/>
   <use x="172.54147" xlink:href="#c"/>
   <use x="175.92325" xlink:href="#e"/>
   <use x="180.24004" xlink:href="#u"/>
   <use x="185.27858" xlink:href="#a"/>
   <use x="189.11621" xlink:href="#h"/>
   <use x="201.15987" xlink:href="#k"/>
   <use x="206.78032" xlink:href="#i"/>
   <use x="211.09711" xlink:href="#dw"/>
   <use x="215.41389" xlink:href="#j"/>
   <use x="217.8123" xlink:href="#i"/>
   <use x="341.64859" xlink:href="#t"/>
   <use x="347.5246" xlink:href="#c"/>
   <use x="350.90637" xlink:href="#e"/>
   <use x="355.22314" xlink:href="#u"/>
   <use x="360.26172" xlink:href="#a"/>
   <use x="364.09933" xlink:href="#h"/>
   <use x="376.14221" xlink:href="#k"/>
   <use x="381.76266" xlink:href="#i"/>
   <use x="386.07944" xlink:href="#dw"/>
   <use x="390.39624" xlink:href="#j"/>
   <use x="392.79462" xlink:href="#r"/>
   <use x="399.97629" xlink:href="#t"/>
   <use x="405.85233" xlink:href="#c"/>
   <use x="409.23407" xlink:href="#e"/>
   <use x="413.55087" xlink:href="#u"/>
   <use x="418.58942" xlink:href="#a"/>
   <use x="422.42703" xlink:href="#h"/>
   <use x="434.46991" xlink:href="#k"/>
   <use x="440.09036" xlink:href="#i"/>
   <use x="444.40714" xlink:href="#dw"/>
   <use x="448.72394" xlink:href="#j"/>
   <use x="451.12234" xlink:href="#r"/>
   <use x="476.49854" xlink:href="#fl"/>
   <use x="482.01712" xlink:href="#d"/>
   <use x="486.33389" xlink:href="#h"/>
   <use x="489.73984" xlink:href="#eg"/>
  </g>
  <g transform="translate(0 426.4)">
   <use x="192.51767" xlink:href="#p"/>
   <use x="367.50079" xlink:href="#p"/>
   <use x="425.82849" xlink:href="#p"/>
   <use x="494.2926" xlink:href="#p"/>
  </g>
  <g transform="translate(0 418.81)">
   <use x="470.75842" xlink:href="#di"/>
   <use x="476.99188" xlink:href="#m"/>
   <use x="481.78867" xlink:href="#do"/>
   <use x="486.34549" xlink:href="#f"/>
   <use x="488.7439" xlink:href="#l"/>
   <use x="491.1423" xlink:href="#f"/>
   <use x="493.54071" xlink:href="#d"/>
   <use x="497.85748" xlink:href="#c"/>
   <use x="501.23926" xlink:href="#dv"/>
  </g>
  <use x="219.20322" y="448.03384" xlink:href="#dt"/>
  <g transform="translate(0 451.17)">
   <use x="195.70071" xlink:href="#dl"/>
   <use x="200.49753" xlink:href="#s"/>
   <use x="206.37354" xlink:href="#di"/>
   <use x="212.84872" xlink:href="#el"/>
   <use x="230.45154" xlink:href="#k"/>
   <use x="236.07199" xlink:href="#i"/>
   <use x="240.38878" xlink:href="#eu"/>
   <use x="244.70555" xlink:href="#j"/>
   <use x="247.10396" xlink:href="#i"/>
  </g>
 </g>
</svg>
