<?xml version="1.0" encoding="UTF-8"?>
<svg version="1.1" viewBox="0 0 957 770" xmlns="http://www.w3.org/2000/svg">
<g transform="translate(-136 657)">
<path d="m178 113c20.6 0 34.5-12.2 38.4-33.8h-13.2c-3.59 15-12.1 22.3-25.2 22.3-19.3 0-29.6-14.2-29.6-39.7 0-25.2 10.8-39.7 30-39.7 12.9 0 21.4 7.48 24.9 22.3h13.2c-3.88-21.4-18-33.8-38-33.8-27.3 0-43 18.8-43 51.2 0 32.2 15.5 51.2 42.4 51.2z"/>
<path d="m265 113c21.4 0 36.4-15.2 36.4-37.5s-15-37.5-36.4-37.5-36.4 15.2-36.4 37.5 15 37.5 36.4 37.5zm0-10.5c-14.5 0-24.3-11.4-24.3-27s9.78-27 24.3-27c14.5 0 24.3 11.4 24.3 27s-9.78 27-24.3 27z"/>
<path d="m353 38.1c-10.1 0-18.4 4.03-23.6 11.1v-37.5h-11.8v101h11.8v-38.1c0-15.5 8.34-25.3 21.6-25.3 12.4 0 19.4 7.62 19.4 21.9v41.6h11.8v-42.3c0-21-11.2-31.9-29.2-31.9z"/>
<path d="m466 78.2c.144-1.73.288-4.17.288-5.32-.575-21.7-14.1-34.8-34.8-34.8s-34.8 15.2-34.8 37.5c0 22.4 14.4 37.5 36.4 37.5 17 0 29-10.8 31.9-25.4h-11.9c-2.44 9.49-10.5 15-20.8 15-13.9 0-22.7-9.78-23.1-23.7v-.719zm-34.4-29.8c12.2 0 20.8 7.05 22 19.7h-43.9c1.15-11.9 11.1-19.7 21.9-19.7z"/>
<path d="m529 39c-13.9 0-20.6 6.61-23.9 12.4l-.431-12.4h-27.6v10.8h16.4v51.8h-16.4v10.8h49.6v-10.8h-21.4v-26.3c0-11.6 5.03-24.7 22.1-24.7h9.49v-11.5z"/>
<path d="m615 78.2c.144-1.73.288-4.17.288-5.32-.576-21.7-14.1-34.8-34.8-34.8s-34.8 15.2-34.8 37.5c0 22.4 14.4 37.5 36.4 37.5 17 0 29-10.8 31.9-25.4h-11.9c-2.44 9.49-10.5 15-20.8 15-13.9 0-22.7-9.78-23.1-23.7v-.719zm-34.4-29.8c12.2 0 20.8 7.05 22 19.7h-43.9c1.15-11.9 11.1-19.7 21.9-19.7z"/>
<path d="m690 112v-44h41.7v-11.5h-41.7v-33.6h49.3v-11.5h-61.8v101z"/>
<path d="m781 113c21.4 0 36.4-15.2 36.4-37.5s-15-37.5-36.4-37.5-36.4 15.2-36.4 37.5 15 37.5 36.4 37.5zm0-10.5c-14.5 0-24.3-11.4-24.3-27s9.78-27 24.3-27c14.5 0 24.3 11.4 24.3 27s-9.78 27-24.3 27z"/>
<path d="m880 39c-13.9 0-20.6 6.61-23.9 12.4l-.431-12.4h-27.6v10.8h16.4v51.8h-16.4v10.8h49.6v-10.8h-21.4v-26.3c0-11.6 5.03-24.7 22.1-24.7h9.49v-11.5z"/>
<path d="m953 112 9.78-27.2h41.3l9.63 27.2h13.4l-35.8-101h-15.4l-35.7 101zm30.2-87 17.1 48.5h-33.9z"/>
<path d="m1093 11.6h-56.6v10.4h22.1v79.9h-22.1v10.4h56.6v-10.4h-22v-79.9h22z"/>
</g>
<g transform="matrix(5.45 -1.53 1.53 5.45 53 121)">
<g fill="none" stroke="#4c6ee6" stroke-linecap="round" stroke-width="7.94">
<path d="m88.5 119-5.21-22.5c-5.38-23.2-29.2-37-52-30l-22.1 6.72"/>
<path d="m6 51.8 22.1 6.72c22.8 6.93 46.6-6.85 52-30l5.21-22.5"/>
<path d="m105 16.1-16.9 15.7c-17.4 16.2-17.4 43.8 0 60l16.9 15.7"/>
</g>
</g>
</svg>
