<svg xmlns="http://www.w3.org/2000/svg" xmlns:xlink="http://www.w3.org/1999/xlink" width="193.8" height="127.1">
  <defs>
    <path id="a" d="M3.402-6.633c.82 0 1.457.215 1.906.648.453.43.695.926.75 1.465H5.21a1.768 1.768 0 0 0-.586-.98c-.285-.242-.691-.367-1.215-.367-.636 0-1.152.222-1.539.675-.394.45-.585 1.125-.585 2.043 0 .754.171 1.375.53 1.844.352.47.876.704 1.579.704.644 0 1.133-.247 1.473-.739.183-.261.308-.605.398-1.035h.856c-.082.684-.336 1.258-.758 1.711-.512.555-1.207.824-2.07.824-.754 0-1.387-.222-1.891-.671C.73-1.105.394-2.034.394-3.292c0-.954.254-1.73.758-2.34.539-.668 1.297-1 2.25-1z"/>
    <path id="b" d="M2.449-.512c.52 0 .871-.199 1.07-.594.2-.398.297-.84.297-1.324 0-.433-.074-.792-.207-1.07-.227-.433-.613-.648-1.152-.648-.484 0-.848.188-1.062.559-.215.367-.324.808-.324 1.332 0 .504.11.918.324 1.25.215.332.566.496 1.055.496zm.027-4.332a2.15 2.15 0 0 1 1.54.614c.413.406.628 1 .628 1.78 0 .758-.191 1.388-.558 1.876-.368.492-.938.734-1.711.734-.649 0-1.168-.215-1.547-.645C.448-.918.26-1.512.26-2.25c0-.793.2-1.422.602-1.89.398-.47.937-.704 1.613-.704z"/>
    <path id="c" d="M1.367-4.707v3.121c0 .246.035.441.117.598.137.285.399.422.785.422.547 0 .926-.243 1.125-.746.106-.254.168-.614.168-1.082v-2.312h.786V0h-.746l.007-.692a1.74 1.74 0 0 1-.379.45c-.304.241-.664.359-1.098.359C1.457.118 1-.097.757-.55.63-.78.566-1.105.566-1.503v-3.203z"/>
    <path id="d" d="M.574-4.707h.758v.668c.215-.273.45-.469.703-.598.25-.117.531-.18.836-.18.664 0 1.117.235 1.352.704.125.254.195.62.195 1.098V0H3.61v-2.97c0-.28-.047-.515-.125-.695-.145-.285-.399-.441-.766-.441-.191 0-.344.027-.46.066-.216.07-.403.196-.567.387a1.23 1.23 0 0 0-.262.485c-.043.16-.062.394-.062.703V0H.575z"/>
    <path id="e" d="M.738-6.02h.801v1.312h.746v.648H1.54v3.07c0 .16.055.278.16.332.067.036.172.043.317.043h.117c.047 0 .098 0 .152-.007v.62c-.09.02-.187.028-.277.048A4.086 4.086 0 0 1 1.69.06c-.378 0-.628-.09-.753-.277-.137-.18-.2-.426-.2-.73V-4.06h-.64v-.648h.64z"/>
    <path id="f" d="M2.539-4.816c.332 0 .656.082.973.246.304.16.547.36.719.602.152.242.261.523.316.828.043.215.07.566.07 1.043H1.16c.02.476.125.855.344 1.145.207.289.531.43.98.43.415 0 .739-.133.989-.403a1.39 1.39 0 0 0 .297-.55h.777c-.02.18-.094.37-.207.585a1.82 1.82 0 0 1-.39.512c-.243.234-.54.387-.891.469-.188.047-.402.07-.637.07-.594 0-1.09-.207-1.496-.637-.414-.422-.61-1.016-.61-1.78 0-.758.196-1.372.61-1.849.414-.464.945-.71 1.613-.71zm1.258 2.09c-.035-.344-.105-.613-.223-.828-.218-.379-.578-.567-1.082-.567-.367 0-.675.133-.918.395-.25.262-.379.594-.386 1z"/>
    <path id="g" d="M.602-4.707h.75v.809c.062-.153.214-.34.457-.575.234-.226.511-.343.828-.343.008 0 .035.011.074.011.035 0 .09.008.18.016v.84c-.055-.012-.102-.02-.137-.02s-.082-.008-.125-.008c-.398 0-.703.133-.918.387a1.33 1.33 0 0 0-.316.879V0H.602z"/>
    <path id="h" d="M.773-5.426c.008-.324.063-.559.172-.723.18-.27.54-.402 1.07-.402.047 0 .098.008.153.008.054 0 .109.008.18.008v.722h-.18c-.036 0-.07-.011-.098-.011-.242 0-.387.062-.434.191-.05.125-.07.441-.07.945h.781v.63h-.789V0H.773v-4.059H.125v-.629h.648z"/>
    <path id="i" d="M1.188-1.25c0 .234.082.414.254.54.16.136.36.198.594.198.27 0 .539-.062.8-.199.442-.207.665-.559.665-1.043v-.64a1.178 1.178 0 0 1-.38.152 2.406 2.406 0 0 1-.449.09l-.476.062c-.29.04-.504.102-.649.184-.242.14-.359.36-.359.656zm1.918-1.602c.18-.02.297-.102.36-.227a.696.696 0 0 0 .054-.304c0-.27-.098-.461-.289-.586-.2-.117-.469-.18-.82-.18-.414 0-.711.117-.88.332-.1.125-.163.305-.19.55h-.74c.012-.577.2-.98.559-1.214.36-.227.785-.344 1.27-.344.55 0 1 .11 1.34.324.343.215.523.54.523.98v2.712c0 .09.008.152.047.195.035.055.105.074.215.074h.117a.61.61 0 0 0 .144-.027v.574c-.128.04-.226.055-.289.063a1.49 1.49 0 0 1-.261.02c-.27 0-.47-.09-.594-.278a.93.93 0 0 1-.137-.434c-.16.215-.394.395-.691.551-.305.14-.64.223-1 .223-.442 0-.801-.133-1.07-.395a1.306 1.306 0 0 1-.414-.992c0-.43.136-.773.406-1.016.27-.234.629-.387 1.078-.441z"/>
    <path id="j" d="M2.395-4.844c.52 0 .953.137 1.285.39.336.258.543.7.613 1.333H3.52a1.56 1.56 0 0 0-.324-.723c-.164-.188-.434-.29-.801-.29-.504 0-.863.255-1.082.74-.14.323-.207.71-.207 1.18 0 .476.101.874.297 1.198.199.324.504.477.937.477.324 0 .586-.102.781-.297.192-.2.325-.477.399-.828h.773c-.09.629-.316 1.078-.664 1.367-.351.289-.805.422-1.352.422C1.664.125 1.172-.09.808-.54.441-.989.261-1.548.261-2.224c0-.828.2-1.469.602-1.926a1.94 1.94 0 0 1 1.53-.695z"/>
    <path id="k" d="M.883-6.453h.883V0H.883z"/>
    <path id="l" d="M.574-4.707h.785v.668a2.94 2.94 0 0 1 .512-.508c.254-.18.55-.27.89-.27.372 0 .669.102.903.282.125.105.242.27.352.469.18-.254.386-.434.62-.559a1.63 1.63 0 0 1 .802-.191c.628 0 1.059.234 1.293.695.117.25.18.574.18.988V0h-.817v-3.266c0-.316-.082-.53-.235-.648a.96.96 0 0 0-.578-.18 1.16 1.16 0 0 0-.808.313c-.227.219-.332.558-.332 1.047V0H3.34v-3.07c0-.324-.047-.559-.117-.7-.125-.218-.344-.335-.668-.335-.305 0-.574.117-.817.351-.254.235-.37.656-.37 1.262V0H.573z"/>
    <path id="m" d="M2.566-.531c.367 0 .672-.152.918-.457.242-.309.367-.777.367-1.398 0-.367-.054-.692-.16-.961-.207-.512-.586-.773-1.125-.773-.55 0-.93.277-1.125.816-.11.297-.164.668-.164 1.117 0 .36.055.676.164.926.195.488.574.73 1.125.73zM.523-4.687h.762v.629c.156-.215.324-.38.523-.496.262-.18.578-.27.938-.27.53 0 .98.207 1.359.621.367.414.554.989.554 1.746 0 1.027-.27 1.766-.8 2.195A1.87 1.87 0 0 1 2.67.152c-.36 0-.657-.082-.891-.222a1.9 1.9 0 0 1-.469-.461v2.395H.522z"/>
    <path id="n" d="M3.691-3.5c.402 0 .727-.082.969-.242.234-.164.363-.461.363-.895 0-.449-.172-.761-.504-.933-.18-.09-.426-.137-.723-.137H1.663V-3.5zM.793-6.453h2.988c.484 0 .89.07 1.215.215.602.281.906.785.906 1.523 0 .394-.078.71-.242.953-.16.25-.379.441-.664.586.25.105.441.25.566.414.125.16.2.43.215.809l.035.863c0 .254.02.433.055.55.055.208.144.34.289.395V0H5.074a1.218 1.218 0 0 1-.062-.215 3.94 3.94 0 0 1-.043-.516L4.914-1.8c-.027-.422-.18-.703-.469-.844-.172-.082-.43-.128-.793-.128H1.664V0H.793z"/>
    <path id="o" d="M1.078-2.297c0 .508.102.93.316 1.27.215.344.559.504 1.035.504.36 0 .668-.152.899-.465.234-.316.363-.766.363-1.359S3.562-3.382 3.32-3.67c-.242-.289-.54-.434-.898-.434-.399 0-.723.157-.973.461-.254.305-.371.754-.371 1.348zm1.191-2.492c.36 0 .664.082.906.227.137.09.297.242.477.457V-6.48h.765V0h-.71v-.657c-.188.297-.403.504-.657.63a1.91 1.91 0 0 1-.863.187C1.656.16 1.195-.055.82-.496.433-.926.242-1.512.242-2.25c0-.684.172-1.277.523-1.781s.856-.758 1.504-.758z"/>
    <path id="p" d="M.574-4.688h.813V0H.574zm0-1.766h.813v.89H.574z"/>
    <path id="q" d="M4.707-6.191v.691c-.207.2-.477.54-.809 1.027a9.27 9.27 0 0 0-.89 1.574c-.254.551-.453 1.043-.578 1.496-.09.297-.2.762-.332 1.402h-.875c.199-1.195.64-2.395 1.324-3.582a10.59 10.59 0 0 1 1.262-1.809H.332v-.8z"/>
    <path id="r" d="M2.98-2.23v-2.844L.953-2.23zM2.988 0v-1.539H.226v-.773l2.887-3.996h.668v4.078h.926v.691H3.78V0z"/>
    <path id="s" d="M2.438-6.289c.813 0 1.398.34 1.766 1.008.277.52.422 1.223.422 2.121 0 .863-.133 1.566-.387 2.125C3.872-.235 3.267.16 2.43.16 1.676.16 1.106-.16.746-.809.434-1.359.277-2.098.277-3.016c0-.719.09-1.332.282-1.844.34-.953.972-1.43 1.879-1.43zM2.43-.551c.406 0 .73-.18.973-.54.242-.358.367-1.042.367-2.03 0-.715-.09-1.297-.27-1.766-.18-.461-.511-.691-1.015-.691-.47 0-.809.222-1.027.656-.215.441-.325 1.086-.325 1.934 0 .648.063 1.16.207 1.547.22.594.578.89 1.09.89z"/>
    <path id="t" d="M-6.453-.766v-4.48h.793v3.598h1.953v-3.168h.773v3.168H0v.883z"/>
    <path id="u" d="M-1.25-1.188c.234 0 .414-.082.54-.254a.885.885 0 0 0 .198-.594c0-.27-.062-.539-.199-.8-.207-.442-.559-.665-1.043-.665h-.64c.062.098.117.223.152.38.047.152.074.304.09.449l.062.476c.04.29.102.504.184.649.14.242.36.359.656.359zm-1.602-1.918c-.02-.18-.102-.297-.227-.36a.696.696 0 0 0-.304-.054c-.27 0-.461.098-.586.289-.117.2-.18.469-.18.82 0 .414.117.711.332.88.125.1.305.163.55.19v.739c-.577-.012-.98-.2-1.214-.559-.227-.36-.344-.785-.344-1.27 0-.55.11-1 .324-1.34.215-.343.54-.523.98-.523h2.712c.09 0 .152-.008.195-.047.055-.035.074-.105.074-.215v-.117a.61.61 0 0 0-.027-.144h.574c.04.128.055.226.063.289.011.062.02.152.02.261 0 .27-.09.47-.278.594a.93.93 0 0 1-.434.137c.215.16.395.394.551.691.14.305.223.64.223 1 0 .442-.133.801-.395 1.07a1.306 1.306 0 0 1-.992.414c-.43 0-.773-.136-1.016-.406-.234-.27-.387-.629-.441-1.078z"/>
    <path id="v" d="M-4.688-.574v-.813H0v.813zm-1.766 0v-.813h.89v.813z"/>
    <path id="w" d="M-6.02-.738v-.801h1.312v-.746h.648v.746h3.07c.16 0 .278-.055.332-.16.036-.067.043-.172.043-.317v-.117c0-.047 0-.098-.007-.152h.62c.02.09.028.187.048.277.007.102.015.207.015.317 0 .378-.09.628-.277.753-.18.137-.426.2-.73.2H-4.06v.64h-.648v-.64z"/>
    <path id="x" d="M-6.48-.574v-.793h2.414c-.234-.192-.406-.36-.504-.504-.164-.254-.254-.578-.254-.953 0-.688.242-1.145.719-1.398.262-.125.621-.195 1.09-.195H.001v.816h-2.969c-.344 0-.594.047-.758.129-.25.144-.387.414-.387.808 0 .332.118.63.344.899.223.273.649.398 1.277.398H0v.793z"/>
    <path id="y" d="M-5.426-.773c-.324-.008-.559-.063-.723-.172-.27-.18-.402-.54-.402-1.07 0-.047.008-.098.008-.153 0-.054.008-.109.008-.18h.722v.18c0 .036-.011.07-.011.098 0 .242.062.387.191.434.125.05.441.07.945.07v-.781h.63v.789H0v.785h-4.059v.648h-.629v-.648z"/>
    <path id="z" d="M-4.707-1.367h3.121c.246 0 .441-.035.598-.117.285-.137.422-.399.422-.785 0-.547-.243-.926-.746-1.125-.254-.106-.614-.168-1.082-.168h-2.312v-.786H0v.746l-.692-.007c.18.11.332.234.45.379.241.304.359.664.359 1.098C.118-1.457-.097-1-.55-.757c-.23.128-.555.191-.953.191h-3.203z"/>
    <path id="A" d="M-6.453-.602v-.793H0v.793z"/>
    <path id="B" d="M-4.707-.574v-.758h.668a2.116 2.116 0 0 1-.598-.703 1.955 1.955 0 0 1-.18-.836c0-.664.235-1.117.704-1.352.254-.125.62-.195 1.098-.195H0v.808h-2.97c-.28 0-.515.047-.695.125-.285.145-.441.399-.441.766 0 .191.027.344.066.46.07.216.196.403.387.567.16.133.324.223.485.262.16.043.394.062.703.062H0v.793z"/>
    <path id="C" d="M-4.816-2.539c0-.332.082-.656.246-.973.16-.304.36-.547.602-.719.242-.152.523-.261.828-.316.215-.043.566-.07 1.043-.07v3.457c.476-.02.855-.125 1.145-.344.289-.207.43-.531.43-.98 0-.415-.133-.739-.403-.989a1.39 1.39 0 0 0-.55-.297v-.777c.18.02.37.094.585.207.215.117.387.246.512.39.234.243.387.54.469.891.047.188.07.402.07.637 0 .594-.207 1.09-.637 1.496-.422.414-1.016.61-1.78.61-.758 0-1.372-.196-1.849-.61-.464-.414-.71-.945-.71-1.613zm2.09-1.258c-.344.035-.613.105-.828.223-.379.218-.567.578-.567 1.082 0 .367.133.675.395.918.262.25.594.379 1 .386z"/>
    <path id="D" d="M-1.477-1.055c.27-.016.469-.09.606-.195.257-.2.386-.54.386-1.035 0-.29-.066-.551-.191-.774a.642.642 0 0 0-.594-.336c-.2 0-.352.09-.457.274-.063.113-.137.34-.227.672l-.16.632c-.09.403-.207.7-.336.88-.214.343-.511.515-.89.515-.442 0-.801-.152-1.078-.477-.27-.324-.414-.757-.414-1.297 0-.703.214-1.215.628-1.539.27-.191.551-.28.848-.28v.75a.982.982 0 0 0-.488.187c-.195.18-.305.496-.305.945 0 .297.063.523.172.676.117.16.27.234.45.234.206 0 .366-.101.495-.308.07-.106.133-.286.188-.52l.125-.523c.144-.559.281-.946.406-1.145.2-.305.523-.457.953-.457.414 0 .774.16 1.082.476.297.325.45.801.45 1.45 0 .702-.165 1.206-.47 1.491-.316.29-.71.453-1.18.47z"/>
    <path id="E" d="M.852-7.172h4.977v.883h-4v2.168h3.523v.86H1.829V0H.852z"/>
    <path id="F" d="M1.32-1.391c0 .262.09.46.281.602a1 1 0 0 0 .66.218c.297 0 .598-.07.887-.218.492-.23.742-.621.742-1.16v-.711c-.11.07-.25.129-.422.172-.168.046-.34.078-.5.097l-.527.07c-.32.04-.562.11-.723.2-.27.16-.398.402-.398.73zm2.129-1.781c.2-.02.332-.11.402-.25a.77.77 0 0 0 .059-.34c0-.297-.11-.508-.32-.648-.22-.13-.52-.2-.91-.2-.462 0-.79.13-.981.372-.11.136-.18.34-.211.61H.672c.007-.641.218-1.09.617-1.353.402-.25.87-.379 1.41-.379.61 0 1.109.121 1.492.36.379.238.578.601.578 1.09v3.012c0 .097.012.168.05.218.04.059.122.079.239.079h.133a.57.57 0 0 0 .16-.028v.64c-.14.04-.25.06-.32.067-.07.012-.172.024-.293.024-.297 0-.52-.102-.66-.313-.079-.11-.13-.27-.149-.48-.18.242-.441.441-.77.613-.34.156-.71.25-1.108.25C1.558.172 1.16.02.86-.27.55-.56.399-.93.399-1.371c0-.481.152-.86.453-1.13.297-.261.699-.43 1.199-.488z"/>
    <path id="G" d="M.672-7.172h.879V0H.67z"/>
    <path id="H" d="M2.66-5.379c.578 0 1.059.148 1.43.43.371.289.602.777.68 1.48h-.86a1.68 1.68 0 0 0-.36-.801c-.179-.211-.48-.32-.89-.32-.558 0-.96.28-1.199.82-.16.36-.23.789-.23 1.309 0 .531.11.973.328 1.332.223.36.562.527 1.043.527.36 0 .648-.11.867-.328.211-.219.36-.531.442-.922h.859c-.098.703-.348 1.203-.738 1.523-.391.317-.891.469-1.5.469-.68 0-1.23-.242-1.633-.742-.41-.5-.61-1.117-.61-1.867 0-.922.223-1.633.672-2.141.438-.512 1.008-.77 1.7-.77z"/>
    <path id="I" d="M2.719-.57c.582 0 .973-.22 1.191-.66.219-.442.328-.93.328-1.47 0-.48-.078-.878-.227-1.19-.25-.481-.683-.72-1.28-.72-.54 0-.942.212-1.18.622-.243.41-.36.898-.36 1.477 0 .562.117 1.023.36 1.39.238.372.628.552 1.168.552zm.031-4.81c.672 0 1.238.231 1.711.68.461.45.7 1.11.7 1.98 0 .84-.211 1.54-.622 2.078-.41.551-1.039.82-1.898.82-.718 0-1.3-.238-1.719-.718C.5-1.02.29-1.681.29-2.501c0-.879.222-1.578.671-2.102.438-.52 1.04-.777 1.79-.777z"/>
    <path id="J" d="M.64-5.23h.84v.742c.239-.3.5-.523.782-.66.277-.133.59-.203.93-.203.738 0 1.237.262 1.5.781.136.281.218.692.218 1.22V0h-.898v-3.3c0-.31-.051-.571-.14-.77-.161-.32-.442-.489-.852-.489-.211 0-.38.028-.508.07a1.372 1.372 0 0 0-.633.43c-.148.18-.25.36-.29.54-.05.18-.07.44-.07.78V.002H.641z"/>
    <path id="K" d="M.762-7.172h.969v6.32h3.64V0H.763z"/>
    <path id="L" d="M.64-5.23h.872v.742c.207-.25.398-.441.566-.562.281-.2.613-.301.992-.301.41 0 .739.113 1 .312.14.118.27.301.39.52.2-.281.43-.48.688-.621.262-.14.563-.211.891-.211.7 0 1.18.262 1.441.773.129.278.2.637.2 1.098V0h-.911v-3.629c0-.351-.09-.59-.258-.722-.183-.13-.39-.2-.64-.2a1.29 1.29 0 0 0-.903.352c-.25.238-.367.621-.367 1.16V0h-.89v-3.41c0-.36-.051-.621-.133-.781-.137-.238-.38-.367-.739-.367-.34 0-.64.129-.91.386-.281.262-.41.73-.41 1.402V0H.64z"/>
    <path id="M" d="M.309 0c.03-.602.152-1.121.37-1.57.22-.441.641-.852 1.27-1.219l.942-.54c.418-.241.711-.452.879-.632.262-.258.402-.57.402-.918 0-.402-.132-.73-.37-.973-.243-.238-.571-.359-.974-.359-.597 0-1.02.23-1.25.68-.117.25-.187.59-.199 1.02H.481C.489-5.11.602-5.61.82-6c.379-.68 1.05-1.02 2.02-1.02.8 0 1.379.219 1.75.648.37.442.558.922.558 1.45 0 .562-.199 1.042-.59 1.433-.238.238-.648.52-1.23.84l-.668.367c-.32.18-.57.352-.75.512-.332.281-.539.598-.62.941h3.82V0z"/>
    <path id="N" d="M.738-7.172H2.13L4.191-1.11l2.047-6.062H7.61V0h-.918v-4.23c0-.14 0-.39.008-.73 0-.34.012-.7.012-1.09L4.66 0h-.961l-2.06-6.05v.222c0 .18 0 .438.009.797.011.36.023.633.023.8V0H.738z"/>
    <path id="O" d="M.64-5.211h.899V0H.641zm0-1.961h.899v.992H.641z"/>
    <path id="P" d="M1.172-1.641c.02.3.098.52.219.672.219.289.598.43 1.148.43.32 0 .61-.07.86-.211a.714.714 0 0 0 .37-.66.565.565 0 0 0-.3-.512c-.13-.067-.38-.149-.75-.25l-.7-.18c-.449-.098-.78-.227-.98-.367-.38-.242-.57-.57-.57-.992 0-.489.171-.89.53-1.2.36-.3.84-.46 1.442-.46.777 0 1.348.242 1.707.699.21.3.312.613.312.941h-.832a1.135 1.135 0 0 0-.207-.539c-.203-.219-.55-.34-1.05-.34-.333 0-.583.07-.75.188a.594.594 0 0 0-.262.5c0 .23.109.41.34.55.12.083.32.153.581.212l.578.14c.622.16 1.051.309 1.27.45.34.218.512.581.512 1.058 0 .461-.18.864-.531 1.203-.36.329-.89.5-1.61.5-.78 0-1.34-.18-1.66-.519A2.017 2.017 0 0 1 .32-1.64z"/>
    <path id="Q" d="M.82-6.691h.89v1.461h.829v.719h-.828v3.41c0 .18.058.312.18.37.07.04.187.052.347.052h.133c.05 0 .11 0 .168-.012V0c-.098.02-.21.032-.308.051-.11.008-.231.02-.352.02-.418 0-.7-.102-.84-.309C.891-.44.82-.71.82-1.05v-3.461H.11v-.72h.71z"/>
    <path id="R" d="M.672-5.23H1.5v.902c.07-.172.238-.382.512-.64.258-.25.566-.383.918-.383.011 0 .039.012.082.012.039 0 .097.011.199.02v.929c-.063-.008-.11-.02-.152-.02-.04 0-.09-.011-.137-.011-.441 0-.781.152-1.023.433a1.49 1.49 0 0 0-.348.977V0H.672z"/>
    <path id="S" d="M1.07-5.23 2.468-.968 3.929-5.23h.96L2.922 0H1.98L.05-5.23z"/>
    <path id="T" d="M2.711-6.988c.898 0 1.551.379 1.961 1.117.309.582.469 1.359.469 2.359 0 .96-.153 1.742-.43 2.363C4.301-.262 3.63.179 2.7.179c-.84 0-1.47-.36-1.87-1.078-.349-.613-.52-1.43-.52-2.453 0-.797.101-1.477.312-2.047C1-6.461 1.7-6.989 2.711-6.989zM2.699-.609c.45 0 .813-.2 1.082-.602.27-.398.41-1.16.41-2.258 0-.793-.101-1.44-.3-1.96-.2-.512-.57-.77-1.13-.77-.523 0-.902.25-1.14.73-.243.489-.36 1.207-.36 2.148 0 .72.067 1.29.227 1.72.242.66.64.992 1.21.992z"/>
    <path id="U" d="M.852-1.059h1.027V0H.852z"/>
    <path id="V" d="M.96-4.949v-.68c.63-.062 1.07-.16 1.32-.3.25-.141.438-.493.571-1.031h.688V0H2.6v-4.948z"/>
  </defs>
  <path fill="#ebebeb" d="M10.36 40.17h59.61V14.33H10.36z"/>
  <g fill="none" stroke="#fff">
    <path d="M23.306 40.169v-25.84m19.87 25.84v-25.84m18.06 25.84v-25.84"/>
    <path stroke-width=".5" d="M33.236 40.169v-25.84m18.97 25.84v-25.84"/>
    <path d="M10.356 38.989h59.61m-59.61-11.74h59.61m-59.61-11.7h59.61"/>
    <path stroke-width=".5" d="M10.356 33.149h59.61m-59.61-11.8h59.61"/>
  </g>
  <path fill="#db5f57" stroke="#db5f57" stroke-width=".886" d="M43.18 30.84a1.77 1.77 0 1 0-.002-3.545 1.77 1.77 0 0 0 .002 3.545zM23.3 34.31a1.771 1.771 0 1 0 .002-3.542 1.771 1.771 0 0 0-.002 3.542z"/>
  <path fill="#57db5f" d="M61.236 17.419a1.771 1.771 0 0 0 1.773-1.774 1.767 1.767 0 0 0-1.773-1.77c-.469 0-.922.184-1.254.516a1.771 1.771 0 0 0 1.254 3.027z"/>
  <path fill="none" stroke="#57db5f" stroke-width=".886" d="M61.236 17.449a1.771 1.771 0 0 0 1.773-1.773 1.767 1.767 0 0 0-1.773-1.77c-.469 0-.922.184-1.254.516a1.771 1.771 0 0 0 1.254 3.027z"/>
  <path fill="#57db5f" d="M23.3 18.02a1.771 1.771 0 0 0 1.774-1.774 1.778 1.778 0 0 0-1.774-1.773 1.772 1.772 0 0 0-1.77 1.773c0 .468.184.922.516 1.254.336.332.785.52 1.254.52z"/>
  <path fill="none" stroke="#57db5f" stroke-width=".886" d="M23.306 18.049a1.771 1.771 0 0 0 1.774-1.773 1.778 1.778 0 0 0-1.774-1.774c-.469 0-.918.188-1.254.52-.332.332-.516.785-.516 1.254s.184.921.516 1.254c.336.332.785.519 1.254.519z"/>
  <g stroke-width=".886">
    <path fill="#5f57db" stroke="#5f57db" d="M23.3 22.87a1.771 1.771 0 0 0 1.774-1.774 1.771 1.771 0 0 0-1.774-1.773 1.767 1.767 0 0 0-1.77 1.774c0 .468.184.921.516 1.253.336.332.785.52 1.254.52z"/>
    <path fill="none" stroke="#db5f57" d="m23.3 32.54 19.88-3.473"/>
    <path fill="none" stroke="#57db5f" d="m23.3 16.25 37.94-.606"/>
  </g>
  <path fill="#d9d9d9" d="M10.36 14.33h59.61V0H10.36z"/>
  <path fill="#d9d9d9" d="M10.36 14.33h59.61V0H10.36z"/>
  <g fill="#1a1a1a" transform="translate(-8.084 -6.551)">
    <use xlink:href="#a" x="24.999" y="16.002"/>
    <use xlink:href="#b" x="31.497" y="16.002"/>
    <use xlink:href="#c" x="36.501" y="16.002"/>
    <use xlink:href="#d" x="41.505" y="16.002"/>
    <use xlink:href="#e" x="46.509" y="16.002"/>
    <use xlink:href="#f" x="49.011" y="16.002"/>
    <use xlink:href="#g" x="54.015" y="16.002"/>
    <use xlink:href="#h" x="57.012" y="16.002"/>
    <use xlink:href="#i" x="59.514" y="16.002"/>
    <use xlink:href="#j" x="64.518" y="16.002"/>
    <use xlink:href="#e" x="69.018" y="16.002"/>
  </g>
  <path fill="#ebebeb" d="M72.15 40.17h59.61V14.33H72.15z"/>
  <g fill="none" stroke="#fff">
    <path d="M85.096 40.169v-25.84m19.92 25.84v-25.84m18 25.84v-25.84"/>
    <path stroke-width=".5" d="M95.016 40.169v-25.84m19 25.84v-25.84"/>
    <path d="M72.156 38.989h59.61m-59.61-11.74h59.61m-59.61-11.7h59.61"/>
    <path stroke-width=".5" d="M72.156 33.149h59.61m-59.61-11.8h59.61"/>
  </g>
  <path fill="#db5f57" stroke="#db5f57" stroke-width=".886" d="M105 38.33a1.778 1.778 0 0 0 1.77-1.773 1.778 1.778 0 0 0-1.77-1.774 1.771 1.771 0 0 0-1.773 1.773A1.778 1.778 0 0 0 105 38.33z"/>
  <path fill="#db5f57" d="M85.096 40.219a1.771 1.771 0 0 0 1.773-1.773 1.778 1.778 0 0 0-1.773-1.774c-.469 0-.918.188-1.254.52-.332.332-.516.785-.516 1.254s.184.921.516 1.254c.336.331.785.519 1.254.519z"/>
  <path fill="none" stroke="#db5f57" stroke-width=".886" d="M85.096 40.219a1.771 1.771 0 0 0 1.773-1.773 1.778 1.778 0 0 0-1.773-1.774c-.469 0-.918.188-1.254.52-.332.332-.516.785-.516 1.254s.184.921.516 1.254c.336.332.785.519 1.254.519z"/>
  <path fill="#57db5f" d="M123.016 39.489a1.771 1.771 0 0 0 1.773-1.773 1.778 1.778 0 0 0-1.773-1.774 1.778 1.778 0 0 0-1.774 1.773 1.778 1.778 0 0 0 1.774 1.774z"/>
  <path fill="none" stroke="#57db5f" stroke-width=".886" d="M123.016 39.489a1.771 1.771 0 0 0 1.773-1.773 1.778 1.778 0 0 0-1.773-1.774 1.778 1.778 0 0 0-1.774 1.774 1.778 1.778 0 0 0 1.774 1.773z"/>
  <path fill="#57db5f" d="M85.096 40.759a1.767 1.767 0 0 0 1.773-1.77 1.771 1.771 0 0 0-1.773-1.773 1.767 1.767 0 0 0-1.77 1.773c0 .47.184.922.516 1.254a1.78 1.78 0 0 0 1.254.516z"/>
  <path fill="none" stroke="#57db5f" stroke-width=".886" d="M85.096 40.759a1.767 1.767 0 0 0 1.773-1.77 1.771 1.771 0 0 0-1.773-1.773 1.767 1.767 0 0 0-1.77 1.773c0 .47.184.922.516 1.254a1.78 1.78 0 0 0 1.254.516z"/>
  <g stroke-width=".886">
    <path fill="#5f57db" stroke="#5f57db" d="M85.1 25.27a1.771 1.771 0 0 0 1.773-1.774 1.778 1.778 0 0 0-1.773-1.773 1.772 1.772 0 0 0-1.77 1.773c0 .468.184.922.516 1.254.336.332.785.52 1.254.52z"/>
    <path fill="none" stroke="#db5f57" d="m85.1 38.44 19.88-1.883"/>
    <path fill="none" stroke="#57db5f" d="m85.1 38.99 37.94-1.27"/>
  </g>
  <path fill="#d9d9d9" d="M72.15 14.33h59.61V0H72.15z"/>
  <path fill="#d9d9d9" d="M72.15 14.33h59.61V0H72.15z"/>
  <g fill="#1a1a1a" transform="translate(-8.084 -6.551)">
    <use xlink:href="#k" x="87.546" y="16.002"/>
    <use xlink:href="#l" x="90.048" y="16.002"/>
    <use xlink:href="#m" x="97.545" y="16.002"/>
    <use xlink:href="#b" x="102.549" y="16.002"/>
    <use xlink:href="#g" x="107.553" y="16.002"/>
    <use xlink:href="#e" x="110.55" y="16.002"/>
    <use xlink:href="#i" x="113.052" y="16.002"/>
    <use xlink:href="#d" x="118.056" y="16.002"/>
    <use xlink:href="#j" x="123.06" y="16.002"/>
    <use xlink:href="#f" x="127.56" y="16.002"/>
  </g>
  <path fill="#ebebeb" d="M134 40.17h59.61V14.33H134z"/>
  <g fill="none" stroke="#fff">
    <path d="M146.916 40.169v-25.84m19.9 25.84v-25.84m18 25.84v-25.84"/>
    <path stroke-width=".5" d="M156.816 40.169v-25.84m19 25.84v-25.84"/>
    <path d="M133.916 38.989h59.61m-59.61-11.74h59.61m-59.61-11.7h59.61"/>
    <path stroke-width=".5" d="M133.916 33.149h59.61m-59.61-11.8h59.61"/>
  </g>
  <path fill="#db5f57" stroke="#db5f57" stroke-width=".886" d="M166.8 19.4a1.765 1.765 0 0 0 1.77-1.77 1.771 1.771 0 1 0-1.77 1.77zm-19.9 18.32a1.767 1.767 0 0 0 1.773-1.77 1.771 1.771 0 0 0-1.773-1.773 1.767 1.767 0 0 0-1.77 1.773c0 .47.184.918.516 1.254a1.78 1.78 0 0 0 1.254.516z"/>
  <path fill="#57db5f" d="M184.816 39.659a1.771 1.771 0 0 0 1.773-1.773 1.778 1.778 0 0 0-1.773-1.774 1.778 1.778 0 0 0-1.773 1.773 1.778 1.778 0 0 0 1.773 1.774z"/>
  <path fill="none" stroke="#57db5f" stroke-width=".886" d="M184.816 39.659a1.771 1.771 0 0 0 1.773-1.773 1.778 1.778 0 0 0-1.773-1.774 1.778 1.778 0 0 0-1.773 1.774 1.778 1.778 0 0 0 1.773 1.773z"/>
  <path fill="#57db5f" d="M146.916 39.839a1.771 1.771 0 0 0 1.773-1.773 1.767 1.767 0 0 0-1.773-1.77 1.78 1.78 0 0 0-1.254.516 1.78 1.78 0 0 0 0 2.508c.336.331.785.519 1.254.519z"/>
  <path fill="none" stroke="#57db5f" stroke-width=".886" d="M146.916 39.839a1.771 1.771 0 0 0 1.773-1.773 1.767 1.767 0 0 0-1.773-1.77 1.78 1.78 0 0 0-1.254.516 1.78 1.78 0 0 0 0 2.508c.336.332.785.519 1.254.519z"/>
  <g stroke-width=".886">
    <path fill="#5f57db" stroke="#5f57db" d="M146.9 34.27a1.771 1.771 0 0 0 1.773-1.773 1.778 1.778 0 0 0-1.773-1.774c-.469 0-.918.188-1.254.52-.332.332-.516.785-.516 1.254s.184.921.516 1.254c.336.332.785.519 1.254.519z"/>
    <path fill="none" stroke="#db5f57" d="m146.9 35.95 19.88-18.32"/>
    <path fill="none" stroke="#57db5f" d="m146.9 38.06 37.94-.18"/>
  </g>
  <path fill="#d9d9d9" d="M134 14.33h59.61V0H134z"/>
  <path fill="#d9d9d9" d="M134 14.33h59.61V0H134z"/>
  <g fill="#1a1a1a" transform="translate(-8.084 -6.551)">
    <use xlink:href="#n" x="151.593" y="16.002"/>
    <use xlink:href="#f" x="158.091" y="16.002"/>
    <use xlink:href="#o" x="163.095" y="16.002"/>
    <use xlink:href="#i" x="168.099" y="16.002"/>
    <use xlink:href="#j" x="173.103" y="16.002"/>
    <use xlink:href="#e" x="177.603" y="16.002"/>
    <use xlink:href="#p" x="180.105" y="16.002"/>
    <use xlink:href="#b" x="182.103" y="16.002"/>
    <use xlink:href="#d" x="187.107" y="16.002"/>
  </g>
  <path fill="#ebebeb" d="M10.36 68.19h59.61V42.35H10.36z"/>
  <path fill="none" stroke="#fff" stroke-linecap="square" d="M23.306 68.189v-25.84m19.87 25.84v-25.84m18.06 25.84v-25.84"/>
  <path fill="none" stroke="#fff" stroke-linecap="square" stroke-width=".5" d="M33.236 68.189v-25.84m18.97 25.84v-25.84"/>
  <path fill="none" stroke="#fff" stroke-linecap="square" d="M10.356 67.019h59.61m-59.61-11.75h59.61m-59.61-11.75h59.61"/>
  <path fill="none" stroke="#fff" stroke-linecap="square" stroke-width=".5" d="M10.356 61.149h59.61m-59.61-11.75h59.61"/>
  <path fill="#db5f57" stroke="#db5f57" stroke-width=".886" d="M43.176 67.979a1.779 1.779 0 0 0 1.77-1.773 1.78 1.78 0 0 0-.52-1.254 1.768 1.768 0 0 0-2.504 0c-.332.332-.52.785-.52 1.254a1.777 1.777 0 0 0 1.774 1.773z"/>
  <g stroke-width=".886">
    <path fill="#db5f57" stroke="#db5f57" d="M23.3 63.84a1.771 1.771 0 0 0 1.774-1.773 1.767 1.767 0 0 0-1.774-1.77 1.78 1.78 0 0 0-1.254.516 1.78 1.78 0 0 0 0 2.508c.336.332.785.519 1.254.519z"/>
    <path fill="#57db5f" stroke="#57db5f" d="M61.24 62.05a1.771 1.771 0 1 0 0-3.543c-.469 0-.922.184-1.254.52a1.768 1.768 0 0 0 0 2.503c.332.332.785.52 1.254.52zM23.3 66.57a1.771 1.771 0 1 0 .002-3.542 1.771 1.771 0 0 0-.002 3.542z"/>
    <path fill="#5f57db" stroke="#5f57db" d="M23.3 64.77A1.767 1.767 0 0 0 25.074 63a1.771 1.771 0 0 0-1.774-1.773A1.767 1.767 0 0 0 21.53 63c0 .47.184.918.516 1.254a1.78 1.78 0 0 0 1.254.516z"/>
  </g>
  <path fill="none" stroke="#db5f57" stroke-width=".886" d="m23.3 62.07 19.88 4.137"/>
  <path fill="none" stroke="#57db5f" stroke-width=".886" d="m23.3 64.79 37.94-4.516"/>
  <path fill="#ebebeb" d="M72.15 68.19h59.61V42.35H72.15z"/>
  <g fill="none" stroke="#fff">
    <path d="M85.096 68.189v-25.84m19.92 25.84v-25.84m18 25.84v-25.84"/>
    <path stroke-width=".5" d="M95.016 68.189v-25.84m19 25.84v-25.84"/>
    <path d="M72.156 67.019h59.61m-59.61-11.75h59.61m-59.61-11.75h59.61"/>
    <path stroke-width=".5" d="M72.156 61.149h59.61m-59.61-11.75h59.61"/>
  </g>
  <path fill="#db5f57" stroke="#db5f57" stroke-width=".886" d="M105 53.5c.469 0 .918-.188 1.25-.52a1.768 1.768 0 0 0 0-2.503 1.768 1.768 0 0 0-2.504 0A1.77 1.77 0 0 0 105 53.5z"/>
  <path fill="#db5f57" d="M85.096 68.789a1.771 1.771 0 0 0 1.773-1.773 1.767 1.767 0 0 0-1.773-1.77 1.78 1.78 0 0 0-1.254.515 1.78 1.78 0 0 0 0 2.509c.336.332.785.519 1.254.519z"/>
  <path fill="none" stroke="#db5f57" stroke-width=".886" d="M85.096 68.789a1.771 1.771 0 0 0 1.773-1.773 1.767 1.767 0 0 0-1.773-1.77 1.78 1.78 0 0 0-1.254.516 1.78 1.78 0 0 0 0 2.508c.336.332.785.519 1.254.519z"/>
  <path fill="#57db5f" stroke="#57db5f" stroke-width=".886" d="M123 49.48a1.767 1.767 0 0 0 1.773-1.77A1.771 1.771 0 0 0 123 45.937a1.778 1.778 0 0 0-1.773 1.773c0 .47.187.918.519 1.254.332.332.785.516 1.254.516z"/>
  <path fill="#57db5f" d="M85.096 67.999a1.771 1.771 0 0 0 1.773-1.773 1.778 1.778 0 0 0-1.773-1.774c-.469 0-.918.188-1.254.52a1.774 1.774 0 0 0-.516 1.253A1.767 1.767 0 0 0 85.096 68z"/>
  <path fill="none" stroke="#57db5f" stroke-width=".886" d="M85.096 67.999a1.771 1.771 0 0 0 1.773-1.773 1.778 1.778 0 0 0-1.773-1.774c-.469 0-.918.188-1.254.52a1.774 1.774 0 0 0-.516 1.254 1.767 1.767 0 0 0 1.77 1.773z"/>
  <path fill="#5f57db" stroke="#5f57db" stroke-width=".886" d="M85.1 64.77A1.767 1.767 0 0 0 86.873 63a1.771 1.771 0 0 0-1.773-1.773A1.767 1.767 0 0 0 83.33 63c0 .47.184.918.516 1.254a1.78 1.78 0 0 0 1.254.516z"/>
  <path fill="none" stroke="#db5f57" stroke-width=".886" d="m85.096 67.019 19.87-15.29"/>
  <path fill="none" stroke="#57db5f" stroke-width=".886" d="m85.1 66.22 37.94-18.51"/>
  <path fill="#ebebeb" d="M134 68.19h59.61V42.35H134z"/>
  <g fill="none" stroke="#fff">
    <path d="M146.916 68.189v-25.84m19.9 25.84v-25.84m18 25.84v-25.84"/>
    <path stroke-width=".5" d="M156.816 68.189v-25.84m19 25.84v-25.84"/>
    <path d="M133.916 67.019h59.61m-59.61-11.75h59.61m-59.61-11.75h59.61"/>
    <path stroke-width=".5" d="M133.916 61.149h59.61m-59.61-11.75h59.61"/>
  </g>
  <path fill="#db5f57" stroke="#db5f57" stroke-width=".886" d="M166.8 54.97a1.778 1.778 0 0 0 1.77-1.773 1.771 1.771 0 1 0-3.024 1.253c.332.332.781.52 1.254.52z"/>
  <path fill="#db5f57" d="M146.916 68.789a1.771 1.771 0 0 0 1.773-1.773 1.767 1.767 0 0 0-1.773-1.77 1.78 1.78 0 0 0-1.254.515 1.78 1.78 0 0 0 0 2.509c.336.332.785.519 1.254.519z"/>
  <path fill="none" stroke="#db5f57" stroke-width=".886" d="M146.916 68.789a1.771 1.771 0 0 0 1.773-1.773 1.767 1.767 0 0 0-1.773-1.77 1.78 1.78 0 0 0-1.254.516 1.78 1.78 0 0 0 0 2.508c.336.332.785.519 1.254.519z"/>
  <g stroke-width=".886">
    <path fill="#57db5f" stroke="#57db5f" d="M184.8 49.85a1.771 1.771 0 0 0 1.773-1.773 1.778 1.778 0 0 0-1.773-1.774 1.778 1.778 0 0 0-1.773 1.774 1.778 1.778 0 0 0 1.773 1.773zm-37.9 13.38a1.771 1.771 0 0 0 1.773-1.773 1.778 1.778 0 0 0-1.773-1.774 1.772 1.772 0 0 0-1.77 1.773c0 .468.184.922.516 1.254.336.332.785.52 1.254.52z"/>
    <path fill="#5f57db" stroke="#5f57db" d="M146.9 66.47a1.771 1.771 0 0 0 1.773-1.773 1.778 1.778 0 0 0-1.773-1.774c-.469 0-.918.188-1.254.52a1.774 1.774 0 0 0-.516 1.254 1.772 1.772 0 0 0 1.77 1.773z"/>
  </g>
  <path fill="none" stroke="#db5f57" stroke-width=".886" d="m146.916 67.019 19.88-13.82"/>
  <path fill="none" stroke="#57db5f" stroke-width=".886" d="m146.9 61.46 37.94-13.38"/>
  <path fill="#ebebeb" d="M10.36 96.21h59.61V70.37H10.36z"/>
  <path fill="none" stroke="#fff" d="M23.306 96.219v-25.84"/>
  <use xlink:href="#q" x="28.888" y="113.969" fill="#4d4d4d" transform="translate(-8.084 -9.551)"/>
  <path fill="none" stroke="#fff" d="M43.176 96.219v-25.84"/>
  <g fill="#4d4d4d" transform="translate(-8.084 -9.551)">
    <use xlink:href="#r" x="46.26" y="113.969"/>
    <use xlink:href="#s" x="51.264" y="113.969"/>
  </g>
  <path fill="none" stroke="#fff" d="M61.236 96.219v-25.84"/>
  <g fill="#4d4d4d" transform="translate(-8.084 -9.551)">
    <use xlink:href="#q" x="64.325" y="113.969"/>
    <use xlink:href="#s" x="69.329" y="113.969"/>
  </g>
  <g fill="none" stroke="#fff">
    <path stroke-width=".5" d="M33.236 96.219v-25.84m18.97 25.84v-25.84"/>
    <path d="M10.356 95.039h59.61m-59.61-11.74h59.61m-59.61-11.75h59.61"/>
    <path stroke-width=".5" d="M10.356 89.169h59.61m-59.61-11.75h59.61"/>
  </g>
  <g stroke-width=".886">
    <path fill="#db5f57" stroke="#db5f57" d="M43.18 94.08c.469 0 .918-.184 1.25-.52a1.768 1.768 0 0 0 0-2.504 1.768 1.768 0 0 0-2.504 0 1.77 1.77 0 0 0 1.254 3.024zM23.3 88.39a1.771 1.771 0 0 0 1.774-1.773 1.767 1.767 0 0 0-1.774-1.77 1.78 1.78 0 0 0-1.254.515 1.78 1.78 0 0 0 0 2.509c.336.332.785.519 1.254.519z"/>
    <path fill="#57db5f" stroke="#57db5f" d="M61.24 86.65a1.771 1.771 0 1 0-1.254-3.023 1.77 1.77 0 0 0 1.254 3.023zM23.3 92.11a1.767 1.767 0 0 0 1.774-1.77 1.771 1.771 0 0 0-1.774-1.773 1.767 1.767 0 0 0-1.77 1.773c0 .47.184.918.516 1.254a1.78 1.78 0 0 0 1.254.516z"/>
    <path fill="#5f57db" stroke="#5f57db" d="M23.3 94.95a1.771 1.771 0 0 0 1.774-1.773 1.771 1.771 0 0 0-1.774-1.774 1.767 1.767 0 0 0-1.77 1.773c0 .47.184.922.516 1.255.336.332.785.519 1.254.519z"/>
  </g>
  <path fill="none" stroke="#db5f57" stroke-width=".886" d="m23.3 86.62 19.88 5.688"/>
  <path fill="none" stroke="#57db5f" stroke-width=".886" d="m23.3 90.34 37.94-5.461"/>
  <path fill="#ebebeb" d="M72.15 96.21h59.61V70.37H72.15z"/>
  <path fill="none" stroke="#fff" d="M85.096 96.219v-25.84"/>
  <use xlink:href="#q" x="90.685" y="113.969" fill="#4d4d4d" transform="translate(-8.084 -9.551)"/>
  <path fill="none" stroke="#fff" d="M105.016 96.219v-25.84"/>
  <g fill="#4d4d4d" transform="translate(-8.084 -9.551)">
    <use xlink:href="#r" x="108.057" y="113.969"/>
    <use xlink:href="#s" x="113.061" y="113.969"/>
  </g>
  <path fill="none" stroke="#fff" d="M123.016 96.219v-25.84"/>
  <g fill="#4d4d4d" transform="translate(-8.084 -9.551)">
    <use xlink:href="#q" x="126.122" y="113.969"/>
    <use xlink:href="#s" x="131.126" y="113.969"/>
  </g>
  <g fill="none" stroke="#fff">
    <path stroke-width=".5" d="M95.016 96.219v-25.84m19 25.84v-25.84"/>
    <path d="M72.156 95.039h59.61m-59.61-11.74h59.61m-59.61-11.75h59.61"/>
    <path stroke-width=".5" d="M72.156 89.169h59.61m-59.61-11.75h59.61"/>
  </g>
  <g stroke-width=".886">
    <path fill="#db5f57" stroke="#db5f57" d="M105 78.4a1.77 1.77 0 0 0 1.25-3.028 1.768 1.768 0 0 0-2.504 0 1.777 1.777 0 0 0 0 2.509A1.77 1.77 0 0 0 105 78.4zM85.1 89.22a1.771 1.771 0 0 0 1.773-1.773 1.778 1.778 0 0 0-1.773-1.774 1.772 1.772 0 0 0-1.77 1.773c0 .468.184.922.516 1.255.336.332.785.519 1.254.519z"/>
    <path fill="#57db5f" stroke="#57db5f" d="M123 74.71a1.771 1.771 0 0 0 1.773-1.773A1.778 1.778 0 0 0 123 71.162a1.778 1.778 0 0 0-1.773 1.773A1.778 1.778 0 0 0 123 74.71zM85.1 92.79a1.771 1.771 0 1 0 .002-3.542 1.771 1.771 0 0 0-.002 3.542z"/>
  </g>
  <path fill="#5f57db" d="M85.096 96.449a1.771 1.771 0 0 0 1.773-1.773 1.778 1.778 0 0 0-1.773-1.774 1.772 1.772 0 0 0-1.77 1.773c0 .468.184.922.516 1.255.336.331.785.519 1.254.519z"/>
  <path fill="none" stroke="#db5f57" stroke-width=".886" d="m85.1 87.45 19.88-10.82"/>
  <path fill="none" stroke="#57db5f" stroke-width=".886" d="m85.1 91.02 37.94-18.08"/>
  <path fill="#ebebeb" d="M134 96.21h59.61V70.37H134z"/>
  <path fill="none" stroke="#fff" d="M146.916 96.219v-25.84"/>
  <use xlink:href="#q" x="152.482" y="113.969" fill="#4d4d4d" transform="translate(-8.084 -9.551)"/>
  <g fill="#4d4d4d" transform="translate(-8.084 -9.551)">
    <use xlink:href="#r" x="169.854" y="113.969"/>
    <use xlink:href="#s" x="174.858" y="113.969"/>
  </g>
  <g fill="#4d4d4d" transform="translate(-8.084 -9.551)">
    <use xlink:href="#q" x="187.919" y="113.969"/>
    <use xlink:href="#s" x="192.923" y="113.969"/>
  </g>
  <g fill="none" stroke="#fff">
    <path d="M166.816 96.219v-25.84m18 25.84v-25.84"/>
    <path stroke-width=".5" d="M156.816 96.219v-25.84m19 25.84v-25.84"/>
    <path d="M133.916 95.039h59.61m-59.61-11.74h59.61m-59.61-11.75h59.61"/>
    <path stroke-width=".5" d="M133.916 89.169h59.61m-59.61-11.75h59.61"/>
  </g>
  <path stroke="#db5f57" stroke-width=".886" d="m146.9 84.52 19.88 7.586"/>
  <path stroke="#57db5f" stroke-width=".886" d="m146.9 91.02 37.94-18.18"/>
  <g stroke-width=".886">
    <path fill="#db5f57" stroke="#db5f57" d="M166.8 93.88a1.778 1.778 0 0 0 1.77-1.773 1.771 1.771 0 1 0-3.024 1.254c.332.331.781.519 1.254.519zm-19.9-7.59a1.771 1.771 0 1 0 .002-3.542 1.771 1.771 0 0 0-.002 3.542z"/>
    <path fill="#57db5f" stroke="#57db5f" d="M184.8 74.61a1.771 1.771 0 1 0-1.254-3.023 1.768 1.768 0 0 0 0 2.504c.332.332.785.519 1.254.519zm-37.9 18.18a1.771 1.771 0 1 0 .002-3.542 1.771 1.771 0 0 0-.002 3.542z"/>
  </g>
  <g transform="translate(-2.084 -6.551)">
    <use xlink:href="#t" x="8.635" y="86.072"/>
    <use xlink:href="#u" x="8.635" y="80.573"/>
    <use xlink:href="#v" x="8.635" y="75.569"/>
    <use xlink:href="#w" x="8.635" y="73.571"/>
    <use xlink:href="#x" x="8.635" y="71.069"/>
    <use xlink:href="#y" x="8.635" y="66.065"/>
    <use xlink:href="#z" x="8.635" y="63.563"/>
    <use xlink:href="#A" x="8.635" y="58.559"/>
    <use xlink:href="#B" x="8.635" y="56.561"/>
    <use xlink:href="#C" x="8.635" y="51.557"/>
    <use xlink:href="#D" x="8.635" y="46.553"/>
    <use xlink:href="#D" x="8.635" y="42.053"/>
  </g>
  <path fill="#5f57db" stroke="#5f57db" stroke-width=".886" d="M85.096 96.459a1.771 1.771 0 0 0 1.773-1.773 1.778 1.778 0 0 0-1.773-1.774 1.772 1.772 0 0 0-1.77 1.773c0 .468.184.922.516 1.255.336.332.785.519 1.254.519zm61.82.28a1.771 1.771 0 0 0 1.773-1.773 1.778 1.778 0 0 0-1.773-1.774c-.469 0-.918.188-1.254.52a1.774 1.774 0 0 0-.516 1.253 1.767 1.767 0 0 0 1.77 1.774z"/>
  <path fill="#f2f2f2" d="M10.14 127.1h183.6v-16.24H10.14z"/>
  <g transform="translate(-8.084 -12.55)">
    <path stroke="#db5f57" stroke-width=".886" d="M18.43 131.52h15.84"/>
    <use xlink:href="#E" x="37.266" y="134.061"/>
    <use xlink:href="#F" x="43.376" y="134.061"/>
    <use xlink:href="#G" x="48.936" y="134.061"/>
    <use xlink:href="#H" x="51.156" y="134.061"/>
    <use xlink:href="#I" x="56.156" y="134.061"/>
    <use xlink:href="#J" x="61.716" y="134.061"/>
    <path  stroke="#57db5f" stroke-width=".886" d="M72.28 131.52h15.84"/>
    <use xlink:href="#K" x="91.122" y="134.061"/>
    <use xlink:href="#G" x="96.682" y="134.061"/>
    <use xlink:href="#F" x="98.902" y="134.061"/>
    <use xlink:href="#L" x="104.462" y="134.061"/>
    <use xlink:href="#F" x="112.792" y="134.061"/>
    <use xlink:href="#glyph-3-8" x="118.352" y="134.061"/>
    <use xlink:href="#M" x="121.132" y="134.061"/>
    <path stroke="#5f57db" stroke-width=".886" d="M131.7 131.52h15.84"/>
    <use xlink:href="#N" x="150.54" y="134.061"/>
    <use xlink:href="#O" x="158.87" y="134.061"/>
    <use xlink:href="#P" x="161.09" y="134.061"/>
    <use xlink:href="#Q" x="166.09" y="134.061"/>
    <use xlink:href="#R" x="168.87" y="134.061"/>
    <use xlink:href="#F" x="172.2" y="134.061"/>
    <use xlink:href="#G" x="177.76" y="134.061"/>
    <use xlink:href="#glyph-3-8" x="179.98" y="134.061"/>
    <use xlink:href="#S" x="182.76" y="134.061"/>
    <use xlink:href="#T" x="187.76" y="134.061"/>
    <use xlink:href="#U" x="193.32" y="134.061"/>
    <use xlink:href="#V" x="196.1" y="134.061"/>
  </g>
  <path fill="#db5f57" stroke="#db5f57" stroke-width=".886" d="M18.26 120.7a1.765 1.765 0 0 0 1.77-1.77 1.767 1.767 0 0 0-1.77-1.773 1.771 1.771 0 1 0 0 3.543z"/>
  <path fill="#57db5f" stroke="#57db5f" stroke-width=".886" d="M72.12 120.7a1.765 1.765 0 0 0 1.77-1.77 1.767 1.767 0 0 0-1.77-1.773 1.771 1.771 0 1 0 0 3.543z"/>
  <path fill="#5f57db" stroke="#5f57db" stroke-width=".886" d="M131.5 120.7a1.778 1.778 0 0 0 1.773-1.77 1.771 1.771 0 0 0-1.773-1.773 1.771 1.771 0 1 0 0 3.543z"/>
</svg>