<?xml version="1.0" encoding="UTF-8"?>
<svg width="62.8mm" height="38.4mm" version="1.1" viewBox="0 0 62.8 38.4" xmlns="http://www.w3.org/2000/svg">
 <defs>
  <marker id="marker17" overflow="visible" markerHeight="1" markerWidth="1" orient="auto-start-reverse" preserveAspectRatio="xMidYMid" viewBox="0 0 1 1">
   <path transform="scale(.5)" d="m5.77 0-8.65 5v-10z" fill="context-stroke" fill-rule="evenodd" stroke="context-stroke" stroke-width="1pt"/>
  </marker>
 </defs>
 <g transform="translate(191 -199)">
  <text x="-249.02588" y="162.54062" fill="#d6cbe6" font-family="'Linux Libertine O'" font-size="3.53px" font-weight="bold" letter-spacing="0px" opacity=".625" stroke-dasharray="0.3, 0.3" stroke-width=".3" text-align="center" text-anchor="middle" word-spacing="0px" style="line-height:1" xml:space="preserve"><tspan x="-249.02588" y="162.54062" fill="#d6cbe6"/></text>
  <text x="-229.22798" y="176.77327" fill="none" font-family="'Linux Libertine O'" font-size="3.53px" font-weight="bold" letter-spacing="0px" stroke="#000000" stroke-width=".4" text-align="center" text-anchor="middle" word-spacing="0px" style="line-height:1" xml:space="preserve"><tspan x="-229.22798" y="176.77327" stroke-width=".4"/></text>
  <g fill="#000000" font-family="'Linux Libertine O'" word-spacing="0px">
   <text x="-238.55278" y="226.88638" font-size="3.53px" letter-spacing="0px" stroke-width=".4" text-align="center" text-anchor="middle" style="line-height:1" xml:space="preserve"><tspan x="-238.55278" y="226.88638" font-family="'Linux Libertine O'" font-size="3.53px" font-weight="600" stroke-width=".4"/></text>
   <g font-size="13.3px" font-weight="600" letter-spacing="-.38px" stroke-width="1.51">
    <text transform="matrix(.265 0 0 .265 -281 150)" style="line-height:1;shape-inside:url(#rect63);white-space:pre" xml:space="preserve"/>
    <text transform="matrix(.265 0 0 .265 -281 150)" style="line-height:1;shape-inside:url(#rect64);white-space:pre" xml:space="preserve"/>
    <text transform="matrix(.265 0 0 .265 -281 150)" style="line-height:1;shape-inside:url(#rect65);white-space:pre" xml:space="preserve"/>
   </g>
  </g>
  <path d="m-189 204c0.466 0 0.843 0.388 0.843 1.1 0 0.631-0.303 1-0.706 1-0.43 0-0.836-0.385-0.836-1.06 0-0.741 0.349-1.04 0.698-1.04zm1.18 1.03c0-0.73-0.504-1.16-1.14-1.16-0.684 0-1.08 0.547-1.08 1.23 0 0.695 0.504 1.13 1.1 1.13 0.388 0 0.702-0.166 0.896-0.444 0.141-0.198 0.219-0.455 0.219-0.751zm0.893 1.2c0.138 0 0.303-0.0706 0.476-0.212 0.0176-0.0141 0.0494-0.0212 0.0529 4e-3 7e-3 0.0917 0.0388 0.208 0.0388 0.208 0.0282 0.0106 0.0423 0.0106 0.067 0 0.0776-0.0635 0.201-0.116 0.416-0.141 0.0212-0.0212 0.0212-0.0741 0-0.0952-0.226-0.0176-0.258-0.0847-0.258-0.258v-0.677c0-0.106 0.0141-0.363 0.0141-0.363 0-0.0106-0.0106-0.0212-0.0282-0.0212-0.0176 4e-3 -0.0706 7e-3 -0.123 7e-3 -0.113 0-0.24-4e-3 -0.36-7e-3 -0.0212 0.0212-0.0212 0.0952 0 0.116 0.173 0.0106 0.219 0.0529 0.219 0.286v0.681c0 0.067-7e-3 0.0953-0.0564 0.138-0.131 0.113-0.265 0.169-0.353 0.169-0.106 0-0.282-0.0494-0.282-0.363v-0.642c0-0.106 0.0141-0.363 0.0141-0.363 0-0.0106-0.0106-0.0212-0.0282-0.0212-0.0176 4e-3 -0.0705 7e-3 -0.123 7e-3 -0.113 0-0.24-3e-3 -0.36-7e-3 -0.0212 0.0212-0.0212 0.0953 0 0.116 0.169 0.0141 0.219 0.0529 0.219 0.282v0.677c0 0.243 0.106 0.48 0.455 0.48zm1.26-1.55c-0.0494 0-0.0635 0.0423-0.0635 0.0706v0.0459c0 0.0176 4e-3 0.0212 0.0176 0.0212h0.208v1.06c0 0.25 0.109 0.349 0.272 0.349s0.339-0.0776 0.476-0.233c-7e-3 -0.0353-0.0282-0.0564-0.0635-0.06-0.0917 0.0705-0.198 0.0988-0.289 0.0988-0.0952 0-0.116-0.106-0.116-0.325v-0.893h0.367c0.0353 0 0.0847-0.0141 0.0847-0.0459v-0.0705c0-0.0141-0.0106-0.0212-0.0282-0.0212h-0.423v-0.138c0-0.229 0.0141-0.37 0.0141-0.37 0-0.0212-0.0106-0.0282-0.0282-0.0282s-0.0459 0.0141-0.0776 0.0317c-0.0423 0.0212-0.0776 0.0353-0.12 0.0494-0.0423 0.0106-0.0776 0.0247-0.0776 0.0459 0 0.0423 0.0106 0.0176 0.0106 0.409zm1.58 0.346c0.0917-0.113 0.25-0.219 0.356-0.219 0.226 0 0.42 0.254 0.42 0.653 0 0.289-0.102 0.649-0.497 0.649-0.0635 0-0.187-0.0176-0.25-0.0741-0.0741-0.0635-0.0847-0.0811-0.0847-0.212v-0.642c0-0.0741 0.0141-0.102 0.0564-0.155zm-0.067-0.131c-7e-3 -0.106-0.0141-0.194-0.0282-0.233-0.0106-0.0141-0.0141-0.0282-0.0423-0.0282-0.0988 0.0388-0.19 0.0705-0.434 0.102-7e-3 0.0212 0 0.0776 7e-3 0.0988 0.19 0.0176 0.229 0.0353 0.229 0.24v1.51c0 0.293-0.0388 0.31-0.254 0.321-0.0212 0.0212-0.0212 0.0952 0 0.116 0.123-4e-3 0.254-7e-3 0.395-7e-3 0.141 0 0.31 4e-3 0.427 7e-3 0.0212-0.0212 0.0212-0.0953 0-0.116-0.25-0.0141-0.289-0.0282-0.289-0.321v-0.381c0-0.0459 0.0106-0.0388 0.0494-0.0247 0.0847 0.0353 0.194 0.0529 0.307 0.0529 0.198 0 0.374-0.06 0.519-0.198 0.166-0.162 0.261-0.381 0.261-0.667 0-0.374-0.265-0.72-0.624-0.72-0.166 0-0.346 0.109-0.483 0.265-0.0212 0.0247-0.0388 0.0212-0.0388-0.0141zm2.05 1.33c0.138 0 0.303-0.0706 0.476-0.212 0.0176-0.0141 0.0494-0.0212 0.0529 4e-3 7e-3 0.0917 0.0388 0.208 0.0388 0.208 0.0282 0.0106 0.0423 0.0106 0.067 0 0.0776-0.0635 0.201-0.116 0.416-0.141 0.0212-0.0212 0.0212-0.0741 0-0.0952-0.226-0.0176-0.258-0.0847-0.258-0.258v-0.677c0-0.106 0.0141-0.363 0.0141-0.363 0-0.0106-0.0106-0.0212-0.0282-0.0212-0.0176 4e-3 -0.0706 7e-3 -0.123 7e-3 -0.113 0-0.24-4e-3 -0.36-7e-3 -0.0212 0.0212-0.0212 0.0952 0 0.116 0.173 0.0106 0.219 0.0529 0.219 0.286v0.681c0 0.067-7e-3 0.0953-0.0564 0.138-0.131 0.113-0.265 0.169-0.353 0.169-0.106 0-0.282-0.0494-0.282-0.363v-0.642c0-0.106 0.0141-0.363 0.0141-0.363 0-0.0106-0.0106-0.0212-0.0282-0.0212-0.0176 4e-3 -0.0706 7e-3 -0.123 7e-3 -0.113 0-0.24-3e-3 -0.36-7e-3 -0.0212 0.0212-0.0212 0.0953 0 0.116 0.169 0.0141 0.219 0.0529 0.219 0.282v0.677c0 0.243 0.106 0.48 0.455 0.48zm1.26-1.55c-0.0494 0-0.0635 0.0423-0.0635 0.0706v0.0459c0 0.0176 4e-3 0.0212 0.0176 0.0212h0.208v1.06c0 0.25 0.109 0.349 0.272 0.349s0.339-0.0776 0.476-0.233c-7e-3 -0.0353-0.0282-0.0564-0.0635-0.06-0.0917 0.0705-0.198 0.0988-0.289 0.0988-0.0953 0-0.116-0.106-0.116-0.325v-0.893h0.367c0.0353 0 0.0847-0.0141 0.0847-0.0459v-0.0705c0-0.0141-0.0106-0.0212-0.0282-0.0212h-0.423v-0.138c0-0.229 0.0141-0.37 0.0141-0.37 0-0.0212-0.0106-0.0282-0.0282-0.0282s-0.0459 0.0141-0.0776 0.0317c-0.0423 0.0212-0.0776 0.0353-0.12 0.0494-0.0423 0.0106-0.0776 0.0247-0.0776 0.0459 0 0.0423 0.0106 0.0176 0.0106 0.409z" stroke-dasharray="0.3, 0.3" stroke-width=".3" aria-label="Output"/>
  <path d="m-185 211v-1.91" fill="none" marker-end="url(#marker17)" stroke="#000" stroke-width=".4"/>
  <rect x="-190" y="211" width="30" height="15" rx="2" ry="2" fill="#d6cceb" stroke="#423062" stroke-width=".4"/>
  <g transform="translate(-296 131)">
   <rect x="142" y="82.3" width="25" height="10" rx="2" ry="2" fill="#f1c9c6" stroke="#423062" stroke-width=".4"/>
   <g transform="matrix(.265 0 0 .265 42.4 63.9)" stroke-width="1.51" style="white-space:pre" aria-label="explanation
optimizer">
    <path d="m396 80.9c0.187-1.36 0.973-1.56 1.25-1.56 0.36 0 0.907 0.347 0.907 1.41 0 0.08 0 0.12-0.0267 0.147zm3.24 2.35c-0.493 0.6-0.987 0.84-1.49 0.84-1.04 0-1.81-1-1.81-2.31v-0.347h3.24c0.32 0 0.52-0.0933 0.52-0.28 0-1.13-0.467-2.37-2.43-2.37-1.4 0-2.87 1.24-2.87 3.28 0 1.47 0.8 2.77 2.83 2.77 0.92 0 1.85-0.307 2.35-1.31zm2.82 0.48 0.56-0.8c0.293-0.413 0.307-0.413 0.52-0.04l0.56 0.853c0.253 0.4 0.147 0.467-0.307 0.533-0.0267 0.0133-0.107 0.0267-0.107 0.107v0.32l0.0533 0.0267s0.987-0.0267 1.63-0.0267c0.52 0 1.35 0.0267 1.35 0.0267l0.04-0.0267v-0.333c0-0.0533-0.08-0.08-0.133-0.0933-0.493-0.0667-0.813-0.253-1.24-0.893l-1.17-1.75c-0.08-0.12-0.0667-0.147-0.0267-0.2l1.19-1.44c0.36-0.453 0.787-0.6 1.2-0.653 0.08 0 0.147-0.0533 0.147-0.12v-0.307l-0.0267-0.0267s-0.56 0.0267-0.907 0.0267c-0.613 0-1.56-0.0267-1.56-0.0267l-0.04 0.04v0.32c0 0.04 0.0267 0.0933 0.0933 0.0933 0.48 0.04 0.507 0.187 0.227 0.573l-0.667 0.96c-0.08 0.0933-0.0933 0.107-0.2-0.04l-0.64-0.933c-0.307-0.44-0.213-0.507 0.293-0.56 0.04 0 0.107-0.0133 0.107-0.107v-0.32l-0.04-0.0267s-1.03 0.0267-1.67 0.0267c-0.533 0-1.35-0.0267-1.35-0.0267l-0.04 0.0267v0.333c0 0.0667 0.0667 0.0933 0.133 0.0933 0.467 0 0.84 0.36 1.21 0.893l1.19 1.69c0.0533 0.0667 0.0667 0.08-0.04 0.2l-1.23 1.52c-0.347 0.413-0.813 0.573-1.2 0.627-0.08 0.0133-0.147 0.0667-0.147 0.133v0.293l0.0267 0.0267s0.627-0.0267 1.04-0.0267c0.56 0 1.45 0.0267 1.45 0.0267l0.0533-0.0267v-0.32c0-0.0533-0.0533-0.0933-0.107-0.107-0.253-0.04-0.533-0.107-0.227-0.547zm6.73-3.57c0.387-0.427 0.867-0.68 1.19-0.68 0.787 0 1.19 0.867 1.19 2.43 0 1.12-0.4 2.37-1.56 2.37-0.147 0-0.48-0.08-0.813-0.44zm0-0.533h-0.0267l0.0267-0.84c0-0.0267-0.0667-0.04-0.0933-0.04-0.427 0.133-1.31 0.28-2.24 0.4l0.0267 0.453 0.547 0.0533c0.187 0.0133 0.293 0.107 0.293 0.773v6.33c0 0.373-0.2 0.493-0.64 0.587l-0.12 0.0267c-0.0667 0.0267-0.107 0.04-0.107 0.107v0.32l0.0267 0.0267s1.07-0.0267 1.55-0.0267c0.52 0 1.6 0.0267 1.6 0.0267l0.0133-0.0267v-0.32c0-0.0667-0.0533-0.08-0.107-0.107l-0.107-0.0267c-0.427-0.0933-0.64-0.213-0.64-0.587v-2.15c0.28 0.147 0.573 0.227 0.893 0.227 0.813 0 1.47-0.24 1.99-0.76 0.653-0.653 1.03-1.49 1.03-2.53 0-1.41-0.84-2.76-2.29-2.76-0.587 0-1.19 0.347-1.61 0.84zm5.26-2.43v6.48c0 0.373-0.227 0.507-0.64 0.573l-0.16 0.0267c-0.0667 0.0133-0.107 0.04-0.107 0.12v0.307l0.0267 0.0267s1.12-0.0267 1.59-0.0267c0.52 0 1.64 0.0267 1.64 0.0267l0.0267-0.0267v-0.307c0-0.08-0.0667-0.107-0.107-0.12l-0.147-0.0267c-0.44-0.0667-0.653-0.2-0.653-0.573v-6.75c0-0.867 0.04-1.4 0.04-1.4 0-0.0933-0.0933-0.133-0.213-0.133-0.347 0.133-1.71 0.307-2.24 0.347l0.04 0.387c0 0.04 0.0267 0.0667 0.08 0.0667l0.427 0.0267c0.267 0 0.4 0.107 0.4 0.973zm5.95 6.87h0.0267c0.16 0.52 0.507 0.773 1.31 0.773 0.733 0 1.24-0.573 1.24-0.64 0-0.0933-0.12-0.267-0.173-0.267-0.08 0-0.0933 0.213-0.413 0.213-0.52 0-0.533-0.507-0.533-1.12v-1.93c0-1.92-1.09-2.31-2.19-2.31-0.973 0-2.37 0.693-2.37 1.49 0 0.347 0.147 0.56 0.627 0.56 0.373 0 0.693-0.32 0.693-0.507 0-0.16-0.08-0.307-0.08-0.573 0-0.293 0.44-0.467 0.947-0.467 0.56 0 0.933 0.293 0.933 1.99l-0.96 0.28c-1.39 0.413-2.32 0.827-2.32 1.88 0 0.92 0.44 1.4 1.6 1.4 0.56 0 1.15-0.32 1.67-0.773zm0.0133-0.493c-0.333 0.267-0.8 0.533-1.04 0.533-0.64 0-0.84-0.4-0.84-0.867 0-0.547 0.173-0.947 1.12-1.23l0.76-0.227zm4.98-3.95h-0.0267l0.0267-0.84c0-0.0267-0.0667-0.04-0.0933-0.04-0.427 0.133-1.31 0.28-2.24 0.4l0.0267 0.453 0.547 0.0533c0.187 0.0133 0.293 0.107 0.293 0.773v3.27c0 0.373-0.213 0.467-0.64 0.56l-0.12 0.0267c-0.0667 0.0267-0.107 0.04-0.107 0.12v0.307l0.0267 0.0267s1.08-0.0267 1.55-0.0267c0.52 0 1.53 0.0267 1.53 0.0267l0.0267-0.0267v-0.307c0-0.08-0.0667-0.107-0.107-0.12l-0.0533-0.0133c-0.413-0.0933-0.64-0.213-0.64-0.573v-3.53c0.653-0.413 1.21-0.627 1.61-0.627 0.48 0 0.56 0.4 0.56 1.31v2.85c0 0.373-0.227 0.48-0.64 0.573l-0.0533 0.0133c-0.0667 0.0267-0.107 0.04-0.107 0.12v0.307l0.0267 0.0267s1.01-0.0267 1.49-0.0267c0.52 0 1.59 0.0267 1.59 0.0267l0.0267-0.0267v-0.307c0-0.08-0.0667-0.107-0.107-0.12l-0.107-0.0267c-0.413-0.0933-0.653-0.187-0.653-0.56v-2.76c0-1.21-0.2-2.15-1.63-2.15-0.64 0-1.33 0.32-2.01 0.84zm8.1 4.44h0.0267c0.16 0.52 0.507 0.773 1.31 0.773 0.733 0 1.24-0.573 1.24-0.64 0-0.0933-0.12-0.267-0.173-0.267-0.08 0-0.0933 0.213-0.413 0.213-0.52 0-0.533-0.507-0.533-1.12v-1.93c0-1.92-1.09-2.31-2.19-2.31-0.973 0-2.37 0.693-2.37 1.49 0 0.347 0.147 0.56 0.627 0.56 0.373 0 0.693-0.32 0.693-0.507 0-0.16-0.08-0.307-0.08-0.573 0-0.293 0.44-0.467 0.947-0.467 0.56 0 0.933 0.293 0.933 1.99l-0.96 0.28c-1.39 0.413-2.32 0.827-2.32 1.88 0 0.92 0.44 1.4 1.6 1.4 0.56 0 1.15-0.32 1.67-0.773zm0.0133-0.493c-0.333 0.267-0.8 0.533-1.04 0.533-0.64 0-0.84-0.4-0.84-0.867 0-0.547 0.173-0.947 1.12-1.23l0.76-0.227zm4.86-4.03h1.07c0.253 0 0.493-0.0667 0.493-0.227v-0.267c0-0.08-0.04-0.133-0.293-0.133h-1.27v-2.15l-1.08 0.413c0 1.08-0.133 1.73-0.8 1.73-0.267 0-0.507 0.0267-0.507 0.107v0.413c0 0.08 0.0267 0.107 0.24 0.107h0.68v3.93c0 0.973 0.48 1.36 1.15 1.36 0.733 0 1.39-0.333 1.88-0.987l-0.307-0.307c-0.4 0.32-0.64 0.333-0.907 0.333-0.173 0-0.347-0.0933-0.347-0.973zm4.19 0.88c0-0.667 0.04-1.64 0.04-1.64 0-0.0267-0.0667-0.04-0.0933-0.04-0.427 0.133-1.36 0.28-2.28 0.4l0.0267 0.4 0.547 0.0533c0.187 0.0133 0.293 0.16 0.293 0.827v3.25c0 0.373-0.213 0.507-0.627 0.573l-0.16 0.0267c-0.0533 0.0133-0.0933 0.04-0.0933 0.12v0.307l0.0267 0.0267s1.08-0.0267 1.56-0.0267c0.52 0 1.6 0.0267 1.6 0.0267l0.0267-0.0267v-0.307c0-0.08-0.0667-0.107-0.107-0.12l-0.133-0.0267c-0.4-0.0667-0.627-0.2-0.627-0.573zm-1.55-3.33c0 0.44 0.36 0.8 0.8 0.8s0.8-0.36 0.8-0.8-0.36-0.8-0.8-0.8-0.8 0.36-0.8 0.8zm5.5 2.24c0.907 0 1.52 1.01 1.52 2.92 0 1.69-0.707 2.01-1.19 2.01-1.09 0-1.59-1.63-1.59-2.61 0-1.13 0.4-2.32 1.25-2.32zm-2.88 2.61c0 1.37 1.04 2.89 3 2.89 2.07 0 3.01-1.67 3.01-3.01 0-1.4-0.827-3.04-3-3.04-1.93 0-3.01 1.33-3.01 3.16zm8.86-2.32h-0.0267l0.0267-0.84c0-0.0267-0.0667-0.04-0.0933-0.04-0.427 0.133-1.31 0.28-2.24 0.4l0.0267 0.453 0.547 0.0533c0.187 0.0133 0.293 0.107 0.293 0.773v3.27c0 0.373-0.213 0.467-0.64 0.56l-0.12 0.0267c-0.0667 0.0267-0.107 0.04-0.107 0.12v0.307l0.0267 0.0267s1.08-0.0267 1.55-0.0267c0.52 0 1.53 0.0267 1.53 0.0267l0.0267-0.0267v-0.307c0-0.08-0.0667-0.107-0.107-0.12l-0.0533-0.0133c-0.413-0.0933-0.64-0.213-0.64-0.573v-3.53c0.653-0.413 1.21-0.627 1.61-0.627 0.48 0 0.56 0.4 0.56 1.31v2.85c0 0.373-0.227 0.48-0.64 0.573l-0.0533 0.0133c-0.0667 0.0267-0.107 0.04-0.107 0.12v0.307l0.0267 0.0267s1.01-0.0267 1.49-0.0267c0.52 0 1.59 0.0267 1.59 0.0267l0.0267-0.0267v-0.307c0-0.08-0.0667-0.107-0.107-0.12l-0.107-0.0267c-0.413-0.0933-0.653-0.187-0.653-0.56v-2.76c0-1.21-0.2-2.15-1.63-2.15-0.64 0-1.33 0.32-2.01 0.84z"/>
    <path d="m403 92.6c0.907 0 1.52 1.01 1.52 2.92 0 1.69-0.707 2.01-1.19 2.01-1.09 0-1.59-1.63-1.59-2.61 0-1.13 0.4-2.32 1.25-2.32zm-2.88 2.61c0 1.37 1.04 2.89 3 2.89 2.07 0 3.01-1.67 3.01-3.01 0-1.4-0.827-3.04-3-3.04-1.93 0-3.01 1.33-3.01 3.16zm8.69-1.79c0.387-0.427 0.867-0.68 1.19-0.68 0.787 0 1.19 0.867 1.19 2.43 0 1.12-0.4 2.37-1.56 2.37-0.147 0-0.48-0.08-0.813-0.44zm0-0.533h-0.0267l0.0267-0.84c0-0.0267-0.0667-0.04-0.0933-0.04-0.427 0.133-1.31 0.28-2.24 0.4l0.0267 0.453 0.547 0.0533c0.187 0.0133 0.293 0.107 0.293 0.773v6.33c0 0.373-0.2 0.493-0.64 0.587l-0.12 0.0267c-0.0667 0.0267-0.107 0.04-0.107 0.107v0.32l0.0267 0.0267s1.07-0.0267 1.55-0.0267c0.52 0 1.6 0.0267 1.6 0.0267l0.0133-0.0267v-0.32c0-0.0667-0.0533-0.08-0.107-0.107l-0.107-0.0267c-0.427-0.0933-0.64-0.213-0.64-0.587v-2.15c0.28 0.147 0.573 0.227 0.893 0.227 0.813 0 1.47-0.24 1.99-0.76 0.653-0.653 1.03-1.49 1.03-2.53 0-1.41-0.84-2.76-2.29-2.76-0.587 0-1.19 0.347-1.61 0.84zm6.65-0.08h1.07c0.253 0 0.493-0.0667 0.493-0.227v-0.267c0-0.08-0.04-0.133-0.293-0.133h-1.27v-2.15l-1.08 0.413c0 1.08-0.133 1.73-0.8 1.73-0.267 0-0.507 0.0267-0.507 0.107v0.413c0 0.08 0.0267 0.107 0.24 0.107h0.68v3.93c0 0.973 0.48 1.36 1.15 1.36 0.733 0 1.39-0.333 1.88-0.987l-0.307-0.307c-0.4 0.32-0.64 0.333-0.907 0.333-0.173 0-0.347-0.0933-0.347-0.973zm4.19 0.88c0-0.667 0.04-1.64 0.04-1.64 0-0.0267-0.0667-0.04-0.0933-0.04-0.427 0.133-1.36 0.28-2.28 0.4l0.0267 0.4 0.547 0.0533c0.187 0.0133 0.293 0.16 0.293 0.827v3.25c0 0.373-0.213 0.507-0.627 0.573l-0.16 0.0267c-0.0533 0.0133-0.0933 0.04-0.0933 0.12v0.307l0.0267 0.0267s1.08-0.0267 1.56-0.0267c0.52 0 1.6 0.0267 1.6 0.0267l0.0267-0.0267v-0.307c0-0.08-0.0667-0.107-0.107-0.12l-0.133-0.0267c-0.4-0.0667-0.627-0.2-0.627-0.573zm-1.55-3.33c0 0.44 0.36 0.8 0.8 0.8s0.8-0.36 0.8-0.8-0.36-0.8-0.8-0.8-0.8 0.36-0.8 0.8zm4.9 2.53 0.0267-0.84c0-0.0267-0.0667-0.04-0.0933-0.04-0.427 0.133-1.31 0.28-2.24 0.4l0.0267 0.453 0.547 0.0533c0.187 0.0133 0.293 0.107 0.293 0.773v3.28c0 0.373-0.2 0.453-0.64 0.547l-0.12 0.0267c-0.0667 0.0133-0.107 0.04-0.107 0.12v0.307l0.0267 0.0267s1.08-0.0267 1.55-0.0267c0.533 0 1.49 0.0267 1.49 0.0267l0.0267-0.0267v-0.307c0-0.08-0.0533-0.107-0.12-0.12-0.307-0.04-0.64-0.107-0.64-0.573v-3.55c0.56-0.467 1-0.64 1.39-0.64 0.333 0 0.547 0.333 0.547 1.17v3c0 0.373-0.187 0.547-0.627 0.587-0.08 0.0133-0.12 0.0533-0.12 0.12v0.307l0.0267 0.0267s0.96-0.0267 1.44-0.0267c0.52 0 1.48 0.0267 1.48 0.0267l0.0267-0.0267v-0.307c0-0.08-0.0533-0.12-0.107-0.12-0.32-0.04-0.653-0.12-0.653-0.587v-2.75c0-0.187-0.0133-0.6-0.0267-0.773 0.52-0.44 1-0.653 1.45-0.653 0.32 0 0.533 0.347 0.533 1.15v3.03c0 0.373-0.187 0.547-0.64 0.587-0.08 0.0133-0.107 0.0533-0.107 0.12v0.307l0.0267 0.0267s0.96-0.0267 1.43-0.0267c0.52 0 1.6 0.0267 1.6 0.0267l0.0267-0.0267v-0.307c0-0.08-0.0533-0.107-0.107-0.12l-0.107-0.0267c-0.413-0.107-0.653-0.187-0.653-0.56v-2.73c0-1.2-0.133-2.17-1.53-2.17-0.707 0-1.44 0.347-2.05 0.88-0.2-0.52-0.667-0.88-1.37-0.88-0.733 0-1.4 0.427-1.87 0.84zm10.4 0.8c0-0.667 0.04-1.64 0.04-1.64 0-0.0267-0.0667-0.04-0.0933-0.04-0.427 0.133-1.36 0.28-2.28 0.4l0.0267 0.4 0.547 0.0533c0.187 0.0133 0.293 0.16 0.293 0.827v3.25c0 0.373-0.213 0.507-0.627 0.573l-0.16 0.0267c-0.0533 0.0133-0.0933 0.04-0.0933 0.12v0.307l0.0267 0.0267s1.08-0.0267 1.56-0.0267c0.52 0 1.6 0.0267 1.6 0.0267l0.0267-0.0267v-0.307c0-0.08-0.0667-0.107-0.107-0.12l-0.133-0.0267c-0.4-0.0667-0.627-0.2-0.627-0.573zm-1.55-3.33c0 0.44 0.36 0.8 0.8 0.8s0.8-0.36 0.8-0.8-0.36-0.8-0.8-0.8-0.8 0.36-0.8 0.8zm3.47 1.67h-0.44c-0.0267 0.573-0.08 1.04-0.293 1.92l0.573 0.08c0.227-0.987 0.547-1.28 0.947-1.28h1.55c-1.04 1.57-2.03 3.16-3.07 4.72-0.107 0.173-0.147 0.267-0.147 0.293 0 0.133 0.16 0.213 0.733 0.213h3.97c0.0533-0.547 0.147-1.13 0.347-1.85l-0.56-0.12c-0.227 0.867-0.613 1.41-1.2 1.41h-1.55l2.97-4.57c0.147-0.227 0.267-0.44 0.267-0.48 0-0.133-0.213-0.213-0.48-0.213-0.04 0-0.36 0.04-0.68 0.04h-2.72c-0.08 0-0.173-0.0133-0.227-0.16zm6.13 2.15c0.187-1.36 0.973-1.56 1.25-1.56 0.36 0 0.907 0.347 0.907 1.41 0 0.08 0 0.12-0.0267 0.147zm3.24 2.35c-0.493 0.6-0.987 0.84-1.49 0.84-1.04 0-1.81-1-1.81-2.31v-0.347h3.24c0.32 0 0.52-0.0933 0.52-0.28 0-1.13-0.467-2.37-2.43-2.37-1.4 0-2.87 1.24-2.87 3.28 0 1.47 0.8 2.77 2.83 2.77 0.92 0 1.85-0.307 2.35-1.31zm3.23-3.63h-0.0267l0.0267-0.84c0-0.0267-0.0667-0.04-0.0933-0.04-0.427 0.133-1.31 0.28-2.24 0.4l0.0267 0.453 0.547 0.0533c0.187 0.0133 0.293 0.107 0.293 0.773v3.25c0 0.36-0.227 0.493-0.64 0.573l-0.133 0.0267c-0.0533 0.0133-0.0933 0.04-0.0933 0.12v0.307l0.0267 0.0267s1.07-0.0267 1.55-0.0267c0.52 0 1.59 0.0267 1.59 0.0267l0.0267-0.0267v-0.307c0-0.08-0.0667-0.107-0.107-0.12l-0.107-0.0267c-0.413-0.0933-0.64-0.2-0.64-0.573v-2.81c0-0.467 0.147-0.787 0.347-0.933 0.16-0.107 0.267-0.173 0.48-0.173 0.24 0 0.453 0.533 0.987 0.533 0.387 0 0.667-0.333 0.667-0.76 0-0.347-0.293-0.747-0.773-0.747-0.467 0-1.04 0.16-1.71 0.84z"/>
   </g>
  </g>
  <path d="m-188 232v-1.41c0-0.293 0.06-0.31 0.307-0.321 0.0212-0.0212 0.0212-0.0952 0-0.116-0.155 4e-3 -0.325 7e-3 -0.459 7e-3 -0.12 0-0.289-4e-3 -0.455-7e-3 -0.0212 0.0212-0.0212 0.0952 0 0.116 0.247 0.0106 0.307 0.0282 0.307 0.321v1.41c0 0.293-0.06 0.31-0.307 0.321-0.0212 0.0212-0.0212 0.0952 0 0.116 0.159-4e-3 0.328-7e-3 0.459-7e-3 0.123 0 0.296 4e-3 0.455 7e-3 0.0212-0.0212 0.0212-0.0953 0-0.116-0.247-0.0106-0.307-0.0282-0.307-0.321zm1.02-0.833c-0.0247 0.0247-0.0423 0.0353-0.0423 0-4e-3 -0.0952-0.0141-0.229-0.0282-0.268-0.0106-0.0141-0.0141-0.0282-0.0423-0.0282-0.0988 0.0388-0.19 0.0706-0.434 0.102-7e-3 0.0212 0 0.0776 7e-3 0.0988 0.19 0.0176 0.229 0.0353 0.229 0.24v0.688c0 0.289-0.0353 0.303-0.247 0.321-0.0212 0.0212-0.0212 0.0952 0 0.116 0.106-3e-3 0.247-7e-3 0.388-7e-3s0.247 4e-3 0.353 7e-3c0.0212-0.0212 0.0212-0.0952 0-0.116-0.18-0.0176-0.215-0.0318-0.215-0.321v-0.579c0-0.0741 0.0317-0.116 0.06-0.148 0.134-0.131 0.293-0.208 0.43-0.208 0.0705 0 0.145 0.0459 0.187 0.127 0.0353 0.0706 0.0423 0.166 0.0423 0.272v0.536c0 0.289-0.0353 0.303-0.219 0.321-0.0176 0.0212-0.0176 0.0952 0 0.116 0.106-3e-3 0.219-7e-3 0.36-7e-3s0.268 4e-3 0.374 7e-3c0.0176-0.0212 0.0176-0.0952 0-0.116-0.198-0.0176-0.236-0.0318-0.236-0.321v-0.526c0-0.194-0.0141-0.363-0.0952-0.473-0.06-0.0776-0.169-0.12-0.293-0.12-0.173 0-0.37 0.0459-0.579 0.286zm1.88 0.0952c0.0917-0.113 0.25-0.219 0.356-0.219 0.226 0 0.42 0.254 0.42 0.653 0 0.289-0.102 0.649-0.497 0.649-0.0635 0-0.187-0.0176-0.25-0.0741-0.0741-0.0635-0.0847-0.0811-0.0847-0.212v-0.642c0-0.0741 0.0141-0.102 0.0564-0.155zm-0.067-0.131c-7e-3 -0.106-0.0141-0.194-0.0282-0.233-0.0106-0.0141-0.0141-0.0282-0.0423-0.0282-0.0988 0.0388-0.19 0.0706-0.434 0.102-7e-3 0.0212 0 0.0776 7e-3 0.0988 0.19 0.0176 0.229 0.0353 0.229 0.24v1.51c0 0.293-0.0388 0.31-0.254 0.321-0.0212 0.0212-0.0212 0.0953 0 0.116 0.123-4e-3 0.254-7e-3 0.395-7e-3s0.31 4e-3 0.427 7e-3c0.0212-0.0212 0.0212-0.0952 0-0.116-0.25-0.0141-0.289-0.0282-0.289-0.321v-0.381c0-0.0459 0.0106-0.0388 0.0494-0.0247 0.0847 0.0353 0.194 0.0529 0.307 0.0529 0.198 0 0.374-0.06 0.519-0.198 0.166-0.162 0.261-0.381 0.261-0.667 0-0.374-0.265-0.72-0.624-0.72-0.166 0-0.346 0.109-0.483 0.265-0.0212 0.0247-0.0388 0.0212-0.0388-0.0141zm2.05 1.33c0.138 0 0.303-0.0705 0.476-0.212 0.0176-0.0141 0.0494-0.0212 0.0529 4e-3 7e-3 0.0917 0.0388 0.208 0.0388 0.208 0.0282 0.0106 0.0423 0.0106 0.067 0 0.0776-0.0635 0.201-0.116 0.416-0.141 0.0212-0.0212 0.0212-0.0741 0-0.0953-0.226-0.0176-0.258-0.0847-0.258-0.258v-0.677c0-0.106 0.0141-0.363 0.0141-0.363 0-0.0106-0.0106-0.0212-0.0282-0.0212-0.0176 4e-3 -0.0706 7e-3 -0.123 7e-3 -0.113 0-0.24-4e-3 -0.36-7e-3 -0.0212 0.0212-0.0212 0.0952 0 0.116 0.173 0.0106 0.219 0.0529 0.219 0.286v0.681c0 0.067-7e-3 0.0952-0.0564 0.138-0.131 0.113-0.265 0.169-0.353 0.169-0.106 0-0.282-0.0494-0.282-0.363v-0.642c0-0.106 0.0141-0.363 0.0141-0.363 0-0.0106-0.0106-0.0212-0.0282-0.0212-0.0176 4e-3 -0.0706 7e-3 -0.123 7e-3 -0.113 0-0.24-4e-3 -0.36-7e-3 -0.0212 0.0212-0.0212 0.0952 0 0.116 0.169 0.0141 0.219 0.0529 0.219 0.282v0.677c0 0.243 0.106 0.48 0.455 0.48zm1.26-1.55c-0.0494 0-0.0635 0.0423-0.0635 0.0706v0.0459c0 0.0177 4e-3 0.0212 0.0176 0.0212h0.208v1.06c0 0.25 0.109 0.349 0.272 0.349s0.339-0.0776 0.476-0.233c-7e-3 -0.0353-0.0282-0.0564-0.0635-0.06-0.0917 0.0706-0.198 0.0988-0.289 0.0988-0.0952 0-0.116-0.106-0.116-0.325v-0.893h0.367c0.0353 0 0.0847-0.0141 0.0847-0.0459v-0.0705c0-0.0141-0.0106-0.0212-0.0282-0.0212h-0.423v-0.138c0-0.229 0.0141-0.37 0.0141-0.37 0-0.0212-0.0106-0.0282-0.0282-0.0282s-0.0459 0.0141-0.0776 0.0317c-0.0423 0.0212-0.0776 0.0353-0.12 0.0494-0.0423 0.0106-0.0776 0.0247-0.0776 0.0459 0 0.0423 0.0106 0.0176 0.0106 0.409z" stroke-dasharray="0.3, 0.3" stroke-width=".3" aria-label="Input"/>
  <path d="m-185 230v-1.91" fill="none" marker-end="url(#marker17)" stroke="#000" stroke-width=".4"/>
  <path d="m-173 205c0.3 0 0.31 0.0811 0.321 0.24 0.0212 0.0212 0.0952 0.0212 0.116 0-4e-3 -0.0882-7e-3 -0.187-7e-3 -0.31 0-0.116 4e-3 -0.212 7e-3 -0.303-0.0212-0.0212-0.0953-0.0212-0.116 0-0.0106 0.194-0.0212 0.24-0.321 0.24h-0.328v-0.635c0-0.19 0.0423-0.226 0.198-0.226h0.159c0.374 0 0.462 0.141 0.54 0.385 0.0423 0 0.0811-7e-3 0.109-0.0176-0.0212-0.145-0.0741-0.483-0.0776-0.512-4e-3 -7e-3 -7e-3 -0.0106-0.0141-0.0106-0.0635 0.0141-0.0776 0.0141-0.166 0.0141h-0.9c-0.113 0-0.314-3e-3 -0.455-7e-3 -0.0212 0.0212-0.0212 0.0952 0 0.116 0.247 0.0106 0.307 0.0282 0.307 0.321v1.41c0 0.293-0.06 0.31-0.307 0.321-0.0212 0.0212-0.0212 0.0953 0 0.116 0.123-4e-3 0.3-7e-3 0.459-7e-3s0.332 4e-3 0.455 7e-3c0.0212-0.0212 0.0212-0.0952 0-0.116-0.247-0.0106-0.307-0.0282-0.307-0.321v-0.709zm1.75 0.318v0.466c0 0.0459-0.0212 0.0705-0.0494 0.0917-0.0917 0.0741-0.212 0.155-0.31 0.155-0.176 0-0.254-0.141-0.254-0.25 0-0.159 0.0741-0.321 0.335-0.388zm0 0.653c0.0212 0.109 0.0564 0.205 0.236 0.205 0.134 0 0.261-0.06 0.335-0.131-7e-3 -0.0423-0.0212-0.0705-0.06-0.0952-0.0282 0.0247-0.0882 0.0564-0.131 0.0564-0.102 0-0.106-0.138-0.106-0.3v-0.519c0-0.501-0.275-0.596-0.533-0.596-0.289 0-0.582 0.191-0.582 0.392 0 0.0847 0.0423 0.127 0.123 0.127 0.102 0 0.166-0.0741 0.166-0.12 0-0.0247-4e-3 -0.0494-0.0106-0.0635-4e-3 -0.0106-7e-3 -0.0318-7e-3 -0.0705 0-0.109 0.148-0.148 0.282-0.148 0.12 0 0.286 0.06 0.286 0.459 0 0.0247-0.0106 0.0388-0.0212 0.0423l-0.303 0.0741c-0.339 0.0847-0.582 0.272-0.582 0.512 0 0.289 0.198 0.381 0.444 0.381 0.12 0 0.229-0.0282 0.385-0.148l0.0706-0.0564zm0.896-1.94c0 0.0917 0.0847 0.183 0.169 0.183 0.0988 0 0.183-0.0917 0.183-0.169 0-0.0847-0.0741-0.183-0.169-0.183-0.0847 0-0.183 0.0847-0.183 0.169zm0.321 1.68v-0.702c0-0.176 0.0141-0.402 0.0141-0.402 0-0.0141-0.0176-0.0247-0.0459-0.0247-0.102 0.0388-0.24 0.0705-0.483 0.102-7e-3 0.0212 0 0.0776 7e-3 0.0988 0.19 0.0212 0.229 0.0388 0.229 0.24v0.688c0 0.293-0.0388 0.303-0.254 0.321-0.0212 0.0212-0.0212 0.0952 0 0.116 0.116-4e-3 0.254-7e-3 0.395-7e-3s0.275 4e-3 0.392 7e-3c0.0212-0.0212 0.0212-0.0952 0-0.116-0.215-0.0141-0.254-0.0282-0.254-0.321zm0.469-1.08c-0.0494 0-0.0635 0.0423-0.0635 0.0706v0.0459c0 0.0176 4e-3 0.0212 0.0176 0.0212h0.208v1.06c0 0.25 0.109 0.349 0.272 0.349 0.162 0 0.339-0.0776 0.476-0.233-7e-3 -0.0353-0.0282-0.0564-0.0635-0.06-0.0917 0.0705-0.198 0.0988-0.289 0.0988-0.0953 0-0.116-0.106-0.116-0.325v-0.893h0.367c0.0353 0 0.0847-0.0141 0.0847-0.0459v-0.0705c0-0.0141-0.0106-0.0212-0.0282-0.0212h-0.423v-0.138c0-0.229 0.0141-0.37 0.0141-0.37 0-0.0212-0.0106-0.0282-0.0282-0.0282s-0.0459 0.0141-0.0776 0.0317c-0.0423 0.0212-0.0776 0.0353-0.12 0.0494-0.0423 0.0106-0.0776 0.0247-0.0776 0.0459 0 0.0423 0.0106 0.0176 0.0106 0.409zm1.55 0.508c0-0.0776 0.0318-0.12 0.06-0.152 0.134-0.131 0.31-0.208 0.452-0.208 0.0706 0 0.145 0.0494 0.187 0.127 0.0353 0.0706 0.0423 0.166 0.0423 0.272v0.536c0 0.289-0.0353 0.303-0.219 0.321-0.0176 0.0212-0.0176 0.0952 0 0.116 0.0988-4e-3 0.219-7e-3 0.36-7e-3s0.258 4e-3 0.374 7e-3c0.0176-0.0212 0.0176-0.0952 0-0.116-0.198-0.0176-0.236-0.0317-0.236-0.321v-0.526c0-0.194-0.0141-0.363-0.0952-0.473-0.06-0.0776-0.169-0.12-0.293-0.12-0.176 0-0.385 0.0459-0.6 0.286-0.0141 0.0141-0.0353 0.0494-0.0353 0l4e-3 -0.794c0-0.229 0.0141-0.37 0.0141-0.37 0-0.0247-0.0141-0.0353-0.0459-0.0353-0.0882 0.0353-0.353 0.0847-0.494 0.0952-7e-3 0.0282 0 0.0847 0.0212 0.106 0.183 0.0106 0.226-7e-3 0.226 0.289v1.54c0 0.293-0.0423 0.307-0.247 0.321-0.0212 0.0212-0.0212 0.0952 0 0.116 0.116-4e-3 0.247-7e-3 0.388-7e-3 0.134 0 0.247 4e-3 0.346 7e-3 0.0212-0.0212 0.0212-0.0952 0-0.116-0.176-0.0141-0.208-0.0282-0.208-0.321zm1.93 0.575v-0.945h0.328c0.0318 0 0.0811-0.0141 0.0811-0.0459v-0.0705c0-0.0141-0.0106-0.0212-0.0282-0.0212h-0.381v-0.201c0-0.543 0.162-0.628 0.279-0.628 0.106 0 0.162 0.0423 0.212 0.166 0.0282 0.0635 0.067 0.113 0.141 0.113 0.06 0 0.145-0.0741 0.145-0.145 0-0.06-0.0388-0.123-0.113-0.18-0.0917-0.0635-0.183-0.0741-0.318-0.0741-0.296 0-0.624 0.258-0.624 0.808v0.141h-0.18c-0.0635 0-0.0811 0.0423-0.0811 0.0706v0.0459c0 0.0176 4e-3 0.0212 0.0176 0.0212h0.243v0.945c0 0.293-0.0564 0.307-0.247 0.321-0.0212 0.0212-0.0212 0.0952 0 0.116 0.123-4e-3 0.247-7e-3 0.388-7e-3s0.31 4e-3 0.434 7e-3c0.0212-0.0212 0.0212-0.0952 0-0.116-0.275-0.0141-0.296-0.0282-0.296-0.321zm1.24 0.466c0.138 0 0.303-0.0706 0.476-0.212 0.0176-0.0141 0.0494-0.0212 0.0529 4e-3 7e-3 0.0917 0.0388 0.208 0.0388 0.208 0.0282 0.0106 0.0423 0.0106 0.067 0 0.0776-0.0635 0.201-0.116 0.416-0.141 0.0212-0.0212 0.0212-0.0741 0-0.0952-0.226-0.0176-0.258-0.0847-0.258-0.258v-0.677c0-0.106 0.0141-0.363 0.0141-0.363 0-0.0106-0.0106-0.0212-0.0282-0.0212-0.0176 4e-3 -0.0705 7e-3 -0.123 7e-3 -0.113 0-0.24-4e-3 -0.36-7e-3 -0.0212 0.0212-0.0212 0.0952 0 0.116 0.173 0.0106 0.219 0.0529 0.219 0.286v0.681c0 0.067-7e-3 0.0953-0.0564 0.138-0.131 0.113-0.265 0.169-0.353 0.169-0.106 0-0.282-0.0494-0.282-0.363v-0.642c0-0.106 0.0141-0.363 0.0141-0.363 0-0.0106-0.0106-0.0212-0.0282-0.0212-0.0176 4e-3 -0.0705 7e-3 -0.123 7e-3 -0.113 0-0.24-3e-3 -0.36-7e-3 -0.0212 0.0212-0.0212 0.0953 0 0.116 0.169 0.0141 0.219 0.0529 0.219 0.282v0.677c0 0.243 0.106 0.48 0.455 0.48zm1.44-0.466c0 0.293-0.0388 0.31-0.254 0.321-0.0212 0.0212-0.0212 0.0952 0 0.116 0.123-4e-3 0.254-7e-3 0.395-7e-3s0.275 4e-3 0.392 7e-3c0.0212-0.0212 0.0212-0.0952 0-0.116-0.215-0.0106-0.254-0.0282-0.254-0.321v-1.63c0-0.229 0.0141-0.37 0.0141-0.37 0-0.0247-0.0141-0.0353-0.0459-0.0353-0.0882 0.0353-0.353 0.0847-0.494 0.0952-7e-3 0.0282 0 0.0847 0.0212 0.106 0.205 0.0141 0.226 0.0247 0.226 0.289zm1.25-0.833c-0.0247 0.0247-0.0423 0.0353-0.0423 0-4e-3 -0.0952-0.0141-0.229-0.0282-0.268-0.0106-0.0141-0.0141-0.0282-0.0423-0.0282-0.0988 0.0388-0.19 0.0705-0.434 0.102-7e-3 0.0212 0 0.0776 7e-3 0.0988 0.19 0.0176 0.229 0.0353 0.229 0.24v0.688c0 0.289-0.0353 0.303-0.247 0.321-0.0212 0.0212-0.0212 0.0952 0 0.116 0.106-4e-3 0.247-7e-3 0.388-7e-3s0.247 4e-3 0.353 7e-3c0.0212-0.0212 0.0212-0.0952 0-0.116-0.18-0.0176-0.215-0.0317-0.215-0.321v-0.579c0-0.0741 0.0318-0.116 0.06-0.148 0.134-0.131 0.293-0.208 0.43-0.208 0.0705 0 0.145 0.0459 0.187 0.127 0.0353 0.0706 0.0423 0.166 0.0423 0.272v0.536c0 0.289-0.0353 0.303-0.219 0.321-0.0176 0.0212-0.0176 0.0952 0 0.116 0.106-4e-3 0.219-7e-3 0.36-7e-3s0.268 4e-3 0.374 7e-3c0.0176-0.0212 0.0176-0.0952 0-0.116-0.198-0.0176-0.236-0.0317-0.236-0.321v-0.526c0-0.194-0.0141-0.363-0.0952-0.473-0.06-0.0776-0.169-0.12-0.293-0.12-0.173 0-0.37 0.0459-0.579 0.286zm1.7 0.268c0.067-0.399 0.314-0.43 0.399-0.43 0.134 0 0.293 0.0741 0.293 0.37 0 0.0317-0.0141 0.0494-0.0529 0.0494zm0.924 0.667c-0.131 0.134-0.233 0.19-0.437 0.19-0.127 0-0.275-0.0741-0.385-0.254-0.0706-0.116-0.113-0.279-0.113-0.483l0.938 7e-3c0.0423 0 0.067-0.0212 0.067-0.06 0-0.296-0.106-0.614-0.596-0.614-0.307 0-0.706 0.293-0.706 0.829 0 0.198 0.0494 0.388 0.166 0.522 0.12 0.141 0.286 0.226 0.54 0.226 0.268 0 0.459-0.123 0.6-0.307-0.0106-0.0353-0.0318-0.0529-0.0741-0.0564zm0.385-0.159c0.0141 0.173 0.0247 0.339 0.0247 0.487 0.0353-7e-3 0.0706-0.0106 0.0882-0.0106 0.0247 0 0.0459 0 0.0706 7e-3 0.0952 0.0247 0.19 0.0388 0.321 0.0388 0.198 0 0.561-0.0952 0.561-0.444 0-0.24-0.173-0.381-0.413-0.469-0.215-0.0776-0.353-0.134-0.353-0.328 0-0.145 0.127-0.226 0.247-0.226 0.0776 0 0.282 0.0282 0.328 0.328 0.0212 0.0212 0.0917 0.0176 0.113-4e-3 0.0106-0.127 0.0176-0.258 0.0212-0.374-0.109-0.0176-0.279-0.067-0.462-0.067-0.261 0-0.497 0.169-0.497 0.395 0 0.258 0.116 0.367 0.388 0.48 0.293 0.12 0.36 0.194 0.36 0.346 0 0.173-0.169 0.247-0.3 0.247-0.138 0-0.215-0.0459-0.25-0.0847-0.0776-0.0811-0.116-0.236-0.138-0.325-0.0212-0.0212-0.0882-0.0176-0.109 4e-3zm1.38 0c0.0141 0.173 0.0247 0.339 0.0247 0.487 0.0353-7e-3 0.0705-0.0106 0.0882-0.0106 0.0247 0 0.0459 0 0.0706 7e-3 0.0953 0.0247 0.19 0.0388 0.321 0.0388 0.198 0 0.561-0.0952 0.561-0.444 0-0.24-0.173-0.381-0.413-0.469-0.215-0.0776-0.353-0.134-0.353-0.328 0-0.145 0.127-0.226 0.247-0.226 0.0776 0 0.282 0.0282 0.328 0.328 0.0212 0.0212 0.0917 0.0176 0.113-4e-3 0.0106-0.127 0.0176-0.258 0.0212-0.374-0.109-0.0176-0.279-0.067-0.462-0.067-0.261 0-0.497 0.169-0.497 0.395 0 0.258 0.116 0.367 0.388 0.48 0.293 0.12 0.36 0.194 0.36 0.346 0 0.173-0.169 0.247-0.3 0.247-0.138 0-0.215-0.0459-0.25-0.0847-0.0776-0.0811-0.116-0.236-0.138-0.325-0.0212-0.0212-0.0882-0.0176-0.109 4e-3z" stroke-dasharray="0.3, 0.3" stroke-width=".3" aria-label="Faithfulness"/>
  <path d="m-165 211v-1.91" fill="none" marker-end="url(#marker17)" stroke="#000" stroke-width=".4"/>
  <path d="m-173 231h-0.321v-0.635c0-0.155 0.0423-0.226 0.233-0.226h0.265c0.265 0 0.321 0.141 0.399 0.385 0.0423 7e-3 0.0811 0 0.116-0.0176-0.0176-0.145-0.0706-0.483-0.0776-0.512 0-7e-3 -4e-3 -0.0106-0.0141-0.0106-0.06 0.0106-0.0882 0.0141-0.173 0.0141h-0.9c-0.109 0-0.314-4e-3 -0.455-7e-3 -0.0212 0.0212-0.0212 0.0953 0 0.116 0.247 0.0106 0.307 0.0282 0.307 0.321v1.41c0 0.293-0.06 0.31-0.307 0.321-0.0212 0.0212-0.0212 0.0952 0 0.116 0.131-4e-3 0.342-7e-3 0.459-7e-3h0.758c0.169 0 0.452 7e-3 0.452 7e-3 0.0494-0.176 0.102-0.409 0.131-0.589-0.0388-0.0176-0.0776-0.0282-0.123-0.0176-0.0705 0.254-0.194 0.462-0.462 0.462h-0.409c-0.148 0-0.198-0.0564-0.198-0.222v-0.78h0.321c0.3 0 0.31 0.0811 0.321 0.24 0.0212 0.0212 0.0952 0.0212 0.116 0-4e-3 -0.0917-7e-3 -0.187-7e-3 -0.31 0-0.0988 4e-3 -0.219 7e-3 -0.303-0.0212-0.0212-0.0952-0.0212-0.116 0-0.0106 0.194-0.0212 0.24-0.321 0.24zm1.62 0.0106c-0.0811-0.116-0.0564-0.123 0.102-0.141 0.0212-0.0212 0.0212-0.0952 0-0.116-0.0952 4e-3 -0.25 7e-3 -0.356 7e-3s-0.212-4e-3 -0.303-7e-3c-0.0212 0.0212-0.0212 0.0952 0 0.116 0.12 0.0106 0.219 0.0706 0.318 0.215l0.307 0.448c0.0141 0.0282 0.0141 0.0388 4e-3 0.0529l-0.296 0.381c-0.141 0.18-0.219 0.19-0.342 0.198-0.0212 0.0212-0.0212 0.0952 0 0.116 0.0705-4e-3 0.148-7e-3 0.254-7e-3s0.205 4e-3 0.296 7e-3c0.0212-0.0212 0.0212-0.0953 0-0.116-0.127-0.0106-0.159-0.0247-0.0776-0.141l0.222-0.321c0.0282-0.0388 0.0388-0.0353 0.0635-7e-3l0.205 0.282c0.12 0.169 0.0635 0.176-0.0459 0.187-0.0212 0.0212-0.0212 0.0953 0 0.116 0.106-4e-3 0.222-7e-3 0.349-7e-3 0.134 0 0.229 4e-3 0.314 7e-3 0.0212-0.0212 0.0212-0.0952 0-0.116-0.162-0.0106-0.212-0.0212-0.353-0.222l-0.318-0.448c-0.0176-0.0176-0.0176-0.0318 0-0.0529l0.296-0.377c0.131-0.166 0.212-0.183 0.342-0.194 0.0212-0.0212 0.0212-0.0952 0-0.116-0.0706 4e-3 -0.152 7e-3 -0.258 7e-3 -0.106 0-0.205-4e-3 -0.296-7e-3 -0.0212 0.0212-0.0212 0.0953 0 0.116 0.127 0.0141 0.169 0.0282 0.0847 0.145l-0.229 0.321c-0.0282 0.0353-0.0423 0.0353-0.067-7e-3zm1.7 0.0952c0.0917-0.113 0.25-0.219 0.356-0.219 0.226 0 0.42 0.254 0.42 0.653 0 0.289-0.102 0.649-0.497 0.649-0.0635 0-0.187-0.0176-0.25-0.0741-0.0741-0.0635-0.0847-0.0811-0.0847-0.212v-0.642c0-0.0741 0.0141-0.102 0.0564-0.155zm-0.067-0.131c-7e-3 -0.106-0.0141-0.194-0.0282-0.233-0.0106-0.0141-0.0141-0.0282-0.0423-0.0282-0.0988 0.0388-0.19 0.0706-0.434 0.102-7e-3 0.0212 0 0.0776 7e-3 0.0988 0.19 0.0176 0.229 0.0353 0.229 0.24v1.51c0 0.293-0.0388 0.31-0.254 0.321-0.0212 0.0212-0.0212 0.0953 0 0.116 0.123-4e-3 0.254-7e-3 0.395-7e-3 0.141 0 0.31 4e-3 0.427 7e-3 0.0212-0.0212 0.0212-0.0952 0-0.116-0.25-0.0141-0.289-0.0282-0.289-0.321v-0.381c0-0.0459 0.0106-0.0388 0.0494-0.0247 0.0847 0.0353 0.194 0.0529 0.307 0.0529 0.198 0 0.374-0.06 0.519-0.198 0.166-0.162 0.261-0.381 0.261-0.667 0-0.374-0.265-0.72-0.624-0.72-0.166 0-0.346 0.109-0.483 0.265-0.0212 0.0247-0.0388 0.0212-0.0388-0.0141zm1.62 0.868c0 0.293-0.0388 0.31-0.254 0.321-0.0212 0.0212-0.0212 0.0952 0 0.116 0.123-4e-3 0.254-7e-3 0.395-7e-3s0.275 4e-3 0.392 7e-3c0.0212-0.0212 0.0212-0.0953 0-0.116-0.215-0.0106-0.254-0.0282-0.254-0.321v-1.63c0-0.229 0.0141-0.37 0.0141-0.37 0-0.0247-0.0141-0.0353-0.0459-0.0353-0.0882 0.0353-0.353 0.0847-0.494 0.0953-7e-3 0.0282 0 0.0847 0.0212 0.106 0.205 0.0141 0.226 0.0247 0.226 0.289zm1.63-0.392v0.466c0 0.0459-0.0212 0.0705-0.0494 0.0917-0.0917 0.0741-0.212 0.155-0.31 0.155-0.176 0-0.254-0.141-0.254-0.25 0-0.159 0.0741-0.321 0.335-0.388zm0 0.653c0.0212 0.109 0.0564 0.205 0.236 0.205 0.134 0 0.261-0.06 0.335-0.131-7e-3 -0.0423-0.0212-0.0706-0.06-0.0952-0.0282 0.0247-0.0882 0.0564-0.131 0.0564-0.102 0-0.106-0.138-0.106-0.3v-0.519c0-0.501-0.275-0.596-0.533-0.596-0.289 0-0.582 0.19-0.582 0.392 0 0.0847 0.0423 0.127 0.123 0.127 0.102 0 0.166-0.0741 0.166-0.12 0-0.0247-4e-3 -0.0494-0.0106-0.0635-4e-3 -0.0106-7e-3 -0.0317-7e-3 -0.0706 0-0.109 0.148-0.148 0.282-0.148 0.12 0 0.286 0.06 0.286 0.459 0 0.0247-0.0106 0.0388-0.0212 0.0423l-0.303 0.0741c-0.339 0.0847-0.582 0.272-0.582 0.512 0 0.289 0.198 0.381 0.444 0.381 0.12 0 0.229-0.0282 0.385-0.148l0.0705-0.0564zm1.23-1.09c-0.0247 0.0247-0.0423 0.0353-0.0423 0-4e-3 -0.0952-0.0141-0.229-0.0282-0.268-0.0106-0.0141-0.0141-0.0282-0.0423-0.0282-0.0988 0.0388-0.19 0.0706-0.434 0.102-7e-3 0.0212 0 0.0776 7e-3 0.0988 0.19 0.0176 0.229 0.0353 0.229 0.24v0.688c0 0.289-0.0353 0.303-0.247 0.321-0.0212 0.0212-0.0212 0.0952 0 0.116 0.106-3e-3 0.247-7e-3 0.388-7e-3s0.247 4e-3 0.353 7e-3c0.0212-0.0212 0.0212-0.0952 0-0.116-0.18-0.0176-0.215-0.0318-0.215-0.321v-0.579c0-0.0741 0.0317-0.116 0.06-0.148 0.134-0.131 0.293-0.208 0.43-0.208 0.0705 0 0.145 0.0459 0.187 0.127 0.0353 0.0706 0.0423 0.166 0.0423 0.272v0.536c0 0.289-0.0353 0.303-0.219 0.321-0.0176 0.0212-0.0176 0.0952 0 0.116 0.106-3e-3 0.219-7e-3 0.36-7e-3s0.268 4e-3 0.374 7e-3c0.0176-0.0212 0.0176-0.0952 0-0.116-0.198-0.0176-0.236-0.0318-0.236-0.321v-0.526c0-0.194-0.0141-0.363-0.0952-0.473-0.06-0.0776-0.169-0.12-0.293-0.12-0.173 0-0.37 0.0459-0.579 0.286zm2.3 0.441v0.466c0 0.0459-0.0212 0.0705-0.0494 0.0917-0.0917 0.0741-0.212 0.155-0.31 0.155-0.176 0-0.254-0.141-0.254-0.25 0-0.159 0.0741-0.321 0.335-0.388zm0 0.653c0.0212 0.109 0.0564 0.205 0.236 0.205 0.134 0 0.261-0.06 0.335-0.131-7e-3 -0.0423-0.0212-0.0706-0.06-0.0952-0.0282 0.0247-0.0882 0.0564-0.131 0.0564-0.102 0-0.106-0.138-0.106-0.3v-0.519c0-0.501-0.275-0.596-0.533-0.596-0.289 0-0.582 0.19-0.582 0.392 0 0.0847 0.0423 0.127 0.123 0.127 0.102 0 0.166-0.0741 0.166-0.12 0-0.0247-4e-3 -0.0494-0.0106-0.0635-4e-3 -0.0106-7e-3 -0.0317-7e-3 -0.0706 0-0.109 0.148-0.148 0.282-0.148 0.12 0 0.286 0.06 0.286 0.459 0 0.0247-0.0106 0.0388-0.0212 0.0423l-0.303 0.0741c-0.339 0.0847-0.582 0.272-0.582 0.512 0 0.289 0.198 0.381 0.444 0.381 0.12 0 0.229-0.0282 0.385-0.148l0.0706-0.0564zm0.73-1.34c-0.0494 0-0.0635 0.0423-0.0635 0.0706v0.0459c0 0.0176 4e-3 0.0212 0.0176 0.0212h0.208v1.06c0 0.25 0.109 0.349 0.272 0.349s0.339-0.0776 0.476-0.233c-7e-3 -0.0353-0.0282-0.0564-0.0635-0.06-0.0917 0.0706-0.198 0.0988-0.289 0.0988-0.0953 0-0.116-0.106-0.116-0.325v-0.893h0.367c0.0353 0 0.0847-0.0141 0.0847-0.0459v-0.0705c0-0.0141-0.0106-0.0212-0.0282-0.0212h-0.423v-0.138c0-0.229 0.0141-0.37 0.0141-0.37 0-0.0212-0.0106-0.0282-0.0282-0.0282s-0.0459 0.0141-0.0776 0.0317c-0.0423 0.0212-0.0776 0.0353-0.12 0.0494-0.0423 0.0106-0.0776 0.0247-0.0776 0.0459 0 0.0423 0.0106 0.0176 0.0106 0.409zm1.28-0.6c0 0.0917 0.0847 0.183 0.169 0.183 0.0988 0 0.183-0.0917 0.183-0.169 0-0.0847-0.0741-0.183-0.169-0.183-0.0847 0-0.183 0.0847-0.183 0.169zm0.321 1.68v-0.702c0-0.176 0.0141-0.402 0.0141-0.402 0-0.0141-0.0176-0.0247-0.0459-0.0247-0.102 0.0388-0.24 0.0706-0.483 0.102-7e-3 0.0212 0 0.0776 7e-3 0.0988 0.19 0.0212 0.229 0.0388 0.229 0.24v0.688c0 0.293-0.0388 0.303-0.254 0.321-0.0212 0.0212-0.0212 0.0952 0 0.116 0.116-4e-3 0.254-7e-3 0.395-7e-3s0.275 4e-3 0.392 7e-3c0.0212-0.0212 0.0212-0.0953 0-0.116-0.215-0.0141-0.254-0.0282-0.254-0.321zm0.462-0.293c0 0.36 0.24 0.758 0.741 0.758 0.226 0 0.395-0.0776 0.515-0.198 0.159-0.152 0.233-0.374 0.233-0.593 0-0.367-0.201-0.794-0.741-0.794-0.233 0-0.427 0.0952-0.554 0.247-0.127 0.152-0.194 0.356-0.194 0.579zm0.695-0.702c0.303 0 0.49 0.275 0.49 0.783 0 0.444-0.229 0.554-0.395 0.554-0.367 0-0.487-0.444-0.487-0.716 0-0.307 0.0741-0.621 0.392-0.621zm1.59 0.162c-0.0247 0.0247-0.0423 0.0353-0.0423 0-4e-3 -0.0952-0.0141-0.229-0.0282-0.268-0.0106-0.0141-0.0141-0.0282-0.0423-0.0282-0.0988 0.0388-0.19 0.0706-0.434 0.102-7e-3 0.0212 0 0.0776 7e-3 0.0988 0.19 0.0176 0.229 0.0353 0.229 0.24v0.688c0 0.289-0.0353 0.303-0.247 0.321-0.0212 0.0212-0.0212 0.0952 0 0.116 0.106-3e-3 0.247-7e-3 0.388-7e-3s0.247 4e-3 0.353 7e-3c0.0212-0.0212 0.0212-0.0952 0-0.116-0.18-0.0176-0.215-0.0318-0.215-0.321v-0.579c0-0.0741 0.0318-0.116 0.06-0.148 0.134-0.131 0.293-0.208 0.43-0.208 0.0705 0 0.145 0.0459 0.187 0.127 0.0353 0.0706 0.0423 0.166 0.0423 0.272v0.536c0 0.289-0.0353 0.303-0.219 0.321-0.0176 0.0212-0.0176 0.0952 0 0.116 0.106-3e-3 0.219-7e-3 0.36-7e-3s0.268 4e-3 0.374 7e-3c0.0176-0.0212 0.0176-0.0952 0-0.116-0.198-0.0176-0.236-0.0318-0.236-0.321v-0.526c0-0.194-0.0141-0.363-0.0952-0.473-0.06-0.0776-0.169-0.12-0.293-0.12-0.173 0-0.37 0.0459-0.579 0.286z" stroke-dasharray="0.3, 0.3" stroke-width=".3" aria-label="Explanation"/>
  <g fill="none" stroke="#000" stroke-width=".4">
   <path d="m-165 230v-1.91" marker-end="url(#marker17)"/>
   <path d="m-159 203a18 18 0 0 1 14.2-0.824 18 18 0 0 1 10.4 9.72" marker-end="url(#marker17)" opacity=".92"/>
   <path d="m-134 225a18 18 0 0 1-11 10.7 18 18 0 0 1-15.2-1.61" marker-end="url(#marker17)" opacity=".92"/>
  </g>
  <g transform="translate(-285 196)" stroke-width=".4" aria-label="Faithfulness
Measureable
Model">
   <path d="m102 19.9v-0.871h0.399c0.0882 0 0.102 0.106 0.123 0.25 0 0.0141 0.0212 0.0353 0.0564 0.0353h0.0741l0.0212-0.0318c-7e-3 -0.06-0.0247-0.198-0.0247-0.328 0-0.127 0.0176-0.272 0.0247-0.328l-0.0212-0.0353h-0.0741c-0.0353 0-0.0564 0.0247-0.0564 0.0388-0.0212 0.141-0.0353 0.25-0.123 0.25h-0.399v-0.727c0-0.0741 0.0176-0.102 0.0494-0.102h0.459c0.236 0 0.325 0.261 0.374 0.441l0.141-0.0318c-0.0353-0.18-0.06-0.367-0.0741-0.571h-1.64l-0.0106 0.0071v0.0811c0 0.0176 0.0141 0.0282 0.0282 0.0282h0.0494c0.141 0 0.194 0.0423 0.194 0.155v1.74c0 0.113-0.0529 0.155-0.194 0.155h-0.0494c-0.0141 0-0.0282 0.0106-0.0282 0.0318v0.0811l7e-3 0.0071s0.342-0.0071 0.48-0.0071c0.127 0 0.48 0.0071 0.48 0.0071l7e-3 -0.0071v-0.0811c0-0.0212-0.0106-0.0318-0.0282-0.0318h-0.0494c-0.145 0-0.194-0.0564-0.194-0.155zm1.91 0.0988h7e-3c0.0423 0.138 0.134 0.205 0.346 0.205 0.194 0 0.328-0.152 0.328-0.169 0-0.0247-0.0318-0.0706-0.0459-0.0706-0.0212 0-0.0247 0.0564-0.109 0.0564-0.138 0-0.141-0.134-0.141-0.296v-0.512c0-0.508-0.289-0.61-0.579-0.61-0.258 0-0.628 0.183-0.628 0.395 0 0.0917 0.0388 0.148 0.166 0.148 0.0988 0 0.183-0.0847 0.183-0.134 0-0.0423-0.0212-0.0811-0.0212-0.152 0-0.0776 0.116-0.123 0.25-0.123 0.148 0 0.247 0.0776 0.247 0.526l-0.254 0.0741c-0.367 0.109-0.614 0.219-0.614 0.497 0 0.243 0.116 0.37 0.423 0.37 0.148 0 0.303-0.0847 0.441-0.205zm4e-3 -0.131c-0.0882 0.0706-0.212 0.141-0.275 0.141-0.169 0-0.222-0.106-0.222-0.229 0-0.145 0.0459-0.25 0.296-0.325l0.201-0.06zm1.33-0.833c0-0.176 0.0106-0.434 0.0106-0.434 0-0.0071-0.0176-0.0106-0.0247-0.0106-0.113 0.0353-0.36 0.0741-0.603 0.106l7e-3 0.106 0.145 0.0141c0.0494 0.0035 0.0776 0.0423 0.0776 0.219v0.861c0 0.0988-0.0564 0.134-0.166 0.152l-0.0423 0.0071c-0.0141 0.0035-0.0247 0.0106-0.0247 0.0318v0.0811l7e-3 0.0071s0.286-0.0071 0.413-0.0071c0.138 0 0.423 0.0071 0.423 0.0071l7e-3 -0.0071v-0.0811c0-0.0212-0.0176-0.0282-0.0282-0.0318l-0.0353-0.0071c-0.106-0.0176-0.166-0.0529-0.166-0.152zm-0.409-0.882c0 0.116 0.0952 0.212 0.212 0.212 0.116 0 0.212-0.0952 0.212-0.212 0-0.116-0.0953-0.212-0.212-0.212-0.116 0-0.212 0.0952-0.212 0.212zm1.28 0.649h0.282c0.067 0 0.131-0.0176 0.131-0.06v-0.0706c0-0.0212-0.0106-0.0353-0.0776-0.0353h-0.335v-0.568l-0.286 0.109c0 0.286-0.0353 0.459-0.212 0.459-0.0705 0-0.134 0.0071-0.134 0.0282v0.109c0 0.0212 7e-3 0.0282 0.0635 0.0282h0.18v1.04c0 0.258 0.127 0.36 0.303 0.36 0.194 0 0.367-0.0882 0.497-0.261l-0.0811-0.0811c-0.106 0.0847-0.169 0.0882-0.24 0.0882-0.0459 0-0.0917-0.0247-0.0917-0.258zm2.02 1.09v-0.73c0-0.37-0.113-0.568-0.416-0.568-0.131 0-0.353 0.0811-0.547 0.226v-0.713c0-0.229 0.0106-0.37 0.0106-0.37 0-0.0247-0.0247-0.0353-0.0564-0.0353-0.0917 0.0353-0.452 0.0811-0.593 0.0917l0.0106 0.102c0 0.0106 7e-3 0.0176 0.0212 0.0176l0.113 0.0071c0.0705 0 0.106 0.0282 0.106 0.258v1.71c0 0.0988-0.06 0.134-0.169 0.152l-0.0423 0.0071c-0.0176 0.0035-0.0282 0.0106-0.0282 0.0318v0.0811l7e-3 0.0071s0.296-0.0071 0.42-0.0071c0.138 0 0.42 0.0071 0.42 0.0071l7e-3 -0.0071v-0.0811c0-0.0212-0.0176-0.0282-0.0282-0.0318l-0.0247-0.0071c-0.113-0.0318-0.173-0.0529-0.173-0.152v-0.931c0.162-0.116 0.335-0.173 0.399-0.173 0.141 0 0.176 0.06 0.176 0.335v0.769c0 0.0988-0.0635 0.123-0.169 0.152l-0.0247 0.0071c-0.0176 0.0035-0.0282 0.0106-0.0282 0.0318v0.0811l7e-3 0.0071s0.279-0.0071 0.402-0.0071c0.138 0 0.434 0.0071 0.434 0.0071l7e-3 -0.0071v-0.0811c0-0.0212-0.0176-0.0282-0.0282-0.0318l-0.0388-0.0071c-0.116-0.0176-0.173-0.0529-0.173-0.152zm0.538 0.0071c0 0.0988-0.0529 0.127-0.169 0.145l-0.0494 0.0071c-0.0176 0.0035-0.0282 0.0106-0.0282 0.0318v0.0811l7e-3 0.0071s0.3-0.0071 0.427-0.0071c0.138 0 0.476 0.0071 0.476 0.0071l7e-3 -0.0071v-0.0811c0-0.0212-0.0141-0.0282-0.0282-0.0318l-0.0635-0.0071c-0.113-0.0106-0.19-0.0564-0.19-0.155v-1.09h0.286c0.0635 0 0.123-0.0176 0.123-0.06v-0.0706c0-0.0212-4e-3 -0.0353-0.0705-0.0353h-0.339v-0.18c0-0.526 0.127-0.603 0.205-0.603 0.06 0 0.12 0.0353 0.18 0.148 0.0459 0.0811 0.106 0.141 0.215 0.141 0.102 0 0.162-0.0882 0.162-0.176 0-0.06-0.116-0.261-0.49-0.261-0.332 0-0.66 0.314-0.66 0.896v0.0353h-0.102c-0.12 0-0.155 0.0529-0.155 0.0811v0.0494c0 0.0247 0.0141 0.0353 0.0952 0.0353h0.162zm2.37-0.141v-0.843c0-0.141 7e-3 -0.289 7e-3 -0.289s-0.138 0.0071-0.212 0.0071c-0.0953 0-0.392-0.0071-0.392-0.0071l-0.0141 0.0071v0.106l0.0141 0.0071 0.109 0.0071c0.0635 0 0.0988 0.0564 0.0988 0.169v0.97c-0.131 0.113-0.279 0.131-0.356 0.131-0.0741 0-0.19-0.0635-0.19-0.36v-0.748c0-0.131 4e-3 -0.289 4e-3 -0.289s-0.155 0.0071-0.205 0.0071c-0.113 0-0.392-0.0071-0.392-0.0071l-0.0176 0.0071v0.106l0.0106 0.0071 0.109 0.0071c0.0811 0.0071 0.102 0.0635 0.102 0.169v0.79c0 0.247 0.0811 0.487 0.49 0.487 0.131 0 0.289-0.0529 0.455-0.159l-0.0106 0.166h0.12c0.0917-0.0529 0.176-0.0988 0.497-0.141l-4e-3 -0.109c-0.19-0.0106-0.226-0.0917-0.226-0.198zm0.545-1.58v1.71c0 0.0988-0.06 0.134-0.169 0.152l-0.0423 0.0071c-0.0176 0.0035-0.0282 0.0106-0.0282 0.0318v0.0811l7e-3 0.0071s0.296-0.0071 0.42-0.0071c0.138 0 0.434 0.0071 0.434 0.0071l7e-3 -0.0071v-0.0811c0-0.0212-0.0176-0.0282-0.0282-0.0318l-0.0388-0.0071c-0.116-0.0176-0.173-0.0529-0.173-0.152v-1.79c0-0.229 0.0106-0.37 0.0106-0.37 0-0.0247-0.0247-0.0353-0.0564-0.0353-0.0917 0.0353-0.452 0.0811-0.593 0.0917l0.0106 0.102c0 0.0106 7e-3 0.0176 0.0212 0.0176l0.113 0.0071c0.0706 0 0.106 0.0282 0.106 0.258zm1.32 0.642h-7e-3l7e-3 -0.222c0-0.0071-0.0176-0.0106-0.0247-0.0106-0.113 0.0353-0.346 0.0741-0.593 0.106l7e-3 0.12 0.145 0.0141c0.0494 0.0035 0.0776 0.0282 0.0776 0.205v0.864c0 0.0988-0.0564 0.123-0.169 0.148l-0.0318 0.0071c-0.0176 0.0071-0.0282 0.0106-0.0282 0.0318v0.0811l7e-3 0.0071s0.286-0.0071 0.409-0.0071c0.138 0 0.406 0.0071 0.406 0.0071l7e-3 -0.0071v-0.0811c0-0.0212-0.0176-0.0282-0.0282-0.0318l-0.0141-0.0035c-0.109-0.0247-0.169-0.0564-0.169-0.152v-0.935c0.173-0.109 0.321-0.166 0.427-0.166 0.127 0 0.148 0.106 0.148 0.346v0.755c0 0.0988-0.06 0.127-0.169 0.152l-0.0141 0.0035c-0.0176 0.0071-0.0282 0.0106-0.0282 0.0318v0.0811l7e-3 0.0071s0.268-0.0071 0.395-0.0071c0.138 0 0.42 0.0071 0.42 0.0071l7e-3 -0.0071v-0.0811c0-0.0212-0.0176-0.0282-0.0282-0.0318l-0.0282-0.0071c-0.109-0.0247-0.173-0.0494-0.173-0.148v-0.73c0-0.321-0.0529-0.568-0.43-0.568-0.169 0-0.353 0.0847-0.533 0.222zm1.7 0.339c0.0494-0.36 0.258-0.413 0.332-0.413 0.0952 0 0.24 0.0917 0.24 0.374 0 0.0212 0 0.0318-7e-3 0.0388zm0.857 0.621c-0.131 0.159-0.261 0.222-0.395 0.222-0.275 0-0.48-0.265-0.48-0.61v-0.0917h0.857c0.0847 0 0.138-0.0247 0.138-0.0741 0-0.3-0.123-0.628-0.642-0.628-0.37 0-0.758 0.328-0.758 0.868 0 0.388 0.212 0.734 0.748 0.734 0.243 0 0.49-0.0811 0.621-0.346zm0.256-0.131c0.0247 0.183 0.0423 0.339 0.0423 0.508 0.183-0.0035 0.335 0.0423 0.504 0.0423 0.272 0 0.61-0.12 0.61-0.455 0-0.275-0.25-0.427-0.554-0.54-0.145-0.0529-0.194-0.134-0.194-0.258 0-0.141 0.102-0.201 0.198-0.201 0.159 0 0.272 0.0811 0.342 0.328l0.138-0.0176c-0.0106-0.127-0.0247-0.254-0.0388-0.36-0.138-0.067-0.258-0.0988-0.452-0.0988-0.321 0-0.55 0.19-0.55 0.434 0 0.282 0.31 0.462 0.487 0.526 0.194 0.067 0.233 0.138 0.233 0.275 0 0.162-0.113 0.229-0.208 0.229-0.265 0-0.353-0.116-0.416-0.42zm1.31 0c0.0247 0.183 0.0423 0.339 0.0423 0.508 0.183-0.0035 0.335 0.0423 0.504 0.0423 0.272 0 0.61-0.12 0.61-0.455 0-0.275-0.25-0.427-0.554-0.54-0.145-0.0529-0.194-0.134-0.194-0.258 0-0.141 0.102-0.201 0.198-0.201 0.159 0 0.272 0.0811 0.342 0.328l0.138-0.0176c-0.0106-0.127-0.0247-0.254-0.0388-0.36-0.138-0.067-0.258-0.0988-0.452-0.0988-0.321 0-0.55 0.19-0.55 0.434 0 0.282 0.31 0.462 0.487 0.526 0.194 0.067 0.233 0.138 0.233 0.275 0 0.162-0.113 0.229-0.208 0.229-0.265 0-0.353-0.116-0.416-0.42z"/>
   <path d="m104 21.7c-0.0106-0.0988 0.0494-0.155 0.194-0.155h0.0494c0.0176 0 0.0282-0.0106 0.0282-0.0282v-0.0847l-7e-3 -0.0035h-0.547c-0.219 0.547-0.448 1.17-0.67 1.72l-0.723-1.72h-0.596l-7e-3 0.0035v0.0847c0 0.0176 0.0141 0.0282 0.0318 0.0282h0.0494c0.138 0 0.162 0.0388 0.159 0.155l-0.0988 1.74c-7e-3 0.113-0.0811 0.155-0.222 0.155h-0.0353c-0.0141 0-0.0282 0.0106-0.0282 0.0318v0.0811l7e-3 0.0071s0.236-0.0071 0.374-0.0071c0.123 0 0.381 0.0071 0.381 0.0071l7e-3 -0.0071v-0.0811c0-0.0212-0.0106-0.0318-0.0282-0.0318h-0.0494c-0.145 0-0.19-0.0423-0.183-0.155l0.0741-1.32c0.258 0.603 0.653 1.56 0.653 1.56 0.0176 0.0494 0.0741 0.067 0.106 0.067 0.0564 0 0.0847-0.0318 0.102-0.067 0 0 0.42-1.03 0.631-1.55l0.109 1.31c0.0106 0.109-0.0353 0.155-0.176 0.155h-0.0494c-0.0141 0-0.0282 0.0106-0.0282 0.0318v0.0811l7e-3 0.0071s0.293-0.0071 0.43-0.0071c0.123 0 0.473 0.0071 0.473 0.0071l7e-3 -0.0071v-0.0811c0-0.0212-0.0106-0.0318-0.0282-0.0318h-0.0494c-0.145 0-0.183-0.0564-0.194-0.155zm0.944 1c0.0494-0.36 0.258-0.413 0.332-0.413 0.0952 0 0.24 0.0917 0.24 0.374 0 0.0212 0 0.0318-7e-3 0.0388zm0.857 0.621c-0.131 0.159-0.261 0.222-0.395 0.222-0.275 0-0.48-0.265-0.48-0.61v-0.0917h0.857c0.0847 0 0.138-0.0247 0.138-0.0741 0-0.3-0.123-0.628-0.642-0.628-0.37 0-0.758 0.328-0.758 0.868 0 0.388 0.212 0.734 0.748 0.734 0.243 0 0.49-0.0811 0.621-0.346zm1.13 0.215h7e-3c0.0423 0.138 0.134 0.205 0.346 0.205 0.194 0 0.328-0.152 0.328-0.169 0-0.0247-0.0317-0.0706-0.0459-0.0706-0.0212 0-0.0247 0.0564-0.109 0.0564-0.138 0-0.141-0.134-0.141-0.296v-0.512c0-0.508-0.289-0.61-0.579-0.61-0.258 0-0.628 0.183-0.628 0.395 0 0.0917 0.0388 0.148 0.166 0.148 0.0988 0 0.183-0.0847 0.183-0.134 0-0.0423-0.0212-0.0811-0.0212-0.152 0-0.0776 0.116-0.123 0.25-0.123 0.148 0 0.247 0.0776 0.247 0.526l-0.254 0.0741c-0.367 0.109-0.614 0.219-0.614 0.497 0 0.243 0.116 0.37 0.423 0.37 0.148 0 0.303-0.0847 0.441-0.205zm4e-3 -0.131c-0.0882 0.0706-0.212 0.141-0.275 0.141-0.169 0-0.222-0.106-0.222-0.229 0-0.145 0.0459-0.25 0.296-0.325l0.201-0.06zm0.714-0.215c0.0247 0.183 0.0423 0.339 0.0423 0.508 0.183-0.0035 0.335 0.0423 0.504 0.0423 0.272 0 0.61-0.12 0.61-0.455 0-0.275-0.25-0.427-0.554-0.54-0.145-0.0529-0.194-0.134-0.194-0.258 0-0.141 0.102-0.201 0.198-0.201 0.159 0 0.272 0.0811 0.342 0.328l0.138-0.0176c-0.0106-0.127-0.0247-0.254-0.0388-0.36-0.138-0.067-0.258-0.0988-0.452-0.0988-0.321 0-0.55 0.19-0.55 0.434 0 0.282 0.31 0.462 0.487 0.526 0.194 0.067 0.233 0.138 0.233 0.275 0 0.162-0.113 0.229-0.208 0.229-0.265 0-0.353-0.116-0.416-0.42zm2.81 0.109v-0.843c0-0.141 7e-3 -0.289 7e-3 -0.289s-0.138 0.0071-0.212 0.0071c-0.0952 0-0.392-0.0071-0.392-0.0071l-0.0141 0.0071v0.106l0.0141 0.0071 0.109 0.0071c0.0635 0 0.0988 0.0564 0.0988 0.169v0.97c-0.131 0.113-0.279 0.131-0.356 0.131-0.0741 0-0.19-0.0635-0.19-0.36v-0.748c0-0.131 4e-3 -0.289 4e-3 -0.289s-0.155 0.0071-0.205 0.0071c-0.113 0-0.392-0.0071-0.392-0.0071l-0.0176 0.0071v0.106l0.0106 0.0071 0.109 0.0071c0.0811 0.0071 0.102 0.0635 0.102 0.169v0.79c0 0.247 0.0811 0.487 0.49 0.487 0.131 0 0.289-0.0529 0.455-0.159l-0.0106 0.166h0.12c0.0917-0.0529 0.176-0.0988 0.497-0.141l-4e-3 -0.109c-0.19-0.0106-0.226-0.0917-0.226-0.198zm0.94-0.938h-7e-3l7e-3 -0.222c0-0.0071-0.0176-0.0106-0.0247-0.0106-0.113 0.0353-0.346 0.0741-0.593 0.106l7e-3 0.12 0.145 0.0141c0.0494 0.0035 0.0776 0.0282 0.0776 0.205v0.861c0 0.0952-0.06 0.131-0.169 0.152l-0.0353 0.0071c-0.0141 0.0035-0.0247 0.0106-0.0247 0.0318v0.0811l7e-3 0.0071s0.282-0.0071 0.409-0.0071c0.138 0 0.42 0.0071 0.42 0.0071l7e-3 -0.0071v-0.0811c0-0.0212-0.0176-0.0282-0.0282-0.0318l-0.0282-0.0071c-0.109-0.0247-0.169-0.0529-0.169-0.152v-0.744c0-0.123 0.0388-0.208 0.0917-0.247 0.0423-0.0282 0.0706-0.0459 0.127-0.0459 0.0635 0 0.12 0.141 0.261 0.141 0.102 0 0.176-0.0882 0.176-0.201 0-0.0917-0.0776-0.198-0.205-0.198-0.123 0-0.275 0.0423-0.452 0.222zm1.11 0.339c0.0494-0.36 0.258-0.413 0.332-0.413 0.0952 0 0.24 0.0917 0.24 0.374 0 0.0212 0 0.0318-7e-3 0.0388zm0.857 0.621c-0.131 0.159-0.261 0.222-0.395 0.222-0.275 0-0.48-0.265-0.48-0.61v-0.0917h0.857c0.0847 0 0.138-0.0247 0.138-0.0741 0-0.3-0.123-0.628-0.642-0.628-0.37 0-0.758 0.328-0.758 0.868 0 0.388 0.212 0.734 0.748 0.734 0.243 0 0.49-0.0811 0.621-0.346zm1.13 0.215h7e-3c0.0423 0.138 0.134 0.205 0.346 0.205 0.194 0 0.328-0.152 0.328-0.169 0-0.0247-0.0317-0.0706-0.0459-0.0706-0.0212 0-0.0247 0.0564-0.109 0.0564-0.138 0-0.141-0.134-0.141-0.296v-0.512c0-0.508-0.289-0.61-0.579-0.61-0.258 0-0.628 0.183-0.628 0.395 0 0.0917 0.0388 0.148 0.166 0.148 0.0988 0 0.183-0.0847 0.183-0.134 0-0.0423-0.0212-0.0811-0.0212-0.152 0-0.0776 0.116-0.123 0.25-0.123 0.148 0 0.247 0.0776 0.247 0.526l-0.254 0.0741c-0.367 0.109-0.614 0.219-0.614 0.497 0 0.243 0.116 0.37 0.423 0.37 0.148 0 0.303-0.0847 0.441-0.205zm4e-3 -0.131c-0.0882 0.0706-0.212 0.141-0.275 0.141-0.169 0-0.222-0.106-0.222-0.229 0-0.145 0.0459-0.25 0.296-0.325l0.201-0.06zm1.23 0.102v-1.08c0.116-0.0741 0.187-0.109 0.272-0.109 0.173 0 0.325 0.265 0.325 0.61 0 0.392-0.141 0.667-0.42 0.667-0.0635 0-0.116-0.0212-0.176-0.0882zm-0.388-1.79v1.73c0 0.134-4e-3 0.201-0.0141 0.286l0.12 0.0212 0.106-0.187c0.0847 0.0988 0.215 0.176 0.37 0.176 0.392 0 0.808-0.328 0.808-0.893 0-0.434-0.296-0.709-0.642-0.709-0.134 0-0.258 0.0741-0.36 0.148v-0.639c0-0.229 0.0106-0.37 0.0106-0.37 0-0.0247-0.0247-0.0353-0.0564-0.0353-0.0917 0.0353-0.452 0.0811-0.593 0.0917l0.0106 0.102c0 0.0106 7e-3 0.0176 0.0212 0.0176l0.113 0.0071c0.0706 0 0.106 0.0282 0.106 0.258zm1.76 0v1.71c0 0.0988-0.06 0.134-0.169 0.152l-0.0423 0.0071c-0.0176 0.0035-0.0282 0.0106-0.0282 0.0318v0.0811l7e-3 0.0071s0.296-0.0071 0.42-0.0071c0.138 0 0.434 0.0071 0.434 0.0071l7e-3 -0.0071v-0.0811c0-0.0212-0.0176-0.0282-0.0282-0.0318l-0.0388-0.0071c-0.116-0.0176-0.173-0.0529-0.173-0.152v-1.79c0-0.229 0.0106-0.37 0.0106-0.37 0-0.0247-0.0247-0.0353-0.0564-0.0353-0.0917 0.0353-0.452 0.0811-0.593 0.0917l0.0106 0.102c0 0.0106 7e-3 0.0176 0.0212 0.0176l0.113 0.0071c0.0705 0 0.106 0.0282 0.106 0.258zm1.13 0.981c0.0494-0.36 0.258-0.413 0.332-0.413 0.0953 0 0.24 0.0917 0.24 0.374 0 0.0212 0 0.0318-7e-3 0.0388zm0.857 0.621c-0.131 0.159-0.261 0.222-0.395 0.222-0.275 0-0.48-0.265-0.48-0.61v-0.0917h0.857c0.0847 0 0.138-0.0247 0.138-0.0741 0-0.3-0.123-0.628-0.642-0.628-0.37 0-0.758 0.328-0.758 0.868 0 0.388 0.212 0.734 0.748 0.734 0.243 0 0.49-0.0811 0.621-0.346z"/>
   <path d="m108 25.2c-0.0106-0.0988 0.0494-0.155 0.194-0.155h0.0494c0.0176 0 0.0282-0.0106 0.0282-0.0282v-0.0847l-7e-3 -0.0035h-0.547c-0.219 0.547-0.448 1.17-0.67 1.72l-0.723-1.72h-0.596l-7e-3 0.0035v0.0847c0 0.0176 0.0141 0.0282 0.0318 0.0282h0.0494c0.138 0 0.162 0.0388 0.159 0.155l-0.0988 1.74c-7e-3 0.113-0.0811 0.155-0.222 0.155h-0.0353c-0.0141 0-0.0282 0.0106-0.0282 0.0318v0.0811l7e-3 0.0071s0.236-0.0071 0.374-0.0071c0.123 0 0.381 0.0071 0.381 0.0071l7e-3 -0.0071v-0.0811c0-0.0212-0.0106-0.0318-0.0282-0.0318h-0.0494c-0.145 0-0.19-0.0423-0.183-0.155l0.0741-1.32c0.258 0.603 0.653 1.56 0.653 1.56 0.0176 0.0494 0.0741 0.067 0.106 0.067 0.0564 0 0.0847-0.0318 0.102-0.067 0 0 0.42-1.03 0.631-1.55l0.109 1.31c0.0106 0.109-0.0353 0.155-0.176 0.155h-0.0494c-0.0141 0-0.0282 0.0106-0.0282 0.0318v0.0811l7e-3 0.0071s0.293-0.0071 0.43-0.0071c0.123 0 0.473 0.0071 0.473 0.0071l7e-3 -0.0071v-0.0811c0-0.0212-0.0106-0.0318-0.0282-0.0318h-0.0494c-0.145 0-0.183-0.0564-0.194-0.155zm1.28 0.586c0.24 0 0.402 0.268 0.402 0.773 0 0.448-0.187 0.533-0.314 0.533-0.289 0-0.42-0.43-0.42-0.691 0-0.3 0.106-0.614 0.332-0.614zm-0.762 0.691c0 0.363 0.275 0.766 0.794 0.766 0.547 0 0.797-0.441 0.797-0.797 0-0.37-0.219-0.804-0.794-0.804-0.512 0-0.797 0.353-0.797 0.836zm2.81-0.48v0.914c-0.127 0.12-0.205 0.155-0.275 0.155-0.201 0-0.367-0.198-0.367-0.642 0-0.512 0.219-0.635 0.363-0.635 0.109 0 0.201 0.0917 0.279 0.208zm0.388-0.847c0-0.229 0.0106-0.37 0.0106-0.37 0-0.0247-0.0247-0.0353-0.0564-0.0353-0.0917 0.0353-0.452 0.0811-0.593 0.0917l0.0106 0.102c0 0.0106 7e-3 0.0176 0.0212 0.0176l0.113 0.0071c0.0705 0 0.106 0.0282 0.106 0.258v0.508c-0.0494-0.0494-0.173-0.0882-0.229-0.0882-0.272 0-0.434 0.0776-0.579 0.212-0.162 0.162-0.24 0.381-0.24 0.631 0 0.437 0.31 0.758 0.684 0.758 0.148 0 0.236-0.0423 0.37-0.159l-7e-3 0.166h0.12c0.116-0.06 0.268-0.116 0.501-0.141l-7e-3 -0.109c-0.187-0.0176-0.226-0.0917-0.226-0.198zm0.736 1.05c0.0494-0.36 0.258-0.413 0.332-0.413 0.0953 0 0.24 0.0917 0.24 0.374 0 0.0212 0 0.0318-7e-3 0.0388zm0.857 0.621c-0.131 0.159-0.261 0.222-0.395 0.222-0.275 0-0.48-0.265-0.48-0.61v-0.0917h0.857c0.0847 0 0.138-0.0247 0.138-0.0741 0-0.3-0.123-0.628-0.642-0.628-0.37 0-0.758 0.328-0.758 0.868 0 0.388 0.212 0.734 0.748 0.734 0.243 0 0.49-0.0811 0.621-0.346zm0.46-1.6v1.71c0 0.0988-0.06 0.134-0.169 0.152l-0.0423 0.0071c-0.0176 0.0035-0.0282 0.0106-0.0282 0.0318v0.0811l7e-3 0.0071s0.296-0.0071 0.42-0.0071c0.138 0 0.434 0.0071 0.434 0.0071l7e-3 -0.0071v-0.0811c0-0.0212-0.0176-0.0282-0.0282-0.0318l-0.0388-0.0071c-0.116-0.0176-0.173-0.0529-0.173-0.152v-1.79c0-0.229 0.0106-0.37 0.0106-0.37 0-0.0247-0.0247-0.0353-0.0564-0.0353-0.0917 0.0353-0.452 0.0811-0.593 0.0917l0.0106 0.102c0 0.0106 7e-3 0.0176 0.0212 0.0176l0.113 0.0071c0.0705 0 0.106 0.0282 0.106 0.258z"/>
  </g>
 </g>
</svg>
